<svg xmlns="http://www.w3.org/2000/svg" width="16" height="17" viewBox="0 0 16 17" fill="none">
  <g clip-path="url(#clip0_150_2640)">
    <path d="M14.294 2.59569L5.09403 11.7957L1.70703 8.42169C1.66803 8.38269 1.62173 8.35174 1.57077 8.33064C1.51981 8.30953 1.46519 8.29866 1.41003 8.29866C1.35487 8.29866 1.30025 8.30953 1.24929 8.33064C1.19833 8.35174 1.15203 8.38269 1.11303 8.42169L0.12303 9.41169C0.0840246 9.45069 0.0530844 9.49699 0.0319748 9.54795C0.0108651 9.59891 0 9.65353 0 9.70869C0 9.76385 0.0108651 9.81847 0.0319748 9.86943C0.0530844 9.92039 0.0840246 9.96669 0.12303 10.0057L4.79203 14.6747C4.83103 14.7137 4.87734 14.7446 4.9283 14.7657C4.97925 14.7869 5.03387 14.7977 5.08903 14.7977C5.14419 14.7977 5.19881 14.7869 5.24977 14.7657C5.30073 14.7446 5.34703 14.7137 5.38603 14.6747L15.878 4.17969C15.917 4.14069 15.948 4.09439 15.9691 4.04343C15.9902 3.99247 16.0011 3.93785 16.0011 3.88269C16.0011 3.82753 15.9902 3.77291 15.9691 3.72195C15.948 3.67099 15.917 3.62469 15.878 3.58569L14.888 2.59569C14.849 2.55668 14.8027 2.52574 14.7518 2.50463C14.7008 2.48352 14.6462 2.47266 14.591 2.47266C14.5359 2.47266 14.4813 2.48352 14.4303 2.50463C14.3793 2.52574 14.333 2.55668 14.294 2.59569Z" fill="#0055FF"/>
  </g>
  <defs>
    <clipPath id="clip0_150_2640">
      <rect width="16" height="16" fill="white" transform="translate(0 0.472656)"/>
    </clipPath>
  </defs>
</svg>