<svg xmlns="http://www.w3.org/2000/svg" width="15" height="15" viewBox="0 0 15 15" fill="none">
<circle opacity="0.5" cx="7.5" cy="7.5" r="7.5" fill="#525252"/>
<path d="M6.88867 9.78125H8.05469V11H6.88867V9.78125ZM4.91406 5.08789C4.91406 4.24414 5.15234 3.56641 5.62891 3.05469C6.10547 2.53906 6.75977 2.28125 7.5918 2.28125C8.36133 2.28125 8.97656 2.50195 9.4375 2.94336C9.90234 3.38086 10.1348 3.94141 10.1348 4.625C10.1348 5.03906 10.0488 5.375 9.87695 5.63281C9.70898 5.89062 9.36719 6.26953 8.85156 6.76953C8.47656 7.13281 8.23242 7.44141 8.11914 7.69531C8.00977 7.94531 7.95508 8.31641 7.95508 8.80859H6.91211C6.91211 8.25 6.97852 7.80078 7.11133 7.46094C7.24414 7.11719 7.53516 6.72461 7.98438 6.2832L8.45312 5.82031C8.59375 5.6875 8.70703 5.54883 8.79297 5.4043C8.94922 5.15039 9.02734 4.88672 9.02734 4.61328C9.02734 4.23047 8.91211 3.89844 8.68164 3.61719C8.45508 3.33594 8.07812 3.19531 7.55078 3.19531C6.89844 3.19531 6.44727 3.4375 6.19727 3.92188C6.05664 4.19141 5.97656 4.58008 5.95703 5.08789H4.91406Z" fill="white"/>
</svg>