<svg aria-hidden="true" xmlns="http://www.w3.org/2000/svg" xmlns:xlink="http://www.w3.org/1999/xlink"><symbol viewBox="0 0 14 24" id="arrow-slider-left-1" xmlns="http://www.w3.org/2000/svg">
<path d="M12.4599 23.8095L13.5329 22.7365C13.7869 22.4825 13.7869 22.0707 13.5329 21.8167L3.73956 12L13.5329 2.18328C13.7869 1.92933 13.7869 1.51753 13.5329 1.26351L12.4599 0.190466C12.2059 -0.0635033 11.7941 -0.0635033 11.5401 0.190466L0.190461 11.5401C-0.063509 11.7941 -0.063509 12.2058 0.190461 12.4599L11.5401 23.8095C11.7941 24.0635 12.2059 24.0635 12.4599 23.8095V23.8095Z"/>
</symbol><symbol viewBox="0 0 15 24" id="arrow-slider-right-1" xmlns="http://www.w3.org/2000/svg">
<path id="bDRILL DOWN - chevron-right-regular" d="M1.98716 0.190525L0.91411 1.26351C0.66014 1.51749 0.66014 1.92928 0.91411 2.1833L10.7075 12L0.91411 21.8167C0.66014 22.0707 0.66014 22.4825 0.91411 22.7365L1.98716 23.8095C2.24113 24.0635 2.65292 24.0635 2.90694 23.8095L14.2566 12.4599C14.5105 12.2059 14.5105 11.7942 14.2566 11.5401L2.90694 0.190515C2.65292 -0.063505 2.24113 -0.063505 1.98716 0.190515V0.190525Z"/>
</symbol><symbol viewBox="0 0 16 17" id="form-error" xmlns="http://www.w3.org/2000/svg">
<path d="M10 13.9727C10 12.5977 8.875 11.4727 7.5 11.4727C6.09375 11.4727 5 12.5977 5 13.9727C5 15.3789 6.09375 16.4727 7.5 16.4727C8.875 16.4727 10 15.3789 10 13.9727ZM5.28125 1.28516L5.6875 9.78516C5.71875 10.1602 6.0625 10.4727 6.4375 10.4727H8.53125C8.90625 10.4727 9.25 10.1602 9.28125 9.78516L9.6875 1.28516C9.71875 0.847656 9.375 0.472656 8.9375 0.472656H6.03125C5.59375 0.472656 5.25 0.847656 5.28125 1.28516Z"/>
</symbol><symbol viewBox="0 0 30 29" id="phone-header" xmlns="http://www.w3.org/2000/svg">
<path d="M22.6468 28.4657C21.0671 28.4657 19.4035 28.1149 17.6841 27.4394C16.0065 26.7768 14.315 25.8675 12.6654 24.7632C11.0298 23.646 9.45014 22.3988 7.95433 21.0347C6.47251 19.6447 5.13048 18.1767 3.94222 16.6697C2.73998 15.1108 1.7754 13.5518 1.0904 12.0449C0.363467 10.4339 0 8.875 0 7.407C0 6.39369 0.195713 5.43234 0.573159 4.53595C0.964585 3.61358 1.59366 2.75616 2.44641 2.01566C3.52283 1.02833 4.75303 0.534668 6.0671 0.534668C6.6123 0.534668 7.17148 0.651589 7.64678 0.859447C8.19198 1.09329 8.65331 1.44405 8.98882 1.91173L12.2321 6.15985C12.5256 6.53659 12.7493 6.90035 12.9031 7.2641C13.0848 7.65383 13.1827 8.04357 13.1827 8.42031C13.1827 8.91398 13.0289 9.39465 12.7353 9.84934C12.5256 10.2001 12.2041 10.5768 11.7987 10.9536L10.8481 11.876C10.8621 11.9149 10.876 11.9409 10.89 11.9669C11.0578 12.2397 11.3933 12.7074 12.0363 13.4089C12.7213 14.1364 13.3644 14.799 14.0075 15.4096C14.8322 16.1631 15.5172 16.7607 16.1603 17.2543C16.9571 17.8779 17.4744 18.1897 17.7819 18.3326L17.754 18.3975L18.7745 17.4622C19.2078 17.0594 19.6272 16.7606 20.0326 16.5658C20.8015 16.1241 21.7801 16.0461 22.7586 16.4229C23.1221 16.5658 23.5135 16.7606 23.9329 17.0335L28.5741 20.0994C29.0913 20.4242 29.4688 20.8399 29.6925 21.3335C29.9021 21.8272 30 22.2819 30 22.7366C30 23.3602 29.8462 23.9837 29.5527 24.5683C29.2591 25.153 28.8956 25.6596 28.4343 26.1273C27.6375 26.9457 26.7707 27.5303 25.7642 27.9071C24.7996 28.2708 23.7512 28.4657 22.6468 28.4657ZM6.0671 2.48334C5.29823 2.48334 4.58527 2.79513 3.90028 3.41871C3.25722 3.97733 2.80988 4.58792 2.53029 5.25047C2.23672 5.92601 2.09692 6.64052 2.09692 7.407C2.09692 8.61518 2.40447 9.92729 3.01957 11.2784C3.64865 12.6554 4.52936 14.0845 5.64772 15.5135C6.76608 16.9425 8.03821 18.3326 9.43616 19.6447C10.8341 20.9308 12.3439 22.126 13.8956 23.1783C15.4054 24.2046 16.9571 25.036 18.4949 25.6336C20.8854 26.582 23.1221 26.8028 24.9674 26.0883C25.6803 25.8155 26.3094 25.3998 26.8826 24.8022C27.2041 24.4774 27.4557 24.1266 27.6654 23.7109C27.8332 23.3862 27.9171 23.0484 27.9171 22.7106C27.9171 22.5028 27.8751 22.2949 27.7633 22.0611C27.7213 21.9831 27.6375 21.8402 27.3719 21.6713L22.7307 18.6054C22.4511 18.4235 22.1994 18.2936 21.9618 18.2027C21.6542 18.0858 21.5284 17.9688 21.0531 18.2416C20.7735 18.3716 20.5219 18.5664 20.2423 18.8262L19.1799 19.8006C18.6347 20.2943 17.7959 20.4112 17.1528 20.1903L16.7754 20.0344C16.2022 19.7486 15.5312 19.3069 14.7903 18.7223C14.1193 18.1897 13.3924 17.5661 12.5116 16.7606C11.8267 16.1111 11.1417 15.4226 10.4287 14.6561C9.77167 13.9416 9.29637 13.331 9.0028 12.8243L8.83504 12.4346C8.75117 12.1358 8.72321 11.9669 8.72321 11.785C8.72321 11.3173 8.90494 10.9016 9.25443 10.5768L10.3029 9.56354C10.5825 9.30371 10.7922 9.05688 10.932 8.83603C11.0438 8.66715 11.0857 8.52424 11.0857 8.39433C11.0857 8.2904 11.0438 8.13451 10.9739 7.97861C10.876 7.77075 10.7223 7.53691 10.5266 7.29008L7.28332 3.02897C7.14352 2.8471 6.97577 2.71719 6.76608 2.62625C6.5424 2.53531 6.30475 2.48334 6.0671 2.48334ZM17.754 18.4105L17.5303 19.2939L17.9077 18.3845C17.8378 18.3716 17.7819 18.3845 17.754 18.4105Z"/>
</symbol></svg>