<svg width="16" height="16" viewBox="0 0 16 16" fill="none" xmlns="http://www.w3.org/2000/svg">
<g id="Group 1877">
<path id="TICK - check-regular" d="M14.294 2.12303L5.09403 11.323L1.70703 7.94904C1.66803 7.91003 1.62173 7.87909 1.57077 7.85798C1.51981 7.83687 1.46519 7.826 1.41003 7.826C1.35487 7.826 1.30025 7.83687 1.24929 7.85798C1.19833 7.87909 1.15203 7.91003 1.11303 7.94904L0.12303 8.93903C0.0840246 8.97803 0.0530844 9.02433 0.0319748 9.07529C0.0108651 9.12625 0 9.18087 0 9.23603C0 9.29119 0.0108651 9.34581 0.0319748 9.39677C0.0530844 9.44773 0.0840246 9.49403 0.12303 9.53304L4.79203 14.202C4.83103 14.241 4.87734 14.272 4.9283 14.2931C4.97925 14.3142 5.03387 14.3251 5.08903 14.3251C5.14419 14.3251 5.19881 14.3142 5.24977 14.2931C5.30073 14.272 5.34703 14.241 5.38603 14.202L15.878 3.70703C15.917 3.66803 15.948 3.62173 15.9691 3.57077C15.9902 3.51981 16.0011 3.46519 16.0011 3.41003C16.0011 3.35488 15.9902 3.30026 15.9691 3.2493C15.948 3.19834 15.917 3.15204 15.878 3.11304L14.888 2.12303C14.849 2.08403 14.8027 2.05308 14.7518 2.03197C14.7008 2.01087 14.6462 2 14.591 2C14.5359 2 14.4813 2.01087 14.4303 2.03197C14.3793 2.05308 14.333 2.08403 14.294 2.12303Z" fill="#0055FF"/>
</g>
</svg>
