<svg width="500" height="373" viewBox="0 0 500 373" fill="none" xmlns="http://www.w3.org/2000/svg">
<g clip-path="url(#clip0_163_3150)">
<path d="M250 373C357.143 373 444 368.351 444 362C444 355.649 357.143 350 250 350C142.857 350 56 355.649 56 362C56 368.351 142.857 373 250 373Z" fill="#92E3A9"/>
<path d="M237 283H44C40.8426 283 38 280.152 38 277V6C38 2.84833 40.8426 0 44 0H237C240.157 0 243 2.84833 243 6V277C243 280.152 240.157 283 237 283ZM44 0C40.9829 0 38 2.9884 38 6V277C38 280.012 40.9829 283 44 283H237C240.017 283 243 280.012 243 277V6C243 2.9884 240.017 0 237 0H44Z" fill="#EBEBEB"/>
<path d="M454 283H261C257.843 283 255 280.152 255 277V6C255 2.84833 257.843 0 261 0H454C457.157 0 460 2.84833 460 6V277C460 280.152 457.157 283 454 283ZM261 0C257.983 0 255 2.9884 255 6V277C255 280.012 257.983 283 261 283H454C457.017 283 460 280.012 460 277V6C460 2.9884 457.017 0 454 0H261Z" fill="#EBEBEB"/>
<path d="M118 263V278L112 282H140L131 279V264L118 263Z" fill="white"/>
<path d="M118.277 278.416L118.5 278.268V278V263.54L130.5 264.463V279V279.36L130.842 279.474L136.919 281.5H113.651L118.277 278.416Z" stroke="black"/>
<path d="M69 281V326H194V281H69ZM192 299H94V284H192V299Z" fill="white"/>
<path d="M192 299.5H192.5V299V284V283.5H192H94H93.5V284V299V299.5H94H192ZM193.5 325.5H69.5V281.5H193.5V325.5Z" stroke="black"/>
<path d="M91 281V326H194V281H91ZM192 299H94V284H192V299Z" fill="#EBEBEB"/>
<path d="M192 299.5H192.5V299V284V283.5H192H94H93.5V284V299V299.5H94H192ZM193.5 325.5H91.5V281.5H193.5V325.5Z" stroke="black"/>
<path d="M172.5 298.5V284.5H191.5V298.5H172.5Z" fill="white" stroke="black"/>
<path d="M94.5 297.5V291.5H118.5V297.5H94.5Z" fill="white" stroke="black"/>
<path d="M121.5 297.5V294.5H139.5V297.5H121.5Z" fill="white" stroke="black"/>
<path d="M144.5 298.5V290.5H161.5V298.5H144.5Z" fill="white" stroke="black"/>
<path d="M111 302V304H104L103 302H94V321H125V302H111Z" fill="white"/>
<path d="M111 304.5H111.5V304V302.5H124.5V320.5H94.5V302.5H102.691L103.553 304.224L103.691 304.5H104H111Z" stroke="black"/>
<path d="M149 302L148 304H141V302H127V321H158V302H149Z" fill="white"/>
<path d="M148 304.5H148.309L148.447 304.224L149.309 302.5H157.5V320.5H127.5V302.5H140.5V304V304.5H141H148Z" stroke="black"/>
<path d="M177 302V304H170L169 302H160V321H191V302H177Z" fill="white"/>
<path d="M177 304.5H177.5V304V302.5H190.5V320.5H160.5V302.5H168.691L169.553 304.224L169.691 304.5H170H177Z" stroke="black"/>
<path d="M83 211.5H175C175.807 211.5 176.687 211.928 177.378 212.616C178.068 213.304 178.5 214.184 178.5 215V268C178.5 268.816 178.068 269.696 177.378 270.384C176.687 271.072 175.807 271.5 175 271.5H83C82.1927 271.5 81.3127 271.072 80.6223 270.384C79.932 269.696 79.5 268.816 79.5 268V215C79.5 214.184 79.932 213.304 80.6223 212.616C81.3127 211.928 82.1927 211.5 83 211.5Z" fill="white" stroke="black"/>
<path d="M85 211.5H177C177.807 211.5 178.687 211.928 179.378 212.616C180.068 213.304 180.5 214.184 180.5 215V268C180.5 268.816 180.068 269.696 179.378 270.384C178.687 271.072 177.807 271.5 177 271.5H85C84.1927 271.5 83.3127 271.072 82.6223 270.384C81.932 269.696 81.5 268.816 81.5 268V215C81.5 214.184 81.932 213.304 82.6223 212.616C83.3127 211.928 84.1927 211.5 85 211.5Z" fill="white" stroke="black"/>
<path d="M84.5 214.5H177.5V268.5H84.5V214.5Z" fill="#F0F0F0" stroke="black"/>
<path d="M311 206H400C409.733 206 418 213.345 418 223V293H293V223C293 213.345 301.267 206 311 206Z" fill="#00812A"/>
<path d="M266 258H283C288.783 258 293 262.253 293 268V326H256V268C256 262.253 260.217 258 266 258Z" fill="#00812A"/>
<path d="M266 258H267C272.705 258 277 262.253 277 268V326H256V268C256 262.253 260.295 258 266 258Z" fill="#92E3A9"/>
<path d="M405 299H282V326H405V299Z" fill="#00812A"/>
<path d="M400 275H282C276.124 275 271 280.107 271 286V292C271 297.893 276.124 303 282 303H400C405.876 303 411 297.893 411 292V286C411 280.107 405.876 275 400 275Z" fill="#DBFEDA"/>
<path d="M400 275H386C380.127 275 375 280.107 375 286V292C375 297.893 380.127 303 386 303H400C405.873 303 411 297.893 411 292V286C411 280.107 405.873 275 400 275Z" fill="#00812A"/>
<path d="M401 258H418C423.783 258 428 262.253 428 268V326H391V268C391 262.253 395.217 258 401 258Z" fill="#00812A"/>
<path d="M401 258H402C407.705 258 412 262.253 412 268V326H391V268C391 262.253 395.295 258 401 258Z" fill="#92E3A9"/>
<path d="M424.5 51.5V173.5L306.5 173.5V51.5L424.5 51.5Z" fill="white" stroke="black"/>
<path d="M420.5 51.5V173.5L302.5 173.5V51.5L420.5 51.5Z" fill="#F0F0F0" stroke="black"/>
<path d="M305.5 170.5V54.5H417.5V170.5H305.5Z" fill="#E0E0E0" stroke="black"/>
<path d="M308.5 170.5V54.5H417.5V170.5H308.5Z" fill="#F5F5F5" stroke="black"/>
<path d="M363.5 54.5V170.5H362.5V54.5H363.5Z" fill="white" stroke="black"/>
<path d="M349 54L318 171H315L346 54H349Z" fill="white"/>
<path d="M346.385 54.5H348.35L317.615 170.5H315.65L346.385 54.5Z" stroke="black"/>
<path d="M362.5 52.5V172.5H361.5V52.5H362.5Z" fill="#F0F0F0" stroke="black"/>
<path d="M338 54L308 165V104L322 54H338Z" fill="white"/>
<path d="M322.379 54.5H337.347L308.5 161.234V104.069L322.379 54.5Z" stroke="black"/>
<path d="M417 65V76L392 172H389L417 65Z" fill="white"/>
<path d="M391.614 171.5H389.648L416.5 68.8858V75.936L391.614 171.5Z" stroke="black"/>
<path d="M417 87V148L411 171H395L417 87Z" fill="white"/>
<path d="M410.614 170.5H395.648L416.5 90.8826V147.936L410.614 170.5Z" stroke="black"/>
<path d="M97 145H169V58L97 58L97 145Z" fill="#DBFEDA"/>
<path d="M113 124L151 87L110 80L113 124Z" fill="#92E3A9"/>
<path d="M150 115L152 86L124 93L122 115H150Z" fill="#F0F0F0"/>
<path d="M121.813 82.7578C126.316 78.2785 126.316 71.7215 121.813 67.2422C117.311 62.7629 110.01 62.0576 105.507 66.5369C101.005 71.0162 101.005 78.9838 105.507 83.4631C110.01 87.9424 117.311 87.2371 121.813 82.7578Z" fill="#FAFAFA"/>
<path d="M147 125C147 121.963 149.963 119 153 119C156.037 119 158 121.963 158 125C158 128.037 156.037 130 153 130C149.963 130 147 128.037 147 125Z" fill="#92E3A9"/>
<path d="M151 135L135 125L148 114L151 135Z" fill="#F5F5F5"/>
<path d="M132 69H129V138H132V69Z" fill="#92E3A9"/>
<path d="M162 69H158V135H162V69Z" fill="#00812A"/>
<path d="M125 115H104V136H125V115Z" fill="#00812A"/>
<path d="M142 279C142 279 144.195 301.372 145 304C145.805 306.628 157 320 157 320L154 322C154 322 141.881 309.643 140 306C138.119 302.357 135 283 135 283L142 279Z" fill="#EBB376"/>
<path d="M139 269C143.252 271.216 145 302 145 302L147 305L140 310C140 310 137.291 305.455 136 302C134.699 298.545 132 282 132 282L139 269Z" fill="#263238"/>
<g opacity="0.1">
<path d="M139 269C143.252 271.216 145 302 145 302L147 305L140 310C140 310 137.291 305.455 136 302C134.699 298.545 132 282 132 282L139 269Z" fill="white"/>
</g>
<path d="M139 310L146 304L148 307L141 312L139 310Z" fill="#00812A"/>
<g opacity="0.4">
<path d="M139 310L146 304L148 307L141 312L139 310Z" fill="white"/>
</g>
<path d="M123 309L130 321C144.788 317.542 192.186 309.661 198 326C205.23 346.318 152.928 363.008 124 364C95.0714 364.992 71.7114 348.391 89.9999 306L123 309Z" fill="#00812A"/>
<g opacity="0.2">
<path d="M123 309L130 321C144.788 317.542 192.186 309.661 198 326C205.23 346.318 152.928 363.008 124 364C95.0714 364.992 71.7114 348.391 89.9999 306L123 309Z" fill="black"/>
</g>
<path d="M190 355C189.93 355.044 190.06 355.055 190 355C189.94 354.956 189.97 355.066 190 355C190.09 354.649 191.024 351.329 192 351C192.211 350.945 192.849 350.824 193 351C193.282 351.252 193.07 351.605 193 352C192.839 352.57 192.432 353.638 192 354C191.447 354.494 190.634 354.638 190 355ZM191 354C191.905 353.561 192.567 352.976 193 352C193.05 351.737 192.201 351.165 192 351C191.95 350.923 192.08 350.978 192 351C191.919 351.033 192.06 351.934 192 352C191.386 352.845 191.302 352.98 191 354Z" fill="#00812A"/>
<path d="M190 355C189.922 355.021 189.045 355.052 189 355C188.899 354.917 187.754 353.187 188 352C188.056 351.698 188.731 351.167 189 351C188.731 350.833 189.235 350.792 189 351C189.784 351.51 190.392 354.115 190 355C190.034 355 190 355 190 355ZM189 352C188.866 352.115 188.034 351.833 188 352C187.843 352.75 188.586 353.458 189 354C189.246 352.99 189.459 351.302 189 351C188.955 350.979 189.235 350.844 189 351V352Z" fill="#00812A"/>
<path d="M139 360C139.045 359.934 139.921 359.981 140 360C139.989 359.934 140.079 360 140 360C140.079 360.31 140.801 363.314 140 364C139.82 364.141 139.237 364.066 139 364C138.605 363.934 138.124 363.32 138 363C137.865 362.502 137.752 362.47 138 362C138.293 361.38 138.56 360.554 139 360ZM139 361C138.323 361.742 137.932 362.079 138 363C138.079 363.226 138.729 363.972 139 364C138.932 364.056 139.09 364.028 139 364C139.068 363.944 138.966 363.075 139 363C139.18 362.098 139.214 361.902 139 361Z" fill="#00812A"/>
<path d="M158 345L146 349L140 352L142 358L147 357L161 354L158 345Z" fill="#EBB376"/>
<path d="M143 358L142 351C141.94 350.592 141.411 349.93 141 350L137 351C137 351 132.992 350.737 132 352C129.105 355.701 130.077 372.423 132 373C132.701 373.209 133.699 372.667 134 372C134.972 369.891 137.168 363.751 138 362C138.972 359.961 140.798 359.358 142 359C142.35 358.901 143.05 358.358 143 358Z" fill="#263238"/>
<path d="M139 360C138.935 359.972 139.054 359.954 139 360C139.13 360.018 141.611 360.986 142 362C142.097 362.258 142.151 362.76 142 363C141.913 363.258 141.313 363.018 141 363C140.081 362.917 139.13 360.848 139 360C139 360 138.978 360.018 139 360ZM142 362C142.054 361.862 142.065 362.138 142 362C141.751 361.355 139.616 360.258 139 360C139.292 360.875 140.47 362.954 141 363C141.054 363 140.881 362.212 141 362H142Z" fill="#00812A"/>
<g opacity="0.2">
<path d="M158 345L146 349L147 356L161 353L158 345Z" fill="black"/>
</g>
<path d="M150 358H153L151 346L147 348L150 358Z" fill="#00812A"/>
<g opacity="0.6">
<path d="M150 358H153L151 346L147 348L150 358Z" fill="white"/>
</g>
<g opacity="0.2">
<path d="M100 311L118 331C118 331 137.968 330.315 162 342C162 342 187.637 331.806 190 323C193.104 311.465 131 320 131 320L100 311Z" fill="black"/>
</g>
<path d="M184 325V328C184 328.75 182.74 329 182 329H124C123.25 329 122 328.75 122 328V325H184Z" fill="#263238"/>
<g opacity="0.4">
<path d="M184 325V328C184 328.75 182.74 329 182 329H124C123.25 329 122 328.75 122 328V325H184Z" fill="white"/>
</g>
<g opacity="0.2">
<path d="M184 325V328C184 328.75 182.74 329 182 329H144C143.25 329 142 328.75 142 328V325H184Z" fill="black"/>
</g>
<path d="M194 295L187 326C186.77 327.04 186.031 328 185 328H146C144.979 328 144.76 327.04 145 326L152 295C152.24 293.96 152.969 293 154 293H193C194.031 293 194.23 293.96 194 295Z" fill="#263238"/>
<g opacity="0.4">
<path d="M194 295L187 326C186.768 327.04 186.037 328 185 328H147C145.963 328 145.768 327.04 146 326L153 295C153.232 293.96 153.963 293 155 293H193C194.037 293 194.232 293.96 194 295Z" fill="white"/>
</g>
<g opacity="0.2">
<path d="M175 311C175 313.767 172.132 316 170 316C167.868 316 166.389 313.767 167 311C167.611 308.294 169.908 306.081 172 306C171.389 308.757 172.868 311 175 311C175.04 311 175 311 175 311Z" fill="black"/>
</g>
<path d="M166 359L178 361L184 362L186 356L181 354L168 350L166 359Z" fill="#EBB376"/>
<path d="M186 354L183 361C182.854 361.392 182.621 361.859 183 362L187 364C187 364 191.551 365.643 193 365C197.211 363.131 203.362 347.447 202 346C201.504 345.467 200.574 346.568 200 347C198.172 348.387 193.537 351.864 192 353C190.201 354.326 188.187 354.261 187 354C186.66 353.92 186.126 353.668 186 354Z" fill="#263238"/>
<g opacity="0.2">
<path d="M166 359L179 361L181 354L168 350L166 359Z" fill="black"/>
</g>
<path d="M179 352C179 352 128.54 323.183 111 324C93.4596 324.818 90.7605 340.32 98 350C105.24 359.68 118 362 118 362C118 362 109.684 349.619 111 346C112.316 342.381 117 347 117 347C117 347 149.029 357.637 177 360L179 352Z" fill="#00812A"/>
<path d="M180 352L177 350L173 361H178L180 352Z" fill="#00812A"/>
<g opacity="0.6">
<path d="M180 352L177 350L173 361H178L180 352Z" fill="white"/>
</g>
<path d="M91 306L124 309C124 309 129.086 298.187 133 294C136.904 289.803 140 269 140 269C137.25 267.645 134.68 265.917 132 265C121.612 261.425 112.119 261.031 107 261C104.571 260.99 103 261 103 261C102.197 261.448 101.743 262.706 101 264C97.5072 270.112 94.646 283.762 93 294C91.9361 300.611 91 306 91 306Z" fill="#263238"/>
<g opacity="0.2">
<path d="M93 294C99.9687 290.725 109.496 285.621 109 280C108.465 273.83 103.891 267.185 101 264C97.613 269.99 94.5962 283.967 93 294Z" fill="black"/>
</g>
<path d="M108 261C108 261 111.73 273.681 122 275C132.27 276.319 134 266 134 266C134 266 120.777 258.852 108 261Z" fill="#263238"/>
<g opacity="0.1">
<path d="M108 261C108 261 111.73 273.681 122 275C132.27 276.319 134 266 134 266C134 266 120.777 258.852 108 261Z" fill="white"/>
</g>
<path d="M111 262C111 262 115.503 273 124 273C132.497 273 133 267 133 267C133 267 124.493 261.32 111 262Z" fill="#00812A"/>
<g opacity="0.4">
<path d="M111 262C111 262 115.503 273 124 273C132.497 273 133 267 133 267C133 267 124.493 261.32 111 262Z" fill="white"/>
</g>
<path d="M125 264C125.058 266.058 126 266 126 266C126.405 269.781 123.561 271.172 122 271C115.862 270.341 114 263 114 263C118.471 261.135 119.817 255.082 120 252C120.087 250.561 120 250 120 250L128 256C127.171 257.47 126.443 257.895 126 259C125.268 260.886 124.971 262.996 125 264Z" fill="#EBB376"/>
<g opacity="0.2">
<path d="M128 255C127.303 256.553 126.343 257.853 126 259C125.45 260.949 125.872 262.005 126 263C121.22 263.386 119 252 119 252C118.951 250.559 119 250 119 250L128 255Z" fill="black"/>
</g>
<path d="M134 230C134 230 139.562 223.082 132 217C124.429 210.919 109.756 213.269 107 227C104.244 240.74 108 247 108 247C108 247 108.473 238.55 111 236C111 236 110.244 239.48 111 242C111.756 244.52 111 243 111 243C111 243 112.777 232.865 124 236C135.213 239.135 134 230 134 230Z" fill="#263238"/>
<path d="M135 232C143.233 234.588 143.985 240.049 142 249C139.524 260.184 134.598 267.582 125 262C111.963 254.419 121.335 227.697 135 232Z" fill="#EBB376"/>
<path d="M137 247C137 247 137.288 249.221 138 251C138 251 137.152 252.688 136 252L137 247Z" fill="#D58745"/>
<path d="M133 246C132.791 246.811 132.506 247.153 132 247C131.494 246.847 130.791 245.811 131 245C131.209 244.19 131.494 243.847 132 244C132.506 244.153 133.209 245.19 133 246Z" fill="#263238"/>
<path d="M132 244H134C134 244 132.683 245.693 132 244Z" fill="#263238"/>
<path d="M142 248C141.791 248.811 141.506 249.153 141 249C140.494 248.847 139.791 247.811 140 247C140.209 246.19 140.494 245.847 141 246C141.506 246.153 142.209 247.19 142 248Z" fill="#263238"/>
<path d="M141 246H143C143 246 141.683 247.693 141 246Z" fill="#263238"/>
<path d="M130 240C129.874 240 130.074 240.077 130 240C129.884 239.869 129.821 239.085 130 239C132.003 238.01 134.895 238.969 135 239C135.19 239.062 135.084 239.861 135 240C134.916 240.139 134.19 240.062 134 240C133.979 240 132.655 239.188 131 240C130.937 240.031 130.074 240 130 240Z" fill="#263238"/>
<path d="M144 243C143.896 243 143.073 243.074 143 243C141.62 241.668 140.062 241.992 140 242C139.803 242 140.01 241.164 140 241C139.793 241.008 139.99 240.836 140 241C140.073 240.992 142.361 241.414 144 243C144.166 242.893 144.135 243.132 144 243C144.083 243 143.927 243.041 144 243Z" fill="#263238"/>
<path d="M122 245C122 245 127.963 239.578 129 234C129 234 148.393 231.626 144 249C144 249 149.531 234.796 135 230C120.48 225.204 114.387 246.313 120 255C120 255 118.207 248.617 122 245Z" fill="#263238"/>
<path d="M135 255C130.894 254.908 130 251.028 130 251C129.81 251.018 129.98 250.815 130 251C130.2 250.982 130.97 250.825 131 251C131.02 251.12 131.535 253.926 135 254C135.2 254 135.01 254.815 135 255C135.19 255 135 255.185 135 255Z" fill="#263238"/>
<path d="M120 243C119.899 242.948 119.97 243.114 120 243C119.98 243 120.02 243 120 243L129 245C128.728 246.616 129.366 248.182 131 249C133.068 250.036 135.891 249.917 137 248C137.111 247.814 136.919 247.197 137 247C137.454 246.7 137.728 246.907 138 247C138.333 247.124 138.99 246.979 139 247C138.738 248.606 139.376 251.192 141 252C143.068 253.036 144.891 251.917 146 250C147.11 248.083 147.068 246.036 145 245C142.932 243.964 140.11 244.083 139 246C138.889 246.186 139.071 246.803 139 247C138.889 246.886 138.192 246.062 138 246C137.677 245.886 137.414 246.814 137 247C137.272 245.384 136.634 242.818 135 242C132.932 240.964 130.11 242.083 129 244C128.859 244.249 129.081 244.741 129 245L120 243C120.03 242.865 119.859 242.969 120 243ZM139 246C139.968 244.322 143.195 244.099 145 245C146.806 245.901 146.979 248.322 146 250C145.032 251.678 142.806 251.901 141 251C139.195 250.099 138.022 247.678 139 246ZM130 244C130.968 242.322 133.195 242.099 135 243C136.806 243.901 136.979 246.322 136 248C135.032 249.678 132.806 249.901 131 249C129.195 248.099 129.022 245.678 130 244Z" fill="#263238"/>
<path d="M120 243C119.899 242.948 119.97 243.114 120 243C119.98 243 120.02 243 120 243L129 245C128.728 246.616 129.366 248.182 131 249C133.068 250.036 135.891 249.917 137 248C137.111 247.814 136.919 247.197 137 247C137.454 246.7 137.728 246.907 138 247C138.333 247.124 138.99 246.979 139 247C138.738 248.606 139.376 251.192 141 252C143.068 253.036 144.891 251.917 146 250C147.11 248.083 147.068 246.036 145 245C142.932 243.964 140.11 244.083 139 246C138.889 246.186 139.071 246.803 139 247C138.889 246.886 138.192 246.062 138 246C137.677 245.886 137.414 246.814 137 247C137.272 245.384 136.634 242.818 135 242C132.932 240.964 130.11 242.083 129 244C128.859 244.249 129.081 244.741 129 245L120 243C120.03 242.865 119.859 242.969 120 243ZM139 246C139.968 244.322 143.195 244.099 145 245C146.806 245.901 146.979 248.322 146 250C145.032 251.678 142.806 251.901 141 251C139.195 250.099 138.022 247.678 139 246ZM130 244C130.968 242.322 133.195 242.099 135 243C136.806 243.901 136.979 246.322 136 248C135.032 249.678 132.806 249.901 131 249C129.195 248.099 129.022 245.678 130 244Z" fill="white"/>
<path d="M123 247C123.355 245.605 122.551 242.499 120 242C117.36 241.481 115.031 246.691 121 250C121.857 250.479 122.271 249.902 123 247Z" fill="#EBB376"/>
<path d="M107 272C107 272 107.207 293.191 109 298C110.793 302.809 130 321 130 321C130 321 135.124 319.649 136 320C136.866 320.341 142 325 142 325H128L126 323C126 323 107.131 308.464 105 305C103.416 302.44 98 276 98 276L107 272Z" fill="#EBB376"/>
<path d="M102 261C105.448 259.214 106.935 265.423 109 277C111.054 288.577 111 299 111 299L114 304L107 311C107 311 101.299 305.974 99.0001 299C96.7016 292.026 89.938 267.238 102 261Z" fill="#263238"/>
<g opacity="0.1">
<path d="M102 261C105.448 259.214 106.935 265.423 109 277C111.054 288.577 111 299 111 299L114 304L107 311C107 311 101.299 305.974 99.0001 299C96.7016 292.026 89.938 267.238 102 261Z" fill="white"/>
</g>
<path d="M105 311L114 303L116 306L108 314L105 311Z" fill="#00812A"/>
<g opacity="0.4">
<path d="M105 311L114 303L116 306L108 314L105 311Z" fill="white"/>
</g>
</g>
<defs>
<clipPath id="clip0_163_3150">
<rect width="500" height="373" fill="white"/>
</clipPath>
</defs>
</svg>
