<svg width="457" height="447" viewBox="0 0 457 447" fill="none" xmlns="http://www.w3.org/2000/svg">
<path d="M0 445.229H457.396" stroke="#263238" stroke-miterlimit="10"/>
<path d="M31.4073 233.934C30.5766 233.934 29.896 233.253 29.896 232.422C29.896 231.592 30.5766 230.911 31.4073 230.911C32.238 230.911 32.9186 231.592 32.9186 232.422C32.9186 233.253 32.238 233.934 31.4073 233.934Z" fill="#888E92"/>
<path d="M46.5304 218.731C45.6996 218.731 45.019 218.051 45.019 217.22C45.019 216.39 45.6996 215.709 46.5304 215.709C47.3611 215.709 48.0417 216.39 48.0417 217.22C48.0417 218.051 47.3611 218.731 46.5304 218.731Z" fill="#888E92"/>
<path d="M31.4073 218.731C30.5766 218.731 29.896 218.051 29.896 217.22C29.896 216.39 30.5766 215.709 31.4073 215.709C32.238 215.709 32.9186 216.39 32.9186 217.22C32.9186 218.051 32.238 218.731 31.4073 218.731Z" fill="#888E92"/>
<path d="M15.5135 218.731C14.6828 218.731 14.0022 218.051 14.0022 217.22C14.0022 216.39 14.6828 215.709 15.5135 215.709C16.3442 215.709 17.0248 216.39 17.0248 217.22C17.0248 218.051 16.3442 218.731 15.5135 218.731Z" fill="#888E92"/>
<path d="M46.5304 203.539C45.6996 203.539 45.019 202.859 45.019 202.028C45.019 201.197 45.6996 200.517 46.5304 200.517C47.3611 200.517 48.0417 201.197 48.0417 202.028C48.0417 202.859 47.3611 203.539 46.5304 203.539Z" fill="#888E92"/>
<path d="M31.4073 203.539C30.5766 203.539 29.896 202.859 29.896 202.028C29.896 201.197 30.5766 200.517 31.4073 200.517C32.238 200.517 32.9186 201.197 32.9186 202.028C32.9186 202.859 32.238 203.539 31.4073 203.539Z" fill="#888E92"/>
<path d="M15.5135 203.539C14.6828 203.539 14.0022 202.859 14.0022 202.028C14.0022 201.197 14.6828 200.517 15.5135 200.517C16.3442 200.517 17.0248 201.197 17.0248 202.028C17.0248 202.859 16.3442 203.539 15.5135 203.539Z" fill="#888E92"/>
<path d="M46.5304 188.347C45.6996 188.347 45.019 187.666 45.019 186.835C45.019 186.005 45.6996 185.324 46.5304 185.324C47.3611 185.324 48.0417 186.005 48.0417 186.835C48.0417 187.666 47.3611 188.347 46.5304 188.347Z" fill="#888E92"/>
<path d="M31.4073 188.347C30.5766 188.347 29.896 187.666 29.896 186.835C29.896 186.005 30.5766 185.324 31.4073 185.324C32.238 185.324 32.9186 186.005 32.9186 186.835C32.9186 187.666 32.238 188.347 31.4073 188.347Z" fill="#888E92"/>
<path d="M15.5135 188.347C14.6828 188.347 14.0022 187.666 14.0022 186.835C14.0022 186.005 14.6828 185.324 15.5135 185.324C16.3442 185.324 17.0248 186.005 17.0248 186.835C17.0248 187.666 16.3442 188.347 15.5135 188.347Z" fill="#888E92"/>
<path d="M412.647 162.995C411.817 162.995 411.136 162.315 411.136 161.484C411.136 160.653 411.817 159.973 412.647 159.973C413.478 159.973 414.159 160.653 414.159 161.484C414.159 162.315 413.478 162.995 412.647 162.995Z" fill="#888E92"/>
<path d="M412.647 147.803C411.817 147.803 411.136 147.122 411.136 146.292C411.136 145.461 411.817 144.78 412.647 144.78C413.478 144.78 414.159 145.461 414.159 146.292C414.159 147.122 413.478 147.803 412.647 147.803Z" fill="#888E92"/>
<path d="M396.754 147.803C395.923 147.803 395.242 147.122 395.242 146.292C395.242 145.461 395.923 144.78 396.754 144.78C397.584 144.78 398.265 145.461 398.265 146.292C398.265 147.122 397.584 147.803 396.754 147.803Z" fill="#888E92"/>
<path d="M427.771 147.793C428.605 147.793 429.282 147.116 429.282 146.282C429.282 145.447 428.605 144.771 427.771 144.771C426.936 144.771 426.259 145.447 426.259 146.282C426.259 147.116 426.936 147.793 427.771 147.793Z" fill="#888E92"/>
<path d="M427.771 132.6C426.94 132.6 426.259 131.919 426.259 131.088C426.259 130.258 426.94 129.577 427.771 129.577C428.601 129.577 429.282 130.258 429.282 131.088C429.282 131.919 428.601 132.6 427.771 132.6Z" fill="#888E92"/>
<path d="M412.647 132.6C411.817 132.6 411.136 131.919 411.136 131.088C411.136 130.258 411.817 129.577 412.647 129.577C413.478 129.577 414.159 130.258 414.159 131.088C414.159 131.919 413.478 132.6 412.647 132.6Z" fill="#888E92"/>
<path d="M396.754 132.6C395.923 132.6 395.242 131.919 395.242 131.088C395.242 130.258 395.923 129.577 396.754 129.577C397.584 129.577 398.265 130.258 398.265 131.088C398.265 131.919 397.584 132.6 396.754 132.6Z" fill="#888E92"/>
<path d="M427.771 117.407C426.94 117.407 426.259 116.727 426.259 115.896C426.259 115.065 426.94 114.385 427.771 114.385C428.601 114.385 429.282 115.065 429.282 115.896C429.282 116.727 428.601 117.407 427.771 117.407Z" fill="#888E92"/>
<path d="M412.647 117.407C411.817 117.407 411.136 116.727 411.136 115.896C411.136 115.065 411.817 114.385 412.647 114.385C413.478 114.385 414.159 115.065 414.159 115.896C414.159 116.727 413.478 117.407 412.647 117.407Z" fill="#888E92"/>
<path d="M396.754 117.407C395.923 117.407 395.242 116.727 395.242 115.896C395.242 115.065 395.923 114.385 396.754 114.385C397.584 114.385 398.265 115.065 398.265 115.896C398.265 116.727 397.584 117.407 396.754 117.407Z" fill="#888E92"/>
<path d="M135.497 79.8067C134.667 79.8067 133.986 79.1261 133.986 78.2954C133.986 77.4647 134.667 76.7842 135.497 76.7842C136.328 76.7842 137.009 77.4647 137.009 78.2954C137.009 79.1261 136.328 79.8067 135.497 79.8067Z" fill="#888E92"/>
<path d="M150.62 64.6036C149.79 64.6036 149.109 63.923 149.109 63.0923C149.109 62.2616 149.79 61.5811 150.62 61.5811C151.451 61.5811 152.132 62.2616 152.132 63.0923C152.132 63.923 151.451 64.6036 150.62 64.6036Z" fill="#888E92"/>
<path d="M135.497 64.6036C134.667 64.6036 133.986 63.923 133.986 63.0923C133.986 62.2616 134.667 61.5811 135.497 61.5811C136.328 61.5811 137.009 62.2616 137.009 63.0923C137.009 63.923 136.328 64.6036 135.497 64.6036Z" fill="#888E92"/>
<path d="M119.604 64.6036C118.773 64.6036 118.092 63.923 118.092 63.0923C118.092 62.2616 118.773 61.5811 119.604 61.5811C120.434 61.5811 121.115 62.2616 121.115 63.0923C121.115 63.923 120.434 64.6036 119.604 64.6036Z" fill="#888E92"/>
<path d="M412.647 59.2696C411.817 59.2696 411.136 58.589 411.136 57.7583C411.136 56.9276 411.817 56.2471 412.647 56.2471C413.478 56.2471 414.159 56.9276 414.159 57.7583C414.159 58.589 413.478 59.2696 412.647 59.2696Z" fill="#888E92"/>
<path d="M150.62 49.4112C149.79 49.4112 149.109 48.7306 149.109 47.8999C149.109 47.0692 149.79 46.3887 150.62 46.3887C151.451 46.3887 152.132 47.0692 152.132 47.8999C152.132 48.7306 151.451 49.4112 150.62 49.4112Z" fill="#888E92"/>
<path d="M135.497 49.4112C134.667 49.4112 133.986 48.7306 133.986 47.8999C133.986 47.0692 134.667 46.3887 135.497 46.3887C136.328 46.3887 137.009 47.0692 137.009 47.8999C137.009 48.7306 136.328 49.4112 135.497 49.4112Z" fill="#888E92"/>
<path d="M119.604 49.4112C118.773 49.4112 118.092 48.7306 118.092 47.8999C118.092 47.0692 118.773 46.3887 119.604 46.3887C120.434 46.3887 121.115 47.0692 121.115 47.8999C121.115 48.7306 120.434 49.4112 119.604 49.4112Z" fill="#888E92"/>
<path d="M427.771 44.0772C426.94 44.0772 426.259 43.3966 426.259 42.5659C426.259 41.7352 426.94 41.0547 427.771 41.0547C428.601 41.0547 429.282 41.7352 429.282 42.5659C429.282 43.3966 428.601 44.0772 427.771 44.0772Z" fill="#888E92"/>
<path d="M412.647 44.0772C411.817 44.0772 411.136 43.3966 411.136 42.5659C411.136 41.7352 411.817 41.0547 412.647 41.0547C413.478 41.0547 414.159 41.7352 414.159 42.5659C414.159 43.3966 413.478 44.0772 412.647 44.0772Z" fill="#888E92"/>
<path d="M396.754 44.0772C395.923 44.0772 395.242 43.3966 395.242 42.5659C395.242 41.7352 395.923 41.0547 396.754 41.0547C397.584 41.0547 398.265 41.7352 398.265 42.5659C398.265 43.3966 397.584 44.0772 396.754 44.0772Z" fill="#888E92"/>
<path d="M150.62 34.2188C149.79 34.2188 149.109 33.5382 149.109 32.7075C149.109 31.8769 149.79 31.1963 150.62 31.1963C151.451 31.1963 152.132 31.8769 152.132 32.7075C152.132 33.5382 151.451 34.2188 150.62 34.2188Z" fill="#888E92"/>
<path d="M135.497 34.2188C134.667 34.2188 133.986 33.5382 133.986 32.7075C133.986 31.8769 134.667 31.1963 135.497 31.1963C136.328 31.1963 137.009 31.8769 137.009 32.7075C137.009 33.5382 136.328 34.2188 135.497 34.2188Z" fill="#888E92"/>
<path d="M119.604 34.2188C118.773 34.2188 118.092 33.5382 118.092 32.7075C118.092 31.8769 118.773 31.1963 119.604 31.1963C120.434 31.1963 121.115 31.8769 121.115 32.7075C121.115 33.5382 120.434 34.2188 119.604 34.2188Z" fill="#888E92"/>
<path d="M427.771 28.8838C426.94 28.8838 426.259 28.2033 426.259 27.3726C426.259 26.5419 426.94 25.8613 427.771 25.8613C428.601 25.8613 429.282 26.5419 429.282 27.3726C429.282 28.2033 428.601 28.8838 427.771 28.8838Z" fill="#888E92"/>
<path d="M412.647 28.8838C411.817 28.8838 411.136 28.2033 411.136 27.3726C411.136 26.5419 411.817 25.8613 412.647 25.8613C413.478 25.8613 414.159 26.5419 414.159 27.3726C414.159 28.2033 413.478 28.8838 412.647 28.8838Z" fill="#888E92"/>
<path d="M396.754 28.8838C395.923 28.8838 395.242 28.2033 395.242 27.3726C395.242 26.5419 395.923 25.8613 396.754 25.8613C397.584 25.8613 398.265 26.5419 398.265 27.3726C398.265 28.2033 397.584 28.8838 396.754 28.8838Z" fill="#888E92"/>
<path d="M412.647 13.6914C411.817 13.6914 411.136 13.0109 411.136 12.1802C411.136 11.3495 411.817 10.6689 412.647 10.6689C413.478 10.6689 414.159 11.3495 414.159 12.1802C414.159 13.0109 413.478 13.6914 412.647 13.6914Z" fill="#888E92"/>
<path d="M396.754 13.6914C395.923 13.6914 395.242 13.0109 395.242 12.1802C395.242 11.3495 395.923 10.6689 396.754 10.6689C397.584 10.6689 398.265 11.3495 398.265 12.1802C398.265 13.0109 397.584 13.6914 396.754 13.6914Z" fill="#888E92"/>
<path d="M427.771 13.6817C428.605 13.6817 429.282 13.0051 429.282 12.1704C429.282 11.3358 428.605 10.6592 427.771 10.6592C426.936 10.6592 426.259 11.3358 426.259 12.1704C426.259 13.0051 426.936 13.6817 427.771 13.6817Z" fill="#888E92"/>
<path d="M375.475 136.143C376.276 136.143 376.916 135.492 376.916 134.702V95.9094C376.916 95.1087 376.266 94.4682 375.475 94.4682H371.712V20.3569C371.712 10.0683 363.375 1.73145 353.086 1.73145H171.198C160.909 1.73145 152.572 10.0683 152.572 20.3569V402.743C152.572 413.032 160.909 421.369 171.198 421.369H353.086C363.375 421.369 371.712 413.032 371.712 402.743V169.49H375.475C376.276 169.49 376.916 168.84 376.916 168.049V150.785C376.916 149.984 376.266 149.344 375.475 149.344H371.712V136.143H375.475ZM365.416 388.231C365.416 395.577 359.301 401.522 351.764 401.522H172.519C164.983 401.522 158.867 395.567 158.867 388.231V24.3802C158.867 17.0341 164.983 11.0892 172.519 11.0892H243.18L246.123 16.5437C249.246 22.3485 255.421 25.9815 262.147 25.9815C268.873 25.9815 275.048 22.3485 278.181 16.5437L281.123 11.0892H351.785C359.321 11.0892 365.436 17.0441 365.436 24.3802V388.231H365.416Z" fill="#263238" stroke="#263238" stroke-linecap="round" stroke-linejoin="round"/>
<path d="M267.001 13.1707C267.001 10.4884 264.819 8.30664 262.137 8.30664C259.455 8.30664 257.273 10.4884 257.273 13.1707C257.273 15.8529 259.455 18.0347 262.137 18.0347C264.819 18.0347 267.001 15.8529 267.001 13.1707Z" fill="white" stroke="#263238" stroke-linecap="round" stroke-linejoin="round"/>
<path d="M351.764 11.0889H281.103L278.161 16.5434C275.038 22.3482 268.863 25.9812 262.137 25.9812C255.411 25.9812 249.236 22.3482 246.103 16.5434L243.16 11.0889H172.499C164.963 11.0889 158.847 17.0438 158.847 24.3799V388.231C158.847 395.577 164.963 401.522 172.499 401.522H351.744C359.281 401.522 365.396 395.567 365.396 388.231V24.3799C365.396 17.0338 359.281 11.0889 351.744 11.0889H351.764Z" fill="#575757" stroke="#263238" stroke-linecap="round" stroke-linejoin="round"/>
<path d="M199.343 346.777C199.343 347.387 198.852 347.878 198.242 347.878C197.631 347.878 197.141 347.387 197.141 346.777C197.141 346.166 197.631 345.676 198.242 345.676C198.852 345.676 199.343 346.166 199.343 346.777Z" fill="white"/>
<path d="M203.226 346.777C203.226 347.387 202.735 347.878 202.125 347.878C201.514 347.878 201.024 347.387 201.024 346.777C201.024 346.166 201.514 345.676 202.125 345.676C202.735 345.676 203.226 346.166 203.226 346.777Z" fill="white"/>
<path d="M206.929 346.777C206.929 347.387 206.439 347.878 205.828 347.878C205.218 347.878 204.727 347.387 204.727 346.777C204.727 346.166 205.218 345.676 205.828 345.676C206.439 345.676 206.929 346.166 206.929 346.777Z" fill="white"/>
<path d="M199.343 350.49C199.343 351.1 198.852 351.59 198.242 351.59C197.631 351.59 197.141 351.1 197.141 350.49C197.141 349.879 197.631 349.389 198.242 349.389C198.852 349.389 199.343 349.879 199.343 350.49Z" fill="white"/>
<path d="M203.226 350.49C203.226 351.1 202.735 351.59 202.125 351.59C201.514 351.59 201.024 351.1 201.024 350.49C201.024 349.879 201.514 349.389 202.125 349.389C202.735 349.389 203.226 349.879 203.226 350.49Z" fill="white"/>
<path d="M206.929 350.49C206.929 351.1 206.439 351.59 205.828 351.59C205.218 351.59 204.727 351.1 204.727 350.49C204.727 349.879 205.218 349.389 205.828 349.389C206.439 349.389 206.929 349.879 206.929 350.49Z" fill="white"/>
<path d="M199.343 354.202C199.343 354.813 198.852 355.303 198.242 355.303C197.631 355.303 197.141 354.813 197.141 354.202C197.141 353.592 197.631 353.102 198.242 353.102C198.852 353.102 199.343 353.592 199.343 354.202Z" fill="white"/>
<path d="M203.226 354.202C203.226 354.813 202.735 355.303 202.125 355.303C201.514 355.303 201.024 354.813 201.024 354.202C201.024 353.592 201.514 353.102 202.125 353.102C202.735 353.102 203.226 353.592 203.226 354.202Z" fill="white"/>
<path d="M206.929 354.202C206.929 354.813 206.439 355.303 205.828 355.303C205.218 355.303 204.727 354.813 204.727 354.202C204.727 353.592 205.218 353.102 205.828 353.102C206.439 353.102 206.929 353.592 206.929 354.202Z" fill="white"/>
<path d="M203.226 357.916C203.226 358.527 202.735 359.017 202.125 359.017C201.514 359.017 201.024 358.527 201.024 357.916C201.024 357.306 201.514 356.815 202.125 356.815C202.735 356.815 203.226 357.306 203.226 357.916Z" fill="white"/>
<path d="M322.549 346.826L316.093 350.55H311.72C311.379 350.55 311.109 350.82 311.109 351.16V354.823C311.109 355.163 311.379 355.434 311.72 355.434H316.093L322.549 359.157V346.816V346.826Z" stroke="white" stroke-miterlimit="10" stroke-linecap="round"/>
<path d="M328.464 353.001C328.464 354.813 327.723 356.464 326.532 357.655L327.533 358.726C329.005 357.265 329.925 355.233 329.925 353.001C329.925 350.639 328.894 348.517 327.273 347.036L326.182 348.027C327.573 349.238 328.464 351.019 328.464 353.001Z" fill="white"/>
<path d="M325.041 353.001C325.041 353.832 324.711 354.582 324.19 355.153L325.201 356.224C326.012 355.383 326.512 354.252 326.512 352.991C326.512 351.51 325.812 350.189 324.721 349.338L323.61 350.339C324.471 350.909 325.041 351.88 325.041 352.991V353.001Z" fill="white"/>
<path d="M219.88 389.412L226.896 393.455V385.358L219.88 389.412Z" stroke="white" stroke-linecap="round" stroke-linejoin="round"/>
<path d="M264.229 389.412C264.229 387.35 262.557 385.679 260.495 385.679C258.434 385.679 256.762 387.35 256.762 389.412C256.762 391.474 258.434 393.145 260.495 393.145C262.557 393.145 264.229 391.474 264.229 389.412Z" stroke="white" stroke-linecap="round" stroke-linejoin="round"/>
<path d="M301.641 385.358H293.544V393.455H301.641V385.358Z" stroke="white" stroke-linecap="round" stroke-linejoin="round"/>
<path d="M351.204 16.3232H336.962V24.1397H351.204V16.3232Z" fill="white" stroke="white" stroke-width="0.82" stroke-linecap="round" stroke-linejoin="round"/>
<path d="M348.071 16.3232H336.962V24.1397H348.071V16.3232Z" fill="#00812A" stroke="white" stroke-width="0.73" stroke-linecap="round" stroke-linejoin="round"/>
<path d="M353.186 18.5049H351.174V21.9477H353.186V18.5049Z" fill="white" stroke="white" stroke-width="0.73" stroke-linecap="round" stroke-linejoin="round"/>
<path d="M173.24 18.7451H170.628V23.2188H173.24V18.7451Z" fill="white" stroke="white" stroke-width="0.88" stroke-linecap="round" stroke-linejoin="round"/>
<path d="M177.343 17.1738H174.731V23.2288H177.343V17.1738Z" fill="white" stroke="white" stroke-width="0.88" stroke-linecap="round" stroke-linejoin="round"/>
<path d="M181.457 15.3125H178.845V23.219H181.457V15.3125Z" fill="white" stroke="white" stroke-width="0.88" stroke-linecap="round" stroke-linejoin="round"/>
<path d="M165.183 30.3047H359.061" stroke="white" stroke-linecap="round" stroke-linejoin="round"/>
<path d="M327.423 23.9789C327.423 23.4584 327.003 23.0381 326.483 23.0381C325.962 23.0381 325.542 23.4584 325.542 23.9789C325.542 24.4993 325.962 24.9196 326.483 24.9196C327.003 24.9196 327.423 24.4993 327.423 23.9789Z" fill="white"/>
<path d="M321.488 19.2452C322.749 17.9241 324.511 17.0934 326.483 17.0934C328.324 17.0934 329.996 17.824 331.237 19.005L331.757 18.4645C330.386 17.1534 328.534 16.3428 326.493 16.3428C324.311 16.3428 322.349 17.2635 320.958 18.7348L321.498 19.2552L321.488 19.2452Z" fill="white"/>
<path d="M322.479 20.1758L323.029 20.6962C323.9 19.7754 325.121 19.195 326.492 19.195C327.774 19.195 328.925 19.7054 329.785 20.5261L330.306 19.9756C329.315 19.0248 327.974 18.4443 326.492 18.4443C324.911 18.4443 323.49 19.1149 322.489 20.1758H322.479Z" fill="white"/>
<path d="M324.181 21.787L324.721 22.2974C325.162 21.827 325.792 21.5368 326.483 21.5368C327.133 21.5368 327.724 21.797 328.164 22.2173L328.685 21.6769C328.114 21.1264 327.343 20.7861 326.493 20.7861C325.582 20.7861 324.771 21.1765 324.191 21.787H324.181Z" fill="white"/>
<path d="M292.566 103.199C295.324 86.3713 283.919 70.4936 267.091 67.735C250.262 64.9763 234.384 76.3814 231.625 93.2089C228.867 110.036 240.272 125.914 257.1 128.673C273.929 131.431 289.807 120.026 292.566 103.199Z" fill="#00812A"/>
<path d="M236.635 115.685C242.2 123.772 251.518 129.066 262.077 129.066C272.636 129.066 281.844 123.822 287.419 115.825C283.645 114.434 268.562 108.79 268.562 107.689C268.562 106.438 270.654 102.995 272.146 99.8723C272.516 99.1016 273.046 96.7497 273.046 96.7497L274.838 94.8681C276.629 92.9966 275.739 90.1743 275.438 88.9232C275.168 87.7723 273.126 88.7331 272.796 88.9032C272.576 85.1601 272.095 81.5571 271.555 79.8557C270.504 76.553 264.589 75.0617 263.198 74.9517V74.9316H260.505C260.505 74.9316 260.505 74.9416 260.505 74.9517C259.114 75.0517 253.199 76.543 252.148 79.8557C251.608 81.5471 251.127 85.1601 250.907 88.9032C250.587 88.7431 248.545 87.7723 248.265 88.9232C247.965 90.1743 247.074 92.9866 248.865 94.8681L250.657 96.7497C250.657 96.7497 251.187 99.1117 251.558 99.8723C253.049 102.995 255.141 106.438 255.141 107.689C255.141 108.75 240.959 114.084 236.655 115.685H236.635Z" fill="white"/>
<path d="M249.306 173.223C249.306 171.532 250.077 170.311 251.838 170.311C253.6 170.311 254.37 171.522 254.37 173.223V179.108C254.37 180.779 253.6 182.02 251.838 182.02C250.077 182.02 249.306 180.789 249.306 179.108V173.223ZM250.067 179.138C250.067 180.399 250.577 181.32 251.838 181.32C253.099 181.32 253.61 180.399 253.61 179.138V173.173C253.61 171.922 253.099 171.001 251.838 171.001C250.577 171.001 250.067 171.922 250.067 173.173V179.138Z" fill="white"/>
<path d="M255.561 173.223C255.561 171.532 256.332 170.311 258.093 170.311C259.855 170.311 260.626 171.522 260.626 173.223V179.108C260.626 180.779 259.855 182.02 258.093 182.02C256.332 182.02 255.561 180.789 255.561 179.108V173.223ZM256.312 179.138C256.312 180.399 256.822 181.32 258.083 181.32C259.345 181.32 259.855 180.399 259.855 179.138V173.173C259.855 171.922 259.345 171.001 258.083 171.001C256.822 171.001 256.312 171.922 256.312 173.173V179.138Z" fill="white"/>
<path d="M262.617 180.469V181.91H261.877V180.469H262.617Z" fill="white"/>
<path d="M268.893 173.243C268.893 176.565 264.739 177.706 264.689 181.099V181.229H268.793V181.92H263.928V181.359C263.928 177.306 268.132 176.435 268.132 173.273C268.132 171.942 267.692 171.001 266.371 171.001C265.049 171.001 264.649 171.982 264.649 173.223V174.013H263.928V173.273C263.928 171.611 264.639 170.32 266.411 170.32C268.182 170.32 268.893 171.571 268.893 173.243Z" fill="white"/>
<path d="M270.975 175.214C271.365 174.594 271.976 174.324 272.826 174.324C274.418 174.324 275.058 175.535 275.058 177.136V179.108C275.058 180.769 274.318 182.02 272.566 182.02C270.815 182.02 270.084 180.769 270.084 179.108V178.487H270.805V179.148C270.805 180.379 271.295 181.319 272.546 181.319C273.797 181.319 274.308 180.379 274.308 179.148V177.206C274.308 175.975 273.817 175.034 272.546 175.034C271.705 175.034 271.135 175.495 270.905 176.345V176.545H270.194L270.494 170.4H274.818V171.111H271.185L270.975 175.214Z" fill="white"/>
<path d="M208.627 219.457H193.721C192.862 219.457 192.166 220.153 192.166 221.011V234.915C192.166 235.773 192.862 236.469 193.721 236.469H208.627C209.486 236.469 210.182 235.773 210.182 234.915V221.011C210.182 220.153 209.486 219.457 208.627 219.457Z" stroke="white" stroke-miterlimit="10"/>
<path d="M192.664 224.959H210.182" stroke="white" stroke-miterlimit="10"/>
<path d="M207.679 230.462H203.677V234.464H207.679V230.462Z" fill="white"/>
<path d="M197.062 219.278V217.18" stroke="white" stroke-miterlimit="10" stroke-linecap="round"/>
<path d="M205.457 219.278V217.18" stroke="white" stroke-miterlimit="10" stroke-linecap="round"/>
<path d="M209.856 275.228H192.492C191.759 275.228 191.166 275.821 191.166 276.554V298.025C191.166 298.758 191.759 299.352 192.492 299.352H209.856C210.589 299.352 211.183 298.758 211.183 298.025V276.554C211.183 275.821 210.589 275.228 209.856 275.228Z" stroke="white" stroke-miterlimit="10" stroke-linecap="round"/>
<path d="M194.76 280.619H207.597" stroke="white" stroke-miterlimit="10" stroke-linecap="round"/>
<path d="M194.76 285.754H207.597" stroke="white" stroke-miterlimit="10" stroke-linecap="round"/>
<path d="M194.76 290.889H202.462" stroke="white" stroke-miterlimit="10" stroke-linecap="round"/>
<path d="M265.57 289.72V290.711C265.57 293.563 263.258 295.885 260.395 295.885C257.543 295.885 255.221 293.573 255.221 290.711V289.72" stroke="white" stroke-miterlimit="10" stroke-linecap="round"/>
<path d="M260.395 292.992C259.084 292.992 258.023 291.931 258.023 290.62V284.605C258.023 283.294 259.084 282.233 260.395 282.233C261.707 282.233 262.768 283.294 262.768 284.605V290.62C262.768 291.931 261.707 292.992 260.395 292.992Z" stroke="white" stroke-miterlimit="10" stroke-linecap="round"/>
<path d="M260.396 295.885V299.648" stroke="white" stroke-miterlimit="10" stroke-linecap="round"/>
<path d="M320.888 286.497C320.888 288.299 319.426 289.76 317.625 289.76C315.823 289.76 314.362 288.299 314.362 286.497C314.362 284.696 315.823 283.234 317.625 283.234C319.426 283.234 320.888 284.696 320.888 286.497Z" stroke="white" stroke-miterlimit="10" stroke-linecap="round"/>
<path d="M314.132 292.382H321.118C323.81 292.382 325.992 294.564 325.992 297.256V299.438H309.268V297.256C309.268 294.564 311.449 292.382 314.142 292.382H314.132Z" stroke="white" stroke-miterlimit="10" stroke-linecap="round"/>
<path d="M258.654 217.94V236.496" stroke="white" stroke-miterlimit="10" stroke-linecap="round"/>
<path d="M265.179 217.94V236.496" stroke="white" stroke-miterlimit="10" stroke-linecap="round"/>
<path d="M317.575 217.94V236.496" stroke="white" stroke-miterlimit="10" stroke-linecap="round"/>
<path d="M326.853 227.218H308.297" stroke="white" stroke-miterlimit="10" stroke-linecap="round"/>
<path d="M281.115 359.982C285.67 348.814 280.309 336.069 269.141 331.513C257.973 326.958 245.227 332.319 240.672 343.486C236.117 354.654 241.477 367.4 252.645 371.955C263.813 376.51 276.56 371.149 281.115 359.982Z" fill="#FF553D"/>
<path d="M274.618 356.975C274.998 356.475 275.458 356.024 275.759 355.474C276.509 354.093 276.239 352.412 275.088 351.291C272.556 348.809 269.583 347.037 266.12 346.226C259.054 344.565 252.849 346.276 247.554 351.211C246.123 352.552 245.983 354.543 247.184 356.075C247.634 356.655 248.185 357.165 248.735 357.646C248.885 357.776 249.266 357.786 249.456 357.686C250.957 356.965 252.428 356.205 253.92 355.474C254.31 355.284 254.42 355.034 254.33 354.613C254.16 353.873 254.04 353.122 253.88 352.381C253.779 351.961 253.9 351.721 254.32 351.551C258.964 349.719 263.608 349.729 268.252 351.551C268.632 351.701 268.772 351.921 268.682 352.331C268.522 353.052 268.422 353.783 268.242 354.503C268.102 355.034 268.282 355.314 268.762 355.544C269.963 356.105 271.135 356.715 272.326 357.306C273.797 358.046 273.396 358.066 274.628 356.965L274.618 356.975Z" fill="white"/>
<path d="M274.618 356.975C273.387 358.076 273.787 358.046 272.316 357.315C271.135 356.725 269.954 356.114 268.753 355.554C268.272 355.324 268.092 355.053 268.232 354.513C268.412 353.802 268.512 353.062 268.672 352.341C268.763 351.931 268.622 351.721 268.242 351.561C263.598 349.729 258.954 349.729 254.31 351.561C253.89 351.721 253.78 351.961 253.87 352.391C254.04 353.132 254.15 353.882 254.32 354.623C254.42 355.043 254.3 355.294 253.91 355.484C252.418 356.214 250.937 356.975 249.446 357.696C249.246 357.786 248.865 357.786 248.725 357.656C248.175 357.175 247.624 356.665 247.174 356.084C245.983 354.553 246.113 352.561 247.544 351.22C252.849 346.286 259.044 344.575 266.11 346.236C269.573 347.047 272.536 348.818 275.078 351.3C276.229 352.431 276.509 354.103 275.749 355.484C275.448 356.024 274.998 356.485 274.608 356.985L274.618 356.975Z" fill="white"/>
<path d="M300.18 309.719H300.895L299.047 311.785L301.043 314H300.281L298.336 311.828V314H297.684V309.719H298.336V311.797L300.18 309.719ZM305.908 311.852C305.908 312.203 305.862 312.517 305.771 312.793C305.68 313.069 305.548 313.302 305.377 313.492C305.205 313.682 304.996 313.828 304.752 313.93C304.509 314.029 304.235 314.078 303.927 314.078C303.641 314.078 303.378 314.029 303.138 313.93C302.901 313.828 302.696 313.682 302.521 313.492C302.349 313.302 302.215 313.069 302.119 312.793C302.025 312.517 301.978 312.203 301.978 311.852C301.978 311.383 302.058 310.984 302.216 310.656C302.375 310.326 302.602 310.074 302.896 309.902C303.193 309.728 303.546 309.641 303.955 309.641C304.345 309.641 304.686 309.728 304.978 309.902C305.272 310.077 305.5 310.329 305.662 310.66C305.826 310.988 305.908 311.385 305.908 311.852ZM302.65 311.852C302.65 312.195 302.696 312.493 302.787 312.746C302.878 312.999 303.018 313.194 303.209 313.332C303.399 313.47 303.643 313.539 303.943 313.539C304.24 313.539 304.483 313.47 304.673 313.332C304.866 313.194 305.008 312.999 305.099 312.746C305.19 312.493 305.236 312.195 305.236 311.852C305.236 311.51 305.19 311.216 305.099 310.969C305.008 310.719 304.867 310.526 304.677 310.391C304.487 310.255 304.241 310.188 303.939 310.188C303.494 310.188 303.167 310.335 302.959 310.629C302.753 310.923 302.65 311.331 302.65 311.852ZM308.081 309.719V311.516H310.468V309.719H311.116V314H310.468V312.066H308.081V314H307.429V309.719H308.081ZM315.809 310.27H314.399V314H313.759V310.27H312.368V309.719H315.809V310.27ZM318.659 309.648C319.169 309.648 319.548 309.763 319.795 309.992C320.043 310.221 320.166 310.587 320.166 311.09V314H319.694L319.569 313.367H319.538C319.418 313.523 319.293 313.655 319.163 313.762C319.032 313.866 318.881 313.945 318.709 314C318.54 314.052 318.332 314.078 318.084 314.078C317.824 314.078 317.592 314.033 317.389 313.941C317.189 313.85 317.03 313.712 316.913 313.527C316.798 313.342 316.741 313.108 316.741 312.824C316.741 312.397 316.91 312.069 317.248 311.84C317.587 311.611 318.103 311.486 318.795 311.465L319.534 311.434V311.172C319.534 310.802 319.454 310.543 319.295 310.395C319.136 310.246 318.913 310.172 318.623 310.172C318.399 310.172 318.186 310.204 317.983 310.27C317.78 310.335 317.587 310.411 317.405 310.5L317.205 310.008C317.398 309.909 317.62 309.824 317.87 309.754C318.12 309.684 318.383 309.648 318.659 309.648ZM319.526 311.891L318.873 311.918C318.34 311.939 317.963 312.026 317.745 312.18C317.526 312.333 317.416 312.551 317.416 312.832C317.416 313.077 317.491 313.258 317.639 313.375C317.788 313.492 317.984 313.551 318.229 313.551C318.609 313.551 318.92 313.445 319.163 313.234C319.405 313.023 319.526 312.707 319.526 312.285V311.891ZM324.398 309.719H325.113L323.266 311.785L325.262 314H324.5L322.555 311.828V314H321.902V309.719H322.555V311.797L324.398 309.719ZM329.353 310.27H327.943V314H327.302V310.27H325.912V309.719H329.353V310.27ZM331.218 309.719V312.41C331.218 312.462 331.217 312.53 331.214 312.613C331.211 312.694 331.208 312.781 331.202 312.875C331.197 312.966 331.192 313.055 331.187 313.141C331.184 313.224 331.18 313.293 331.175 313.348L333.511 309.719H334.308V314H333.702V311.375C333.702 311.292 333.704 311.185 333.706 311.055C333.709 310.924 333.713 310.797 333.718 310.672C333.723 310.544 333.727 310.445 333.73 310.375L331.402 314H330.601V309.719H331.218Z" fill="white"/>
<path d="M251.785 309.641C252.105 309.641 252.383 309.685 252.617 309.773C252.852 309.859 253.033 309.986 253.16 310.152C253.288 310.319 253.352 310.522 253.352 310.762C253.352 311.02 253.281 311.225 253.141 311.379C253 311.533 252.806 311.643 252.559 311.711V311.742C252.733 311.789 252.891 311.857 253.031 311.945C253.174 312.031 253.288 312.146 253.371 312.289C253.457 312.43 253.5 312.605 253.5 312.816C253.5 313.056 253.435 313.272 253.305 313.465C253.174 313.655 252.977 313.805 252.711 313.914C252.445 314.023 252.109 314.078 251.703 314.078C251.503 314.078 251.312 314.066 251.133 314.043C250.953 314.022 250.79 313.991 250.645 313.949C250.499 313.908 250.371 313.858 250.262 313.801V313.211C250.444 313.299 250.658 313.378 250.902 313.445C251.147 313.513 251.411 313.547 251.695 313.547C251.914 313.547 252.111 313.522 252.285 313.473C252.46 313.421 252.598 313.339 252.699 313.227C252.803 313.112 252.855 312.962 252.855 312.777C252.855 312.608 252.81 312.469 252.719 312.359C252.628 312.247 252.491 312.165 252.309 312.113C252.129 312.059 251.901 312.031 251.625 312.031H251.051V311.5H251.523C251.891 311.5 252.184 311.448 252.402 311.344C252.621 311.24 252.73 311.064 252.73 310.816C252.73 310.603 252.646 310.444 252.477 310.34C252.307 310.233 252.065 310.18 251.75 310.18C251.516 310.18 251.309 310.204 251.129 310.254C250.949 310.301 250.755 310.368 250.547 310.457L250.316 309.938C250.54 309.839 250.775 309.764 251.02 309.715C251.264 309.665 251.52 309.641 251.785 309.641ZM256.552 309.648C257.063 309.648 257.442 309.763 257.689 309.992C257.936 310.221 258.06 310.587 258.06 311.09V314H257.588L257.463 313.367H257.431C257.311 313.523 257.186 313.655 257.056 313.762C256.926 313.866 256.775 313.945 256.603 314C256.434 314.052 256.226 314.078 255.978 314.078C255.718 314.078 255.486 314.033 255.283 313.941C255.082 313.85 254.923 313.712 254.806 313.527C254.692 313.342 254.634 313.108 254.634 312.824C254.634 312.397 254.804 312.069 255.142 311.84C255.481 311.611 255.996 311.486 256.689 311.465L257.427 311.434V311.172C257.427 310.802 257.348 310.543 257.189 310.395C257.03 310.246 256.806 310.172 256.517 310.172C256.293 310.172 256.08 310.204 255.877 310.27C255.673 310.335 255.481 310.411 255.298 310.5L255.099 310.008C255.292 309.909 255.513 309.824 255.763 309.754C256.013 309.684 256.276 309.648 256.552 309.648ZM257.42 311.891L256.767 311.918C256.233 311.939 255.857 312.026 255.638 312.18C255.42 312.333 255.31 312.551 255.31 312.832C255.31 313.077 255.384 313.258 255.533 313.375C255.681 313.492 255.878 313.551 256.123 313.551C256.503 313.551 256.814 313.445 257.056 313.234C257.298 313.023 257.42 312.707 257.42 312.285V311.891ZM263.382 309.719V314H262.73V310.277H260.448V314H259.796V309.719H263.382ZM265.774 309.719V312.41C265.774 312.462 265.773 312.53 265.77 312.613C265.768 312.694 265.764 312.781 265.759 312.875C265.753 312.966 265.748 313.055 265.743 313.141C265.74 313.224 265.736 313.293 265.731 313.348L268.067 309.719H268.864V314H268.259V311.375C268.259 311.292 268.26 311.185 268.262 311.055C268.265 310.924 268.269 310.797 268.274 310.672C268.279 310.544 268.283 310.445 268.286 310.375L265.958 314H265.157V309.719H265.774ZM272.358 314.078C271.972 314.078 271.633 313.999 271.338 313.84C271.044 313.681 270.815 313.439 270.651 313.113C270.487 312.788 270.405 312.378 270.405 311.883C270.405 311.365 270.491 310.941 270.663 310.613C270.837 310.283 271.077 310.038 271.381 309.879C271.686 309.72 272.032 309.641 272.42 309.641C272.634 309.641 272.84 309.663 273.038 309.707C273.238 309.749 273.402 309.802 273.53 309.867L273.334 310.41C273.204 310.358 273.053 310.311 272.881 310.27C272.712 310.228 272.553 310.207 272.405 310.207C272.108 310.207 271.86 310.271 271.663 310.398C271.467 310.526 271.32 310.714 271.221 310.961C271.125 311.208 271.077 311.513 271.077 311.875C271.077 312.221 271.123 312.517 271.217 312.762C271.314 313.007 271.455 313.194 271.643 313.324C271.833 313.452 272.07 313.516 272.354 313.516C272.58 313.516 272.785 313.492 272.967 313.445C273.149 313.396 273.315 313.339 273.463 313.273V313.852C273.32 313.924 273.16 313.98 272.983 314.02C272.808 314.059 272.6 314.078 272.358 314.078Z" fill="white"/>
<path d="M185.336 309.719V311.516H187.723V309.719H188.371V314H187.723V312.066H185.336V314H184.684V309.719H185.336ZM193.838 311.852C193.838 312.203 193.792 312.517 193.701 312.793C193.61 313.069 193.478 313.302 193.306 313.492C193.134 313.682 192.926 313.828 192.681 313.93C192.439 314.029 192.164 314.078 191.857 314.078C191.571 314.078 191.308 314.029 191.068 313.93C190.831 313.828 190.625 313.682 190.451 313.492C190.279 313.302 190.145 313.069 190.048 312.793C189.955 312.517 189.908 312.203 189.908 311.852C189.908 311.383 189.987 310.984 190.146 310.656C190.305 310.326 190.532 310.074 190.826 309.902C191.123 309.728 191.476 309.641 191.884 309.641C192.275 309.641 192.616 309.728 192.908 309.902C193.202 310.077 193.43 310.329 193.591 310.66C193.755 310.988 193.838 311.385 193.838 311.852ZM190.58 311.852C190.58 312.195 190.625 312.493 190.716 312.746C190.808 312.999 190.948 313.194 191.138 313.332C191.328 313.47 191.573 313.539 191.873 313.539C192.17 313.539 192.413 313.47 192.603 313.332C192.796 313.194 192.938 312.999 193.029 312.746C193.12 312.493 193.166 312.195 193.166 311.852C193.166 311.51 193.12 311.216 193.029 310.969C192.938 310.719 192.797 310.526 192.607 310.391C192.417 310.255 192.171 310.188 191.869 310.188C191.423 310.188 191.097 310.335 190.888 310.629C190.683 310.923 190.58 311.331 190.58 311.852ZM198.277 310.27H196.866V314H196.226V310.27H194.835V309.719H198.277V310.27ZM201.126 309.648C201.636 309.648 202.015 309.763 202.262 309.992C202.51 310.221 202.634 310.587 202.634 311.09V314H202.161L202.036 313.367H202.005C201.885 313.523 201.76 313.655 201.63 313.762C201.499 313.866 201.348 313.945 201.177 314C201.007 314.052 200.799 314.078 200.552 314.078C200.291 314.078 200.059 314.033 199.856 313.941C199.656 313.85 199.497 313.712 199.38 313.527C199.265 313.342 199.208 313.108 199.208 312.824C199.208 312.397 199.377 312.069 199.716 311.84C200.054 311.611 200.57 311.486 201.262 311.465L202.001 311.434V311.172C202.001 310.802 201.921 310.543 201.762 310.395C201.604 310.246 201.38 310.172 201.091 310.172C200.867 310.172 200.653 310.204 200.45 310.27C200.247 310.335 200.054 310.411 199.872 310.5L199.673 310.008C199.865 309.909 200.087 309.824 200.337 309.754C200.587 309.684 200.85 309.648 201.126 309.648ZM201.993 311.891L201.341 311.918C200.807 311.939 200.43 312.026 200.212 312.18C199.993 312.333 199.884 312.551 199.884 312.832C199.884 313.077 199.958 313.258 200.106 313.375C200.255 313.492 200.451 313.551 200.696 313.551C201.076 313.551 201.387 313.445 201.63 313.234C201.872 313.023 201.993 312.707 201.993 312.285V311.891ZM207.288 310.27H205.877V314H205.237V310.27H203.846V309.719H207.288V310.27ZM211.031 309.719H211.746L209.898 311.785L211.895 314H211.133L209.188 311.828V314H208.535V309.719H209.188V311.797L211.031 309.719ZM213.685 309.719V312.41C213.685 312.462 213.684 312.53 213.681 312.613C213.679 312.694 213.675 312.781 213.67 312.875C213.664 312.966 213.659 313.055 213.654 313.141C213.651 313.224 213.647 313.293 213.642 313.348L215.978 309.719H216.775V314H216.17V311.375C216.17 311.292 216.171 311.185 216.173 311.055C216.176 310.924 216.18 310.797 216.185 310.672C216.19 310.544 216.194 310.445 216.197 310.375L213.869 314H213.068V309.719H213.685Z" fill="white"/>
<path d="M305.82 246.719V250.449H306.434V252.48H305.805V251H302.773V252.48H302.152V250.449H302.488C302.733 250.111 302.936 249.74 303.098 249.336C303.259 248.932 303.382 248.509 303.465 248.066C303.548 247.621 303.592 247.172 303.598 246.719H305.82ZM305.191 247.234H304.176C304.152 247.615 304.096 248.001 304.008 248.395C303.922 248.788 303.807 249.163 303.664 249.52C303.521 249.874 303.354 250.184 303.164 250.449H305.191V247.234ZM311.377 248.852C311.377 249.203 311.331 249.517 311.24 249.793C311.149 250.069 311.017 250.302 310.845 250.492C310.673 250.682 310.465 250.828 310.22 250.93C309.978 251.029 309.703 251.078 309.396 251.078C309.11 251.078 308.847 251.029 308.607 250.93C308.37 250.828 308.164 250.682 307.99 250.492C307.818 250.302 307.684 250.069 307.588 249.793C307.494 249.517 307.447 249.203 307.447 248.852C307.447 248.383 307.526 247.984 307.685 247.656C307.844 247.326 308.071 247.074 308.365 246.902C308.662 246.728 309.015 246.641 309.423 246.641C309.814 246.641 310.155 246.728 310.447 246.902C310.741 247.077 310.969 247.329 311.13 247.66C311.295 247.988 311.377 248.385 311.377 248.852ZM308.119 248.852C308.119 249.195 308.164 249.493 308.255 249.746C308.347 249.999 308.487 250.194 308.677 250.332C308.867 250.47 309.112 250.539 309.412 250.539C309.709 250.539 309.952 250.47 310.142 250.332C310.335 250.194 310.477 249.999 310.568 249.746C310.659 249.493 310.705 249.195 310.705 248.852C310.705 248.51 310.659 248.216 310.568 247.969C310.477 247.719 310.336 247.526 310.146 247.391C309.956 247.255 309.71 247.188 309.408 247.188C308.963 247.188 308.636 247.335 308.427 247.629C308.222 247.923 308.119 248.331 308.119 248.852ZM316.034 246.719V250.449H316.648V252.48H316.019V251H312.988V252.48H312.366V250.449H312.702C312.947 250.111 313.15 249.74 313.312 249.336C313.473 248.932 313.596 248.509 313.679 248.066C313.762 247.621 313.807 247.172 313.812 246.719H316.034ZM315.405 247.234H314.39C314.366 247.615 314.31 248.001 314.222 248.395C314.136 248.788 314.021 249.163 313.878 249.52C313.735 249.874 313.568 250.184 313.378 250.449H315.405V247.234ZM319.501 246.648C320.011 246.648 320.39 246.763 320.637 246.992C320.885 247.221 321.009 247.587 321.009 248.09V251H320.536L320.411 250.367H320.38C320.26 250.523 320.135 250.655 320.005 250.762C319.874 250.866 319.723 250.945 319.552 251C319.382 251.052 319.174 251.078 318.927 251.078C318.666 251.078 318.434 251.033 318.231 250.941C318.031 250.85 317.872 250.712 317.755 250.527C317.64 250.342 317.583 250.108 317.583 249.824C317.583 249.397 317.752 249.069 318.091 248.84C318.429 248.611 318.945 248.486 319.637 248.465L320.376 248.434V248.172C320.376 247.802 320.296 247.543 320.137 247.395C319.979 247.246 319.755 247.172 319.466 247.172C319.242 247.172 319.028 247.204 318.825 247.27C318.622 247.335 318.429 247.411 318.247 247.5L318.048 247.008C318.24 246.909 318.462 246.824 318.712 246.754C318.962 246.684 319.225 246.648 319.501 246.648ZM320.368 248.891L319.716 248.918C319.182 248.939 318.805 249.026 318.587 249.18C318.368 249.333 318.259 249.551 318.259 249.832C318.259 250.077 318.333 250.258 318.481 250.375C318.63 250.492 318.826 250.551 319.071 250.551C319.451 250.551 319.762 250.445 320.005 250.234C320.247 250.023 320.368 249.707 320.368 249.285V248.891ZM325.663 247.27H324.252V251H323.612V247.27H322.221V246.719H325.663V247.27ZM327.527 246.719V249.41C327.527 249.462 327.526 249.53 327.523 249.613C327.521 249.694 327.517 249.781 327.512 249.875C327.507 249.966 327.501 250.055 327.496 250.141C327.493 250.224 327.49 250.293 327.484 250.348L329.82 246.719H330.617V251H330.012V248.375C330.012 248.292 330.013 248.185 330.016 248.055C330.018 247.924 330.022 247.797 330.027 247.672C330.033 247.544 330.036 247.445 330.039 247.375L327.711 251H326.91V246.719H327.527Z" fill="white"/>
<path d="M242.008 246.719H242.703L243.648 249.203C243.703 249.349 243.754 249.49 243.801 249.625C243.848 249.758 243.889 249.885 243.926 250.008C243.962 250.13 243.991 250.249 244.012 250.363H244.039C244.076 250.233 244.128 250.062 244.195 249.852C244.263 249.638 244.336 249.421 244.414 249.199L245.309 246.719H246.008L244.145 251.629C244.046 251.892 243.93 252.121 243.797 252.316C243.667 252.512 243.508 252.661 243.32 252.766C243.133 252.872 242.906 252.926 242.641 252.926C242.518 252.926 242.41 252.918 242.316 252.902C242.223 252.889 242.142 252.874 242.074 252.855V252.336C242.132 252.349 242.201 252.361 242.281 252.371C242.365 252.382 242.451 252.387 242.539 252.387C242.701 252.387 242.84 252.355 242.957 252.293C243.077 252.233 243.18 252.145 243.266 252.027C243.352 251.91 243.426 251.771 243.488 251.609L243.723 251.008L242.008 246.719ZM250.009 247.27H248.599V251H247.959V247.27H246.568V246.719H250.009V247.27ZM253.269 246.641C253.803 246.641 254.228 246.824 254.546 247.191C254.864 247.559 255.023 248.111 255.023 248.848C255.023 249.335 254.95 249.743 254.804 250.074C254.658 250.405 254.452 250.655 254.187 250.824C253.924 250.993 253.613 251.078 253.253 251.078C253.027 251.078 252.827 251.048 252.655 250.988C252.484 250.928 252.336 250.848 252.214 250.746C252.092 250.645 251.99 250.534 251.909 250.414H251.863C251.87 250.516 251.879 250.638 251.89 250.781C251.903 250.924 251.909 251.049 251.909 251.156V252.914H251.257V246.719H251.792L251.878 247.352H251.909C251.993 247.221 252.094 247.103 252.214 246.996C252.334 246.887 252.48 246.801 252.652 246.738C252.826 246.673 253.032 246.641 253.269 246.641ZM253.155 247.188C252.859 247.188 252.619 247.245 252.437 247.359C252.257 247.474 252.126 247.646 252.042 247.875C251.959 248.102 251.915 248.387 251.909 248.73V248.855C251.909 249.217 251.948 249.523 252.027 249.773C252.107 250.023 252.239 250.214 252.421 250.344C252.606 250.474 252.853 250.539 253.163 250.539C253.429 250.539 253.65 250.467 253.827 250.324C254.004 250.181 254.136 249.982 254.222 249.727C254.31 249.469 254.355 249.173 254.355 248.84C254.355 248.335 254.256 247.934 254.058 247.637C253.863 247.337 253.562 247.188 253.155 247.188ZM257.173 246.719V249.41C257.173 249.462 257.171 249.53 257.169 249.613C257.166 249.694 257.162 249.781 257.157 249.875C257.152 249.966 257.147 250.055 257.141 250.141C257.139 250.224 257.135 250.293 257.13 250.348L259.466 246.719H260.262V251H259.657V248.375C259.657 248.292 259.658 248.185 259.661 248.055C259.664 247.924 259.667 247.797 259.673 247.672C259.678 247.544 259.682 247.445 259.684 247.375L257.356 251H256.555V246.719H257.173ZM266.561 246.719V251H265.975V248.211C265.975 248.096 265.978 247.98 265.983 247.863C265.991 247.743 266 247.624 266.01 247.504H265.987L264.565 251H264.014L262.627 247.504H262.604C262.612 247.624 262.617 247.743 262.62 247.863C262.625 247.98 262.627 248.104 262.627 248.234V251H262.038V246.719H262.909L264.291 250.219L265.694 246.719H266.561ZM269.91 246.648C270.421 246.648 270.799 246.763 271.047 246.992C271.294 247.221 271.418 247.587 271.418 248.09V251H270.945L270.82 250.367H270.789C270.669 250.523 270.544 250.655 270.414 250.762C270.284 250.866 270.133 250.945 269.961 251C269.792 251.052 269.583 251.078 269.336 251.078C269.076 251.078 268.844 251.033 268.641 250.941C268.44 250.85 268.281 250.712 268.164 250.527C268.049 250.342 267.992 250.108 267.992 249.824C267.992 249.397 268.161 249.069 268.5 248.84C268.839 248.611 269.354 248.486 270.047 248.465L270.785 248.434V248.172C270.785 247.802 270.706 247.543 270.547 247.395C270.388 247.246 270.164 247.172 269.875 247.172C269.651 247.172 269.438 247.204 269.234 247.27C269.031 247.335 268.839 247.411 268.656 247.5L268.457 247.008C268.65 246.909 268.871 246.824 269.121 246.754C269.371 246.684 269.634 246.648 269.91 246.648ZM270.777 248.891L270.125 248.918C269.591 248.939 269.215 249.026 268.996 249.18C268.777 249.333 268.668 249.551 268.668 249.832C268.668 250.077 268.742 250.258 268.891 250.375C269.039 250.492 269.236 250.551 269.48 250.551C269.861 250.551 270.172 250.445 270.414 250.234C270.656 250.023 270.777 249.707 270.777 249.285V248.891ZM276.072 247.27H274.662V251H274.021V247.27H272.63V246.719H276.072V247.27ZM277.937 246.719V249.41C277.937 249.462 277.935 249.53 277.933 249.613C277.93 249.694 277.926 249.781 277.921 249.875C277.916 249.966 277.911 250.055 277.905 250.141C277.903 250.224 277.899 250.293 277.894 250.348L280.23 246.719H281.027V251H280.421V248.375C280.421 248.292 280.422 248.185 280.425 248.055C280.428 247.924 280.432 247.797 280.437 247.672C280.442 247.544 280.446 247.445 280.448 247.375L278.12 251H277.32V246.719H277.937Z" fill="white"/>
<path d="M186.18 246.719H186.895L185.047 248.785L187.043 251H186.281L184.336 248.828V251H183.684V246.719H184.336V248.797L186.18 246.719ZM189.818 246.648C190.328 246.648 190.707 246.763 190.955 246.992C191.202 247.221 191.326 247.587 191.326 248.09V251H190.853L190.728 250.367H190.697C190.577 250.523 190.452 250.655 190.322 250.762C190.192 250.866 190.041 250.945 189.869 251C189.699 251.052 189.491 251.078 189.244 251.078C188.983 251.078 188.752 251.033 188.548 250.941C188.348 250.85 188.189 250.712 188.072 250.527C187.957 250.342 187.9 250.108 187.9 249.824C187.9 249.397 188.069 249.069 188.408 248.84C188.746 248.611 189.262 248.486 189.955 248.465L190.693 248.434V248.172C190.693 247.802 190.614 247.543 190.455 247.395C190.296 247.246 190.072 247.172 189.783 247.172C189.559 247.172 189.345 247.204 189.142 247.27C188.939 247.335 188.746 247.411 188.564 247.5L188.365 247.008C188.558 246.909 188.779 246.824 189.029 246.754C189.279 246.684 189.542 246.648 189.818 246.648ZM190.685 248.891L190.033 248.918C189.499 248.939 189.123 249.026 188.904 249.18C188.685 249.333 188.576 249.551 188.576 249.832C188.576 250.077 188.65 250.258 188.798 250.375C188.947 250.492 189.143 250.551 189.388 250.551C189.768 250.551 190.08 250.445 190.322 250.234C190.564 250.023 190.685 249.707 190.685 249.285V248.891ZM196.273 251H195.613V247.262H194.312C194.26 247.936 194.193 248.514 194.113 248.996C194.034 249.475 193.935 249.867 193.816 250.172C193.698 250.474 193.555 250.697 193.386 250.84C193.219 250.98 193.02 251.051 192.788 251.051C192.718 251.051 192.652 251.047 192.589 251.039C192.527 251.031 192.473 251.018 192.429 251V250.508C192.463 250.518 192.498 250.526 192.534 250.531C192.573 250.536 192.614 250.539 192.655 250.539C192.773 250.539 192.879 250.491 192.976 250.395C193.075 250.296 193.163 250.147 193.241 249.949C193.322 249.751 193.394 249.501 193.456 249.199C193.519 248.895 193.573 248.536 193.62 248.125C193.67 247.711 193.713 247.242 193.749 246.719H196.273V251ZM199.688 246.641C200.053 246.641 200.365 246.721 200.626 246.883C200.886 247.044 201.085 247.271 201.223 247.562C201.361 247.852 201.43 248.19 201.43 248.578V248.98H198.473C198.481 249.483 198.606 249.866 198.848 250.129C199.091 250.392 199.432 250.523 199.872 250.523C200.143 250.523 200.382 250.499 200.591 250.449C200.799 250.4 201.015 250.327 201.239 250.23V250.801C201.023 250.897 200.808 250.967 200.595 251.012C200.384 251.056 200.134 251.078 199.845 251.078C199.433 251.078 199.074 250.995 198.766 250.828C198.462 250.659 198.225 250.411 198.055 250.086C197.886 249.76 197.802 249.362 197.802 248.891C197.802 248.43 197.878 248.031 198.032 247.695C198.188 247.357 198.407 247.096 198.688 246.914C198.972 246.732 199.305 246.641 199.688 246.641ZM199.68 247.172C199.334 247.172 199.058 247.285 198.852 247.512C198.647 247.738 198.524 248.055 198.485 248.461H200.751C200.748 248.206 200.708 247.982 200.63 247.789C200.554 247.594 200.438 247.443 200.282 247.336C200.126 247.227 199.925 247.172 199.68 247.172ZM203.584 246.719V248.516H205.971V246.719H206.62V251H205.971V249.066H203.584V251H202.932V246.719H203.584ZM211.531 246.719V250.449H212.145V252.48H211.516V251H208.484V252.48H207.863V250.449H208.199C208.444 250.111 208.647 249.74 208.809 249.336C208.97 248.932 209.092 248.509 209.176 248.066C209.259 247.621 209.303 247.172 209.309 246.719H211.531ZM210.902 247.234H209.887C209.863 247.615 209.807 248.001 209.719 248.395C209.633 248.788 209.518 249.163 209.375 249.52C209.232 249.874 209.065 250.184 208.875 250.449H210.902V247.234ZM214.998 246.648C215.508 246.648 215.887 246.763 216.134 246.992C216.382 247.221 216.505 247.587 216.505 248.09V251H216.033L215.908 250.367H215.877C215.757 250.523 215.632 250.655 215.502 250.762C215.371 250.866 215.22 250.945 215.048 251C214.879 251.052 214.671 251.078 214.423 251.078C214.163 251.078 213.931 251.033 213.728 250.941C213.528 250.85 213.369 250.712 213.252 250.527C213.137 250.342 213.08 250.108 213.08 249.824C213.08 249.397 213.249 249.069 213.587 248.84C213.926 248.611 214.442 248.486 215.134 248.465L215.873 248.434V248.172C215.873 247.802 215.793 247.543 215.634 247.395C215.476 247.246 215.252 247.172 214.962 247.172C214.739 247.172 214.525 247.204 214.322 247.27C214.119 247.335 213.926 247.411 213.744 247.5L213.545 247.008C213.737 246.909 213.959 246.824 214.209 246.754C214.459 246.684 214.722 246.648 214.998 246.648ZM215.865 248.891L215.212 248.918C214.679 248.939 214.302 249.026 214.084 249.18C213.865 249.333 213.755 249.551 213.755 249.832C213.755 250.077 213.83 250.258 213.978 250.375C214.127 250.492 214.323 250.551 214.568 250.551C214.948 250.551 215.259 250.445 215.502 250.234C215.744 250.023 215.865 249.707 215.865 249.285V248.891ZM220.253 246.641C220.787 246.641 221.213 246.824 221.53 247.191C221.848 247.559 222.007 248.111 222.007 248.848C222.007 249.335 221.934 249.743 221.788 250.074C221.642 250.405 221.437 250.655 221.171 250.824C220.908 250.993 220.597 251.078 220.237 251.078C220.011 251.078 219.812 251.048 219.64 250.988C219.468 250.928 219.321 250.848 219.198 250.746C219.076 250.645 218.974 250.534 218.894 250.414H218.847C218.855 250.516 218.864 250.638 218.874 250.781C218.887 250.924 218.894 251.049 218.894 251.156V252.914H218.241V246.719H218.777L218.862 247.352H218.894C218.977 247.221 219.079 247.103 219.198 246.996C219.318 246.887 219.464 246.801 219.636 246.738C219.81 246.673 220.016 246.641 220.253 246.641ZM220.14 247.188C219.843 247.188 219.603 247.245 219.421 247.359C219.241 247.474 219.11 247.646 219.027 247.875C218.943 248.102 218.899 248.387 218.894 248.73V248.855C218.894 249.217 218.933 249.523 219.011 249.773C219.092 250.023 219.223 250.214 219.405 250.344C219.59 250.474 219.838 250.539 220.148 250.539C220.413 250.539 220.635 250.467 220.812 250.324C220.989 250.181 221.12 249.982 221.206 249.727C221.295 249.469 221.339 249.173 221.339 248.84C221.339 248.335 221.24 247.934 221.042 247.637C220.847 247.337 220.546 247.188 220.14 247.188Z" fill="white"/>
<path d="M213.078 162V153.434H219.857V162H218.047V154.945H214.895V162H213.078ZM228.432 158.713C228.432 159.26 228.358 159.744 228.209 160.166C228.065 160.588 227.852 160.945 227.571 161.238C227.293 161.527 226.957 161.746 226.563 161.895C226.172 162.043 225.731 162.117 225.239 162.117C224.778 162.117 224.354 162.043 223.967 161.895C223.584 161.746 223.25 161.527 222.965 161.238C222.684 160.945 222.465 160.588 222.309 160.166C222.157 159.744 222.08 159.26 222.08 158.713C222.08 157.986 222.209 157.371 222.467 156.867C222.725 156.363 223.092 155.98 223.569 155.719C224.045 155.457 224.614 155.326 225.274 155.326C225.887 155.326 226.43 155.457 226.903 155.719C227.379 155.98 227.752 156.363 228.022 156.867C228.295 157.371 228.432 157.986 228.432 158.713ZM223.903 158.713C223.903 159.143 223.95 159.504 224.043 159.797C224.137 160.09 224.284 160.311 224.483 160.459C224.682 160.607 224.942 160.682 225.262 160.682C225.579 160.682 225.834 160.607 226.03 160.459C226.229 160.311 226.373 160.09 226.463 159.797C226.557 159.504 226.604 159.143 226.604 158.713C226.604 158.279 226.557 157.92 226.463 157.635C226.373 157.346 226.229 157.129 226.03 156.984C225.83 156.84 225.571 156.768 225.25 156.768C224.778 156.768 224.434 156.93 224.219 157.254C224.008 157.578 223.903 158.064 223.903 158.713ZM236.374 162H234.587V156.791H232.94C232.858 157.752 232.761 158.57 232.647 159.246C232.534 159.922 232.389 160.473 232.214 160.898C232.038 161.32 231.819 161.629 231.557 161.824C231.296 162.02 230.973 162.117 230.591 162.117C230.38 162.117 230.19 162.102 230.022 162.07C229.858 162.039 229.708 161.992 229.571 161.93V160.5C229.657 160.535 229.749 160.564 229.846 160.588C229.944 160.607 230.044 160.617 230.145 160.617C230.259 160.617 230.366 160.572 230.468 160.482C230.569 160.393 230.665 160.238 230.755 160.02C230.845 159.797 230.929 159.49 231.007 159.1C231.089 158.709 231.163 158.215 231.229 157.617C231.296 157.02 231.358 156.297 231.417 155.449H236.374V162ZM240.642 155.449V162H238.855V155.449H240.642ZM239.751 152.883C240.017 152.883 240.245 152.945 240.437 153.07C240.628 153.191 240.724 153.42 240.724 153.756C240.724 154.088 240.628 154.318 240.437 154.447C240.245 154.572 240.017 154.635 239.751 154.635C239.482 154.635 239.251 154.572 239.06 154.447C238.872 154.318 238.779 154.088 238.779 153.756C238.779 153.42 238.872 153.191 239.06 153.07C239.251 152.945 239.482 152.883 239.751 152.883ZM245.783 162.117C245.134 162.117 244.582 162 244.125 161.766C243.668 161.527 243.32 161.16 243.082 160.664C242.843 160.168 242.724 159.533 242.724 158.76C242.724 157.959 242.859 157.307 243.129 156.803C243.402 156.295 243.779 155.922 244.259 155.684C244.744 155.445 245.304 155.326 245.941 155.326C246.394 155.326 246.785 155.371 247.113 155.461C247.445 155.547 247.734 155.65 247.98 155.771L247.453 157.154C247.171 157.041 246.91 156.949 246.668 156.879C246.425 156.805 246.183 156.768 245.941 156.768C245.629 156.768 245.369 156.842 245.162 156.99C244.955 157.135 244.8 157.354 244.699 157.646C244.597 157.939 244.546 158.307 244.546 158.748C244.546 159.182 244.601 159.541 244.711 159.826C244.82 160.111 244.978 160.324 245.185 160.465C245.392 160.602 245.644 160.67 245.941 160.67C246.312 160.67 246.642 160.621 246.931 160.523C247.22 160.422 247.502 160.281 247.775 160.102V161.631C247.502 161.803 247.214 161.926 246.914 162C246.617 162.078 246.24 162.117 245.783 162.117ZM252.582 155.314C253.461 155.314 254.135 155.506 254.604 155.889C255.072 156.271 255.307 156.854 255.307 157.635V162H254.059L253.713 161.109H253.666C253.479 161.344 253.287 161.535 253.092 161.684C252.896 161.832 252.672 161.941 252.418 162.012C252.164 162.082 251.855 162.117 251.492 162.117C251.105 162.117 250.758 162.043 250.449 161.895C250.145 161.746 249.904 161.52 249.729 161.215C249.553 160.906 249.465 160.516 249.465 160.043C249.465 159.348 249.709 158.836 250.197 158.508C250.686 158.176 251.418 157.992 252.395 157.957L253.531 157.922V157.635C253.531 157.291 253.441 157.039 253.262 156.879C253.082 156.719 252.832 156.639 252.512 156.639C252.195 156.639 251.885 156.684 251.58 156.773C251.275 156.863 250.971 156.977 250.666 157.113L250.074 155.906C250.422 155.723 250.811 155.578 251.24 155.473C251.674 155.367 252.121 155.314 252.582 155.314ZM253.531 158.965L252.84 158.988C252.262 159.004 251.859 159.107 251.633 159.299C251.41 159.49 251.299 159.742 251.299 160.055C251.299 160.328 251.379 160.523 251.539 160.641C251.699 160.754 251.908 160.811 252.166 160.811C252.549 160.811 252.871 160.697 253.133 160.471C253.398 160.244 253.531 159.922 253.531 159.504V158.965ZM257.172 159.516V158.051H260.319V159.516H257.172ZM268.173 158.713C268.173 159.26 268.098 159.744 267.95 160.166C267.805 160.588 267.593 160.945 267.311 161.238C267.034 161.527 266.698 161.746 266.304 161.895C265.913 162.043 265.471 162.117 264.979 162.117C264.518 162.117 264.095 162.043 263.708 161.895C263.325 161.746 262.991 161.527 262.706 161.238C262.425 160.945 262.206 160.588 262.05 160.166C261.897 159.744 261.821 159.26 261.821 158.713C261.821 157.986 261.95 157.371 262.208 156.867C262.466 156.363 262.833 155.98 263.309 155.719C263.786 155.457 264.354 155.326 265.014 155.326C265.628 155.326 266.171 155.457 266.643 155.719C267.12 155.98 267.493 156.363 267.763 156.867C268.036 157.371 268.173 157.986 268.173 158.713ZM263.643 158.713C263.643 159.143 263.69 159.504 263.784 159.797C263.878 160.09 264.024 160.311 264.223 160.459C264.423 160.607 264.682 160.682 265.003 160.682C265.319 160.682 265.575 160.607 265.77 160.459C265.97 160.311 266.114 160.09 266.204 159.797C266.298 159.504 266.345 159.143 266.345 158.713C266.345 158.279 266.298 157.92 266.204 157.635C266.114 157.346 265.97 157.129 265.77 156.984C265.571 156.84 265.311 156.768 264.991 156.768C264.518 156.768 264.175 156.93 263.96 157.254C263.749 157.578 263.643 158.064 263.643 158.713ZM272.036 155.449V157.969H274.532V155.449H276.32V162H274.532V159.299H272.036V162H270.249V155.449H272.036ZM284.66 162H282.873V156.791H281.226C281.144 157.752 281.046 158.57 280.933 159.246C280.82 159.922 280.675 160.473 280.5 160.898C280.324 161.32 280.105 161.629 279.843 161.824C279.582 162.02 279.259 162.117 278.877 162.117C278.666 162.117 278.476 162.102 278.308 162.07C278.144 162.039 277.994 161.992 277.857 161.93V160.5C277.943 160.535 278.035 160.564 278.132 160.588C278.23 160.607 278.33 160.617 278.431 160.617C278.545 160.617 278.652 160.572 278.754 160.482C278.855 160.393 278.951 160.238 279.041 160.02C279.13 159.797 279.214 159.49 279.293 159.1C279.375 158.709 279.449 158.215 279.515 157.617C279.582 157.02 279.644 156.297 279.703 155.449H284.66V162ZM289.824 155.314C290.703 155.314 291.377 155.506 291.846 155.889C292.314 156.271 292.549 156.854 292.549 157.635V162H291.301L290.955 161.109H290.908C290.721 161.344 290.529 161.535 290.334 161.684C290.139 161.832 289.914 161.941 289.66 162.012C289.406 162.082 289.098 162.117 288.734 162.117C288.348 162.117 288 162.043 287.691 161.895C287.387 161.746 287.146 161.52 286.971 161.215C286.795 160.906 286.707 160.516 286.707 160.043C286.707 159.348 286.951 158.836 287.439 158.508C287.928 158.176 288.66 157.992 289.637 157.957L290.773 157.922V157.635C290.773 157.291 290.684 157.039 290.504 156.879C290.324 156.719 290.074 156.639 289.754 156.639C289.438 156.639 289.127 156.684 288.822 156.773C288.518 156.863 288.213 156.977 287.908 157.113L287.316 155.906C287.664 155.723 288.053 155.578 288.482 155.473C288.916 155.367 289.363 155.314 289.824 155.314ZM290.773 158.965L290.082 158.988C289.504 159.004 289.102 159.107 288.875 159.299C288.652 159.49 288.541 159.742 288.541 160.055C288.541 160.328 288.621 160.523 288.781 160.641C288.941 160.754 289.15 160.811 289.408 160.811C289.791 160.811 290.113 160.697 290.375 160.471C290.641 160.244 290.773 159.922 290.773 159.504V158.965ZM296.723 155.449V158.039C296.723 158.172 296.717 158.34 296.705 158.543C296.698 158.742 296.686 158.945 296.67 159.152C296.655 159.359 296.639 159.545 296.623 159.709C296.608 159.873 296.596 159.984 296.588 160.043L299.612 155.449H301.762V162H300.034V159.387C300.034 159.172 300.041 158.936 300.057 158.678C300.073 158.416 300.09 158.17 300.11 157.939C300.129 157.709 300.143 157.535 300.151 157.418L297.139 162H294.995V155.449H296.723ZM301.27 152.631C301.227 153.045 301.11 153.41 300.918 153.727C300.727 154.043 300.428 154.289 300.022 154.465C299.616 154.641 299.069 154.729 298.381 154.729C297.674 154.729 297.123 154.645 296.729 154.477C296.334 154.305 296.053 154.062 295.885 153.75C295.717 153.434 295.616 153.061 295.58 152.631H297.18C297.215 153.072 297.327 153.365 297.514 153.51C297.702 153.65 298.002 153.721 298.416 153.721C298.76 153.721 299.041 153.643 299.26 153.486C299.479 153.33 299.61 153.045 299.653 152.631H301.27ZM306.03 155.449V157.969H308.526V155.449H310.313V162H308.526V159.299H306.03V162H304.243V155.449H306.03Z" fill="white"/>
<path d="M245.82 47.7188V51.4492H246.434V53.4805H245.805V52H242.773V53.4805H242.152V51.4492H242.488C242.733 51.1107 242.936 50.7396 243.098 50.3359C243.259 49.9323 243.382 49.5091 243.465 49.0664C243.548 48.6211 243.592 48.1719 243.598 47.7188H245.82ZM245.191 48.2344H244.176C244.152 48.6146 244.096 49.0013 244.008 49.3945C243.922 49.7878 243.807 50.1628 243.664 50.5195C243.521 50.8737 243.354 51.1836 243.164 51.4492H245.191V48.2344ZM248.787 47.6406C249.107 47.6406 249.384 47.6849 249.619 47.7734C249.853 47.8594 250.034 47.9857 250.162 48.1523C250.289 48.319 250.353 48.5221 250.353 48.7617C250.353 49.0195 250.283 49.2253 250.142 49.3789C250.002 49.5326 249.808 49.6432 249.56 49.7109V49.7422C249.735 49.7891 249.892 49.8568 250.033 49.9453C250.176 50.0312 250.289 50.1458 250.373 50.2891C250.459 50.4297 250.502 50.6055 250.502 50.8164C250.502 51.056 250.436 51.2721 250.306 51.4648C250.176 51.6549 249.978 51.8047 249.713 51.9141C249.447 52.0234 249.111 52.0781 248.705 52.0781C248.504 52.0781 248.314 52.0664 248.134 52.043C247.955 52.0221 247.792 51.9909 247.646 51.9492C247.5 51.9076 247.373 51.8581 247.263 51.8008V51.2109C247.446 51.2995 247.659 51.3776 247.904 51.4453C248.149 51.513 248.413 51.5469 248.697 51.5469C248.916 51.5469 249.112 51.5221 249.287 51.4727C249.461 51.4206 249.599 51.3385 249.701 51.2266C249.805 51.112 249.857 50.9622 249.857 50.7773C249.857 50.6081 249.811 50.4688 249.72 50.3594C249.629 50.2474 249.492 50.1654 249.31 50.1133C249.13 50.0586 248.903 50.0312 248.627 50.0312H248.052V49.5H248.525C248.892 49.5 249.185 49.4479 249.404 49.3438C249.623 49.2396 249.732 49.0638 249.732 48.8164C249.732 48.6029 249.647 48.444 249.478 48.3398C249.309 48.2331 249.067 48.1797 248.752 48.1797C248.517 48.1797 248.31 48.2044 248.13 48.2539C247.951 48.3008 247.757 48.3685 247.548 48.457L247.318 47.9375C247.542 47.8385 247.776 47.7643 248.021 47.7148C248.266 47.6654 248.521 47.6406 248.787 47.6406ZM255.355 48.793C255.355 49.0612 255.277 49.2708 255.12 49.4219C254.964 49.5703 254.762 49.6706 254.515 49.7227V49.7539C254.783 49.7904 255.014 49.8867 255.206 50.043C255.402 50.1966 255.499 50.4323 255.499 50.75C255.499 50.9948 255.441 51.2109 255.323 51.3984C255.206 51.5859 255.023 51.7331 254.773 51.8398C254.523 51.9466 254.197 52 253.796 52H251.952V47.7188H253.78C254.088 47.7188 254.359 47.7539 254.593 47.8242C254.83 47.8919 255.016 48.0039 255.152 48.1602C255.287 48.3164 255.355 48.5273 255.355 48.793ZM254.823 50.75C254.823 50.4974 254.727 50.3151 254.534 50.2031C254.344 50.0911 254.067 50.0352 253.702 50.0352H252.605V51.4727H253.718C254.077 51.4727 254.351 51.418 254.538 51.3086C254.728 51.1966 254.823 51.0104 254.823 50.75ZM254.695 48.8672C254.695 48.6641 254.62 48.513 254.472 48.4141C254.323 48.3125 254.08 48.2617 253.741 48.2617H252.605V49.4922H253.628C253.98 49.4922 254.245 49.4414 254.425 49.3398C254.605 49.2383 254.695 49.0807 254.695 48.8672ZM257.595 47.7188V52H256.946V47.7188H257.595ZM257.278 46.1172C257.385 46.1172 257.476 46.1523 257.552 46.2227C257.63 46.2904 257.669 46.3971 257.669 46.543C257.669 46.6862 257.63 46.793 257.552 46.8633C257.476 46.9336 257.385 46.9688 257.278 46.9688C257.166 46.9688 257.072 46.9336 256.997 46.8633C256.924 46.793 256.887 46.6862 256.887 46.543C256.887 46.3971 256.924 46.2904 256.997 46.2227C257.072 46.1523 257.166 46.1172 257.278 46.1172ZM260.022 47.7188V49.5156H262.409V47.7188H263.057V52H262.409V50.0664H260.022V52H259.37V47.7188H260.022ZM268.523 49.8516C268.523 50.2031 268.478 50.5169 268.387 50.793C268.296 51.069 268.164 51.3021 267.992 51.4922C267.82 51.6823 267.612 51.8281 267.367 51.9297C267.125 52.0286 266.85 52.0781 266.543 52.0781C266.257 52.0781 265.993 52.0286 265.754 51.9297C265.517 51.8281 265.311 51.6823 265.137 51.4922C264.965 51.3021 264.831 51.069 264.734 50.793C264.641 50.5169 264.594 50.2031 264.594 49.8516C264.594 49.3828 264.673 48.9844 264.832 48.6562C264.991 48.3255 265.217 48.0742 265.512 47.9023C265.809 47.7279 266.161 47.6406 266.57 47.6406C266.961 47.6406 267.302 47.7279 267.594 47.9023C267.888 48.0768 268.116 48.3294 268.277 48.6602C268.441 48.9883 268.523 49.3854 268.523 49.8516ZM265.266 49.8516C265.266 50.1953 265.311 50.4935 265.402 50.7461C265.493 50.9987 265.634 51.194 265.824 51.332C266.014 51.4701 266.259 51.5391 266.559 51.5391C266.855 51.5391 267.099 51.4701 267.289 51.332C267.482 51.194 267.624 50.9987 267.715 50.7461C267.806 50.4935 267.852 50.1953 267.852 49.8516C267.852 49.5104 267.806 49.2161 267.715 48.9688C267.624 48.7188 267.483 48.526 267.293 48.3906C267.103 48.2552 266.857 48.1875 266.555 48.1875C266.109 48.1875 265.783 48.3346 265.574 48.6289C265.368 48.9232 265.266 49.3307 265.266 49.8516ZM272.541 47.7188H273.255L271.408 49.7852L273.404 52H272.642L270.697 49.8281V52H270.045V47.7188H270.697V49.7969L272.541 47.7188ZM274.48 51.5938C274.48 51.4115 274.524 51.2826 274.612 51.207C274.701 51.1289 274.809 51.0898 274.937 51.0898C275.07 51.0898 275.182 51.1289 275.273 51.207C275.364 51.2826 275.409 51.4115 275.409 51.5938C275.409 51.7734 275.364 51.9049 275.273 51.9883C275.182 52.069 275.07 52.1094 274.937 52.1094C274.809 52.1094 274.701 52.069 274.612 51.9883C274.524 51.9049 274.48 51.7734 274.48 51.5938ZM276.981 51.5938C276.981 51.4115 277.026 51.2826 277.114 51.207C277.203 51.1289 277.311 51.0898 277.438 51.0898C277.571 51.0898 277.683 51.1289 277.774 51.207C277.865 51.2826 277.911 51.4115 277.911 51.5938C277.911 51.7734 277.865 51.9049 277.774 51.9883C277.683 52.069 277.571 52.1094 277.438 52.1094C277.311 52.1094 277.203 52.069 277.114 51.9883C277.026 51.9049 276.981 51.7734 276.981 51.5938ZM279.483 51.5938C279.483 51.4115 279.527 51.2826 279.616 51.207C279.704 51.1289 279.812 51.0898 279.94 51.0898C280.073 51.0898 280.185 51.1289 280.276 51.207C280.367 51.2826 280.412 51.4115 280.412 51.5938C280.412 51.7734 280.367 51.9049 280.276 51.9883C280.185 52.069 280.073 52.1094 279.94 52.1094C279.812 52.1094 279.704 52.069 279.616 51.9883C279.527 51.9049 279.483 51.7734 279.483 51.5938Z" fill="white"/>
</svg>
