<svg xmlns="http://www.w3.org/2000/svg" width="410" height="392" viewBox="0 0 410 392" fill="none">
<path d="M204 392C202.782 392 202.218 392.021 201 392C146.45 391.479 95.84 379.412 58.0002 358C20.4041 336.713 -0.520271 308.785 0.000205378 279C0.265981 264.024 5.36919 249.705 16.0002 236C26.9191 221.92 43.6795 208.654 64.0002 198C103.424 177.328 154.461 166.469 209 167C263.551 167.521 314.16 179.588 352 201C389.596 222.287 410.521 250.215 410 280C409.734 294.976 404.631 309.295 394 323C383.081 337.08 366.321 350.346 346 361C307.463 381.214 257.2 392 204 392ZM206 171C155.591 171 105.169 181.463 66.0002 202C26.9534 222.475 4.52068 249.746 4.00021 279C3.50188 307.317 23.744 334.473 60.0002 355C99.3128 377.256 151.255 388 204 388C254.409 388 304.832 377.537 344 357C383.047 336.525 405.48 309.254 406 280C406.499 251.683 386.256 224.527 350 204C310.688 181.745 258.746 171 206 171Z" fill="url(#paint0_linear_1045_5348)"/>
<path d="M204.575 376.534C302.606 376.277 382.446 332.639 382.287 279.067C382.128 225.496 302.03 182.278 203.999 182.535C105.969 182.793 27.1289 226.428 27.288 280C27.4471 333.571 106.545 376.792 204.575 376.534Z" fill="url(#paint1_linear_1045_5348)"/>
<path d="M27.0002 276C26.9119 277.33 27.0002 278.67 27.0002 280C27.0333 278.737 26.956 277.385 27.0002 276Z" fill="#00812A"/>
<path d="M383 274C382.579 266.91 381.953 258.35 381 252C380.114 246.109 377.728 238.724 376 233C374.249 227.203 371.581 219.505 369 214C365.754 207.087 360.966 197.579 357 191C353.776 185.64 348.133 179.776 344 175C339.347 169.63 333.24 162.869 328 158C322.881 153.245 314.739 147.087 309 143C305.565 140.55 300.667 138.117 297 136C291.405 132.945 283.905 129.471 278 127C274.721 125.624 270.368 123.178 267 122C264.064 120.968 260.025 119.803 257 119C254.43 118.312 251.604 117.542 249 117C246.463 116.468 242.559 115.48 240 115C237.441 114.52 233.581 114.375 231 114C228.54 113.645 225.482 113.188 223 113C218.247 112.645 211.764 112.083 207 112C204.618 111.958 201.371 111.917 199 112C196.618 112.073 194.371 112.875 192 113C189.574 113.125 185.404 112.708 183 113C180.54 113.302 177.449 113.604 175 114C172.485 114.407 169.504 115.531 167 116C164.43 116.48 160.537 117.395 158 118C155.219 118.667 151.714 120.145 149 121C146.053 121.938 142.881 122.895 140 124C137.153 125.095 132.77 126.759 130 128C126.599 129.522 122.279 131.248 119 133C116.031 134.585 111.836 137.238 109 139C105.156 141.388 100.656 144.372 97 147C91.1834 151.171 84.2294 157.193 79 162C74.7899 165.868 69.5786 171.6 66 176C61.668 181.328 55.6007 189.213 52 195C47.9229 201.548 43.2351 210.045 40 217C38.2052 220.879 37.1744 226.913 36 231C33.8285 238.591 31.2076 248.221 30 256C29.1026 261.818 28.2327 269.566 28 276C29.6286 251.736 48.3332 228.195 83 210C153.818 172.838 266.062 173.524 334 212C364.667 229.371 380.806 251.644 383 274ZM309 145C309 145 309.033 144.031 309 144C309.033 144.031 308.967 144.969 309 145Z" fill="url(#paint2_linear_1045_5348)"/>
<path d="M381 258C380.192 251.893 378.704 243.93 377 238C374.853 230.517 371.11 221.171 368 214C365.455 208.122 361.331 200.524 358 195C354.259 188.788 348.726 180.586 344 175C339.274 169.403 332.334 163.097 327 158C323.89 155.03 318.519 151.522 315 149C309.378 144.987 301.932 139.617 296 136C295.701 135.833 295.31 135.167 295 135C294.923 134.958 295.077 135.042 295 135C291.746 133.218 287.154 131.522 284 130C281.2 128.645 277.877 127.199 275 126C272.045 124.76 268.043 123.042 265 122C262.222 121.041 258.855 119.761 256 119C253.443 118.312 249.59 117.542 247 117C244.466 116.469 241.545 115.469 239 115C236.521 114.541 232.501 114.354 230 114C227.576 113.656 224.446 113.177 222 113C217.252 112.656 210.759 112.073 206 112C203.632 111.958 200.368 111.917 198 112C195.621 112.073 192.368 112.875 190 113C187.554 113.136 184.424 112.698 182 113C179.477 113.313 176.501 113.594 174 114C171.488 114.417 168.512 115.531 166 116C163.432 116.479 159.534 117.396 157 118C154.078 118.698 150.855 120.072 148 121C144.779 122.042 140.154 123.781 137 125C131.179 127.251 123.534 130.165 118 133C114.016 135.043 108.785 138.645 105 141C102.1 142.803 98.8 145.061 96 147C91.4625 150.158 86.0395 155.279 82 159C77.0973 163.513 70.2608 168.924 66 174C61.1637 179.764 54.9399 188.663 51 195C44.3708 205.662 41.2466 212.747 39 218C36.2886 224.347 33.8925 233.403 32 240C29.8087 247.65 28.9628 258.142 28 266C27.513 269.992 27.1549 275.977 27 280C27.0775 304.055 43.0643 327.323 76 346C143.864 384.469 256.259 386.156 327 349C363.411 329.886 382.077 304.514 382 279C381.856 272.934 381.797 264.024 381 258Z" fill="url(#paint3_linear_1045_5348)"/>
<g style="mix-blend-mode:screen">
<path d="M316.312 179.822C322.796 166.088 307.85 147.06 282.622 136.528C257.394 125.995 231.439 127.946 224.954 141.68C218.47 155.414 233.913 175.731 259.14 186.263C284.368 196.796 309.828 193.556 316.312 179.822Z" fill="url(#paint4_linear_1045_5348)"/>
</g>
<path d="M286 237C286 237.571 285.875 237.634 286 238C286 237.978 286 238.022 286 238C286.057 238.151 285.909 238.903 286 239C286.068 239.065 286.886 238.925 287 239C287.455 239.334 288.089 239.849 289 240C289.33 240.054 289.636 240.032 290 240C289.932 240.022 290.057 240 290 240C290.387 239.957 290.613 240.194 291 240C291.08 239.957 291.909 239.054 292 239C291.909 239.054 292.091 238.957 292 239C292 239 292 239.011 292 239C293.741 237.987 295.124 236.681 296 235C296.125 234.752 296.932 234.248 297 234C297.091 233.698 296.966 233.323 297 233C297 233.065 297.011 232.925 297 233C297.034 232.731 297 232.237 297 232C297 231.806 297.023 231.172 297 231C297 230.892 297.023 231.108 297 231C296.966 230.634 297.102 230.334 297 230C297 229.989 297 230 297 230C296.806 229.278 296.433 228.355 296 228C295.624 227.709 294.558 227.935 294 228C292.85 228.129 291.811 229.201 289 231C287.828 231.754 286.353 232.815 286 234C285.989 234.032 286.011 233.968 286 234C285.954 234.183 286.011 234.817 286 235C286 235.248 286.011 235.709 286 236C285.989 236.431 285.989 236.58 286 237Z" fill="#FF553D"/>
<path d="M289 236V237C288.989 236.969 289 237 289 237C289.01 237.765 288.749 238.442 289 239C289.199 239.486 289.602 239.814 290 240C290.429 240.186 291.331 240.279 292 240C291.906 240.052 292.084 239.959 292 240C292 240 292 240.01 292 240C293.851 239.049 295.236 236.747 296 235C296.115 234.762 296.937 234.238 297 234C296.969 234.279 297.094 233.721 297 234C297.01 233.928 297 233.062 297 233C297 233.227 297.031 232.742 297 233C297 232.814 297.021 232.165 297 232C297 231.907 297.021 232.083 297 232C296.969 231.576 297.094 231.279 297 231C297 230.99 297 231 297 231C296.843 230.556 296.23 230.041 296 230C295.874 229.979 296.219 229.969 296 230C295.111 230.145 293.035 231.122 292 232C290.724 233.075 289.042 233.623 289 236Z" fill="#FF3717"/>
<g style="mix-blend-mode:multiply">
<path d="M77.0001 259L240 349C240 349 255.175 356.085 270 357C284.826 357.915 297.994 351.867 307 348C316.006 344.144 336.696 332.784 341 329C345.304 325.227 356.672 316.748 345 306C333.328 295.252 142.467 202.582 127 202C111.533 201.408 64.195 238.535 63.0001 245C61.8716 251.154 68.2818 254.27 77.0001 259Z" fill="#299729"/>
</g>
<path d="M222 326L235 318L266 336L272 274L91 213L89 246L95 254L108 245L167 283L222 326Z" fill="#292929"/>
<path d="M265 338L262 341L248 324L251 321L265 338Z" fill="#FFCC00"/>
<path d="M263 339L260 342L246 325L249 322L263 339Z" fill="#FFCC00"/>
<path d="M242 303L228 311L249 345L263 337L258 314L242 303Z" fill="#333333"/>
<path d="M253 336C253 344.879 246.287 348.465 238 344C229.713 339.535 223 328.879 223 320C223 311.121 229.713 307.535 238 312C246.287 316.465 253 327.121 253 336Z" fill="#A89560"/>
<path d="M140 259C140 267.879 133.287 271.465 125 267C116.713 262.535 110 251.879 110 243C110 234.121 116.713 230.535 125 235C133.287 239.465 140 250.121 140 259Z" fill="#333333"/>
<path d="M114 234L100 242L121 276L135 268L130 245L114 234Z" fill="#333333"/>
<path d="M344 309L343 310H344H345L344 312H341L330 306L328 305V298C328 287.711 320.598 275.181 311 270C301.402 264.819 293 268.701 293 279V286L201 237V236V229C201 218.711 192.598 206.17 183 201C173.402 195.819 166 199.701 166 210V215C166 215 165.25 214.755 164 214C158.604 210.732 144.123 201.389 142 199C139.379 196.053 137 189 137 189L138 181L141 180L142 172L141 170L144 167V163L146 162L161 166C161 166 174.397 170.164 190 174C205.614 177.836 218.299 184.546 225 188C231.701 191.443 241.914 196.745 254 206C266.086 215.244 277.25 226.579 283 233C288.739 239.411 295 246 295 246C295 246 305.219 254.03 316 261C326.781 267.97 332.891 274.45 338 279C343.109 283.539 346 289 346 289L347 304L346 306L344 309Z" fill="#F00000"/>
<path d="M347 289L345 287L324 272C324 272 302.927 254.741 288 246C273.073 237.248 204.85 198.112 190 190C175.15 181.888 161 176 161 176L144 167V163L146 162L161 166C161 166 174.374 169.078 190 173C194.954 174.238 199.667 175.307 204 177C213.353 180.664 221.412 185.647 226 188C232.716 191.437 241.887 196.774 254 206C266.113 215.226 277.237 226.591 283 233C288.763 239.409 296 246 296 246C296 246 306.195 253.044 317 260C327.805 266.956 332.88 274.459 338 279C343.12 283.541 347 289 347 289Z" fill="#FF553D"/>
<path d="M286 279L210 237L195 203L191 191L192 187H193L192 191L196 202L211 236L285 277L286 273V269C286.022 268.918 287.232 260.286 287 254C286.79 248.312 287.011 245.546 287 245L284 240H285L288 245C288 245 287.768 247.683 288 254C288.232 260.172 287.077 268.413 287 269V273L286 279Z" fill="#DA0600"/>
<path d="M181 174C181 174 180.022 177.865 180 178C179.978 178.135 185 184 185 184L289 245L290 244C290 244 274.924 227.524 264 217C253.076 206.476 239.047 197.732 232 194C224.953 190.268 206.406 180.804 200 179C193.583 177.186 181 174 181 174Z" fill="#AE9C55"/>
<path d="M199 179L192 188L198 192L205 181L199 179Z" fill="#292929"/>
<path d="M324 272L321 273L328 280L335 286H337L342 290L344 288L333 279L324 272Z" fill="#F78459"/>
<path d="M346 290L344 293V299L347 304L346 290Z" fill="#F00000"/>
<path d="M141 169L142 171L158 177H161V175L150 166L146 165H144L141 169Z" fill="#F78459"/>
<path d="M166 215C166 215 165.264 214.751 164 214C158.54 210.75 144.148 201.376 142 199C139.348 196.069 137 189 137 189L145 194L149 203L166 215Z" fill="#292929"/>
<path d="M138 181L140 183L163 197L160 193L148 185L141 181V180L138 181Z" fill="#FF553D"/>
<path d="M204 224C204 224 287.324 275.231 289 276C290.676 276.78 290.062 273.901 286 271C281.938 268.099 227.565 236.217 217 230C206.435 223.773 204 224 204 224Z" fill="#FF553D"/>
<path d="M344 297L335 289L328 284L339 291L344 297Z" fill="#F00000"/>
<path d="M321.733 305.162C327.548 301.983 327.516 291.813 321.661 282.447C315.805 273.081 306.345 268.065 300.529 271.244C294.714 274.423 294.747 284.593 300.602 293.959C306.457 303.325 315.918 308.341 321.733 305.162Z" fill="#292929"/>
<path d="M198 228C198 236.879 191.287 240.465 183 236C174.713 231.535 168 220.879 168 212C168 203.121 174.713 199.535 183 204C191.287 208.465 198 219.121 198 228Z" fill="#292929"/>
<path d="M331 298V306H330L329 305V297C329 286.63 320.544 274.222 311 269C301.456 263.778 294 267.63 294 278V286L292 285V277C292 265.285 300.236 261.101 311 267C321.764 272.889 331 286.285 331 298Z" fill="#FF553D"/>
<path d="M203 230V238L201 237V229C201 218.636 193.541 206.208 184 201C174.459 195.782 166 199.636 166 210V215C166 215 165.242 214.76 164 214V209C164 197.293 173.228 193.115 184 199C194.761 204.885 203 218.293 203 230Z" fill="#FF553D"/>
<path d="M135 214L143 208L158 199L175 189L189 183L202 178L167 170H162L151 174L138 179L117 191L105 199L101 202V204L135 214Z" fill="#292929"/>
<path d="M199 179L188 182L185 184L175 189L157 198L143 207L135 213L124 210L102 204V203L106 199L117 191L139 180L151 175L162 171H165H167L182 174L190 177L199 179Z" fill="#37464E"/>
<path d="M345 301L344 308V309V310V312L339 319L330 327L308 339L290 345L276 348L271 345L272 343L280 325L328 299L346 289L345 301Z" fill="#F00000"/>
<path d="M295 246C295 246 323.271 266.107 331 272C338.729 277.893 342.593 281.86 344 285C345.407 288.14 346 292 346 292L317 282L295 246Z" fill="#FF553D"/>
<path d="M346 289L338 297L332 302L309 315L296 320L280 325L237 296L222 286L295 246C295 246 311.65 257.835 324 267C330.877 272.103 337.064 278.407 341 283C344.129 286.656 346 289 346 289Z" fill="#FF553D"/>
<path d="M347 290L339 298L333 303L310 315L297 321L281 326L279 324L256 310C256 310 229.924 294.819 215 286C214.923 285.958 215.077 286.042 215 286L214 282L217 285C217 285 227.147 290.405 237 296C244.65 300.337 252.764 304.762 255 306C256.904 307.061 259.121 307.866 262 309C266.827 310.903 272.048 313.168 276 314C282.311 315.31 295.682 314.572 300 314C304.318 313.418 328.553 301.861 331 300C333.447 298.128 340.004 289.546 341 286C341.299 284.918 341.889 283.863 342 283C345.133 286.65 347 290 347 290Z" fill="#FF382E"/>
<path d="M301 316C300.308 313.089 233.956 283.143 234 283H235C235 283 289.255 306.454 297 312C300.12 313.828 301.297 314.805 301 316Z" fill="#FF3717"/>
<path d="M332 300L331 298L289 254H290L331 297L332 300Z" fill="#FF382E"/>
<path d="M340 292C340 292 333.979 299.55 332 301C328.297 303.706 314.516 310.754 309 313C303.484 315.246 297.949 317.337 288 317C289.548 319.165 297 321 297 321L319 310L336 301L340 292Z" fill="#F00000"/>
<path d="M295 247L287 256L281 261L250 278L239 282L222 286L184 244L254 206L295 247Z" fill="#37464E"/>
<path d="M293 244L290 241L289 243C289.739 244.173 286.734 249.071 281 253C275.266 256.929 249.198 271.511 243 274C236.802 276.489 229.484 279.206 223 279C221.445 278.949 220.596 280.149 220 282L222 285L239 281L250 277L281 260L287 255L295 246L293 244Z" fill="#292929"/>
<path d="M199 179L189 183L186 184C185.07 182.86 181 178.163 181 178C181.022 177.87 181.694 174.803 182 174C182 174 182.055 173.859 182 174C182 174 186.385 174.708 191 176C193.69 176.749 196.605 178.305 199 179Z" fill="#566770"/>
<path d="M289 245V244L241 216C246.59 212.16 251 208 251 208C254.796 210.88 258.523 213.655 262 217C272.883 227.479 289 245 289 245Z" fill="#566770"/>
<path d="M287 241L275 238L250 253L246 262L220 275C220 274.99 220 275 220 275C220.133 275.154 219.878 275.856 220 276C220.51 276.586 221.568 276.538 222 277C221.989 276.99 222 277 222 277C222.077 277.082 221.922 277.918 222 278C221.967 277.969 222.033 278.031 222 278C221.933 277.928 222.066 278.072 222 278C221.967 277.949 222.044 278.041 222 278C222.066 278.062 222.944 277.949 223 278C222.956 277.959 223.044 278.041 223 278C223.055 278.051 222.944 278.949 223 279C222.956 278.959 223.044 279.041 223 279C222.944 278.959 223.055 279.051 223 279C222.956 278.969 223.044 279.041 223 279C222.944 278.969 223.044 279.041 223 279C223.044 279.041 223.956 278.969 224 279C223.956 278.969 224.044 279.031 224 279C223.956 278.959 224.044 279.031 224 279C223.967 278.969 224.044 279.031 224 279C224.044 279.031 223.944 279.979 224 280C223.967 279.979 224.033 280.021 224 280C223.944 279.969 224.055 280.031 224 280C223.978 279.99 224.022 280.01 224 280C224.077 280.031 224.922 279.969 225 280C228.547 279.312 232.038 278.699 234 278C234 278 237.857 277.096 243 275C248.997 272.555 257.128 268.801 264 265C278.066 257.233 282 254 282 254L288 248C288.632 246.86 288.956 245.253 289 244C288.479 243.168 287.931 242.387 287 241Z" fill="#63747D"/>
<g style="mix-blend-mode:screen">
<path d="M220 229L201 235L185 243C187.561 246.1 191.705 251.821 199 259C211.195 271.01 218.459 282.178 225 285C225.266 285.113 225.579 284.846 226 285L239 282L251 277L261 272C237.762 242.44 220 229 220 229Z" fill="#1C2121"/>
</g>
<path d="M203 178L189 183L176 189L158 199L144 208L133 216L184 244L199 239L215 231L237 219L244 214L254 206L232 192L203 178Z" fill="#FF553D"/>
<path d="M145 163L132 167L120 172L92 187L82 194L75 201L96 207L106 199L117 191L139 179L151 174L167 169L145 163Z" fill="#FF553D"/>
<path d="M280 325L279 341L278 343L275 346H277L276 348H273L259 346L258 345H257L256 344L255 337C255 326.721 247.582 314.165 238 309C228.418 303.824 221 308.721 221 319L222 326L130 276H129L128 269C128 258.721 120.582 246.165 111 241C101.418 235.824 93 239.721 93 250L95 255L94 254C94 254 93.2475 253.754 92 253C86.6127 249.735 76.1196 244.386 74 242C71.3947 239.056 69 230 69 230V229L70 222L73 221L74 212L73 210L74 205L75 201L77 200L90 205C90 205 104.412 207.167 120 211C135.588 214.833 149.321 222.56 156 226C162.69 229.44 171.934 234.754 184 244C196.066 253.236 204.27 265.595 210 272C215.73 278.415 222 286 222 286C222 286 233.236 293.037 244 300C254.764 306.963 265.9 311.465 271 316C276.1 320.546 280 325 280 325Z" fill="#F00000"/>
<path d="M130 268C128.151 246.869 127.454 241.9 117 235C106.546 228.09 98.4224 231.263 95 234C91.5776 236.738 91 242.576 91 248C94.3344 240.198 93.7384 238.722 100 237C106.262 235.278 112 240 112 240L119 246L125 255L130 268Z" fill="#FF553D"/>
<path d="M133 264C133 264 214.335 314.239 216 315C217.676 315.771 217.062 308.868 213 306C208.938 303.132 159.554 276.158 149 270C138.435 263.842 133 264 133 264Z" fill="#FF553D"/>
<path d="M280 325L278 323L255 309C255 309 229.866 293.731 215 285C214.923 284.959 215.077 285.041 215 285C199.682 276.012 131.7 238.062 117 230C102.212 221.908 88 215 88 215L74 205L75 201L77 200L91 205C91 205 104.429 207.18 120 211C135.571 214.82 149.317 222.572 156 226C162.683 229.428 171.958 234.796 184 244C196.053 253.215 206.277 264.606 212 271C217.734 277.394 222 286 222 286C222.386 286.196 235.413 292.164 246 299C251.69 302.676 256.39 305.22 261 308C265.102 310.471 268.596 312.869 271 315C276.095 319.53 280 325 280 325Z" fill="#FF553D"/>
<path d="M163 249L161 254C161 254 159 262.631 159 267C159 271.369 160 275 160 275L159 279L160 288L163 249Z" fill="#F00000"/>
<path d="M165 259C164.323 259.754 163.708 261.277 164 262C164.327 262.786 170.393 265.872 171 266C171.607 266.128 172.094 264.457 172 264C171.919 263.532 165 259 165 259Z" fill="#6D0103"/>
<path d="M170 262L166 259C165.496 258.679 165.022 259.414 165 260C164.966 260.586 165.496 260.679 166 261L171 265C171.605 265.387 172.392 264.774 172 264C171.518 263.049 170.75 262.475 170 262Z" fill="#B1282F"/>
<path d="M167 261C166.989 261.246 166.281 261.127 166 261C165.731 260.864 165.989 260.246 166 260C166.011 259.754 166.72 259.873 167 260C167.27 260.136 167.011 260.754 167 261Z" fill="#383838"/>
<path d="M124 235C123.323 235.754 122.708 237.277 123 238C123.327 238.786 129.393 241.872 130 242C130.607 242.128 131.094 240.457 131 240C130.919 239.532 124 235 124 235Z" fill="#6D0103"/>
<path d="M129 238L125 235C124.495 234.679 124.022 235.414 124 236C123.966 236.586 124.495 236.679 125 237L130 241C130.606 241.376 131.393 240.775 131 240C130.518 239.049 129.752 238.476 129 238Z" fill="#B1282F"/>
<path d="M126 237C125.989 237.246 125.281 237.127 125 237C124.731 236.864 124.989 236.246 125 236C125.011 235.754 125.72 235.873 126 236C126.27 236.136 126.011 236.754 126 237Z" fill="#383838"/>
<path d="M271 316C268.588 313.847 265.135 311.496 261 309C258.11 307.866 255.923 307.061 254 306C251.755 304.762 244.68 300.337 237 296C227.108 290.405 216 285 216 285L213 282L214 286C213.922 285.958 214.078 286.042 214 286C228.983 294.819 255 310 255 310L278 324L280 326C280 326 276.135 320.565 271 316Z" fill="#FF382E"/>
<path d="M214 319L138 277L123 243L119 231L120 227H121L120 231L124 242L139 276L213 317L214 313V309C214.022 308.918 215.232 300.285 215 294C214.79 288.312 215.011 285.546 215 285L212 280H213L216 285C216 285 215.768 287.684 216 294C216.232 300.172 215.077 308.413 215 309V313L214 319Z" fill="#DA0600"/>
<path d="M109 214C109 214 108.022 217.855 108 218C107.967 218.145 113 224 113 224L217 285L218 284C218 284 205.924 265.522 195 255C184.076 244.478 170.047 235.732 163 232C155.953 228.268 137.406 218.804 131 217C124.583 215.186 109 214 109 214Z" fill="#292929"/>
<path d="M114 222C112.184 219.883 109.77 217.955 109 217C109.198 216.481 109.703 215.758 110 215C113.467 215.353 124.794 216.516 130 218C136.439 219.827 154.836 229.72 161 233C169.343 237.442 182.962 246.295 193 256C201.145 263.878 210.104 276.333 214 282L114 222Z" fill="#37464E"/>
<path d="M130 217L120 227L126 231L136 219L130 217Z" fill="#292929"/>
<path d="M167 235L162 251L166 253L170 237L167 235Z" fill="#292929"/>
<path d="M256 309L253 310L260 317L267 322H269L276 325L278 323L265 315L256 309Z" fill="#F00000"/>
<path d="M280 326L278 329L276 336L279 341L280 326Z" fill="#F00000"/>
<path d="M86 215V216V217H83L74 212L73 210L74 204L75 205H76L78 207L86 215Z" fill="#C3C2CE"/>
<path d="M94 254C94 254 93.2267 253.754 92 253C86.7026 249.738 76.0842 244.384 74 242C71.4273 239.058 69 229 69 229L72 234L77 242L94 254Z" fill="#292929"/>
<path d="M70.0001 222C68.5889 216.965 73.0001 214 73.0001 214C73.0001 214 72.0001 220.216 72.0001 221C72.9261 222.073 77.3787 227.81 86.0001 233C87.7089 235.445 90.0001 237 90.0001 237C90.0001 237 74.4949 227.621 71.0001 225C67.5052 222.379 70.0001 222 70.0001 222Z" fill="#FF553D"/>
<path d="M253 336C253 344.879 246.287 348.465 238 344C229.713 339.535 223 328.879 223 320C223 311.121 229.713 307.535 238 312C246.287 316.465 253 327.121 253 336Z" fill="#292929"/>
<path d="M121.716 276.166C127.53 272.985 127.5 262.812 121.649 253.443C115.798 244.074 106.341 239.059 100.527 242.24C94.7132 245.421 94.7434 255.595 100.595 264.963C106.446 274.332 115.902 279.348 121.716 276.166Z" fill="#292929"/>
<path d="M130 270L131 277L129 276L128 269C128 258.807 119.479 246.122 110 241C100.521 235.868 93 239.807 93 250L94 255C94 255 93.234 253.748 92 253L91 249C91 237.486 99.2984 232.212 110 238C120.691 243.788 130 258.486 130 270Z" fill="#CC0000"/>
<path d="M251 206C251 206 267.109 219.488 276 229C282.314 235.762 286.258 240.666 289 244C292.704 248.501 287 256 287 256L295 247L278 228L253 206H251Z" fill="#FF553D"/>
<path d="M102 202V204L135 214L144 208L133 216L96 206L102 202Z" fill="#FF553D"/>
<path d="M202 178L168 170H162L167 168L203 178H202Z" fill="#FF553D"/>
<path d="M253 336C253 344.879 246.287 348.465 238 344C229.713 339.535 223 328.879 223 320C223 311.121 229.713 307.535 238 312C246.287 316.465 253 327.121 253 336Z" fill="#393843"/>
<path d="M252 336C252 344.636 245.013 348.344 237 344C228.998 339.656 223 329.636 223 321C223 312.364 228.987 308.656 237 313C245.002 317.344 252 327.364 252 336Z" fill="#2D2C37"/>
<path d="M250 334C250 341.152 244.909 343.601 238 340C231.091 336.399 225 328.152 225 321C225 313.848 231.091 311.399 238 315C244.898 318.601 250 326.848 250 334Z" fill="#504F58"/>
<path d="M250 333C250 339.662 244.63 342.356 238 339C231.37 335.654 226 326.662 226 320C226 313.339 231.381 310.644 238 314C244.63 317.346 250 326.339 250 333Z" fill="#BABABE"/>
<path d="M227 322C227.497 325.776 229.613 330.563 233 334C236.386 337.427 239.929 339.169 243 339C244.354 338.92 246.063 338.837 247 338C247.316 337.741 247.763 337.359 248 337C248.045 336.93 247.966 336.08 248 336C247.887 336.279 248.169 335.741 248 336C248.169 335.631 248.898 334.418 249 334C249.192 333.263 249 332.837 249 332C249 331.621 249.034 331.389 249 331C249 330.791 249.022 330.199 249 330C248.977 329.871 249.011 330.13 249 330C248.977 329.88 249.022 330.12 249 330C248.932 329.631 248.113 328.379 248 328C247.955 327.811 248.056 328.179 248 328C247.955 327.841 248.056 327.149 248 327C247.932 326.781 248.09 327.219 248 327C247.943 326.831 248.068 326.159 248 326C247.706 325.283 247.395 324.707 247 324C246.921 323.851 246.079 324.149 246 324C245.718 323.522 246.316 322.478 246 322C245.921 321.88 245.079 322.12 245 322C244.853 321.791 245.147 321.199 245 321C244.39 320.203 243.722 319.727 243 319C242.639 318.631 242.372 318.329 242 318C241.831 317.841 241.169 317.149 241 317C240.955 316.96 241.045 317.04 241 317C240.864 316.88 241.135 317.11 241 317C239.25 315.655 236.693 314.448 235 314C232.02 313.213 229.524 313.848 228 316C227.955 316.06 228.034 316.93 228 317C227.706 317.438 227.18 317.492 227 318C226.537 319.335 226.774 320.326 227 322Z" fill="url(#paint5_linear_1045_5348)"/>
<path d="M241 319V322C242.237 321.913 243.864 322.126 245 322C244.854 321.797 245.146 321.193 245 321C244.393 320.227 243.72 319.705 243 319C242.64 318.643 241.371 318.319 241 318C240.831 317.845 241.169 317.145 241 317C240.955 316.961 241.045 317.039 241 317C240.865 316.884 240.135 317.106 240 317C238.257 315.696 236.687 314.435 235 314C232.032 313.237 229.518 313.913 228 316C236.522 313.488 241 319 241 319Z" fill="#393843"/>
<path d="M228 322C228 322 230.951 325.15 234 326C237.061 326.85 243 333 243 333V322C236.018 322.435 228 322 228 322Z" fill="#393843"/>
<path d="M234 320C234.434 323.354 235.976 327.964 239 331C240.664 332.677 243.265 333.28 245 334C246.406 334.597 247.781 335.062 249 335C248.906 335.031 249.094 335 249 335C249.293 334.979 249.73 335.072 250 335C250.199 334.239 250 332.864 250 332C250 331.609 250.035 331.401 250 331C250 330.784 250.023 331.206 250 331C249.977 330.866 250.012 330.134 250 330C249.977 329.877 250.023 330.123 250 330C249.93 329.619 249.117 329.391 249 329C248.953 328.804 249.059 328.185 249 328C248.953 327.835 249.059 328.154 249 328C248.93 327.774 249.094 327.226 249 327C248.941 326.825 249.07 326.165 249 326C248.695 325.259 248.41 324.731 248 324C247.918 323.846 247.082 324.154 247 324C246.707 323.506 246.328 322.494 246 322C245.766 321.66 246.246 321.329 246 321C245.367 320.177 244.75 319.751 244 319C243.625 318.619 243.387 318.34 243 318C242.824 317.835 242.176 317.154 242 317C241.953 316.959 242.047 317.041 242 317C241.859 316.877 241.141 317.113 241 317C239.183 315.611 237.758 314.463 236 314C235.66 314.298 235.27 314.578 235 315C234.754 315.381 234.164 315.547 234 316C233.777 316.648 234.047 317.239 234 318C233.965 318.617 233.918 319.331 234 320Z" fill="url(#paint6_linear_1045_5348)"/>
<path d="M242 326L244 325L245 322C244.783 321.667 244.228 321.323 244 321C243.413 320.192 242.696 319.737 242 319C241.652 318.626 241.359 318.333 241 318C240.837 317.838 241.163 317.151 241 317C240.957 316.96 241.043 317.04 241 317C240.62 317.212 240.022 316.98 240 317L242 320V326Z" fill="url(#paint7_linear_1045_5348)"/>
<path d="M242 326V328L244 334L245 336C245.329 336.546 244.549 338.068 245 338C245.72 337.883 247.037 337.516 248 337C248.049 336.932 248.963 336.078 249 336C248.878 336.273 249.183 335.747 249 336C248.976 335.873 249.085 335.136 249 335L245 325H244L242 326Z" fill="url(#paint8_linear_1045_5348)"/>
<path d="M230 317C230.174 316.915 230.745 316.872 231 317L241 321V326L239 325L231 322C230.49 321.733 230.035 320.555 230 320C229.942 318.933 227.78 318.917 228 318C228.047 317.829 229.873 317.064 230 317Z" fill="url(#paint9_linear_1045_5348)"/>
<path d="M240 330L244 322C244.196 321.678 244.37 321.463 244 321C243.619 320.517 242.424 320.453 242 320C241.576 319.547 241.435 318.392 241 318C240.576 317.628 240.196 317.678 240 318L236 326L240 330Z" fill="#DFDFE3"/>
<path d="M238 328V323L228 319C227.563 318.765 227.09 318.595 227 319C226.787 319.927 226.944 320.934 227 322C227.034 322.554 227.506 323.733 228 324L236 327L238 328Z" fill="#DFDFE3"/>
<path d="M246 338C246.289 337.801 246.266 337.512 246 337L242 326L238 327L239 329L242 338C242.312 338.585 243.573 339.073 244 339C244.809 338.854 245.353 338.46 246 338Z" fill="#DFDFE3"/>
<path d="M244 339C244 339 244.055 339.105 244 339L241 330L237 326L229 323C228.878 322.937 229.011 323.167 229 323C228.967 322.383 228.934 321.554 229 321L239 325L241 320C241.298 320.282 241.713 320.697 242 321C242.409 321.439 242.624 321.519 243 322C243.088 322.105 242.989 322.937 243 323L241 327L245 339C244.68 339.188 244.375 338.906 244 339Z" fill="#4B4A4B"/>
<path d="M126 267C126 275.879 119.287 279.465 111 275C102.713 270.535 96 259.879 96 251C96 242.121 102.713 238.535 111 243C119.287 247.465 126 258.121 126 267Z" fill="#2D2C37"/>
<path d="M126 267C126 275.879 119.287 279.465 111 275C102.713 270.535 96 259.879 96 251C96 242.121 102.713 238.535 111 243C119.287 247.465 126 258.121 126 267Z" fill="#393843"/>
<path d="M125 267C125 275.636 119.013 279.344 111 275C102.998 270.656 96 260.636 96 252C96 243.364 102.987 239.656 111 244C119.002 248.344 125 258.364 125 267Z" fill="#2D2C37"/>
<path d="M123 265C123 272.152 116.909 274.601 110 271C103.091 267.399 98 259.152 98 252C98 244.848 103.091 242.399 110 246C116.898 249.601 123 257.848 123 265Z" fill="#504F58"/>
<path d="M122 265C122 271.908 116.354 274.48 110 271C103.646 267.53 99 259.908 99 253C99 246.092 103.657 243.52 110 247C116.354 250.47 122 258.092 122 265Z" fill="#BABABE"/>
<path d="M100 255C100.474 258.927 102.767 263.425 106 267C109.232 270.564 113.069 272.176 116 272C117.293 271.917 118.106 271.87 119 271C119.302 270.731 119.774 270.373 120 270C120.043 269.927 119.968 269.083 120 269C119.892 269.29 120.162 268.731 120 269C120.162 268.617 120.903 267.435 121 267C121.183 266.233 121 265.87 121 265C121 264.606 121.032 264.404 121 264C121 263.782 121.022 263.207 121 263C120.978 262.865 121.011 263.135 121 263C120.978 262.876 121.022 262.124 121 262C120.935 261.617 121.108 261.394 121 261C120.957 260.803 120.054 260.186 120 260C119.957 259.834 120.054 260.155 120 260C119.935 259.772 120.086 259.228 120 259C119.946 258.824 120.065 259.166 120 259C119.72 258.254 119.377 257.736 119 257C118.925 256.845 119.075 256.155 119 256C118.731 255.503 118.302 255.497 118 255C117.925 254.876 118.075 254.124 118 254C117.86 253.782 117.14 254.207 117 254C116.418 253.171 115.69 251.756 115 251C114.655 250.617 114.356 250.342 114 250C113.838 249.834 114.162 250.155 114 250C113.957 249.959 114.043 250.041 114 250C113.871 249.876 113.129 249.114 113 249C111.33 247.601 109.616 246.466 108 246C105.155 245.181 102.455 245.762 101 248C100.957 248.062 101.032 248.927 101 249C100.72 249.456 100.172 249.472 100 250C99.5582 251.388 99.7845 253.259 100 255Z" fill="url(#paint10_linear_1045_5348)"/>
<path d="M114 252V255C115.237 254.902 116.864 255.141 118 255C117.854 254.772 118.146 254.217 118 254C117.393 253.131 116.72 251.793 116 251C115.64 250.598 114.371 250.359 114 250C113.831 249.826 114.169 250.163 114 250C113.955 249.957 114.045 250.044 114 250C113.865 249.87 113.135 249.12 113 249C111.257 247.533 109.687 246.489 108 246C105.032 245.141 102.518 246.653 101 249C109.522 246.174 114 252 114 252Z" fill="#393843"/>
<path d="M101 255C101 255 104.154 259.073 107 260C109.857 260.927 115 267 115 267V255C108.484 255.474 101 255 101 255Z" fill="#393843"/>
<path d="M106 252C106.406 255.354 108.165 259.964 111 263C112.56 264.677 114.374 265.28 116 266C117.318 266.597 118.857 267.062 120 267C119.912 267.031 120.088 267 120 267C120.274 266.979 120.747 267.072 121 267C121.187 266.239 121 264.864 121 264C121 263.609 121.033 263.401 121 263C121 262.784 121.022 263.206 121 263C120.978 262.866 121.011 262.134 121 262C120.978 261.877 121.022 262.123 121 262C120.934 261.619 121.11 261.391 121 261C120.956 260.804 120.055 260.185 120 260C119.956 259.835 120.055 260.154 120 260C119.934 259.774 120.088 259.226 120 259C119.945 258.825 120.066 258.165 120 258C119.714 257.259 119.384 256.731 119 256C118.923 255.846 119.077 256.154 119 256C118.725 255.506 118.307 254.494 118 254C117.78 253.66 117.231 253.329 117 253C116.406 252.177 115.703 251.751 115 251C114.648 250.619 114.362 250.34 114 250C113.835 249.835 114.165 249.154 114 249C113.956 248.959 113.044 249.041 113 249C112.868 248.877 113.132 249.113 113 249C111.297 247.611 109.648 246.463 108 246C107.681 246.298 107.252 246.578 107 247C106.769 247.381 106.154 247.547 106 248C105.791 248.648 106.044 249.239 106 250C105.967 250.617 105.923 251.331 106 252Z" fill="url(#paint11_linear_1045_5348)"/>
<path d="M115 258L117 257L118 254C117.783 253.667 117.228 253.323 117 253C116.413 252.192 115.696 251.737 115 251C114.652 250.626 114.359 250.333 114 250C113.837 249.838 114.163 249.151 114 249C113.957 248.96 114.043 249.04 114 249C113.62 249.212 113.022 248.98 113 249L115 252V258Z" fill="url(#paint12_linear_1045_5348)"/>
<path d="M114 258V260L116 266L117 269C117.282 269.588 115.613 271.073 116 271C116.617 270.874 118.174 269.556 119 269C119.042 268.927 119.969 269.084 120 269C120.157 268.727 119.895 268.294 120 268C119.979 267.864 120.073 268.147 120 268V267L116 257L114 258Z" fill="url(#paint13_linear_1045_5348)"/>
<path d="M103 249C103.161 248.915 103.764 248.872 104 249L113 253V258L111 257L103 254C102.529 253.733 103.032 252.555 103 252C102.946 250.933 100.796 250.917 101 250C101.043 249.829 102.882 249.064 103 249Z" fill="url(#paint14_linear_1045_5348)"/>
<path d="M112 263L116 255C116.196 254.651 116.37 253.501 116 253C115.619 252.477 114.424 252.49 114 252C113.576 251.509 113.435 250.414 113 250C112.576 249.597 112.196 249.651 112 250L108 259L112 263Z" fill="#DFDFE3"/>
<path d="M111 260V255L101 251C100.563 250.765 100.09 250.595 100 251C99.7869 251.917 99.944 252.934 100 254C100.034 254.554 100.506 255.733 101 256L109 259L111 260Z" fill="#DFDFE3"/>
<path d="M118 271C118.253 270.801 118.232 270.512 118 270L114 259L111 260L112 262L115 271C115.273 271.585 115.626 272.073 116 272C116.708 271.854 117.434 271.46 118 271Z" fill="#DFDFE3"/>
<path d="M117 270C117 270 117.055 270.105 117 270L114 261L110 257L102 254C101.878 253.937 102.011 254.167 102 254C101.967 253.383 101.934 252.554 102 252L112 256L114 251C114.298 251.282 114.713 251.697 115 252C115.409 252.439 115.624 252.519 116 253C116.088 253.105 115.989 253.937 116 254L114 258L118 270C117.68 270.188 117.375 269.906 117 270Z" fill="#4B4A4B"/>
<path d="M279 341L300 339L338 318L346 301V297L331 307L316 316L296 325L280 326L279 341Z" fill="#F00000"/>
<path d="M292 332L305 321C305 321 314.009 316.687 321 313C327.991 309.313 333 306 333 306L341 305C341 305 332.717 313.1 330 316C327.681 318.475 303.744 329.814 300 330C297.78 330.114 292 332 292 332Z" fill="#FF553D"/>
<path d="M276 325H284H295L301 320L302 317L290 320L275 318L255 309L266 319L276 325Z" fill="#F00000"/>
<path d="M297 320C296.422 320.542 292.402 322.765 289 324C288.755 324.09 288.222 324.93 288 325C287.455 325.171 287.478 324.95 287 325C286.867 325.01 286.122 325 286 325C282.743 325.131 279.269 325.331 276 325C273.699 324.769 265.346 321.089 263 319C260.499 316.77 259 315 259 315L261 313C260.922 312.99 261 313 261 313C260.933 313 261.056 313 261 313C260.922 312.99 261.067 313 261 313C260.967 313 261.033 313 261 313C261.044 313 261.956 313 262 313C262.623 313.06 263.166 312.759 264 313C264.523 313.161 265.677 313.548 267 314C267.145 314.05 266.844 314.95 267 315C269.524 315.844 273.531 316.367 277 317C281.347 317.783 287.42 318.478 292 319C291.844 318.98 292.156 319.02 292 319C292.634 319.08 293.444 318.9 294 319C294.4 319.06 294.655 318.92 295 319L297 320Z" fill="#C3C2CE"/>
<path d="M277 316C281.312 316.759 287.457 317.494 292 318C290.5 318.983 288.753 320.562 287 321C283.626 321.857 276 321 276 321C276 321 267.044 317.701 267 317C266.967 316.513 267.779 315.032 268 314C270.503 314.818 273.56 315.387 277 316Z" fill="white"/>
<path d="M297 320C296.422 320.542 292.412 322.766 289 324C288.755 324.09 288.233 324.93 288 325C287.433 325.171 287.467 324.95 287 325C286.867 325.01 286.122 325 286 325C282.743 325.13 279.268 325.331 276 325C273.699 324.769 265.356 321.087 263 319C260.499 316.772 259 315 259 315L261 313C260.889 313 261 313 261 313C260.922 313 261.056 313 261 313C260.933 313 261.056 313 261 313C260.933 312.99 261.056 313 261 313C260.967 313 261.033 313 261 313C260.967 313 261.044 313 261 313L260 315C260 315 262.088 317.886 264 319C265.923 320.124 276 323 276 323C276 323 283.366 323.472 286 323C288.145 322.619 292.555 320.003 294 319C294.4 319.06 294.644 318.92 295 319L297 320Z" fill="#FF553D"/>
<path d="M346 291C345.912 291 345.774 293.411 345 296C344.867 296.437 344.365 296.615 344 297C343.392 297.666 337.23 301.135 334 301L336 299C336 299 336 299.01 336 299C338.809 295.963 341.407 291.111 343 289C343.398 288.47 343.856 287.874 344 287C344.155 286.085 344.044 285.312 344 285C343.934 284.594 343.476 283.78 343 283C342.259 281.783 341.088 280.125 341 280C341.166 280.177 343.828 282.359 345 285C346.217 287.745 346 291 346 291Z" fill="#C3C2CE"/>
<path d="M292 331L305 320C305 320 314 315.688 321 312C327.989 308.312 333 305 333 305L341 304C341 304 332.716 312.099 330 315C327.681 317.476 303.743 328.814 300 329C297.781 329.114 292 331 292 331Z" fill="#292929"/>
<path d="M336 304C333.438 306.497 329.723 311.166 328 313C325.681 315.476 300.744 326.814 297 327C296.669 327.021 296.453 326.927 296 327L292 331C292 331 297.78 329.114 300 329C303.744 328.814 327.681 317.476 330 315C332.717 312.099 341 304 341 304H336Z" fill="#CC0000"/>
<path d="M341 296C341 296 341.011 295.99 341 296C339.56 297.502 337.767 298.918 336 299C335.989 299.01 336 298.99 336 299C335.913 299.112 336.065 298.908 336 299C337.472 296.855 340.975 290.491 342 289C342.24 288.642 342.814 288.409 343 288C343.294 287.367 343.924 286.684 344 286C344.109 285.173 343.349 284.715 343 284C342.924 283.847 343.033 283.082 343 283C342.716 282.173 344.76 285.13 345 288C345.174 290.012 343.53 293.375 341 296Z" fill="#C3C2CE"/>
<path d="M344 290C344 291.943 342.005 294.297 341 296C341 296 341.011 295.99 341 296C340.152 297.432 338.356 298.97 336 299C336 299 336 299.01 336 299C335.916 299.11 336.063 298.91 336 299C337.414 296.897 341.016 290.462 342 289C342.231 288.649 342.822 288.401 343 288C343.283 287.379 342.927 286.671 343 286C343.126 286.361 343.927 286.579 344 287C344.157 287.821 344 289.249 344 290Z" fill="white"/>
<path d="M266 314C266 314 264.332 313.056 264 313C263.085 312.842 262 313 262 313L261 314C261 314 262.902 316.109 264 317C265.419 317 265 316 265 316L266 314Z" fill="#FFCE49"/>
<path d="M242 304C233.885 300.215 232.891 302.581 227 304C243.319 308.289 249.083 316.649 252 322C254.917 327.351 257 333 257 333C257.883 334.651 260.51 317.446 242 304Z" fill="#FF553D"/>
<path d="M242 304C232.306 298.162 228.951 299.783 226 301C220.098 303.434 217.322 312.039 218 317C218.678 322.023 220 324 220 324C220 324 218.579 315.723 220 313C221.421 310.277 222.197 308.568 226 306C229.803 303.442 238 307 238 307L246 311L242 304Z" fill="#FF553D"/>
<path d="M257 338L258 345H257L256 344L255 337C255 326.801 246.481 314.135 237 309C227.519 303.865 220 307.801 220 318L221 325L219 324L218 317C218 305.479 226.306 300.198 237 306C247.694 311.792 257 326.479 257 338Z" fill="#CC0000"/>
<path d="M347 304C342.647 308.998 339.551 310.755 334 315C328.449 319.245 307.826 331.264 301 333C294.174 334.736 287.618 337.07 278 335C268.382 332.93 263 331 263 331L265 335C265 335 265.68 344.352 271 345C276.32 345.648 285.679 344.499 296 342C306.321 339.501 329 325 329 325L338 318L344 310L346 306L347 304Z" fill="#CC0000"/>
<path d="M345 310L344 312L339 319L330 327L308 338L290 345L276 348H273L259 346L258 345H257C257.122 343.526 258.7 341.742 259 341C259.533 339.649 264 335 264 335C264 335 267.218 341.845 272 343C272.166 343.041 272.834 342.969 273 343C274.52 343.237 276.047 343.134 278 343C282.56 342.701 288 342 288 342L307 334L332 321L339 315L342 312L344 310H345Z" fill="#FF553D"/>
<path d="M287 342C290.065 338.449 292.98 337.716 297 337C301.02 336.294 311.607 330.457 318 327C324.393 323.532 331.759 319.453 333 318C334.241 316.547 337.385 314.543 338 315C337.132 317.024 332 321 332 321C332 321 325.874 325.781 314 332C302.126 338.219 296.337 339.363 287 342Z" fill="#292929"/>
<path d="M86 215L77 211L75 210L74 204L75 200L82 194L81 195C81 195 76 199.555 76 200C76 200.165 75.5122 201.256 76 202C76.8022 203.21 78 205 78 205L83 211L86 215Z" fill="#C3C2CE"/>
<path d="M73 210L77 206V202L76 200L81 195L82 194L75 200L74 204L73 210Z" fill="#E9D7A7"/>
<path d="M86 214V215H83L76 210L75 208V204C75 204 75.8438 201.572 76 201C76.8256 202.218 78 204 78 204L83 210L86 214Z" fill="#FF5030"/>
<path d="M77 210L84 214H86L83 210L78 204C78 204 77.6805 202.946 77 202C76.827 202.662 76 203 76 203V207L77 210Z" fill="#FF4123"/>
<path d="M319 305L318 307H315L316 305H319Z" fill="#C3C2CE"/>
<path d="M239 218C245.088 214.296 253 207 253 207L254 206L184 244L223 286L233 283C233 283 227.384 280.807 225 280C222.627 279.183 218.329 273.207 210 264C201.66 254.803 189 243 189 243C189 243 197.544 239.452 203 237C208.456 234.559 232.912 221.704 239 218Z" fill="#FF553D"/>
<path d="M213 283C213 283 214.531 282.384 215 282C215.469 281.616 214.802 280.509 214 280C213.198 279.491 211.375 281.197 211 281C210.625 280.803 208 281 208 281L209 283H213Z" fill="#FF553D"/>
<path d="M209 277C211.239 276.482 213.704 277.642 214 280C214.362 282.856 212.823 282.634 212 283C211.177 283.356 207.886 284.959 204 285C200.114 285.041 200 283.281 200 282C199.989 282.163 200 281.817 200 282C200.11 280.171 200.683 279.366 202 279C204.854 278.207 209 277 209 277Z" fill="#FF553D"/>
<path d="M212 278C210.757 277.612 208.541 278.455 206 279C203.46 279.545 201.202 279.567 201 282C200.798 284.433 201.948 284.843 203 285C204.053 285.157 205.981 284.87 209 284C212.009 283.14 212.533 282.818 213 282C213.468 281.182 213.244 278.388 212 278Z" fill="#FF3717"/>
<path d="M218 231C219.603 234.144 223.756 232.751 225 232C226.244 231.249 236.431 226.137 238 225C239.569 223.852 238 220 238 220C238 220 226.464 226.729 218 231Z" fill="#131313"/>
<path d="M233 228L229 230C226.708 231.206 224.2 233.501 222 235C221.278 235.482 220.805 236.182 221 237L222 239C222.195 239.828 222.244 240.294 223 240C225.338 239.088 227.708 238.206 230 237L234 235C236.292 233.794 238.8 231.499 241 230C241.722 229.518 242.195 228.818 242 228L241 226C240.805 225.172 240.756 224.706 240 225C237.662 225.912 235.292 226.794 233 228Z" fill="#63747D"/>
<path d="M234 231C233.958 229.896 234 227 234 227H230C230 227 229.947 231.838 230 232C230.21 232.704 231.612 233.043 232 233C232.913 232.903 234.052 232.202 234 231Z" fill="#63747D"/>
<path d="M234 226C234.61 226.704 233.915 227.559 233 228C232.085 228.441 230.61 227.695 230 227C229.39 226.296 230.085 225.441 231 225C231.926 224.559 233.39 225.305 234 226Z" fill="#63747D"/>
<path d="M140 65L249 6V14C249.255 100.592 197.719 152.271 195 155C192.27 155.241 140.266 159.582 140 73V65ZM235 73C239.55 57.3045 242.445 40.2707 243 24L146 77C146.655 92.6119 149.372 105.303 154 116C158.229 125.777 164.653 133.688 172 139C181.301 145.724 190.683 146.801 195 147C199.306 142.106 208.766 130.804 218 114C225.303 100.71 230.86 87.3362 235 73Z" fill="#D9E0EA"/>
<path d="M243 25C242.447 41.2814 239.538 57.2941 235 73C230.872 87.3352 225.282 101.701 218 115C208.792 131.815 199.294 143.103 195 148C190.695 147.791 181.275 146.728 172 140C164.662 134.674 159.206 126.783 155 117C150.385 106.296 147.653 92.6222 147 77L243 25Z" fill="#7FC732"/>
<path d="M140 65L129 59L238 0L249 6L140 65Z" fill="#F6F7F8"/>
<path d="M141 73L140 65L129 59V67C129.145 115.202 146.085 134.942 161 143L172 149C157.085 140.942 141.145 121.202 141 73Z" fill="#C1C7CE"/>
<path d="M218 60L211 56L223 58L230 62L218 60Z" fill="#F6F7F8"/>
<path d="M199 102L192 98L211 56L218 60L199 102Z" fill="#CBD5E2"/>
<path d="M178 113L171 109L181 93L188 97L178 113Z" fill="#CBD5E2"/>
<path d="M199 103L192 99L181 93L188 97L199 103Z" fill="#A9A9A9"/>
<path d="M218 60L230 62L201 125L178 113L188 96L199 102L218 60Z" fill="#F6F6F6"/>
<path d="M180 112L189 98L200 104L219 61L228 62L201 123L180 112Z" fill="#8DEA2F"/>
<defs>
<linearGradient id="paint0_linear_1045_5348" x1="277.793" y1="398.061" x2="145.197" y2="153.87" gradientUnits="userSpaceOnUse">
<stop stop-color="#64E434"/>
<stop offset="0.08" stop-color="#75E84E"/>
<stop offset="0.22" stop-color="#8FEE76"/>
<stop offset="0.36" stop-color="#A3F395"/>
<stop offset="0.49" stop-color="#B2F7AB"/>
<stop offset="0.62" stop-color="#BBF9B9"/>
<stop offset="0.73" stop-color="#BEFABE"/>
</linearGradient>
<linearGradient id="paint1_linear_1045_5348" x1="267.55" y1="382.078" x2="152.673" y2="171.186" gradientUnits="userSpaceOnUse">
<stop stop-color="#74DE4B"/>
<stop offset="0.04" stop-color="#75DF4D"/>
<stop offset="0.4" stop-color="#81E55A"/>
<stop offset="0.73" stop-color="#86E85F"/>
</linearGradient>
<linearGradient id="paint2_linear_1045_5348" x1="28" y1="193.988" x2="383" y2="193.988" gradientUnits="userSpaceOnUse">
<stop stop-color="#A6FF9E"/>
<stop offset="1" stop-color="#A6FF9E"/>
</linearGradient>
<linearGradient id="paint3_linear_1045_5348" x1="63.6211" y1="292.165" x2="371.562" y2="180.495" gradientUnits="userSpaceOnUse">
<stop stop-color="#00812A"/>
<stop offset="0.54" stop-color="#19CE18"/>
<stop offset="0.59" stop-color="#18CE18"/>
<stop offset="0.64" stop-color="#21D01B"/>
<stop offset="0.72" stop-color="#3BD825"/>
<stop offset="0.82" stop-color="#66E434"/>
<stop offset="0.94" stop-color="#A0F54A"/>
<stop offset="1" stop-color="#C2FF57"/>
</linearGradient>
<linearGradient id="paint4_linear_1045_5348" x1="229.54" y1="213.105" x2="289.859" y2="126.483" gradientUnits="userSpaceOnUse">
<stop offset="0.16" stop-color="#074C07"/>
<stop offset="0.32" stop-color="#0D7F0D"/>
<stop offset="0.48" stop-color="#13AA13"/>
<stop offset="0.6" stop-color="#16C416"/>
<stop offset="0.67" stop-color="#18CE18"/>
<stop offset="0.73" stop-color="#32D521"/>
<stop offset="0.85" stop-color="#75E83A"/>
<stop offset="0.98" stop-color="#C2FF57"/>
</linearGradient>
<linearGradient id="paint5_linear_1045_5348" x1="245.805" y1="338.384" x2="232.835" y2="312.859" gradientUnits="userSpaceOnUse">
<stop offset="0.27" stop-color="#ECEEF7"/>
<stop offset="0.77" stop-color="#9C9AA8"/>
</linearGradient>
<linearGradient id="paint6_linear_1045_5348" x1="238.285" y1="331.063" x2="244.763" y2="318.148" gradientUnits="userSpaceOnUse">
<stop offset="0.26" stop-color="#393843"/>
<stop offset="0.78" stop-color="#23222E"/>
</linearGradient>
<linearGradient id="paint7_linear_1045_5348" x1="238.62" y1="321.852" x2="244.485" y2="323.665" gradientUnits="userSpaceOnUse">
<stop stop-color="#ADAEB8"/>
<stop offset="0.08" stop-color="#BABBC5"/>
<stop offset="0.2" stop-color="#C9CBD3"/>
<stop offset="0.34" stop-color="#D2D4DC"/>
<stop offset="0.55" stop-color="#D5D7DF"/>
<stop offset="0.66" stop-color="#C0C1CA"/>
<stop offset="1" stop-color="#868490"/>
</linearGradient>
<linearGradient id="paint8_linear_1045_5348" x1="241.975" y1="332.396" x2="246.993" y2="329.832" gradientUnits="userSpaceOnUse">
<stop stop-color="#ADAEB8"/>
<stop offset="0.08" stop-color="#BABBC5"/>
<stop offset="0.2" stop-color="#C9CBD3"/>
<stop offset="0.34" stop-color="#D2D4DC"/>
<stop offset="0.55" stop-color="#D5D7DF"/>
<stop offset="0.66" stop-color="#C0C1CA"/>
<stop offset="1" stop-color="#868490"/>
</linearGradient>
<linearGradient id="paint9_linear_1045_5348" x1="233.636" y1="323.471" x2="236.272" y2="318.54" gradientUnits="userSpaceOnUse">
<stop stop-color="#ADAEB8"/>
<stop offset="0.08" stop-color="#BABBC5"/>
<stop offset="0.2" stop-color="#C9CBD3"/>
<stop offset="0.34" stop-color="#D2D4DC"/>
<stop offset="0.55" stop-color="#D5D7DF"/>
<stop offset="0.66" stop-color="#C0C1CA"/>
<stop offset="1" stop-color="#868490"/>
</linearGradient>
<linearGradient id="paint10_linear_1045_5348" x1="117.94" y1="271.36" x2="103.773" y2="245.787" gradientUnits="userSpaceOnUse">
<stop offset="0.27" stop-color="#ECEEF7"/>
<stop offset="0.77" stop-color="#9C9AA8"/>
</linearGradient>
<linearGradient id="paint11_linear_1045_5348" x1="110.017" y1="263.073" x2="116.74" y2="250.507" gradientUnits="userSpaceOnUse">
<stop offset="0.26" stop-color="#393843"/>
<stop offset="0.78" stop-color="#23222E"/>
</linearGradient>
<linearGradient id="paint12_linear_1045_5348" x1="111.62" y1="253.852" x2="117.486" y2="255.654" gradientUnits="userSpaceOnUse">
<stop stop-color="#ADAEB8"/>
<stop offset="0.08" stop-color="#BABBC5"/>
<stop offset="0.2" stop-color="#C9CBD3"/>
<stop offset="0.34" stop-color="#D2D4DC"/>
<stop offset="0.55" stop-color="#D5D7DF"/>
<stop offset="0.66" stop-color="#C0C1CA"/>
<stop offset="1" stop-color="#868490"/>
</linearGradient>
<linearGradient id="paint13_linear_1045_5348" x1="113.979" y1="264.955" x2="118.633" y2="263.072" gradientUnits="userSpaceOnUse">
<stop stop-color="#ADAEB8"/>
<stop offset="0.08" stop-color="#BABBC5"/>
<stop offset="0.2" stop-color="#C9CBD3"/>
<stop offset="0.34" stop-color="#D2D4DC"/>
<stop offset="0.55" stop-color="#D5D7DF"/>
<stop offset="0.66" stop-color="#C0C1CA"/>
<stop offset="1" stop-color="#868490"/>
</linearGradient>
<linearGradient id="paint14_linear_1045_5348" x1="106.203" y1="255.471" x2="108.953" y2="250.723" gradientUnits="userSpaceOnUse">
<stop stop-color="#ADAEB8"/>
<stop offset="0.08" stop-color="#BABBC5"/>
<stop offset="0.2" stop-color="#C9CBD3"/>
<stop offset="0.34" stop-color="#D2D4DC"/>
<stop offset="0.55" stop-color="#D5D7DF"/>
<stop offset="0.66" stop-color="#C0C1CA"/>
<stop offset="1" stop-color="#868490"/>
</linearGradient>
</defs>
</svg>