<svg width="350" height="348" viewBox="0 0 350 348" fill="none" xmlns="http://www.w3.org/2000/svg">
<g clip-path="url(#clip0_176_6632)">
<mask id="path-1-inside-1_176_6632" fill="white">
<path d="M43.3309 0H42.5615V104.272H43.3309V0Z"/>
</mask>
<path d="M43.3309 0H42.5615V104.272H43.3309V0Z" fill="#C7C7C7"/>
<path d="M42.5615 0V-1H41.5615V0H42.5615ZM43.3309 0H44.3309V-1H43.3309V0ZM43.3309 104.272V105.272H44.3309V104.272H43.3309ZM42.5615 104.272H41.5615V105.272H42.5615V104.272ZM42.5615 1H43.3309V-1H42.5615V1ZM42.3309 0V104.272H44.3309V0H42.3309ZM43.3309 103.272H42.5615V105.272H43.3309V103.272ZM43.5615 104.272V0H41.5615V104.272H43.5615Z" fill="black" mask="url(#path-1-inside-1_176_6632)"/>
<path d="M50.6456 120.052L78.525 139.352L75.9227 145.079H9.96312L7.36785 139.352L35.2476 120.052H50.6456Z" fill="#EBEBEB" stroke="black"/>
<path d="M35.5423 119.052L33.6768 101.141H52.2094L50.3513 119.052H35.5423Z" fill="#DBDBDB" stroke="black"/>
<path d="M9.96265 145.079L7.50877 139.678H78.3756L75.9153 145.079H9.96265Z" fill="#DBDBDB" stroke="black"/>
<mask id="path-6-inside-2_176_6632" fill="white">
<path d="M121.075 0H120.306V83.6224H121.075V0Z"/>
</mask>
<path d="M121.075 0H120.306V83.6224H121.075V0Z" fill="#C7C7C7"/>
<path d="M120.306 0V-1H119.306V0H120.306ZM121.075 0H122.075V-1H121.075V0ZM121.075 83.6224V84.6224H122.075V83.6224H121.075ZM120.306 83.6224H119.306V84.6224H120.306V83.6224ZM120.306 1H121.075V-1H120.306V1ZM120.075 0V83.6224H122.075V0H120.075ZM121.075 82.6224H120.306V84.6224H121.075V82.6224ZM121.306 83.6224V0H119.306V83.6224H121.306Z" fill="black" mask="url(#path-6-inside-2_176_6632)"/>
<path d="M128.39 99.3943L156.269 118.694L153.667 124.43H87.7074L85.1118 118.695L112.992 99.3943H128.39Z" fill="#EBEBEB" stroke="black"/>
<path d="M113.286 98.3943L111.421 80.491H129.961L128.096 98.3943H113.286Z" fill="#DBDBDB" stroke="black"/>
<path d="M87.7068 124.43L85.2529 119.029H156.12L153.659 124.43H87.7068Z" fill="#DBDBDB" stroke="black"/>
<path d="M27.5691 174.568C26.3136 175.325 24.7277 175.377 23.4563 174.586L27.5691 174.568ZM27.5691 174.568C27.8655 174.393 28.1662 174.22 28.4726 174.056C28.7823 173.89 29.0903 173.732 29.4046 173.582C30.7293 172.954 31.6455 171.671 31.6903 170.176C31.6903 170.176 31.6903 170.176 31.6903 170.176L31.8132 166.252L45.2086 166.667L45.0856 170.614L45.0856 170.615C45.0411 172.11 45.8778 173.448 47.1621 174.147L47.1644 174.148C47.761 174.469 48.3374 174.828 48.9011 175.219L48.9013 175.219C50.121 176.064 51.6984 176.213 53.0297 175.503L53.0308 175.502L56.4753 173.654L62.8118 185.475L59.3668 187.323L59.3644 187.324C58.0432 188.043 57.2923 189.438 57.3184 190.919L57.3184 190.921C57.3334 191.611 57.3109 192.293 57.251 192.967L57.2508 192.969C57.1287 194.425 57.7743 195.859 59.0467 196.651L59.0474 196.652L62.4076 198.735L55.341 210.126L51.9882 208.05L51.9867 208.049C50.7485 207.288 49.185 207.289 47.9409 208.048C47.6337 208.236 47.3187 208.416 46.996 208.588C46.6701 208.762 46.3497 208.926 46.0248 209.074L46.0202 209.076C44.6977 209.693 43.8219 211 43.7777 212.468L43.7777 212.469L43.6617 216.392L30.2673 215.977L30.3901 212.068L30.3901 212.068C30.4342 210.614 29.6677 209.244 28.3831 208.544L28.3815 208.543C27.7325 208.192 27.1028 207.795 26.4843 207.366C25.2859 206.523 23.7133 206.456 22.4368 207.142L18.9927 208.991L12.6563 197.17L16.1001 195.322C16.1004 195.321 16.1006 195.321 16.1009 195.321C17.4354 194.609 18.1757 193.202 18.1496 191.725L18.1496 191.723C18.1346 191.041 18.1571 190.359 18.217 189.677L18.2172 189.675C18.3394 188.209 17.6847 186.776 16.4137 185.985L16.4131 185.985L13.068 183.91L20.1323 172.522L23.4558 174.586L27.5691 174.568ZM51.7249 208.475L55.5025 210.814L62.8326 198.998L51.7249 208.475ZM51.7249 208.475C50.6478 207.813 49.2861 207.813 48.2012 208.475C47.8858 208.667 47.5627 208.852 47.2318 209.029C46.901 209.206 46.5702 209.375 46.2317 209.529C45.0776 210.068 44.3159 211.206 44.2775 212.483L44.1615 216.408L51.7249 208.475ZM29.8903 212.053L29.7675 215.961L29.8903 212.053ZM29.8903 212.053C29.9288 210.783 29.2595 209.591 28.1439 208.983L29.8903 212.053ZM62.6712 198.31L59.3109 196.227C58.2107 195.542 57.6414 194.296 57.7491 193.011C57.8106 192.318 57.8337 191.618 57.8183 190.91L62.6712 198.31ZM30.2516 216.477L43.6469 216.892L30.2516 216.477ZM30.5625 181.324L30.5622 181.324C26.0611 184.526 24.2405 190.506 26.2229 195.667C29.1252 203.243 38.3079 206.01 44.9135 201.312L44.6237 200.905L44.9135 201.312C49.4158 198.11 51.2194 192.121 49.2373 186.961L49.2373 186.961C46.3274 179.394 37.1761 176.627 30.5625 181.324Z" fill="#EBEBEB" stroke="black"/>
<path d="M335.64 52.8092L335.523 52.7414C334.689 52.2564 334.244 51.3511 334.29 50.4179C334.298 50.2098 334.305 50.0124 334.305 49.8165C334.305 49.6054 334.305 49.4086 334.291 49.2225L334.29 49.2108L334.29 49.2108C334.243 48.2778 334.687 47.3685 335.526 46.8899C335.526 46.8897 335.527 46.8895 335.527 46.8893L337.346 45.8402L333.606 39.3589L331.787 40.4085C331.786 40.4087 331.786 40.4088 331.786 40.409C330.954 40.8924 329.935 40.8399 329.145 40.3173C328.808 40.0971 328.462 39.8984 328.1 39.7138L328.1 39.7136C327.263 39.2859 326.712 38.4339 326.712 37.4758V35.3831H319.225V37.4758C319.225 38.4339 318.674 39.2859 317.838 39.7136L317.837 39.7138C317.475 39.8987 317.129 40.0976 316.791 40.3181L316.79 40.3184C316.001 40.8317 314.985 40.8841 314.154 40.4107L314.152 40.4094L314.152 40.4094L312.331 39.3589L308.591 45.8407L310.418 46.897C310.418 46.8973 310.419 46.8975 310.419 46.8978C311.257 47.3759 311.7 48.2834 311.654 49.2149C311.647 49.423 311.64 49.6205 311.64 49.8165C311.64 50.0273 311.64 50.2165 311.654 50.4027L311.654 50.4144L311.654 50.4144C311.701 51.3455 311.259 52.2635 310.419 52.743C310.418 52.7432 310.418 52.7434 310.418 52.7436L308.599 53.7927L312.338 60.2733L314.15 59.2244L335.64 52.8092ZM335.64 52.8092H335.648M335.64 52.8092H335.648M335.648 52.8092L337.354 53.7927L333.614 60.2733L331.802 59.2244L335.648 52.8092ZM316.79 59.3068L316.791 59.3071C317.126 59.5261 317.48 59.7251 317.845 59.9114L317.845 59.9116C318.682 60.3393 319.233 61.1913 319.233 62.1494V64.2422H326.719V62.1494C326.719 61.1913 327.271 60.3393 328.107 59.9116L328.108 59.9114C328.467 59.728 328.822 59.5212 329.166 59.3048C329.954 58.7935 330.97 58.741 331.801 59.2239L316.79 59.3068ZM316.79 59.3068C316.001 58.7936 314.984 58.7404 314.151 59.2239L316.79 59.3068ZM315.525 49.8165C315.525 53.9237 318.857 57.2638 322.972 57.2638C327.081 57.2638 330.412 53.9233 330.412 49.8165C330.412 45.7089 327.08 42.3768 322.972 42.3768C318.866 42.3768 315.525 45.7081 315.525 49.8165Z" fill="#EBEBEB" stroke="black"/>
<mask id="path-13-inside-3_176_6632" fill="white">
<path d="M144.934 245.32C144.326 244.982 143.949 244.297 143.934 243.597C143.934 243.25 143.957 242.904 143.934 242.558C143.926 242.212 143.888 241.858 143.995 241.519C144.088 241.181 144.257 240.865 144.503 240.619C144.749 240.365 145.072 240.219 145.365 240.034L147.157 238.988L147.142 239.034L142.872 231.71L142.972 231.733L140.618 233.118C140.195 233.333 139.687 233.395 139.225 233.295C138.741 233.195 138.356 232.895 137.971 232.695L137.379 232.364C137.163 232.249 136.971 232.102 136.802 231.925C136.463 231.571 136.255 231.102 136.217 230.617L136.186 227.879L136.363 228.055L127.885 228.14L128.146 227.879L128.169 230.625C128.139 231.148 127.923 231.656 127.569 232.041C127.392 232.233 127.185 232.395 126.954 232.518L126.377 232.856L125.8 233.203C125.577 233.341 125.33 233.449 125.077 233.503C124.561 233.626 124.007 233.564 123.53 233.326L121.145 231.964L121.614 231.841L117.406 239.204L117.268 238.696L119.653 240.065C120.106 240.365 120.445 240.835 120.599 241.35C120.676 241.604 120.714 241.873 120.707 242.143L120.683 242.812L120.699 243.481C120.699 243.751 120.668 244.012 120.591 244.274C120.437 244.789 120.099 245.251 119.645 245.543L117.26 246.913L117.391 246.428L121.591 253.791L121.16 253.675L123.553 252.329C124.023 252.098 124.569 252.044 125.069 252.167C125.323 252.229 125.561 252.329 125.777 252.467L126.354 252.814L126.931 253.152C127.154 253.275 127.362 253.429 127.531 253.621C127.877 253.998 128.085 254.491 128.116 254.999L128.092 257.738L127.885 257.53L136.363 257.615L136.24 257.738L136.271 255.006C136.309 254.529 136.509 254.075 136.84 253.729C137.171 253.375 137.617 253.206 137.994 252.975C138.387 252.775 138.764 252.475 139.233 252.375C139.687 252.267 140.179 252.329 140.595 252.537L142.957 253.906L142.895 253.922L147.165 246.597V246.613L144.919 245.305L144.934 245.32ZM144.934 245.32L147.188 246.613H147.196V246.628L142.987 253.991L142.964 254.029L142.926 254.006L140.564 252.66C140.164 252.467 139.702 252.414 139.271 252.521C138.833 252.614 138.479 252.906 138.079 253.121C137.694 253.368 137.263 253.545 136.979 253.868C136.686 254.191 136.502 254.614 136.479 255.045L136.502 257.768V257.891H136.379L127.9 257.976H127.692V257.768L127.662 255.06C127.631 254.66 127.454 254.275 127.177 253.991C127.038 253.845 126.877 253.729 126.7 253.629L126.1 253.291L125.5 252.952C125.33 252.852 125.146 252.775 124.953 252.737C124.569 252.652 124.161 252.706 123.815 252.875L121.484 254.252L121.214 254.414L121.053 254.137L116.783 246.813L116.606 246.505L116.914 246.328L119.252 244.966C119.56 244.758 119.791 244.443 119.891 244.089C119.945 243.912 119.968 243.72 119.96 243.535L119.937 242.843L119.953 242.15C119.953 241.966 119.93 241.773 119.876 241.596C119.768 241.242 119.537 240.935 119.229 240.735L116.891 239.373L116.567 239.181L116.752 238.857L121.014 231.525L121.184 231.233L121.476 231.402L123.815 232.756C124.153 232.926 124.553 232.972 124.923 232.887C125.107 232.849 125.292 232.772 125.454 232.672L126.054 232.333L126.654 231.995C126.823 231.902 126.985 231.787 127.115 231.648C127.385 231.371 127.554 230.994 127.585 230.61L127.615 227.902V227.64H127.877L136.355 227.725H136.532V227.902L136.509 230.617C136.532 231.041 136.709 231.448 136.994 231.756C137.271 232.072 137.686 232.241 138.087 232.495C138.494 232.718 138.848 233.002 139.264 233.095C139.679 233.195 140.133 233.149 140.525 232.964L142.895 231.633L142.957 231.595L142.995 231.656L147.196 239.019L147.211 239.05L147.18 239.065L145.38 240.096C145.088 240.273 144.765 240.419 144.526 240.665C144.28 240.904 144.111 241.212 144.018 241.542C143.918 241.873 143.949 242.227 143.957 242.566C143.972 242.912 143.941 243.258 143.941 243.604C143.941 244.297 144.318 244.982 144.926 245.328L144.934 245.32Z"/>
</mask>
<path d="M144.934 245.32C144.326 244.982 143.949 244.297 143.934 243.597C143.934 243.25 143.957 242.904 143.934 242.558C143.926 242.212 143.888 241.858 143.995 241.519C144.088 241.181 144.257 240.865 144.503 240.619C144.749 240.365 145.072 240.219 145.365 240.034L147.157 238.988L147.142 239.034L142.872 231.71L142.972 231.733L140.618 233.118C140.195 233.333 139.687 233.395 139.225 233.295C138.741 233.195 138.356 232.895 137.971 232.695L137.379 232.364C137.163 232.249 136.971 232.102 136.802 231.925C136.463 231.571 136.255 231.102 136.217 230.617L136.186 227.879L136.363 228.055L127.885 228.14L128.146 227.879L128.169 230.625C128.139 231.148 127.923 231.656 127.569 232.041C127.392 232.233 127.185 232.395 126.954 232.518L126.377 232.856L125.8 233.203C125.577 233.341 125.33 233.449 125.077 233.503C124.561 233.626 124.007 233.564 123.53 233.326L121.145 231.964L121.614 231.841L117.406 239.204L117.268 238.696L119.653 240.065C120.106 240.365 120.445 240.835 120.599 241.35C120.676 241.604 120.714 241.873 120.707 242.143L120.683 242.812L120.699 243.481C120.699 243.751 120.668 244.012 120.591 244.274C120.437 244.789 120.099 245.251 119.645 245.543L117.26 246.913L117.391 246.428L121.591 253.791L121.16 253.675L123.553 252.329C124.023 252.098 124.569 252.044 125.069 252.167C125.323 252.229 125.561 252.329 125.777 252.467L126.354 252.814L126.931 253.152C127.154 253.275 127.362 253.429 127.531 253.621C127.877 253.998 128.085 254.491 128.116 254.999L128.092 257.738L127.885 257.53L136.363 257.615L136.24 257.738L136.271 255.006C136.309 254.529 136.509 254.075 136.84 253.729C137.171 253.375 137.617 253.206 137.994 252.975C138.387 252.775 138.764 252.475 139.233 252.375C139.687 252.267 140.179 252.329 140.595 252.537L142.957 253.906L142.895 253.922L147.165 246.597V246.613L144.919 245.305L144.934 245.32ZM144.934 245.32L147.188 246.613H147.196V246.628L142.987 253.991L142.964 254.029L142.926 254.006L140.564 252.66C140.164 252.467 139.702 252.414 139.271 252.521C138.833 252.614 138.479 252.906 138.079 253.121C137.694 253.368 137.263 253.545 136.979 253.868C136.686 254.191 136.502 254.614 136.479 255.045L136.502 257.768V257.891H136.379L127.9 257.976H127.692V257.768L127.662 255.06C127.631 254.66 127.454 254.275 127.177 253.991C127.038 253.845 126.877 253.729 126.7 253.629L126.1 253.291L125.5 252.952C125.33 252.852 125.146 252.775 124.953 252.737C124.569 252.652 124.161 252.706 123.815 252.875L121.484 254.252L121.214 254.414L121.053 254.137L116.783 246.813L116.606 246.505L116.914 246.328L119.252 244.966C119.56 244.758 119.791 244.443 119.891 244.089C119.945 243.912 119.968 243.72 119.96 243.535L119.937 242.843L119.953 242.15C119.953 241.966 119.93 241.773 119.876 241.596C119.768 241.242 119.537 240.935 119.229 240.735L116.891 239.373L116.567 239.181L116.752 238.857L121.014 231.525L121.184 231.233L121.476 231.402L123.815 232.756C124.153 232.926 124.553 232.972 124.923 232.887C125.107 232.849 125.292 232.772 125.454 232.672L126.054 232.333L126.654 231.995C126.823 231.902 126.985 231.787 127.115 231.648C127.385 231.371 127.554 230.994 127.585 230.61L127.615 227.902V227.64H127.877L136.355 227.725H136.532V227.902L136.509 230.617C136.532 231.041 136.709 231.448 136.994 231.756C137.271 232.072 137.686 232.241 138.087 232.495C138.494 232.718 138.848 233.002 139.264 233.095C139.679 233.195 140.133 233.149 140.525 232.964L142.895 231.633L142.957 231.595L142.995 231.656L147.196 239.019L147.211 239.05L147.18 239.065L145.38 240.096C145.088 240.273 144.765 240.419 144.526 240.665C144.28 240.904 144.111 241.212 144.018 241.542C143.918 241.873 143.949 242.227 143.957 242.566C143.972 242.912 143.941 243.258 143.941 243.604C143.941 244.297 144.318 244.982 144.926 245.328L144.934 245.32Z" fill="#EBEBEB"/>
<path d="M143.934 243.597H142.934V243.608L142.934 243.619L143.934 243.597ZM143.934 242.558L142.934 242.58L142.934 242.602L142.936 242.625L143.934 242.558ZM143.995 241.519L144.948 241.823L144.955 241.803L144.96 241.783L143.995 241.519ZM144.503 240.619L145.21 241.326L145.216 241.321L145.221 241.315L144.503 240.619ZM145.365 240.034L144.861 239.171L144.846 239.18L144.831 239.189L145.365 240.034ZM147.157 238.988L148.106 239.304L148.946 236.787L146.653 238.125L147.157 238.988ZM147.142 239.034L146.278 239.538L147.391 241.448L148.091 239.351L147.142 239.034ZM142.872 231.71L143.097 230.736L140.843 230.216L142.008 232.214L142.872 231.71ZM142.972 231.733L143.479 232.595L145.642 231.323L143.197 230.759L142.972 231.733ZM140.618 233.118L141.071 234.009L141.099 233.995L141.125 233.98L140.618 233.118ZM139.225 233.295L139.437 232.317L139.427 232.315L139.225 233.295ZM137.971 232.695L137.484 233.568L137.497 233.575L137.51 233.582L137.971 232.695ZM137.379 232.364L137.866 231.491L137.859 231.487L137.851 231.482L137.379 232.364ZM136.217 230.617L135.217 230.629L135.217 230.663L135.22 230.697L136.217 230.617ZM136.186 227.879L136.893 227.171L135.159 225.437L135.186 227.89L136.186 227.879ZM136.363 228.055L136.373 229.055L138.754 229.032L137.07 227.348L136.363 228.055ZM127.885 228.14L127.178 227.433L125.446 229.164L127.895 229.14L127.885 228.14ZM128.146 227.879L129.146 227.87L129.126 225.484L127.439 227.171L128.146 227.879ZM128.169 230.625L129.168 230.684L129.17 230.65L129.169 230.617L128.169 230.625ZM126.954 232.518L126.483 231.635L126.465 231.645L126.448 231.655L126.954 232.518ZM126.377 232.856L125.871 231.994L125.862 231.999L126.377 232.856ZM125.8 233.203L125.285 232.345L125.279 232.349L125.272 232.353L125.8 233.203ZM125.077 233.503L124.869 232.524L124.857 232.527L124.844 232.53L125.077 233.503ZM123.53 233.326L123.034 234.194L123.058 234.208L123.083 234.22L123.53 233.326ZM121.145 231.964L120.891 230.997L118.522 231.618L120.649 232.832L121.145 231.964ZM121.614 231.841L122.483 232.337L123.665 230.269L121.361 230.873L121.614 231.841ZM117.406 239.204L116.441 239.467L117.076 241.795L118.274 239.7L117.406 239.204ZM117.268 238.696L117.765 237.829L115.666 236.623L116.303 238.959L117.268 238.696ZM119.653 240.065L120.204 239.231L120.178 239.214L120.15 239.198L119.653 240.065ZM120.599 241.35L119.641 241.636L119.642 241.64L120.599 241.35ZM120.707 242.143L121.706 242.177L121.706 242.171L120.707 242.143ZM120.683 242.812L119.684 242.777L119.683 242.806L119.684 242.835L120.683 242.812ZM120.699 243.481H121.699V243.47L121.699 243.458L120.699 243.481ZM120.591 244.274L121.549 244.56L121.551 244.556L120.591 244.274ZM119.645 245.543L120.143 246.41L120.165 246.398L120.186 246.384L119.645 245.543ZM117.26 246.913L116.294 246.652L115.666 248.981L117.758 247.78L117.26 246.913ZM117.391 246.428L118.259 245.932L117.057 243.825L116.425 246.167L117.391 246.428ZM121.591 253.791L121.333 254.757L123.648 255.377L122.46 253.295L121.591 253.791ZM121.16 253.675L120.67 252.804L118.532 254.007L120.902 254.641L121.16 253.675ZM123.553 252.329L123.112 251.432L123.087 251.444L123.063 251.457L123.553 252.329ZM125.069 252.167L124.83 253.138L124.833 253.139L125.069 252.167ZM125.777 252.467L125.236 253.309L125.249 253.317L125.262 253.325L125.777 252.467ZM126.354 252.814L125.839 253.671L125.848 253.676L126.354 252.814ZM126.931 253.152L126.425 254.015L126.436 254.021L126.448 254.028L126.931 253.152ZM127.531 253.621L126.78 254.282L126.787 254.29L126.794 254.298L127.531 253.621ZM128.116 254.999L129.116 255.007L129.116 254.973L129.114 254.938L128.116 254.999ZM128.092 257.738L127.385 258.445L129.072 260.132L129.092 257.746L128.092 257.738ZM127.885 257.53L127.895 256.53L125.446 256.506L127.178 258.237L127.885 257.53ZM136.363 257.615L137.07 258.322L138.754 256.638L136.373 256.615L136.363 257.615ZM136.24 257.738L135.24 257.726L135.213 260.179L136.947 258.445L136.24 257.738ZM136.271 255.006L135.274 254.926L135.271 254.96L135.271 254.995L136.271 255.006ZM136.84 253.729L137.563 254.42L137.571 254.412L136.84 253.729ZM137.994 252.975L137.54 252.084L137.505 252.102L137.472 252.122L137.994 252.975ZM139.233 252.375L139.441 253.353L139.453 253.351L139.464 253.348L139.233 252.375ZM140.595 252.537L141.096 251.672L141.07 251.656L141.042 251.642L140.595 252.537ZM142.957 253.906L143.199 254.876L145.591 254.278L143.458 253.041L142.957 253.906ZM142.895 253.922L142.031 253.418L140.836 255.468L143.138 254.892L142.895 253.922ZM147.165 246.597H148.165V242.896L146.301 246.094L147.165 246.597ZM147.165 246.613L146.662 247.477L148.165 248.352V246.613H147.165ZM144.919 245.305L145.422 244.44L144.212 246.012L144.919 245.305ZM147.188 246.613L146.691 247.48L146.922 247.613H147.188V246.613ZM147.196 246.613H148.196V245.613H147.196V246.613ZM147.196 246.628L148.064 247.124L148.196 246.894V246.628H147.196ZM142.987 253.991L143.845 254.505L143.85 254.496L143.856 254.487L142.987 253.991ZM142.964 254.029L142.45 254.887L143.307 255.401L143.822 254.544L142.964 254.029ZM142.926 254.006L143.44 253.149L143.431 253.143L143.421 253.137L142.926 254.006ZM140.564 252.66L141.059 251.791L141.029 251.774L140.997 251.759L140.564 252.66ZM139.271 252.521L139.477 253.5L139.496 253.496L139.514 253.491L139.271 252.521ZM138.079 253.121L137.605 252.241L137.572 252.259L137.54 252.279L138.079 253.121ZM136.979 253.868L137.72 254.539L137.729 254.529L136.979 253.868ZM136.479 255.045L135.48 254.991L135.478 255.022L135.479 255.053L136.479 255.045ZM136.502 257.768H137.502L137.502 257.76L136.502 257.768ZM136.502 257.891V258.891H137.502V257.891H136.502ZM136.379 257.891V256.891L136.369 256.892L136.379 257.891ZM127.9 257.976V258.976L127.91 258.976L127.9 257.976ZM127.692 257.976H126.692V258.976H127.692V257.976ZM127.692 257.768H128.692L128.692 257.757L127.692 257.768ZM127.662 255.06L128.662 255.049L128.661 255.016L128.659 254.984L127.662 255.06ZM127.177 253.991L126.451 254.679L126.46 254.688L127.177 253.991ZM126.7 253.629L127.192 252.759L127.191 252.758L126.7 253.629ZM125.5 252.952L124.991 253.813L125 253.818L125.008 253.823L125.5 252.952ZM124.953 252.737L124.739 253.713L124.748 253.715L124.757 253.717L124.953 252.737ZM123.815 252.875L123.376 251.977L123.34 251.994L123.306 252.014L123.815 252.875ZM121.484 254.252L120.975 253.391L120.969 253.395L121.484 254.252ZM121.214 254.414L120.351 254.918L120.861 255.792L121.729 255.271L121.214 254.414ZM121.053 254.137L120.189 254.641L120.189 254.641L121.053 254.137ZM116.783 246.813L115.916 247.311L115.919 247.316L116.783 246.813ZM116.606 246.505L116.107 245.638L115.24 246.136L115.739 247.003L116.606 246.505ZM116.914 246.328L117.412 247.195L117.417 247.192L116.914 246.328ZM119.252 244.966L119.756 245.83L119.784 245.814L119.812 245.795L119.252 244.966ZM119.891 244.089L118.934 243.798L118.931 243.807L118.929 243.817L119.891 244.089ZM119.96 243.535L118.961 243.568L118.961 243.577L119.96 243.535ZM119.937 242.843L118.937 242.82L118.937 242.848L118.938 242.876L119.937 242.843ZM119.953 242.15L120.952 242.172L120.953 242.161V242.15H119.953ZM119.229 240.735L119.774 239.896L119.754 239.883L119.733 239.87L119.229 240.735ZM116.891 239.373L116.379 240.232L116.387 240.237L116.891 239.373ZM116.567 239.181L115.699 238.684L115.212 239.537L116.056 240.04L116.567 239.181ZM116.752 238.857L115.887 238.355L115.884 238.361L116.752 238.857ZM121.014 231.525L121.879 232.028L121.88 232.026L121.014 231.525ZM121.184 231.233L121.685 230.368L120.819 229.866L120.318 230.732L121.184 231.233ZM121.476 231.402L121.977 230.537L121.977 230.537L121.476 231.402ZM123.815 232.756L123.314 233.622L123.34 233.637L123.368 233.651L123.815 232.756ZM124.923 232.887L124.719 231.908L124.709 231.91L124.699 231.912L124.923 232.887ZM125.454 232.672L124.962 231.801L124.945 231.811L124.927 231.821L125.454 232.672ZM126.654 231.995L126.175 231.117L126.169 231.12L126.162 231.124L126.654 231.995ZM127.115 231.648L126.398 230.951L126.393 230.957L126.388 230.962L127.115 231.648ZM127.585 230.61L128.582 230.69L128.584 230.655L128.585 230.621L127.585 230.61ZM127.615 227.902L128.615 227.913V227.902H127.615ZM127.615 227.64V226.64H126.615V227.64H127.615ZM127.877 227.64L127.887 226.64H127.877V227.64ZM136.355 227.725L136.345 228.725H136.355V227.725ZM136.532 227.725H137.532V226.725H136.532V227.725ZM136.532 227.902L137.532 227.91V227.902H136.532ZM136.509 230.617L135.509 230.609L135.509 230.64L135.511 230.672L136.509 230.617ZM136.994 231.756L137.745 231.096L137.737 231.087L137.728 231.077L136.994 231.756ZM138.087 232.495L137.551 233.339L137.578 233.356L137.607 233.372L138.087 232.495ZM139.264 233.095L139.498 232.123L139.489 232.121L139.481 232.119L139.264 233.095ZM140.525 232.964L140.951 233.869L140.984 233.854L141.015 233.836L140.525 232.964ZM142.895 231.633L143.385 232.505L143.405 232.493L143.425 232.481L142.895 231.633ZM142.957 231.595L143.805 231.065L143.275 230.216L142.427 230.747L142.957 231.595ZM142.995 231.656L143.864 231.161L143.854 231.143L143.843 231.126L142.995 231.656ZM147.196 239.019L148.09 238.572L148.078 238.547L148.064 238.523L147.196 239.019ZM147.211 239.05L147.659 239.944L148.553 239.497L148.106 238.602L147.211 239.05ZM147.18 239.065L146.733 238.171L146.708 238.183L146.684 238.197L147.18 239.065ZM145.38 240.096L144.883 239.228L144.873 239.234L144.862 239.241L145.38 240.096ZM144.526 240.665L145.222 241.384L145.233 241.373L145.244 241.361L144.526 240.665ZM144.018 241.542L144.976 241.832L144.979 241.822L144.982 241.811L144.018 241.542ZM143.957 242.566L142.957 242.588L142.957 242.599L142.958 242.61L143.957 242.566ZM144.926 245.328L144.431 246.197L145.094 246.574L145.633 246.035L144.926 245.328ZM145.42 244.446C145.153 244.297 144.942 243.956 144.933 243.575L142.934 243.619C142.956 244.638 143.499 245.666 144.447 246.194L145.42 244.446ZM144.934 243.597C144.934 243.345 144.957 242.876 144.932 242.491L142.936 242.625C142.956 242.932 142.934 243.156 142.934 243.597H144.934ZM144.933 242.536C144.923 242.065 144.906 241.955 144.948 241.823L143.042 241.216C142.869 241.761 142.929 242.359 142.934 242.58L144.933 242.536ZM144.96 241.783C145.013 241.588 145.104 241.433 145.21 241.326L143.796 239.912C143.41 240.298 143.162 240.774 143.031 241.256L144.96 241.783ZM145.221 241.315C145.261 241.274 145.323 241.225 145.442 241.152C145.501 241.115 145.564 241.079 145.643 241.033C145.718 240.99 145.808 240.937 145.899 240.88L144.831 239.189C144.776 239.224 144.716 239.259 144.64 239.303C144.569 239.344 144.48 239.395 144.392 239.45C144.214 239.56 143.992 239.71 143.785 239.923L145.221 241.315ZM145.869 240.898L147.661 239.852L146.653 238.125L144.861 239.171L145.869 240.898ZM146.209 238.672L146.193 238.718L148.091 239.351L148.106 239.304L146.209 238.672ZM148.006 238.531L143.736 231.206L142.008 232.214L146.278 239.538L148.006 238.531ZM142.647 232.684L142.747 232.707L143.197 230.759L143.097 230.736L142.647 232.684ZM142.465 230.871L140.111 232.256L141.125 233.98L143.479 232.595L142.465 230.871ZM140.164 232.227C139.951 232.335 139.679 232.37 139.437 232.318L139.013 234.272C139.695 234.42 140.438 234.331 141.071 234.009L140.164 232.227ZM139.427 232.315C139.326 232.295 139.209 232.247 139.042 232.156C138.957 232.109 138.875 232.06 138.77 231.998C138.673 231.941 138.556 231.872 138.433 231.808L137.51 233.582C137.579 233.618 137.654 233.661 137.752 233.72C137.843 233.774 137.959 233.843 138.079 233.909C138.322 234.042 138.64 234.195 139.023 234.274L139.427 232.315ZM138.459 231.822L137.866 231.491L136.891 233.237L137.484 233.568L138.459 231.822ZM137.851 231.482C137.729 231.417 137.621 231.335 137.524 231.234L136.079 232.617C136.321 232.87 136.598 233.08 136.907 233.245L137.851 231.482ZM137.524 231.234C137.347 231.048 137.234 230.796 137.214 230.538L135.22 230.697C135.277 231.408 135.58 232.095 136.079 232.617L137.524 231.234ZM137.217 230.606L137.186 227.867L135.186 227.89L135.217 230.629L137.217 230.606ZM135.479 228.586L135.656 228.763L137.07 227.348L136.893 227.171L135.479 228.586ZM136.353 227.056L127.875 227.14L127.895 229.14L136.373 229.055L136.353 227.056ZM128.592 228.847L128.853 228.586L127.439 227.171L127.178 227.433L128.592 228.847ZM127.146 227.887L127.169 230.634L129.169 230.617L129.146 227.87L127.146 227.887ZM127.171 230.566C127.154 230.86 127.031 231.149 126.833 231.364L128.305 232.718C128.816 232.163 129.123 231.437 129.168 230.684L127.171 230.566ZM126.833 231.364C126.732 231.474 126.613 231.566 126.483 231.635L127.424 233.4C127.756 233.223 128.053 232.992 128.305 232.718L126.833 231.364ZM126.448 231.655L125.871 231.994L126.883 233.719L127.46 233.38L126.448 231.655ZM125.862 231.999L125.285 232.345L126.314 234.06L126.891 233.714L125.862 231.999ZM125.272 232.353C125.129 232.442 124.99 232.499 124.869 232.524L125.284 234.481C125.671 234.399 126.025 234.24 126.327 234.052L125.272 232.353ZM124.844 232.53C124.555 232.599 124.242 232.564 123.977 232.431L123.083 234.22C123.772 234.565 124.567 234.652 125.309 234.475L124.844 232.53ZM124.026 232.457L121.641 231.095L120.649 232.832L123.034 234.194L124.026 232.457ZM121.399 232.931L121.868 232.808L121.361 230.873L120.891 230.997L121.399 232.931ZM120.746 231.345L116.538 238.707L118.274 239.7L122.483 232.337L120.746 231.345ZM118.371 238.94L118.232 238.433L116.303 238.959L116.441 239.467L118.371 238.94ZM116.77 239.563L119.155 240.932L120.15 239.198L117.765 237.829L116.77 239.563ZM119.101 240.899C119.352 241.065 119.551 241.337 119.641 241.636L121.557 241.064C121.339 240.332 120.861 239.665 120.204 239.231L119.101 240.899ZM119.642 241.64C119.689 241.796 119.711 241.958 119.707 242.114L121.706 242.171C121.717 241.789 121.663 241.412 121.556 241.06L119.642 241.64ZM119.707 242.108L119.684 242.777L121.683 242.846L121.706 242.177L119.707 242.108ZM119.684 242.835L119.699 243.504L121.699 243.458L121.683 242.789L119.684 242.835ZM119.699 243.481C119.699 243.672 119.677 243.837 119.632 243.992L121.551 244.556C121.659 244.187 121.699 243.829 121.699 243.481H119.699ZM119.633 243.988C119.545 244.282 119.35 244.544 119.103 244.702L120.186 246.384C120.848 245.958 121.33 245.296 121.549 244.56L119.633 243.988ZM119.147 244.676L116.762 246.045L117.758 247.78L120.143 246.41L119.147 244.676ZM118.225 247.173L118.356 246.688L116.425 246.167L116.294 246.652L118.225 247.173ZM116.522 246.923L120.723 254.286L122.46 253.295L118.259 245.932L116.522 246.923ZM121.85 252.825L121.419 252.709L120.902 254.641L121.333 254.757L121.85 252.825ZM121.651 254.547L124.044 253.2L123.063 251.457L120.67 252.804L121.651 254.547ZM123.995 253.226C124.248 253.102 124.553 253.07 124.83 253.138L125.308 251.196C124.585 251.018 123.797 251.095 123.112 251.432L123.995 253.226ZM124.833 253.139C124.985 253.176 125.119 253.234 125.236 253.309L126.317 251.626C126.003 251.424 125.66 251.282 125.304 251.196L124.833 253.139ZM125.262 253.325L125.839 253.671L126.868 251.956L126.291 251.61L125.262 253.325ZM125.848 253.676L126.425 254.015L127.437 252.29L126.86 251.951L125.848 253.676ZM126.448 254.028C126.594 254.109 126.704 254.195 126.78 254.282L128.282 252.961C128.02 252.663 127.713 252.442 127.414 252.277L126.448 254.028ZM126.794 254.298C126.984 254.505 127.1 254.78 127.117 255.059L129.114 254.938C129.069 254.202 128.77 253.492 128.267 252.945L126.794 254.298ZM127.116 254.99L127.093 257.729L129.092 257.746L129.116 255.007L127.116 254.99ZM128.8 257.03L128.592 256.823L127.178 258.237L127.385 258.445L128.8 257.03ZM127.875 258.53L136.353 258.614L136.373 256.615L127.895 256.53L127.875 258.53ZM135.656 256.907L135.533 257.031L136.947 258.445L137.07 258.322L135.656 256.907ZM137.24 257.749L137.271 255.018L135.271 254.995L135.24 257.726L137.24 257.749ZM137.268 255.087C137.288 254.834 137.394 254.597 137.563 254.42L136.117 253.038C135.624 253.554 135.331 254.225 135.274 254.926L137.268 255.087ZM137.571 254.412C137.638 254.34 137.736 254.267 137.9 254.172C137.983 254.124 138.068 254.079 138.175 254.021C138.276 253.967 138.396 253.902 138.516 253.828L137.472 252.122C137.404 252.164 137.327 252.207 137.227 252.26C137.135 252.31 137.016 252.373 136.9 252.44C136.664 252.576 136.373 252.765 136.11 253.046L137.571 254.412ZM138.448 253.866C138.646 253.766 138.97 253.567 139.071 253.511C139.24 253.418 139.35 253.373 139.441 253.353L139.024 251.397C138.647 251.478 138.334 251.633 138.098 251.764C137.795 251.933 137.735 251.985 137.54 252.084L138.448 253.866ZM139.464 253.348C139.683 253.296 139.936 253.325 140.147 253.431L141.042 251.642C140.422 251.332 139.69 251.239 139.002 251.402L139.464 253.348ZM140.093 253.402L142.455 254.771L143.458 253.041L141.096 251.672L140.093 253.402ZM142.714 252.936L142.652 252.951L143.138 254.892L143.199 254.876L142.714 252.936ZM143.759 254.425L148.029 247.101L146.301 246.094L142.031 253.418L143.759 254.425ZM146.165 246.597V246.613H148.165V246.597H146.165ZM147.668 245.748L145.422 244.44L144.415 246.169L146.662 247.477L147.668 245.748ZM144.212 246.012L144.227 246.027L145.641 244.613L145.625 244.597L144.212 246.012ZM144.436 246.188L146.691 247.48L147.686 245.745L145.431 244.453L144.436 246.188ZM147.188 247.613H147.196V245.613H147.188V247.613ZM146.196 246.613V246.628H148.196V246.613H146.196ZM146.328 246.132L142.119 253.495L143.856 254.487L148.064 247.124L146.328 246.132ZM142.13 253.476L142.107 253.515L143.822 254.544L143.845 254.505L142.13 253.476ZM143.479 253.172L143.44 253.149L142.411 254.864L142.45 254.887L143.479 253.172ZM143.421 253.137L141.059 251.791L140.069 253.529L142.431 254.875L143.421 253.137ZM140.997 251.759C140.397 251.47 139.696 251.384 139.029 251.551L139.514 253.491C139.708 253.443 139.931 253.465 140.131 253.561L140.997 251.759ZM139.065 251.543C138.694 251.621 138.388 251.778 138.161 251.909C138.049 251.974 137.936 252.044 137.849 252.098C137.755 252.156 137.678 252.201 137.605 252.241L138.553 254.002C138.68 253.934 138.797 253.862 138.896 253.802C139.001 253.737 139.079 253.688 139.161 253.641C139.32 253.55 139.411 253.514 139.477 253.5L139.065 251.543ZM137.54 252.279C137.335 252.41 137.268 252.433 136.975 252.609C136.755 252.742 136.472 252.93 136.228 253.207L137.729 254.529C137.77 254.482 137.845 254.42 138.008 254.322C138.097 254.268 138.438 254.079 138.618 253.964L137.54 252.279ZM136.237 253.197C135.8 253.68 135.516 254.318 135.48 254.991L137.477 255.098C137.487 254.91 137.572 254.702 137.72 254.539L136.237 253.197ZM135.479 255.053L135.502 257.777L137.502 257.76L137.479 255.036L135.479 255.053ZM135.502 257.768V257.891H137.502V257.768H135.502ZM136.502 256.891H136.379V258.891H136.502V256.891ZM136.369 256.892L127.89 256.976L127.91 258.976L136.389 258.891L136.369 256.892ZM127.9 256.976H127.692V258.976H127.9V256.976ZM128.692 257.976V257.768H126.692V257.976H128.692ZM128.692 257.757L128.662 255.049L126.662 255.072L126.692 257.78L128.692 257.757ZM128.659 254.984C128.61 254.346 128.331 253.743 127.894 253.293L126.46 254.688C126.577 254.808 126.652 254.974 126.665 255.137L128.659 254.984ZM127.903 253.303C127.677 253.065 127.428 252.892 127.192 252.759L126.208 254.5C126.326 254.566 126.4 254.624 126.451 254.679L127.903 253.303ZM127.191 252.758L126.591 252.42L125.609 254.162L126.209 254.5L127.191 252.758ZM126.591 252.42L125.991 252.081L125.008 253.823L125.609 254.162L126.591 252.42ZM126.008 252.091C125.761 251.945 125.471 251.82 125.15 251.756L124.757 253.717C124.821 253.73 124.9 253.759 124.991 253.813L126.008 252.091ZM125.168 251.76C124.557 251.626 123.919 251.711 123.376 251.977L124.254 253.774C124.403 253.701 124.581 253.679 124.739 253.713L125.168 251.76ZM123.306 252.014L120.975 253.391L121.992 255.113L124.323 253.736L123.306 252.014ZM120.969 253.395L120.7 253.556L121.729 255.271L121.998 255.11L120.969 253.395ZM122.078 253.91L121.917 253.633L120.189 254.641L120.351 254.918L122.078 253.91ZM121.917 253.633L117.647 246.309L115.919 247.316L120.189 254.641L121.917 253.633ZM117.65 246.314L117.473 246.006L115.739 247.003L115.916 247.311L117.65 246.314ZM117.104 247.372L117.412 247.195L116.415 245.461L116.107 245.638L117.104 247.372ZM117.417 247.192L119.756 245.83L118.749 244.102L116.41 245.464L117.417 247.192ZM119.812 245.795C120.311 245.458 120.688 244.947 120.853 244.361L118.929 243.817C118.894 243.939 118.809 244.059 118.693 244.137L119.812 245.795ZM120.848 244.38C120.936 244.091 120.972 243.785 120.959 243.493L118.961 243.577C118.964 243.654 118.954 243.734 118.934 243.798L120.848 244.38ZM120.96 243.502L120.937 242.809L118.938 242.876L118.961 243.568L120.96 243.502ZM120.937 242.865L120.952 242.172L118.953 242.128L118.937 242.82L120.937 242.865ZM120.953 242.15C120.953 241.887 120.92 241.594 120.832 241.305L118.919 241.887C118.939 241.952 118.953 242.044 118.953 242.15H120.953ZM120.832 241.305C120.657 240.728 120.281 240.226 119.774 239.896L118.684 241.573C118.793 241.644 118.879 241.757 118.919 241.887L120.832 241.305ZM119.733 239.87L117.394 238.509L116.387 240.237L118.726 241.599L119.733 239.87ZM117.402 238.514L117.079 238.321L116.056 240.04L116.379 240.232L117.402 238.514ZM117.436 239.677L117.62 239.353L115.884 238.361L115.699 238.684L117.436 239.677ZM117.617 239.36L121.879 232.028L120.15 231.023L115.887 238.355L117.617 239.36ZM121.88 232.026L122.049 231.734L120.318 230.732L120.149 231.024L121.88 232.026ZM120.683 232.098L120.975 232.268L121.977 230.537L121.685 230.368L120.683 232.098ZM120.975 232.268L123.314 233.622L124.316 231.891L121.977 230.537L120.975 232.268ZM123.368 233.651C123.917 233.925 124.554 233.998 125.146 233.862L124.699 231.912C124.553 231.946 124.39 231.926 124.262 231.862L123.368 233.651ZM125.127 233.866C125.436 233.802 125.729 233.677 125.98 233.522L124.927 231.821C124.855 231.866 124.779 231.896 124.719 231.908L125.127 233.866ZM125.945 233.543L126.545 233.204L125.562 231.462L124.962 231.801L125.945 233.543ZM126.545 233.204L127.145 232.866L126.162 231.124L125.562 231.462L126.545 233.204ZM127.133 232.873C127.37 232.743 127.623 232.568 127.842 232.335L126.388 230.962C126.346 231.006 126.276 231.062 126.175 231.117L127.133 232.873ZM127.832 232.345C128.266 231.9 128.532 231.304 128.582 230.69L126.588 230.53C126.575 230.685 126.504 230.843 126.398 230.951L127.832 232.345ZM128.585 230.621L128.615 227.913L126.616 227.89L126.585 230.598L128.585 230.621ZM128.615 227.902V227.64H126.615V227.902H128.615ZM127.615 228.64H127.877V226.64H127.615V228.64ZM127.867 228.64L136.345 228.725L136.365 226.725L127.887 226.64L127.867 228.64ZM136.355 228.725H136.532V226.725H136.355V228.725ZM135.532 227.725V227.902H137.532V227.725H135.532ZM135.532 227.893L135.509 230.609L137.509 230.626L137.532 227.91L135.532 227.893ZM135.511 230.672C135.547 231.333 135.821 231.96 136.26 232.435L137.728 231.077C137.598 230.936 137.518 230.748 137.508 230.563L135.511 230.672ZM136.243 232.416C136.483 232.69 136.76 232.874 136.978 233.005C137.271 233.181 137.333 233.201 137.551 233.339L138.622 231.65C138.44 231.535 138.095 231.343 138.01 231.292C137.851 231.196 137.782 231.138 137.745 231.096L136.243 232.416ZM137.607 233.372C137.685 233.415 137.766 233.464 137.861 233.522C137.95 233.577 138.062 233.646 138.172 233.71C138.393 233.838 138.69 233.992 139.047 234.071L139.481 232.119C139.422 232.106 139.334 232.071 139.173 231.978C139.092 231.931 139.012 231.882 138.907 231.817C138.808 231.757 138.692 231.686 138.567 231.617L137.607 233.372ZM139.03 234.067C139.668 234.221 140.354 234.15 140.951 233.869L140.1 232.059C139.912 232.148 139.691 232.169 139.498 232.123L139.03 234.067ZM141.015 233.836L143.385 232.505L142.405 230.761L140.036 232.092L141.015 233.836ZM143.425 232.481L143.487 232.442L142.427 230.747L142.365 230.785L143.425 232.481ZM142.109 232.124L142.147 232.186L143.843 231.126L143.805 231.065L142.109 232.124ZM142.127 232.152L146.327 239.514L148.064 238.523L143.864 231.161L142.127 232.152ZM146.301 239.466L146.317 239.497L148.106 238.602L148.09 238.572L146.301 239.466ZM146.764 238.155L146.733 238.171L147.628 239.959L147.659 239.944L146.764 238.155ZM146.684 238.197L144.883 239.228L145.877 240.964L147.677 239.933L146.684 238.197ZM144.862 239.241C144.804 239.276 144.743 239.31 144.665 239.354C144.592 239.396 144.503 239.446 144.414 239.5C144.235 239.609 144.013 239.758 143.808 239.97L145.244 241.361C145.278 241.326 145.336 241.28 145.452 241.209C145.51 241.174 145.572 241.139 145.649 241.096C145.721 241.055 145.81 241.005 145.898 240.952L144.862 239.241ZM143.83 239.947C143.44 240.325 143.188 240.796 143.055 241.274L144.982 241.811C145.033 241.627 145.12 241.482 145.222 241.384L143.83 239.947ZM143.061 241.253C142.902 241.779 142.952 242.351 142.957 242.588L144.957 242.543C144.947 242.104 144.935 241.967 144.976 241.832L143.061 241.253ZM142.958 242.61C142.964 242.742 142.961 242.883 142.955 243.052C142.95 243.21 142.941 243.409 142.941 243.604H144.941C144.941 243.453 144.948 243.307 144.954 243.118C144.96 242.941 144.965 242.736 144.956 242.521L142.958 242.61ZM142.941 243.604C142.941 244.638 143.496 245.664 144.431 246.197L145.421 244.459C145.141 244.299 144.941 243.956 144.941 243.604H142.941ZM145.633 246.035L145.641 246.027L144.227 244.613L144.219 244.621L145.633 246.035Z" fill="black" mask="url(#path-13-inside-3_176_6632)"/>
<mask id="path-15-inside-4_176_6632" fill="white">
<path d="M132.132 249.775C130.308 249.79 128.5 249.051 127.185 247.774C125.854 246.513 125.031 244.697 124.992 242.827C124.938 240.958 125.654 239.057 126.985 237.68C128.3 236.303 130.208 235.495 132.132 235.495C134.055 235.495 135.963 236.295 137.279 237.673C138.61 239.042 139.325 240.95 139.272 242.82C139.233 244.697 138.41 246.505 137.087 247.767C135.771 249.044 133.963 249.775 132.139 249.767L132.132 249.775ZM132.132 249.775C133.955 249.775 135.756 249.013 137.002 247.697C138.256 246.389 138.933 244.589 138.879 242.82C138.841 241.042 138.064 239.334 136.802 238.142C135.555 236.934 133.847 236.249 132.124 236.257C130.401 236.249 128.693 236.934 127.446 238.142C126.185 239.334 125.408 241.042 125.369 242.82C125.315 244.589 125.992 246.389 127.254 247.69C128.5 248.998 130.308 249.759 132.124 249.759L132.132 249.775Z"/>
</mask>
<path d="M132.132 249.775C130.308 249.79 128.5 249.051 127.185 247.774C125.854 246.513 125.031 244.697 124.992 242.827C124.938 240.958 125.654 239.057 126.985 237.68C128.3 236.303 130.208 235.495 132.132 235.495C134.055 235.495 135.963 236.295 137.279 237.673C138.61 239.042 139.325 240.95 139.272 242.82C139.233 244.697 138.41 246.505 137.087 247.767C135.771 249.044 133.963 249.775 132.139 249.767L132.132 249.775ZM132.132 249.775C133.955 249.775 135.756 249.013 137.002 247.697C138.256 246.389 138.933 244.589 138.879 242.82C138.841 241.042 138.064 239.334 136.802 238.142C135.555 236.934 133.847 236.249 132.124 236.257C130.401 236.249 128.693 236.934 127.446 238.142C126.185 239.334 125.408 241.042 125.369 242.82C125.315 244.589 125.992 246.389 127.254 247.69C128.5 248.998 130.308 249.759 132.124 249.759L132.132 249.775Z" fill="#EBEBEB"/>
<path d="M127.185 247.774L127.881 247.057L127.873 247.049L127.185 247.774ZM124.992 242.827L125.992 242.807L125.992 242.799L124.992 242.827ZM126.985 237.68L127.704 238.375L127.708 238.371L126.985 237.68ZM137.279 237.673L136.556 238.363L136.562 238.37L137.279 237.673ZM139.272 242.82L138.272 242.791L138.272 242.799L139.272 242.82ZM137.087 247.767L136.396 247.043L136.39 247.049L137.087 247.767ZM132.139 249.767L132.144 248.767L131.727 248.765L131.433 249.059L132.139 249.767ZM137.002 247.697L136.28 247.005L136.276 247.01L137.002 247.697ZM138.879 242.82L137.879 242.841L137.88 242.85L138.879 242.82ZM136.802 238.142L136.106 238.86L136.115 238.869L136.802 238.142ZM132.124 236.257L132.12 237.257L132.129 237.257L132.124 236.257ZM127.446 238.142L128.133 238.869L128.142 238.86L127.446 238.142ZM125.369 242.82L126.369 242.85L126.369 242.841L125.369 242.82ZM127.254 247.69L127.978 247L127.972 246.993L127.254 247.69ZM132.124 249.759L133.018 249.312L132.742 248.759H132.124V249.759ZM132.123 248.775C130.569 248.788 129.013 248.155 127.881 247.057L126.488 248.492C127.988 249.948 130.048 250.792 132.14 250.775L132.123 248.775ZM127.873 247.049C126.732 245.968 126.025 244.404 125.992 242.807L123.992 242.848C124.036 244.989 124.975 247.058 126.497 248.5L127.873 247.049ZM125.992 242.799C125.945 241.194 126.563 239.556 127.704 238.375L126.266 236.985C124.745 238.559 123.931 240.722 123.993 242.856L125.992 242.799ZM127.708 238.371C128.832 237.194 130.477 236.495 132.132 236.495V234.495C129.94 234.495 127.769 235.412 126.262 236.989L127.708 238.371ZM132.132 236.495C133.789 236.495 135.434 237.189 136.556 238.363L138.002 236.982C136.493 235.402 134.321 234.495 132.132 234.495V236.495ZM136.562 238.37C137.7 239.54 138.318 241.185 138.272 242.791L140.271 242.848C140.333 240.715 139.52 238.544 137.996 236.976L136.562 238.37ZM138.272 242.799C138.239 244.404 137.531 245.961 136.396 247.043L137.777 248.49C139.288 247.049 140.227 244.99 140.271 242.84L138.272 242.799ZM136.39 247.049C135.261 248.145 133.704 248.774 132.144 248.767L132.135 250.767C134.222 250.776 136.281 249.942 137.783 248.484L136.39 247.049ZM131.433 249.059L131.425 249.067L132.838 250.482L132.846 250.475L131.433 249.059ZM132.132 250.775C134.224 250.775 136.289 249.904 137.728 248.385L136.276 247.01C135.222 248.122 133.686 248.775 132.132 248.775V250.775ZM137.724 248.389C139.165 246.886 139.941 244.825 139.879 242.789L137.88 242.85C137.925 244.354 137.347 245.893 136.28 247.005L137.724 248.389ZM139.879 242.798C139.835 240.749 138.942 238.789 137.489 237.415L136.115 238.869C137.185 239.88 137.847 241.335 137.879 242.841L139.879 242.798ZM137.498 237.424C136.064 236.034 134.104 235.248 132.12 235.257L132.129 237.257C133.591 237.25 135.047 237.834 136.106 238.86L137.498 237.424ZM132.129 235.257C130.144 235.248 128.185 236.034 126.75 237.424L128.142 238.86C129.201 237.834 130.658 237.25 132.12 237.257L132.129 235.257ZM126.759 237.415C125.306 238.789 124.414 240.749 124.369 242.798L126.369 242.841C126.401 241.335 127.063 239.88 128.133 238.869L126.759 237.415ZM124.37 242.789C124.308 244.824 125.083 246.888 126.536 248.386L127.972 246.993C126.902 245.891 126.323 244.354 126.369 242.85L124.37 242.789ZM126.53 248.38C127.969 249.889 130.04 250.759 132.124 250.759V248.759C130.577 248.759 129.032 248.106 127.978 247L126.53 248.38ZM131.23 250.207L131.238 250.222L133.026 249.327L133.018 249.312L131.23 250.207Z" fill="black" mask="url(#path-15-inside-4_176_6632)"/>
<path d="M6.32422 336.798L48.4932 336.613L90.6621 336.544L175 336.421L259.338 336.544L301.507 336.613L343.676 336.798L301.507 336.99L259.338 337.059L175 337.182L90.6621 337.059L48.4932 336.99L6.32422 336.798Z" fill="#263238"/>
<path d="M209.722 197.681V69.7506H336.283V197.681H209.722Z" fill="#EBEBEB" stroke="black"/>
<path d="M267.87 61.4723C272.124 56.4791 279.395 55.2789 286.458 56.7022C293.52 58.1255 301.953 61.6877 302.73 73.4744C303.361 83.0453 300.399 92.3777 300.445 103.057C300.491 113.735 312.531 139.748 293.19 152.442C275.817 163.844 240.596 153.373 239.511 129.907C238.649 111.304 260.722 94.1011 263.046 86.7306C265.369 79.3601 263.2 66.9502 267.87 61.48V61.4723Z" fill="#263238"/>
<path d="M264.693 71.9741C264.562 77.2981 263.793 82.6837 261.584 87.7153C261.038 88.9694 260.269 90.185 259.392 91.2467C258.53 92.3238 257.622 93.3317 256.722 94.3396C254.891 96.3322 253.083 98.3095 251.375 100.371C247.944 104.464 244.959 108.896 242.866 113.751C240.773 118.598 239.65 123.837 239.488 129.169C239.25 126.507 239.365 123.814 239.727 121.152C240.127 118.49 240.835 115.874 241.781 113.335C243.666 108.242 246.72 103.634 250.182 99.4482C251.929 97.3632 253.791 95.3782 255.63 93.401C257.476 91.416 259.346 89.5387 260.492 87.2153C261.7 84.8995 262.515 82.3606 263.162 79.7986C263.862 77.2366 264.316 74.6207 264.693 71.9741Z" fill="#263238"/>
<path d="M302.23 81.5066C302.091 86.9383 301.753 92.3624 301.899 97.7479C301.999 100.441 302.145 103.126 302.576 105.772C302.976 108.388 303.753 111.004 304.407 113.651C305.053 116.305 305.646 118.982 306.077 121.691C306.469 124.406 306.7 127.161 306.6 129.915C306.461 132.669 305.984 135.416 305.076 138.024C304.046 140.602 302.507 142.956 300.545 144.902C302.245 142.733 303.592 140.371 304.361 137.793C305.1 135.216 305.43 132.562 305.423 129.884C305.338 124.53 304.246 119.229 302.915 113.982C302.291 111.343 301.514 108.719 301.137 105.949C300.783 103.218 300.653 100.471 300.722 97.7402C300.822 92.2777 301.46 86.8768 302.222 81.4912L302.23 81.5066Z" fill="#263238"/>
<path d="M274.279 127.184C256.553 146.664 242.15 156.02 227.917 156.02C214.376 156.02 185.463 123.16 183.34 118.829C181.509 115.097 205.244 94.6397 208.898 97.1786C215.015 101.441 234.795 126.114 236.888 126.238C239.065 126.353 246.689 121.26 265.254 112.566C276.51 107.296 286.566 113.689 274.287 127.184H274.279Z" fill="#F8B8AA"/>
<path d="M186.064 122.068C183.44 119.236 172.546 105.188 170.392 100.602C168.238 96.0169 162.99 82.3683 166.33 80.3603C169.676 78.3522 171.53 82.2221 171.53 82.2221C171.53 82.2221 170.23 76.1057 173.777 74.3977C177.324 72.682 180.017 78.8061 180.017 78.8061C180.017 78.8061 179.139 72.4281 182.802 70.974C186.464 69.5199 188.141 76.1211 188.141 76.1211C188.141 76.1211 187.064 70.3277 190.588 70.397C194.827 70.4816 195.604 81.3835 198.366 86.269C198.989 87.3769 212.668 107.842 212.668 107.842L186.064 122.06V122.068Z" fill="#F8B8AA"/>
<path d="M187.988 75.5672C188.58 83.584 190.226 86.9846 194.927 93.3472C195.02 93.4703 194.858 93.6396 194.75 93.5165C189.572 87.7078 186.895 83.7301 187.595 75.5749C187.626 75.1748 187.957 75.1825 187.988 75.5672Z" fill="#263238"/>
<path d="M179.986 78.1753C181.325 86.446 183.079 90.1543 187.518 97.1786C187.58 97.2787 187.418 97.3941 187.349 97.3017C182.418 90.7775 179.832 86.746 179.579 78.3061C179.563 77.9214 179.925 77.7983 179.986 78.1753Z" fill="#263238"/>
<path d="M171.769 82.5837C173.646 90.5005 175.393 94.6474 180.578 100.918C180.702 101.064 180.494 101.256 180.363 101.125C174.454 95.2475 172.238 90.0851 171.538 82.6761C171.492 82.1683 171.654 82.099 171.769 82.5914V82.5837Z" fill="#263238"/>
<path d="M218.762 109.773C218.762 109.773 218.585 99.7021 217.531 95.2936C216.477 90.8852 206.506 75.9133 203.151 77.8829C198.82 80.4295 202.867 90.2081 205.483 94.7397C205.483 94.7397 195.45 100.61 196.843 108.265C198.235 115.913 218.77 109.781 218.77 109.781L218.762 109.773Z" fill="#F8B8AA"/>
<path d="M202.189 78.9677C199.912 84.1378 203.72 89.8619 205.928 94.4473C206.098 94.7935 205.875 95.0551 205.582 95.1321C201.543 97.8787 196.642 102.918 196.581 108.073C196.581 108.227 196.365 108.242 196.342 108.088C195.657 102.549 200.066 97.2016 204.682 94.4781C202.351 89.8157 198.781 83.8993 202.135 78.9369C202.151 78.9061 202.197 78.9292 202.182 78.96L202.189 78.9677Z" fill="#263238"/>
<path d="M243.735 120.567L257.953 147.095C257.953 147.095 277.234 128.376 280.311 120.567C283.388 112.758 280.073 107.096 266.355 111.273C252.637 115.451 243.735 120.567 243.735 120.567Z" fill="#00812A"/>
<path d="M261.239 141.556C260.531 140.117 259.923 138.632 259.192 137.201C258.469 135.778 257.73 134.362 256.969 132.954C255.43 130.123 253.899 127.284 252.291 124.491C251.383 122.922 250.437 121.368 249.444 119.844C249.398 119.775 249.275 119.821 249.306 119.906C251.914 125.745 255.076 131.338 258.23 136.893C259.146 138.501 260.184 140.032 261.139 141.617C261.177 141.686 261.277 141.617 261.239 141.556Z" fill="#263238"/>
<path d="M280.311 120.567C277.234 128.376 257.954 147.095 257.954 147.095L248.375 129.223L279.973 111.75C281.789 113.674 281.765 116.882 280.311 120.567Z" fill="#263238"/>
<path d="M246.974 165.229C246.974 165.229 239.15 183.94 241.92 198.173H328.066C325.265 159.474 305.977 126.222 294.583 115.466C285.389 106.788 275.718 107.557 268.994 112.004C267.401 113.058 249.921 137.224 248.021 141.048C240.55 156.135 246.967 165.229 246.967 165.229H246.974Z" fill="#00812A"/>
<path d="M269.602 110.866C269.602 110.866 264.201 126.353 267.34 127.161C275.111 129.161 285.535 116.474 286.159 115.182C286.313 114.851 287.005 106.173 287.52 99.4329C287.851 95.0937 288.113 91.5546 288.113 91.5546L268.94 98.125L269.556 110.019L269.602 110.873V110.866Z" fill="#F8B8AA"/>
<path d="M268.933 98.1249L269.548 110.019C273.449 109.473 282.027 107.357 287.513 99.4406C287.844 95.1013 288.105 91.5623 288.105 91.5623L285.705 92.3008L268.933 98.1326V98.1249Z" fill="#263238"/>
<path d="M254.653 81.4836C254.43 87.5231 255.03 92.4086 256.499 95.6476C260.1 103.587 267.616 105.188 270.802 105.303C273.094 105.388 279.757 104.78 284.558 101.118C288.297 98.2712 290.551 93.1395 291.828 84.1148C294.752 63.4881 285.32 56.5484 276.01 55.7175C266.709 54.8866 255.422 60.6722 254.645 81.4913L254.653 81.4836Z" fill="#F8B8AA"/>
<path d="M259.984 76.8827C260.469 76.8212 260.915 76.6827 261.392 76.5673C261.931 76.4442 262.369 76.398 262.762 75.9749C262.97 75.7518 262.946 75.2978 262.746 75.067C262.277 74.5439 261.585 74.5362 260.931 74.6593C260.223 74.7977 259.707 75.0824 259.246 75.6364C258.8 76.1749 259.338 76.9597 259.984 76.8827Z" fill="#263238"/>
<path d="M273.579 77.3982C273.095 77.3289 272.656 77.1905 272.179 77.075C271.641 76.9443 271.202 76.8981 270.81 76.4749C270.602 76.2441 270.625 75.7902 270.825 75.5671C271.294 75.0439 271.994 75.0439 272.641 75.1747C273.349 75.3132 273.856 75.6056 274.318 76.1595C274.764 76.6981 274.218 77.4828 273.572 77.3982H273.579Z" fill="#263238"/>
<path d="M270.179 82.5991C270.194 82.5453 270.287 82.6684 270.279 82.7299C270.164 84.1455 270.279 85.7843 271.533 86.3152C271.571 86.3305 271.564 86.3998 271.518 86.3921C269.964 86.0997 269.84 83.9224 270.179 82.5991Z" fill="#263238"/>
<path d="M271.518 81.1758C273.803 81.1142 273.764 85.692 271.641 85.7535C269.556 85.8074 269.595 81.2296 271.518 81.1758Z" fill="#263238"/>
<path d="M272.418 81.4297C272.818 81.6913 273.203 82.1529 273.688 82.2068C274.242 82.2683 274.672 81.7913 275.042 81.3374C275.08 81.2913 275.119 81.3374 275.119 81.3913C275.119 82.2683 274.78 83.1685 273.834 83.2916C272.972 83.407 272.364 82.6223 272.157 81.7375C272.118 81.5759 272.264 81.3374 272.418 81.4374V81.4297Z" fill="#263238"/>
<path d="M262.6 81.9989C262.592 81.9451 262.492 82.0682 262.492 82.122C262.539 83.5377 262.346 85.1687 261.061 85.638C261.023 85.6534 261.023 85.7227 261.077 85.715C262.646 85.4996 262.869 83.3299 262.608 81.9912L262.6 81.9989Z" fill="#263238"/>
<path d="M261.338 80.514C259.053 80.3371 258.869 84.9148 260.984 85.0764C263.062 85.2379 263.246 80.6602 261.338 80.514Z" fill="#263238"/>
<path d="M260.369 80.7757C260 81.0065 259.623 81.4296 259.192 81.4373C258.692 81.4527 258.338 80.9372 258.038 80.4525C258.007 80.3987 257.969 80.4371 257.969 80.4987C257.907 81.3758 258.161 82.2913 258.992 82.499C259.754 82.6837 260.346 81.9528 260.592 81.0911C260.638 80.9295 260.523 80.6833 260.377 80.7757H260.369Z" fill="#263238"/>
<path d="M270.041 93.6164C269.71 93.9626 269.394 94.4319 268.879 94.4935C268.386 94.555 267.802 94.3473 267.34 94.1934C267.294 94.178 267.248 94.2242 267.279 94.2703C267.663 94.8012 268.456 95.1166 269.11 94.9782C269.748 94.8397 270.048 94.278 270.179 93.6856C270.194 93.601 270.087 93.5779 270.041 93.6241V93.6164Z" fill="#263238"/>
<path d="M264.216 88.3617C264.216 88.3617 263.878 90.4774 263.855 91.4699C263.855 91.5622 264.093 91.6161 264.432 91.6392C264.447 91.6392 264.455 91.6545 264.47 91.6392C266.232 91.9546 268.017 91.3776 269.117 89.9619C269.186 89.8619 269.063 89.7619 268.971 89.8235C267.632 90.7621 266.17 90.9852 264.609 90.9775C264.547 90.7005 265.309 87.3769 265.147 87.3615C264.601 87.2999 263.516 87.6538 262.87 87.8308C263.447 83.4146 264.724 79.1216 265.232 74.7131C265.247 74.5592 265.024 74.5054 264.97 74.6439C263.308 79.0446 262.539 84.1224 261.831 88.6694C261.739 89.2387 263.808 88.5309 264.216 88.3693V88.3617Z" fill="#263238"/>
<path d="M265.108 91.1237C265.108 91.1237 265.901 92.3855 267.07 92.9086C267.501 93.101 267.978 93.201 268.493 93.1087C269.548 92.9163 269.648 91.97 269.517 91.1468C269.417 90.4697 269.147 89.8696 269.147 89.8696C269.147 89.8696 267.532 91.1622 265.101 91.1237H265.108Z" fill="#263238"/>
<path d="M267.078 92.9086C267.509 93.1009 267.986 93.2009 268.501 93.1086C269.555 92.9163 269.655 91.97 269.525 91.1467C268.409 91.1775 267.255 91.8392 267.078 92.9086Z" fill="#FF98B9"/>
<path d="M291.451 82.2606C289.182 82.3298 282.75 76.6596 281.573 65.7885C281.573 65.7885 283.304 75.4825 284.165 76.8443C285.035 78.206 280.565 73.6514 279.495 64.896C279.495 64.896 274.948 68.8505 270.909 70.3893C266.87 71.928 264.323 72.1204 264 71.8511C263.677 71.5741 269.601 69.0967 271.078 67.0425C271.078 67.0425 260.515 73.1744 255.468 74.0284C254.883 74.1284 255.868 65.0345 263.262 59.1873C270.655 53.3401 280.826 54.8019 284.465 57.7332C284.465 57.7332 288.451 57.9332 293.252 63.3573C298.052 68.7813 293.882 82.176 291.444 82.2529L291.451 82.2606Z" fill="#263238"/>
<path d="M288.459 85.5842C288.459 85.5842 292.683 78.8677 295.707 80.3372C298.73 81.8143 295.783 91.393 292.391 92.8547C288.998 94.3165 287.582 91.1929 287.582 91.1929L288.459 85.5842Z" fill="#F8B8AA"/>
<path d="M294.791 83.0684C294.845 83.0607 294.86 83.1376 294.814 83.1607C292.437 84.2609 291.268 86.5767 290.49 88.9541C291.168 88.0231 292.129 87.4769 293.368 88.277C293.429 88.3155 293.376 88.4232 293.306 88.4078C292.298 88.2462 291.591 88.454 290.96 89.2772C290.514 89.8619 290.221 90.5928 289.913 91.2622C289.813 91.4853 289.413 91.3853 289.483 91.1314C289.483 91.116 289.498 91.0929 289.498 91.0775C289.283 87.9847 291.475 83.5377 294.784 83.0684H294.791Z" fill="#263238"/>
<path d="M301.292 119.69C309.816 129.53 333.713 165.152 328.173 174.777C322.857 184.009 310.801 186.602 303.861 174.208C298.891 165.329 290.474 138.871 288.389 126.184C286.697 115.897 293.413 110.589 301.292 119.69Z" fill="#F8B8AA"/>
<path d="M293.329 151.227L321.58 140.84C321.58 140.84 305.723 119.144 298.422 115.013C291.121 110.881 285.043 113.374 287.274 127.538C289.505 141.702 293.329 151.227 293.329 151.227Z" fill="#00812A"/>
<path d="M316.548 136.816C315.025 137.316 313.47 137.717 311.955 138.24C310.447 138.763 308.939 139.294 307.439 139.855C304.415 140.979 301.399 142.11 298.406 143.31C296.721 143.987 295.052 144.718 293.405 145.487C293.328 145.518 293.359 145.656 293.444 145.633C299.583 143.864 305.569 141.51 311.509 139.155C313.232 138.471 314.886 137.655 316.586 136.932C316.656 136.901 316.609 136.801 316.54 136.824L316.548 136.816Z" fill="#263238"/>
<path d="M294.921 150.565C294.367 150.665 293.821 150.88 293.283 151.073C292.506 149.403 290.698 142.063 290.267 140.186C289.42 136.424 288.713 132.639 287.836 128.884C287.812 128.776 287.628 128.807 287.643 128.915C287.912 130.992 288.228 133.07 288.597 135.139C288.212 134.154 287.851 133.154 287.52 132.154C287.505 132.1 287.42 132.123 287.435 132.177C287.789 133.439 288.22 134.654 288.728 135.855C289.028 139.694 292.529 151.927 292.629 151.881C293.198 151.619 294.444 151.027 294.968 150.68C295.029 150.642 294.983 150.557 294.921 150.573V150.565Z" fill="#263238"/>
<path d="M280.949 78.1445L272.91 112.466C272.563 113.474 273.079 114.282 274.064 114.266L289.412 117.39C290.397 117.374 291.482 116.544 291.828 115.528L299.868 81.2065C300.214 80.1987 299.699 79.3908 298.714 79.4062L283.365 76.2826C282.38 76.298 281.296 77.1289 280.949 78.1445Z" fill="#A6A6A6"/>
<path d="M282.265 78.3368L274.225 112.658C273.879 113.666 274.394 114.474 275.379 114.459L290.728 117.582C291.713 117.567 292.797 116.736 293.144 115.72L301.184 81.3989C301.53 80.391 301.014 79.5832 300.029 79.5986L284.681 76.475C283.696 76.4904 282.611 77.3213 282.265 78.3368Z" fill="#DBDBDB"/>
<path d="M287.127 79.814C287.127 80.6449 286.45 81.3066 285.62 81.3066C284.789 81.3066 284.127 80.6295 284.127 79.7986C284.127 78.9677 284.804 78.306 285.635 78.306C286.466 78.306 287.127 78.9831 287.127 79.814Z" fill="#263238"/>
<path d="M307.962 177.316C312.955 186.579 326.173 181.286 328.173 174.777C332.866 159.505 329.958 134.108 327.158 119.936C326.257 115.374 295.267 119.898 295.452 124.86C295.675 130.823 298.176 159.151 307.962 177.308V177.316Z" fill="#F8B8AA"/>
<path d="M326.812 126.715C326.812 126.715 329.435 116.905 327.081 106.242C325.45 98.8635 320.118 83.2069 298.684 76.2056C293.598 74.5438 285.174 75.7825 292.498 81.5143C297.699 85.5842 302.223 86.5921 304.816 89.508C304.816 89.508 294.291 92.3546 292.821 97.5171C292.167 99.8252 290.529 106.157 289.952 111.273C289.952 111.273 291.029 111.696 292.475 112.043C292.475 112.043 291.444 118.352 295.437 124.876L326.804 126.722L326.812 126.715Z" fill="#F8B8AA"/>
<path d="M324.404 99.4404C321.218 97.0862 314.379 92.2161 307.401 90.1773C299.653 87.9153 284.112 85.638 282.496 91.3775C281.311 95.5859 287.174 96.9785 287.174 96.9785C287.174 96.9785 280.55 97.3939 280.319 101.425C280.103 105.103 284.697 105.903 284.697 105.903C284.697 105.903 280.727 106.842 281.196 110.427C281.765 114.735 289.997 112.058 294.344 115.92C295.321 116.79 324.404 99.4404 324.404 99.4404Z" fill="#F8B8AA"/>
<path d="M306.378 98.7712C303.016 97.0478 294.391 95.1013 287.297 96.8631C287.136 96.9016 287.082 97.0478 287.236 97.0401C295.46 96.7631 303.139 98.0864 306.362 98.8481C306.409 98.8558 306.424 98.7942 306.385 98.7789L306.378 98.7712Z" fill="#263238"/>
<path d="M303.869 106.526C300.814 105.342 291.836 103.726 284.704 105.757C284.542 105.803 284.496 105.949 284.65 105.942C293.228 105.295 300.584 106.042 303.846 106.603C303.892 106.603 303.9 106.542 303.861 106.526H303.869Z" fill="#263238"/>
<path d="M305.131 170.884C304.9 170.138 304.677 169.384 304.431 168.645C303.931 167.129 303.485 165.591 303.038 164.06C302.131 160.967 301.261 157.858 300.499 154.727C298.984 148.472 297.822 142.125 297.045 135.732C296.83 133.962 296.653 132.192 296.453 130.431C296.253 128.646 296.199 126.822 295.868 125.06C295.853 124.968 294.968 123.614 294.614 122.945C294.245 122.252 293.929 121.529 293.652 120.79C293.075 119.267 292.69 117.728 292.49 116.113C292.49 116.051 292.398 116.051 292.398 116.113C292.306 117.759 292.513 119.913 293.075 121.467C293.591 122.906 294.314 124.276 295.46 125.33C295.437 125.568 295.506 128.392 295.599 130.007C295.691 131.6 295.837 133.193 296.014 134.778C296.376 137.963 296.822 141.14 297.384 144.295C298.515 150.665 299.999 157.004 301.961 163.167C301.992 163.267 302.031 163.367 302.061 163.467C302.061 163.698 302.046 163.929 302.046 164.16C302.046 164.729 302.115 165.298 302.184 165.868C302.323 166.999 302.638 168.076 303.008 169.153C303.031 169.23 303.154 169.191 303.131 169.114C302.823 168.014 302.7 166.86 302.577 165.729C302.531 165.337 302.484 164.952 302.438 164.56C302.861 165.806 303.308 167.052 303.746 168.299C304.054 169.153 304.369 169.999 304.723 170.83C305.062 171.638 305.354 172.492 305.77 173.261C305.8 173.323 305.893 173.277 305.877 173.215C305.693 172.43 305.385 171.669 305.146 170.892L305.131 170.884Z" fill="#263238"/>
<path d="M209.222 198.173V177.493L185.718 198.173H209.222Z" fill="#EBEBEB"/>
<path d="M88.4227 242.019C95.1855 271.479 109.196 306.792 115.174 312.524C122.736 319.772 172.768 333.066 175.261 333.336C181.439 333.959 193.818 289.474 187.24 288.528C177.223 287.081 140.801 285.096 138.616 282.857C136.354 280.511 120.982 261.131 105.172 239.227C94.2622 224.093 84.222 223.739 88.4227 242.019Z" fill="#FFC1B9"/>
<path d="M170.307 330.935C171.045 331.304 181.493 336.567 187.964 338.436C192.788 339.837 206.775 343.483 208.844 338.329C210.26 334.813 202.282 331.697 196.696 329.366C193.749 328.142 190.126 325.057 190.987 323.165C192.503 319.856 200.089 323.18 205.067 326.073C214.707 331.674 227.548 341.752 233.433 336.867C235.657 335.02 233.072 331.651 229.294 328.35C235.426 332.197 241.973 335.351 244.527 333.397C245.989 332.282 246.059 330.75 245.243 329.012C247.136 329.627 248.813 329.504 249.982 328.273C251.975 326.188 251.006 323.103 248.821 319.949C249.521 319.872 250.152 319.518 250.629 318.756C254.852 312.316 233.718 293.829 226.401 292.098C204.89 286.981 182.232 287.935 182.232 287.935C173.784 294.683 170.284 330.912 170.307 330.927V330.935Z" fill="#FFC1B9"/>
<path d="M201.928 311.139C206.99 311.932 211.976 313.824 216.276 316.663C221.731 320.264 225.347 324.472 229.917 328.719C230.04 328.827 229.871 329.019 229.748 328.912C227.571 326.896 218.538 319.318 216.199 317.594C211.922 314.44 207.144 312.216 201.905 311.239C201.851 311.232 201.866 311.147 201.92 311.155L201.928 311.139Z" fill="#263238"/>
<path d="M205.937 302.007C211.591 303.553 217.385 305.115 222.624 307.785C228.364 310.709 232.857 315.479 237.28 320.072C239.935 322.826 242.528 325.642 245.051 328.519C245.159 328.642 244.997 328.827 244.882 328.712C240.396 323.972 235.773 319.356 231.01 314.894C226.525 310.701 221.532 307.485 215.784 305.3C212.553 304.069 209.229 303.084 205.906 302.107C205.844 302.092 205.86 301.992 205.929 302.007H205.937Z" fill="#263238"/>
<path d="M211.976 294.029C217.469 295.16 222.262 296.121 227.124 299.06C233.564 302.953 239.78 309.524 241.958 311.847C244.366 314.417 246.689 317.063 248.967 319.749C249.059 319.856 248.874 320.026 248.774 319.91C243.566 314.04 237.949 308.462 232.018 303.315C229.186 300.853 226.109 298.714 222.647 297.222C219.231 295.752 215.569 294.913 211.96 294.052C211.937 294.052 211.945 294.013 211.968 294.013L211.976 294.029Z" fill="#263238"/>
<path d="M178.769 286.12L163.382 334.859C163.382 334.859 121.728 322.964 114.112 314.755C106.503 306.546 92.4463 264.154 88.3148 243.604C84.1833 223.055 94.5697 223.562 104.118 236.519C113.665 249.475 137.439 280.872 138.77 281.55C140.101 282.234 178.769 286.104 178.769 286.104V286.12Z" fill="#00812A"/>
<path opacity="0.1" d="M178.769 286.12L163.382 334.859C163.382 334.859 121.728 322.964 114.112 314.755C106.503 306.546 92.4463 264.154 88.3148 243.604C84.1833 223.055 94.5697 223.562 104.118 236.519C113.665 249.475 137.439 280.872 138.77 281.55C140.101 282.234 178.769 286.104 178.769 286.104V286.12Z" fill="black"/>
<path d="M159.382 313.209C161.243 307.462 163.151 301.73 164.806 295.914C165.744 292.605 166.698 289.305 167.606 285.996C167.637 285.873 167.429 285.796 167.383 285.92C165.283 291.613 163.19 297.329 161.351 303.115C159.52 308.877 157.643 314.617 155.889 320.403C154.888 323.695 153.996 326.996 153.196 330.343C153.18 330.412 153.288 330.45 153.311 330.381C155.604 324.749 157.489 318.987 159.366 313.201L159.382 313.209Z" fill="#263238"/>
<path d="M142.37 328.165L140.524 327.519C137.054 326.28 133.515 324.949 130.183 323.588C129.752 323.418 129.329 323.241 128.914 323.064C128.244 322.787 127.575 322.503 126.929 322.218C126.598 322.08 126.283 321.933 125.959 321.795C125.844 321.741 125.729 321.695 125.613 321.641C125.275 321.487 124.944 321.333 124.613 321.179C123.29 320.572 122.036 319.964 120.866 319.348C120.597 319.21 120.32 319.064 120.058 318.918C117.927 317.764 116.158 316.625 114.919 315.54C114.773 315.409 114.627 315.278 114.496 315.148C114.35 315.017 114.227 314.886 114.111 314.763C106.494 306.554 92.4459 264.162 88.3144 243.612C88.2682 243.374 88.222 243.135 88.1759 242.904C88.1759 242.85 88.1605 242.804 88.1528 242.75C87.8758 241.189 87.6296 239.257 87.4296 237.165V237.142C86.8526 226.917 91.6919 225.247 97.6698 229.74C112.634 261.746 135.461 314.594 142.37 328.165Z" fill="#263238"/>
<path d="M120.759 336.351L29.9512 336.836C30.0281 334.882 42.9535 277.718 53.2322 256.622C66.4114 229.571 73.2049 227.402 77.2595 225.94C82.4527 224.078 91.6928 225.001 93.8932 226.04C96.3859 227.202 104.303 241.035 107.142 251.183C112.843 271.555 122.037 335.113 120.759 336.359V336.351Z" fill="#EBEBEB"/>
<path d="M72.6275 228.071C72.6275 228.071 84.1449 270.809 84.745 273.648C85.6144 277.78 91.3692 336.613 91.3692 336.613L28.0889 336.836C28.0889 336.836 41.9298 282.365 52.1777 258.469C63.3951 232.333 72.6275 228.071 72.6275 228.071Z" fill="#00812A"/>
<g opacity="0.1">
<path d="M72.6275 228.071C72.6275 228.071 84.1449 270.809 84.745 273.648C85.6144 277.78 91.3692 336.613 91.3692 336.613L28.0889 336.836C28.0889 336.836 41.9298 282.365 52.1777 258.469C63.3951 232.333 72.6275 228.071 72.6275 228.071Z" fill="black"/>
</g>
<path d="M94.7471 226.694C95.0856 228.056 105.734 262.777 106.472 271.432C107.288 281.034 114.574 336.805 114.574 336.805H123.783C123.783 336.805 110.419 256.637 106.749 248.174C99.2632 230.918 94.7548 226.701 94.7548 226.701L94.7471 226.694Z" fill="#00812A"/>
<path opacity="0.1" d="M94.7471 226.694C95.0856 228.056 105.734 262.777 106.472 271.432C107.288 281.034 114.574 336.805 114.574 336.805H123.783C123.783 336.805 110.419 256.637 106.749 248.174C99.2632 230.918 94.7548 226.701 94.7548 226.701L94.7471 226.694Z" fill="black"/>
<path d="M60.6795 238.065C45.4692 254.352 8.50882 316.148 20.2417 327.419C32.0514 338.767 97.0629 323.518 115.343 314.809C120.782 312.217 100.117 278.311 93.7238 277.518C88.3998 276.856 61.195 289.305 60.4026 287.743C59.5101 285.973 63.8339 272.917 70.3812 249.275C77.9287 222.016 67.3961 230.871 60.6795 238.065Z" fill="#FFC1B9"/>
<path d="M120.743 266.57C133.961 264.731 137.638 266.285 147.971 258.807C154.749 253.899 160.796 256.122 156.926 263.923C150.602 276.68 134.045 282.634 127.714 283.05L120.751 266.578L120.743 266.57Z" fill="#FFC1B9"/>
<path d="M85.6298 279.295C85.6298 279.295 100.486 271.048 114.373 267.693C123.983 265.37 145.448 262.654 165.982 283.835C170.852 288.859 174.23 299.468 163.297 294.152C155.527 290.374 151.741 285.635 146.825 284.265C146.825 284.265 149.518 298.276 144.294 302.961C141.963 305.054 135.454 310.616 129.776 314.225C129.776 314.225 128.66 313.201 127.422 311.693C127.422 311.693 122.128 315.609 112.165 314.655L85.6221 279.295H85.6298Z" fill="#FFC1B9"/>
<path d="M123.906 266.939C128.499 269.332 138.147 274.571 144.556 281.603C151.665 289.413 163.267 306.377 157.443 311.57C153.173 315.379 148.18 309.293 148.18 309.293C148.18 309.293 151.496 317.317 146.887 319.91C142.686 322.272 139.109 317.333 139.109 317.333C139.109 317.333 140.286 322.541 135.8 324.042C130.407 325.842 128.83 314.625 121.79 311.732C120.213 311.086 123.906 266.939 123.906 266.939Z" fill="#FFC1B9"/>
<path d="M135.047 287.743C138.994 290.705 146.242 299.73 148.25 309.077C148.296 309.293 148.157 309.439 148.08 309.254C143.687 299.43 137.717 291.167 134.978 287.812C134.94 287.766 135.009 287.712 135.055 287.743H135.047Z" fill="#263238"/>
<path d="M127.369 295.152C130.515 298.06 137.57 307.693 139.271 317.24C139.309 317.456 139.163 317.594 139.086 317.402C134.916 306.946 129.823 298.729 127.284 295.213C127.253 295.167 127.322 295.113 127.361 295.152H127.369Z" fill="#263238"/>
<path d="M146.833 284.173C151.141 285.443 153.942 287.558 157.581 290.082C159.381 291.328 161.205 292.552 163.128 293.598C164.882 294.544 167.467 295.983 169.337 294.498C170.376 293.667 170.36 292.167 170.129 290.982C169.868 289.651 168.552 287.189 167.76 286.081C167.721 286.027 167.814 285.95 167.86 286.012C168.591 286.997 170.022 289.22 170.453 290.374C170.837 291.421 171.137 292.629 170.845 293.736C170.214 296.114 167.414 296.421 165.429 295.768C164.244 295.375 163.12 294.744 162.036 294.129C160.989 293.529 159.974 292.882 158.981 292.205C156.935 290.82 154.965 289.32 152.934 287.912C150.703 286.366 149.164 285.612 146.771 284.327C146.694 284.281 146.748 284.158 146.833 284.181V284.173Z" fill="#263238"/>
<path d="M155.858 299.33C154.742 296.875 148.71 286.643 146.748 284.273C146.702 284.212 146.779 284.135 146.841 284.189C150.195 287.374 155.596 295.829 156.85 298.537C158.097 301.215 159.528 304.638 159.528 307.616C159.528 312.117 156.542 312.971 155.442 313.186C154.127 313.448 152.796 313.171 151.611 312.563C150.295 311.878 149.018 310.462 148.141 309.301C148.095 309.239 148.179 309.155 148.233 309.216C149.795 310.986 152.388 312.74 154.827 312.417C155.889 312.278 156.966 311.793 157.612 310.916C158.374 309.885 158.435 308.524 158.327 307.293C158.097 304.508 157.012 301.853 155.865 299.33H155.858Z" fill="#263238"/>
<path d="M85.63 279.295L106.464 323.126C106.464 323.126 24.9732 341.429 17.9412 327.242C10.9092 313.055 42.5609 257.538 56.8172 241.366C73.3432 222.632 75.459 229.002 71.8122 245.612C67.9961 263 60.641 288.151 60.641 288.151L85.63 279.303V279.295Z" fill="#00812A"/>
<path opacity="0.1" d="M85.63 279.295L106.464 323.126C106.464 323.126 24.9732 341.429 17.9412 327.242C10.9092 313.055 42.5609 257.538 56.8172 241.366C73.3432 222.632 75.459 229.002 71.8122 245.612C67.9961 263 60.641 288.151 60.641 288.151L85.63 279.303V279.295Z" fill="black"/>
<path d="M35.8752 299.814C39.6374 297.175 43.6612 294.898 47.7619 292.836C51.8241 290.79 56.0864 289.189 60.4026 287.766C62.8645 286.951 65.365 286.258 67.8577 285.55C67.9347 285.527 67.9654 285.643 67.8885 285.666C63.5339 287.027 59.287 288.782 55.117 290.636C50.9701 292.482 46.8617 294.406 42.7918 296.398C40.4837 297.529 38.2371 298.768 35.9675 299.976C35.8598 300.03 35.7829 299.884 35.8752 299.814Z" fill="#263238"/>
<path d="M85.415 279.165C85.0072 279.272 62.7187 286.627 61.9878 286.974C62.0801 286.635 66.0808 274.787 66.6732 273.048C66.7348 272.879 66.781 272.702 66.8425 272.525C67.2503 271.748 67.658 270.978 68.035 270.194C68.5197 269.178 68.989 268.163 69.466 267.147C69.4814 267.116 69.4353 267.093 69.4199 267.124C68.8967 268.116 68.3735 269.101 67.8658 270.101C67.6273 270.563 67.4041 271.025 67.181 271.494C67.5734 270.271 67.9504 269.04 68.3274 267.809C68.9275 265.839 69.466 263.862 69.9969 261.869C70.0123 261.808 69.92 261.785 69.8969 261.846C68.7121 265.301 67.4195 268.717 66.227 272.171C65.0345 275.618 60.4491 288.343 60.4875 288.335C60.526 288.366 85.0303 279.672 85.5073 279.472C85.692 279.395 85.615 279.118 85.415 279.172V279.165Z" fill="#263238"/>
<path d="M86.9145 307.754C84.6218 302.861 82.3675 297.952 79.8902 293.144C78.4822 290.413 77.0897 287.674 75.6587 284.958C75.6048 284.858 75.4202 284.935 75.4663 285.042C77.5744 290.043 79.6978 295.052 82.0367 299.96C84.3602 304.838 86.6452 309.739 89.0302 314.586C90.3843 317.34 91.823 320.049 93.3464 322.726C93.3772 322.78 93.4695 322.741 93.4464 322.68C91.5076 317.602 89.2149 312.686 86.9068 307.762L86.9145 307.754Z" fill="#263238"/>
<path d="M107.518 323.811C106.703 322.464 105.672 320.518 104.803 319.202C104.572 318.856 104.303 318.925 104.487 319.295C105.11 320.518 105.626 321.895 106.234 323.157C105.087 323.388 103.941 323.588 102.795 323.826C101.471 324.103 100.156 324.388 98.8323 324.657C96.2473 325.188 93.6468 325.696 91.054 326.18C85.7916 327.15 80.506 328.012 75.2051 328.766C64.5801 330.266 53.8706 331.381 43.1456 331.774C40.1451 331.881 37.1445 331.935 34.1363 331.897C31.0896 331.858 27.7967 331.789 25.2732 331.474C25.1963 331.466 25.1732 331.597 25.2578 331.62C27.8737 332.158 30.3049 332.489 32.9669 332.62C35.6828 332.751 38.4063 332.812 41.1299 332.782C46.5462 332.72 51.9625 332.366 57.3558 331.874C68.05 330.889 78.7057 329.443 89.2845 327.573C92.2465 327.05 95.2086 326.488 98.1553 325.896C99.6402 325.596 101.133 325.296 102.618 324.973C104.102 324.642 107.657 324.049 107.518 323.818V323.811Z" fill="#263238"/>
<path d="M94.763 242.643C89.3697 244.128 79.7372 236.165 75.7981 229.563C75.5288 229.11 76.0597 224.216 76.4213 218.246C76.629 214.622 76.7675 210.576 76.629 206.875C76.5982 206.113 100.033 211.653 100.033 211.653C100.033 211.653 98.0405 219.492 98.3174 225.94C98.3482 226.478 98.4175 226.978 98.5329 227.455C98.5406 227.525 98.5636 227.609 98.579 227.709C99.1561 230.579 99.9716 241.212 94.763 242.65V242.643Z" fill="#FFC1B9"/>
<path d="M78.0596 206.921C79.3675 213.137 83.8144 228.102 96.2012 227.925C97.0629 227.917 97.8554 227.84 98.5709 227.709C98.5709 227.602 98.5478 227.532 98.5324 227.455C98.4247 226.978 98.3478 226.486 98.3093 225.947C98.0323 219.492 100.033 211.653 100.033 211.653C100.033 211.653 83.1297 207.66 78.0596 206.921Z" fill="#263238"/>
<path d="M102.833 195.765C102.579 201.443 106.403 206.229 111.389 206.459C116.374 206.683 120.621 202.266 120.875 196.589C121.129 190.911 117.305 186.125 112.32 185.894C107.334 185.671 103.087 190.087 102.833 195.765Z" fill="#455A64"/>
<path d="M99.8943 195.996C99.6097 202.313 103.872 207.637 109.411 207.89C114.951 208.144 119.675 203.22 119.967 196.904C120.252 190.587 115.989 185.263 110.45 185.01C104.911 184.756 100.179 189.68 99.8943 195.996Z" fill="#C7C7C7"/>
<path d="M79.6836 177.408C75.6521 185.009 75.3982 209.183 80.1375 215.499C87.008 224.663 100.51 228.025 108.858 219.246C116.952 210.745 116.729 179.239 111.22 173.261C103.111 164.46 85.6308 166.175 79.6759 177.408H79.6836Z" fill="#FFC1B9"/>
<path d="M99.7789 196.088C99.7636 196.027 99.6558 196.165 99.6558 196.234C99.7405 197.858 99.5712 199.735 98.1094 200.312C98.0632 200.328 98.0709 200.412 98.1248 200.404C99.9174 200.112 100.117 197.619 99.7789 196.088Z" fill="#263238"/>
<path d="M98.2864 194.427C95.6629 194.288 95.5783 199.543 98.0095 199.674C100.402 199.804 100.487 194.55 98.2864 194.427Z" fill="#263238"/>
<path d="M108.889 196.288C108.904 196.227 109.012 196.365 109.012 196.435C108.935 198.058 109.12 199.935 110.581 200.504C110.627 200.52 110.62 200.605 110.566 200.597C108.773 200.312 108.55 197.819 108.889 196.288Z" fill="#263238"/>
<path d="M110.374 194.619C112.997 194.465 113.113 199.72 110.682 199.858C108.289 199.997 108.174 194.742 110.374 194.619Z" fill="#263238"/>
<path d="M95.9323 190.226C96.6708 190.187 97.3402 190.026 98.0711 189.91C98.8866 189.78 99.556 189.764 100.187 189.179C100.525 188.864 100.541 188.187 100.271 187.825C99.6329 186.987 98.5943 186.894 97.6018 187.01C96.5247 187.133 95.7322 187.502 94.9782 188.279C94.2473 189.026 94.9705 190.272 95.9399 190.226H95.9323Z" fill="#263238"/>
<path d="M112.843 190.818C112.12 190.687 111.466 190.449 110.766 190.241C109.973 190.01 109.311 189.91 108.758 189.249C108.457 188.895 108.527 188.218 108.842 187.895C109.581 187.148 110.627 187.187 111.596 187.425C112.65 187.687 113.389 188.148 114.043 189.01C114.674 189.849 113.805 190.987 112.843 190.818Z" fill="#263238"/>
<path d="M96.8091 211.176C97.1937 211.56 97.5707 212.091 98.1631 212.153C98.7325 212.207 99.3941 211.968 99.9173 211.776C99.9712 211.76 100.017 211.814 99.9866 211.86C99.5557 212.476 98.6555 212.853 97.9093 212.707C97.1707 212.568 96.8168 211.922 96.6552 211.245C96.6321 211.153 96.7552 211.114 96.8168 211.176H96.8091Z" fill="#263238"/>
<path d="M98.6018 206.329C99.4865 207.76 100.818 208.552 102.264 208.86C102.91 208.998 103.587 209.037 104.257 208.983C104.387 208.983 104.518 208.968 104.641 208.944C104.757 208.929 104.864 208.921 104.995 208.898C105.188 208.875 105.295 208.721 105.326 208.537V208.521C105.326 208.46 105.326 208.414 105.311 208.352V208.337V208.19C105.364 206.936 105.272 205.028 105.272 205.028C105.726 205.267 108.042 206.352 108.019 205.698C107.788 200.274 107.526 194.234 106.149 188.887C106.111 188.71 105.841 188.741 105.849 188.926C105.865 194.15 106.803 199.335 106.903 204.582C106.165 204.29 104.957 203.744 104.303 203.744C104.126 203.79 104.541 207.429 104.472 207.99C104.472 207.99 104.472 208.014 104.457 208.052C102.349 208.283 100.771 207.621 98.7479 206.175C98.6248 206.082 98.494 206.19 98.5941 206.321L98.6018 206.329Z" fill="#263238"/>
<path d="M103.518 208.329C103.518 208.329 102.379 209.806 100.848 210.329C100.287 210.522 99.6787 210.591 99.0479 210.414C97.7553 210.052 97.7399 208.86 97.9938 207.844C98.2016 207.006 98.6016 206.29 98.6016 206.29C98.6016 206.29 100.471 208.098 103.51 208.337L103.518 208.329Z" fill="#263238"/>
<path d="M100.856 210.329C100.294 210.522 99.6865 210.591 99.0557 210.414C97.7631 210.052 97.7477 208.86 98.0016 207.844C99.3942 208.013 100.756 208.983 100.848 210.337L100.856 210.329Z" fill="#FF98B9"/>
<path opacity="0.2" d="M76.66 194.473C78.2526 194.219 82.0379 188.856 83.6536 186.725C85.3462 184.517 86.1925 173.169 86.3387 170.584C83.5689 172.192 81.2301 174.461 79.676 177.4C77.8679 180.801 76.837 187.51 76.6523 194.473H76.66Z" fill="#263238"/>
<path d="M105.995 180.009C104.08 182.086 101.225 183.086 98.4402 182.548C95.7243 182.017 93.07 180.047 92.1776 177.362C92.1545 177.285 92.0237 177.324 92.0545 177.4C93.0162 180.263 95.2319 182.671 98.3094 183.194C101.195 183.686 104.357 182.448 106.149 180.139C106.226 180.039 106.088 179.909 105.995 180.001V180.009Z" fill="#263238"/>
<path d="M98.1783 159.551C93.439 159.505 88.9998 161.99 87.1687 165.16C86.0531 167.091 85.83 169.076 86.0839 171.107C86.0916 171.192 86.2608 171.176 86.2608 171.092C86.0916 167.876 87.7919 164.267 91.3002 162.136C94.67 160.09 99.0785 159.559 102.825 161.121C104.779 161.936 106.349 163.244 107.126 164.798C107.211 164.975 107.572 164.875 107.503 164.698C106.311 161.698 102.471 159.582 98.1783 159.536V159.551Z" fill="#263238"/>
<path d="M125.376 170.699C124.699 168.345 123.137 166.291 121.098 164.937C118.251 163.044 114.951 163.206 111.681 163.436C111.589 163.436 111.604 163.583 111.689 163.575C114.474 163.39 117.313 163.367 119.821 164.752C121.867 165.883 123.552 167.714 124.414 169.899C126.199 174.438 124.199 179.932 119.875 182.201C117.42 183.486 114.428 183.694 111.827 182.763C111.727 182.724 111.642 182.878 111.75 182.917C116.505 184.763 122.237 182.748 124.576 178.154C125.73 175.885 126.083 173.154 125.383 170.692L125.376 170.699Z" fill="#263238"/>
<path d="M77.9675 182.063C77.9675 182.063 73.7745 173.423 77.7136 168.653C79.9448 165.952 87.0076 166.568 87.0076 166.568C87.0076 166.568 89.4311 162.582 95.3398 161.459C101.31 160.321 108.219 164.029 108.219 164.029C108.219 164.029 113.958 161.013 119.113 164.214C126.299 168.676 124.976 179.824 117.459 183.155C112.181 185.494 105.295 180.639 105.295 180.639C104.611 180.709 97.5248 184.64 92.5008 178.254C92.5008 178.254 88.1001 181.886 84.3686 179.093C84.3686 179.093 82.2913 182.871 77.9675 182.055V182.063Z" fill="#263238"/>
<path d="M80.9916 197.396C80.9916 197.396 77.0063 188.902 73.2364 190.195C69.4742 191.488 71.5592 203.159 75.3291 205.359C79.1067 207.56 81.207 204.105 81.207 204.105L80.9839 197.389L80.9916 197.396Z" fill="#FFC1B9"/>
<path d="M73.9139 193.526C73.8523 193.511 73.8216 193.596 73.8754 193.634C76.5067 195.273 77.5453 198.15 78.1146 201.051C77.453 199.858 76.4066 199.089 74.8294 199.843C74.7448 199.881 74.7987 200.012 74.8833 200.004C76.0835 199.958 76.8837 200.305 77.5068 201.366C77.9454 202.12 78.1839 203.013 78.4455 203.844C78.5378 204.121 79.0148 204.067 78.9686 203.759C78.9686 203.736 78.9609 203.713 78.9532 203.69C79.6457 200.097 77.7146 194.557 73.9062 193.526H73.9139Z" fill="#263238"/>
<path d="M89.6931 214.438L82.1149 211.168L76.0215 203.582L77.1909 202.643L83.0535 209.937L90.2932 213.061L89.6931 214.438Z" fill="#C7C7C7"/>
<path d="M88.8856 213.23C89.6241 211.022 95.8175 211.837 94.6943 215.184C93.571 218.538 88.1393 215.446 88.8856 213.23Z" fill="#37474F"/>
<path d="M73.1207 189.964C73.1207 189.964 72.2898 177.554 75.9289 170.707C79.9758 163.09 96.748 155.835 108.212 164.029C108.212 164.029 89.5313 160.69 80.8375 171.253C77.1753 175.708 77.2676 190.295 77.2676 190.295L73.1207 189.964Z" fill="#C7C7C7"/>
<path d="M74.8143 207.791C80.3633 207.736 84.8107 202.566 84.7478 196.243C84.6849 189.921 80.1355 184.841 74.5865 184.896C69.0374 184.951 64.5901 190.121 64.653 196.443C64.7159 202.766 69.2652 207.846 74.8143 207.791Z" fill="#C7C7C7"/>
<path d="M81.8144 195.911C81.8682 201.597 77.8752 206.244 72.8897 206.29C67.9043 206.336 63.8112 201.774 63.7574 196.088C63.7035 190.403 67.6965 185.756 72.682 185.71C77.6675 185.663 81.7605 190.226 81.8144 195.911Z" fill="#455A64"/>
<path d="M98.4869 227.332L93.0552 241.027L75.9983 223.809L71.2129 229.379C71.2129 229.379 87.9466 256.776 88.0466 255.537L93.6245 243.735L101.795 251.898L101.041 231.325L98.4869 227.34V227.332Z" fill="#EBEBEB"/>
<path d="M101.995 241.696C101.757 238.303 101.61 234.88 101.218 231.502C101.203 231.379 101.018 231.333 100.987 231.471C100.325 234.749 101.303 247.721 101.303 250.829C101.295 250.821 101.28 250.806 101.264 250.79C100.926 250.436 93.6936 243.612 93.6243 243.72C92.4087 245.597 88.3157 254.191 88.0387 254.976C85.3921 250.621 74.167 233.464 71.0357 229.356C70.9434 229.24 70.7588 229.333 70.8357 229.471C73.1746 234.072 87.6848 256.707 87.8848 256.645C88.0233 256.753 93.1165 246.166 93.7166 244.166C94.9399 245.659 102.241 253.36 102.264 252.86C102.418 249.452 102.234 245.089 101.995 241.689V241.696Z" fill="#263238"/>
<path d="M284.896 191.326H261.1C256.299 191.326 252.398 187.433 252.398 182.624C252.398 177.824 256.291 173.923 261.1 173.923H284.896C289.697 173.923 293.598 177.816 293.598 182.624C293.598 187.425 289.705 191.326 284.896 191.326Z" fill="#455A64"/>
<path d="M266.301 182.47C266.301 182.178 266.416 181.924 266.562 181.678C266.631 181.57 266.701 181.47 266.77 181.363L267.224 180.901C267.401 180.77 267.57 180.639 267.755 180.516C268.486 180.032 269.301 179.755 270.155 179.585C272.14 179.193 274.133 179.201 276.118 179.585C276.964 179.755 277.764 180.024 278.487 180.501C278.672 180.624 278.857 180.762 279.034 180.893L279.472 181.332C279.58 181.509 279.711 181.67 279.795 181.863C279.88 182.04 279.918 182.232 279.98 182.432C279.911 182.432 279.88 182.44 279.841 182.44C278.587 182.44 277.333 182.44 276.079 182.44C276.002 182.44 275.964 182.417 275.925 182.347C275.679 181.917 275.318 181.67 274.81 181.64C273.679 181.57 272.54 181.563 271.409 181.64C270.909 181.67 270.54 181.917 270.301 182.355C270.27 182.409 270.247 182.447 270.17 182.447C268.893 182.447 267.624 182.447 266.347 182.447C266.331 182.447 266.308 182.447 266.285 182.447L266.301 182.47Z" fill="white"/>
<path d="M266.301 184.679C266.301 184.232 266.301 183.794 266.301 183.348C266.301 183.317 266.301 183.278 266.301 183.255C267.585 183.255 268.87 183.255 270.155 183.255C270.155 183.34 270.14 183.44 270.14 183.54C270.14 183.917 270.14 184.294 270.14 184.671C270.14 185.002 269.978 185.163 269.647 185.163C268.686 185.163 267.732 185.163 266.77 185.163C266.447 185.163 266.285 185.002 266.285 184.679H266.301Z" fill="white"/>
<path d="M276.125 184.694C276.125 184.209 276.148 183.725 276.163 183.248C277.402 183.248 278.679 183.248 279.964 183.248C279.964 183.271 279.964 183.301 279.964 183.332C279.964 183.786 279.964 184.232 279.964 184.686C279.964 184.994 279.802 185.156 279.495 185.156C278.525 185.156 277.556 185.156 276.586 185.156C276.294 185.156 276.117 184.986 276.117 184.702L276.125 184.694Z" fill="white"/>
<path d="M187.264 337.752H181.986V341.198H187.264V337.752Z" fill="#455A64"/>
<path d="M194.104 337.521H188.826V340.968H194.104V337.521Z" fill="#455A64"/>
<path d="M200.952 337.29H195.674V340.737H200.952V337.29Z" fill="#455A64"/>
<path d="M207.798 337.067H202.521V340.514H207.798V337.067Z" fill="#455A64"/>
<path d="M214.646 336.836H209.368V340.283H214.646V336.836Z" fill="#455A64"/>
<path d="M221.494 336.613H216.216V340.06H221.494V336.613Z" fill="#455A64"/>
<path d="M228.34 336.382H223.062V339.829H228.34V336.382Z" fill="#455A64"/>
<path d="M235.188 336.151H229.91V339.598H235.188V336.151Z" fill="#455A64"/>
<path d="M242.028 335.928H236.75V339.375H242.028V335.928Z" fill="#455A64"/>
<path d="M243.327 343.176H180.693V338.983L243.327 337.236V343.176Z" fill="#37474F"/>
<path d="M304.461 326.642H201.059L217.5 249.659H320.903L304.461 326.642Z" fill="#455A64"/>
<path d="M308.286 326.642H204.883L221.324 249.659H324.727L308.286 326.642Z" fill="#37474F"/>
<path d="M273.74 283.688C273.179 287.22 269.863 290.082 266.331 290.082C262.8 290.082 260.392 287.22 260.953 283.688C261.515 280.157 264.831 277.295 268.362 277.295C271.894 277.295 274.302 280.157 273.74 283.688Z" fill="#263238"/>
<path d="M279.042 346.746H228.187V342.791L279.042 341.152V346.746Z" fill="#455A64"/>
<path d="M292.867 346.738H265.562L249.113 303.6H276.418L292.867 346.738Z" fill="#455A64"/>
<path d="M297.36 346.738H270.056L253.614 303.6H280.919L297.36 346.738Z" fill="#263238"/>
<path d="M178.755 347.792H126.323C121.845 347.792 128.323 335.051 144.649 330.166C160.983 325.28 183.902 343.014 178.747 347.792H178.755Z" fill="#37474F"/>
<path d="M158.182 347.792C158.212 346.346 158.474 344.907 158.897 343.514C159.313 342.122 159.92 340.775 160.667 339.521C161.405 338.26 162.359 337.121 163.452 336.144C164.514 335.128 165.829 334.428 167.137 333.851C166.575 334.313 165.937 334.636 165.421 335.136L164.614 335.821L163.867 336.575C162.906 337.598 162.028 338.698 161.328 339.921C160.597 341.122 159.99 342.399 159.466 343.714C158.959 345.038 158.512 346.392 158.189 347.792H158.182Z" fill="#263238"/>
<path d="M164.391 335.667C165.952 336.144 167.453 336.798 168.914 337.513C170.384 338.236 171.792 339.067 173.131 340.014C174.462 340.968 175.739 342.037 176.785 343.33C177.3 343.976 177.77 344.668 178.139 345.415C178.478 346.169 178.739 346.976 178.755 347.792C178.562 347 178.247 346.261 177.808 345.592C177.393 344.915 176.893 344.299 176.339 343.722C175.231 342.583 173.992 341.568 172.684 340.645C171.384 339.706 170.015 338.867 168.63 338.036C167.937 337.621 167.237 337.229 166.522 336.836C165.822 336.428 165.098 336.059 164.383 335.667H164.391Z" fill="#263238"/>
<path d="M182.51 173.023C181.171 185.817 169.708 195.111 156.913 193.773C151.743 193.234 147.15 191.034 143.588 187.756L131.932 189.464L137.763 179.385C136.348 175.946 135.755 172.115 136.163 168.168C137.502 155.374 148.965 146.08 161.76 147.418C174.555 148.757 183.848 160.221 182.51 173.015V173.023Z" fill="white"/>
<path d="M182.509 173.023C182.025 177.277 180.471 181.447 177.809 184.833C177.201 185.717 176.408 186.464 175.701 187.264C174.893 187.972 174.139 188.741 173.239 189.349C171.538 190.664 169.623 191.688 167.622 192.48C165.63 193.319 163.491 193.719 161.352 193.973C160.275 194.034 159.198 194.126 158.113 194.034C157.028 194.011 155.951 193.896 154.889 193.696C150.627 192.926 146.588 190.926 143.364 188.002L143.641 188.087L132.001 189.872L131.154 190.003L131.585 189.256L137.378 179.162L137.348 179.562C134.524 172.915 135.163 164.998 138.779 158.797C140.587 155.697 143.103 153.019 146.072 151.027C149.042 149.026 152.489 147.772 156.013 147.295C159.544 146.826 163.175 147.149 166.545 148.272C169.915 149.403 173 151.311 175.531 153.781C180.678 158.666 183.263 166.006 182.502 173.023H182.509ZM182.509 173.023C183.217 166.006 180.578 158.713 175.439 153.889C172.885 151.473 169.792 149.649 166.453 148.588C163.114 147.541 159.536 147.295 156.089 147.811C152.65 148.342 149.319 149.619 146.472 151.611C143.633 153.604 141.233 156.22 139.502 159.213C137.74 162.205 136.825 165.629 136.548 169.068C136.332 172.523 136.894 176.016 138.186 179.216L138.271 179.424L138.163 179.616L132.301 189.672L131.885 189.056L143.549 187.425L143.71 187.402L143.826 187.51C146.911 190.403 150.812 192.426 154.982 193.257C156.02 193.465 157.082 193.596 158.144 193.642C159.205 193.757 160.267 193.673 161.329 193.642C163.437 193.426 165.568 193.065 167.553 192.272C169.546 191.526 171.477 190.549 173.169 189.241C174.062 188.649 174.816 187.887 175.631 187.187C176.347 186.394 177.139 185.663 177.747 184.779C180.417 181.424 182.002 177.277 182.517 173.023H182.509Z" fill="#263238"/>
<path d="M172.33 171.307C172.33 172.861 171.068 174.123 169.514 174.123C167.96 174.123 166.698 172.861 166.698 171.307C166.698 169.753 167.96 168.491 169.514 168.491C171.068 168.491 172.33 169.753 172.33 171.307Z" fill="#263238"/>
<path d="M162.221 171.307C162.221 172.861 160.959 174.123 159.405 174.123C157.851 174.123 156.589 172.861 156.589 171.307C156.589 169.753 157.851 168.491 159.405 168.491C160.959 168.491 162.221 169.753 162.221 171.307Z" fill="#263238"/>
<path d="M152.119 171.307C152.119 172.861 150.857 174.123 149.303 174.123C147.749 174.123 146.487 172.861 146.487 171.307C146.487 169.753 147.749 168.491 149.303 168.491C150.857 168.491 152.119 169.753 152.119 171.307Z" fill="#263238"/>
<path d="M192.38 52.2169C193.719 65.0114 205.182 74.3054 217.977 72.9667C223.147 72.4281 227.74 70.2277 231.302 66.9502L242.958 68.6582L237.127 58.5795C238.542 55.1405 239.135 51.309 238.727 47.3622C237.388 34.5676 225.925 25.2737 213.13 26.6124C200.335 27.9511 191.042 39.4146 192.38 52.2092V52.2169Z" fill="white"/>
<path d="M199.351 32.9751C201.882 30.5054 204.968 28.5974 208.337 27.4664C211.707 26.3431 215.339 26.0277 218.87 26.4893C222.394 26.9663 225.84 28.2204 228.81 30.2207C231.78 32.2134 234.303 34.8908 236.104 37.9913C239.727 44.1847 240.366 52.1015 237.535 58.7565L237.504 58.3564L243.297 68.4505L243.728 69.1968L242.882 69.066L231.241 67.2811L231.518 67.1964C228.295 70.12 224.256 72.1127 219.993 72.8898C218.932 73.0821 217.854 73.1975 216.77 73.2283C215.692 73.3206 214.608 73.2283 213.531 73.1667C211.392 72.9128 209.253 72.5128 207.26 71.6742C205.26 70.8894 203.344 69.8585 201.644 68.5428C200.751 67.9427 199.997 67.1657 199.182 66.4579C198.466 65.6577 197.682 64.9114 197.074 64.0267C194.412 60.6415 192.858 56.4715 192.373 52.2169C191.619 45.2003 194.204 37.8682 199.343 32.9751H199.351ZM197.151 63.9651C197.766 64.8422 198.551 65.5808 199.267 66.3732C200.074 67.0657 200.836 67.835 201.728 68.4274C203.429 69.7277 205.352 70.7125 207.345 71.4587C209.33 72.2512 211.453 72.6128 213.569 72.8282C214.631 72.8667 215.692 72.9436 216.754 72.8282C217.816 72.7897 218.87 72.6513 219.916 72.4435C224.086 71.6126 227.987 69.5892 231.072 66.6964L231.187 66.5887L231.349 66.6117L243.013 68.2428L242.597 68.8583L236.735 58.8027L236.627 58.6103L236.712 58.4026C238.004 55.1943 238.566 51.7091 238.35 48.2547C238.073 44.8156 237.158 41.3919 235.396 38.3991C233.665 35.3986 231.264 32.7904 228.425 30.7977C225.579 28.8051 222.247 27.5279 218.808 26.9971C215.362 26.4816 211.792 26.7278 208.445 27.7741C205.106 28.8359 202.013 30.6593 199.459 33.0751C194.312 37.899 191.681 45.1849 192.388 52.2092C192.904 56.4561 194.489 60.6107 197.158 63.9651H197.151Z" fill="#263238"/>
<path d="M217.623 52.6401V55.5483C217.623 56.8024 216.685 57.741 215.431 57.741C214.269 57.741 213.238 56.8024 213.238 55.5483V50.8936C213.238 50.8475 213.284 50.8475 213.284 50.8013C213.253 50.7705 213.238 50.7398 213.238 50.709C213.238 49.5473 214.269 48.5163 215.431 48.5163C218.247 48.5163 220.532 46.2774 220.532 43.5077C220.532 40.738 218.247 38.4992 215.431 38.4992C213.6 38.4992 211.984 39.4839 211.138 40.9611C210.514 42.0382 209.168 42.3921 208.099 41.769C207.068 41.1458 206.714 39.8455 207.337 38.7684C208.945 35.991 211.992 34.1138 215.438 34.1138C220.632 34.1138 224.878 38.3222 224.878 43.5077C224.878 47.9393 221.793 51.6476 217.631 52.6324L217.623 52.6401ZM217.623 62.4341V63.242C217.623 64.496 216.685 65.4347 215.431 65.4347C214.269 65.4347 213.238 64.496 213.238 63.242V62.4341C213.238 61.2262 214.269 60.2414 215.431 60.2414C216.685 60.2414 217.623 61.2262 217.623 62.4341Z" fill="#00812A"/>
</g>
<defs>
<clipPath id="clip0_176_6632">
<rect width="350" height="347.792" fill="white"/>
</clipPath>
</defs>
</svg>
