<svg width="446" height="434" viewBox="0 0 446 434" fill="none" xmlns="http://www.w3.org/2000/svg">
<g clip-path="url(#clip0_172_4915)">
<path d="M67.0003 217C-18.7238 266.597 -18.7138 347.403 67.0003 397C152.724 446.597 292.286 446.597 378 397C463.724 347.403 463.714 266.597 378 217C292.276 167.403 152.714 167.403 67.0003 217Z" fill="#F5F5F5"/>
<path d="M88 393C123.899 393 153 376.711 153 356C153 335.289 123.899 318 88 318C52.1015 318 23 335.289 23 356C23 376.711 52.1015 393 88 393Z" fill="#E0E0E0"/>
<path d="M147 360C179.033 360 205 345.502 205 327C205 308.498 179.033 293 147 293C114.967 293 89 308.498 89 327C89 345.502 114.967 360 147 360Z" fill="#E0E0E0"/>
<path d="M234 386C260.234 386 281 374.188 281 359C281 343.812 260.234 331 234 331C207.766 331 186 343.812 186 359C186 374.188 207.766 386 234 386Z" fill="#E0E0E0"/>
<path d="M47.9992 329L33.9992 337C34.1891 331.986 34.6886 325.024 33.9992 320C29.7928 289.289 17.6345 278.942 11.9992 264C6.06424 248.261 13.5972 243.175 22.9992 246C31.3821 248.522 43.1824 261.087 46.9992 284C49.5371 299.245 49.448 315.632 47.9992 329Z" fill="#00812A"/>
<g opacity="0.65">
<path d="M47.9992 329L33.9992 337C34.1891 331.986 34.6886 325.024 33.9992 320C29.7928 289.289 17.6345 278.942 11.9992 264C6.06424 248.261 13.5972 243.175 22.9992 246C31.3821 248.522 43.1824 261.087 46.9992 284C49.5371 299.245 49.448 315.632 47.9992 329Z" fill="white"/>
</g>
<path d="M40.9996 333L39.9996 334C45.0636 298.069 32.1817 266.868 19.9996 254C19.7657 253.757 19.7555 253.233 19.9996 253C20.2538 252.767 20.7657 252.757 20.9996 253C33.1715 265.878 45.545 297.251 40.9996 333Z" fill="white"/>
<path d="M37.9995 334L29.9995 339C25.8273 326.582 21.3225 321.167 15.9995 313C11.1569 305.572 5.99118 301.222 2.99954 296C0.34809 291.375 -1.94262 285.522 1.99954 282C8.26297 276.403 16.3765 282.594 21.9995 289C26.8622 294.536 36.929 308.8 37.9995 334Z" fill="#00812A"/>
<g opacity="0.3">
<path d="M37.9995 334L29.9995 339C25.8273 326.582 21.3225 321.167 15.9995 313C11.1569 305.572 5.99118 301.222 2.99954 296C0.34809 291.375 -1.94262 285.522 1.99954 282C8.26297 276.403 16.3765 282.594 21.9995 289C26.8622 294.536 36.929 308.8 37.9995 334Z" fill="white"/>
</g>
<path d="M34.9997 336L33.9997 337C30.7202 317.327 17.1636 294.385 8.99969 289C8.71062 288.807 8.8103 288.304 8.99969 288C9.18909 287.706 9.71062 287.807 9.99969 288C18.4527 293.577 31.5208 316.023 34.9997 336Z" fill="white"/>
<path d="M388 13.9999C388.09 11.6991 387.03 10.5601 386 9.99993C386 9.97993 387 9.99993 387 9.99993H386C384.909 9.50975 378.03 4.55013 377 3.99993C377 3.97993 377 3.99993 377 3.99993C375.909 3.50975 373.921 4.5394 372 5.99993C352.749 20.7353 326.17 23.8732 306 14.9999C303.228 12.9492 301.301 10.6809 299 7.99993C298.88 7.85988 298.12 8.10997 298 7.99993C297.349 7.27967 296.65 6.34006 296 5.99993C296 5.99993 287.65 1.35006 287 0.999932V-6.76811e-05C284.839 -1.02044 282.3 0.788752 281 3.99993C262.72 49.4066 223.974 95.4857 198 107C196.069 107.86 194.39 108.369 193 110C191.159 112.121 189.91 115.279 190 118C190 176.381 222.387 269.838 283 301C286.592 303.341 290.178 305.119 294 307C377.394 221.008 388 83.1954 388 13.9999Z" fill="#00812A"/>
<path d="M386 9.99995C384.909 9.51728 382.933 9.56179 381 10.9999C358.559 27.8934 326.648 29.9529 306 14.9999C326.178 23.6979 352.754 20.5096 372 5.99995C373.933 4.56178 375.898 3.51728 377 3.99995C377 3.98025 377 3.99995 377 3.99995C378.021 4.55157 384.909 9.51728 386 9.99995Z" fill="#00812A"/>
<path d="M296 5.99997C293.841 4.97728 292.3 5.78151 291 8.99997C272.735 54.5397 232.953 100.46 207 112C205.071 112.862 203.39 114.376 202 116C201.23 116.912 200.49 117.947 200 119L191 114C191.49 112.947 192.24 111.882 193 111C194.39 109.366 196.071 107.862 198 107C223.953 95.4596 262.735 49.5196 281 3.99997C282.3 0.781506 284.841 -1.02272 287 -3.17395e-05V0.999968C287.3 1.16039 288.981 1.83691 291 2.99997C292.999 4.16303 295.21 5.55881 296 5.99997Z" fill="#00812A"/>
<g opacity="0.3">
<path d="M282 300C221.791 268.847 190 176.241 190 118C189.95 116.422 190.353 114.418 191 113L200 118C199.333 119.418 198.96 121.422 199 123C199 178.185 227.852 264.512 282 300Z" fill="black"/>
</g>
<path d="M388 14C388 83.0696 377.595 220.165 294 306C232.148 275.764 199 181.825 199 123C198.909 120.284 200.164 117.117 202 115C203.394 113.372 205.064 111.859 207 111C233.036 99.5066 271.676 54.3341 290 8.99995C291.304 5.79461 293.833 3.98143 296 4.99995V5.99995C296.652 6.34945 297.348 6.281 298 6.99995C298.12 7.11978 298.879 7.86016 299 7.99995C318.437 30.5372 356.475 30.4517 382 11C383.935 9.54207 384.896 8.51066 386 8.99995H387C387 8.99995 386 8.97998 386 8.99995C387.023 9.55914 388.09 11.7033 388 14Z" fill="#00812A"/>
<g opacity="0.4">
<path d="M388 14C388 83.0696 377.595 220.165 294 306C232.148 275.764 199 181.825 199 123C198.909 120.284 200.164 117.117 202 115C203.394 113.372 205.064 111.859 207 111C233.036 99.5066 271.676 54.3341 290 8.99995C291.304 5.79461 293.833 3.98143 296 4.99995V5.99995C296.652 6.34945 297.348 6.281 298 6.99995C298.12 7.11978 298.879 7.86016 299 7.99995C318.437 30.5372 356.475 30.4517 382 11C383.935 9.54207 384.896 8.51066 386 8.99995H387C387 8.99995 386 8.97998 386 8.99995C387.023 9.55914 388.09 11.7033 388 14Z" fill="white"/>
</g>
<g opacity="0.25">
<path d="M296 5.99995C293.831 4.98143 292.305 6.79461 291 9.99995C272.655 55.3241 233.066 100.507 207 112C205.062 112.859 203.395 114.372 202 116C200.152 118.117 198.899 121.284 199 124C199 182.815 232.078 276.764 294 307C320.407 150.028 296 5.99995 296 5.99995Z" fill="#00812A"/>
</g>
<g opacity="0.4">
<path d="M328 37C348.891 42.3149 367.409 33.4352 378 28C378 28 379.596 131.751 347 210C356.938 172.986 362.805 143.838 364 98C365.164 52.9538 343.831 48.2415 328 37Z" fill="white"/>
</g>
<path d="M317 123V94L295 106V135L274 147V176L295 163V192L317 180V151L338 139V110L317 123Z" fill="white"/>
<path d="M295 135L274 147V176L295 164V192L305 186C306.061 154.764 306.13 126.053 305 101L295 107V135Z" fill="#EBEBEB"/>
<path d="M431 58C437.401 61.6817 441 69.7451 441 81C441 103.5 425.533 130.755 406 142C396.229 147.623 387.401 148.682 381 145C377.118 142.759 373.892 141.241 370 139C363.599 135.318 360 127.245 360 116C360 93.5002 375.467 66.245 395 55C404.771 49.3776 413.599 48.3184 420 52C423.882 54.241 427.108 55.7591 431 58Z" fill="#00812A"/>
<g opacity="0.3">
<path d="M431 58C437.401 61.6817 441 69.7451 441 81C441 103.5 425.533 130.755 406 142C396.229 147.623 387.401 148.682 381 145C377.118 142.759 373.892 141.241 370 139C363.599 135.318 360 127.245 360 116C360 93.5002 375.467 66.245 395 55C404.771 49.3776 413.599 48.3184 420 52C423.882 54.241 427.108 55.7591 431 58Z" fill="black"/>
</g>
<path d="M390 146C386.667 146 383.628 145.509 381 144C374.455 140.253 371 131.682 371 121C371 98.7273 386.567 72.1313 406 61C411.498 57.8524 417.137 56 422 56C425.333 56 428.372 56.4912 431 58C437.545 61.7471 441 70.3083 441 81C441 103.273 425.433 129.869 406 141C400.502 144.148 394.863 146 390 146Z" fill="#FAFAFA"/>
<path d="M421 57C424.241 57 427.443 57.5311 430 59C436.382 62.6572 440 70.5081 440 81C440 103.113 424.298 129.939 405 141C399.584 144.108 394.772 146 390 146C386.759 146 383.567 145.469 381 144C374.618 140.343 371 132.492 371 122C371 99.887 386.702 73.0615 406 62C411.416 58.8924 416.228 57 421 57ZM421 56C416.228 56 410.698 57.7325 405 61C385.4 72.2314 370 99.5373 370 122C370 133.231 373.577 141.313 380 145C382.688 146.539 386.557 147 390 147C394.772 147 400.302 145.267 406 142C425.6 130.769 441 103.463 441 81C441 69.7686 437.423 61.6872 431 58C428.312 56.4612 424.443 56 421 56Z" fill="#00812A"/>
<path d="M439 55L434 52L402 111L407 114L439 55Z" fill="#455A64"/>
<path d="M394 96L387 92L381 103L388 107L394 96Z" fill="#455A64"/>
<path d="M409 133L388 107L394 96L407 114L439 55L446 65L409 133Z" fill="#37474F"/>
<path d="M381 103L388 107L409 133L402 129L381 103Z" fill="#263238"/>
<path d="M157 120C160.946 119.011 162.659 116.533 165 115C167.979 113.061 171.158 112.879 176 111C176.827 110.684 178.163 110.307 179 110C179.409 109.852 179.621 109.198 180 109C180.359 108.812 180.631 108.634 181 109C181.259 109.257 180.98 109.634 181 110C181.06 111.207 180.867 112.179 180 113C179.133 113.821 178.006 114.337 177 115C176.233 115.504 177.502 115.901 178 116C180.451 116.504 185.718 112.801 188 112C189.036 111.634 189.904 111.229 191 112C191.369 112.257 191.591 112.822 192 113C192.428 113.188 193.532 112.931 194 113C194.687 113.109 195.532 113.476 196 114C196.468 114.524 196.319 115.397 196 116C195.751 116.475 195.169 116.486 195 117C194.92 117.237 195.04 117.753 195 118C194.821 119.128 193.817 119.219 193 120C192.293 120.683 191.658 122.288 191 123C190.293 123.762 189.837 124.357 189 125C187.356 126.266 184.883 128.14 183 129C180.25 130.256 176.069 129.97 173 130C171.207 130.02 169.284 130.23 165 132C160.716 133.771 144.895 140.052 138 142C129.651 144.364 127.074 145.568 120 139C115.307 134.648 100 115 100 115L105 92C105 92 110.202 91.3395 119 104C125.297 113.07 132 124 132 124C132 124 153.652 120.841 157 120Z" fill="#FFE2D7"/>
<path d="M175 118C174.532 121.728 170.201 124.372 168 125C168 125 171.276 124.855 173 123C174.892 120.974 175.375 119.503 175 118Z" fill="#FFEAE6"/>
<path d="M106 90C112.906 92.1004 114.266 96.0581 117 100C120.478 104.997 129 118 129 118C129 118 127.607 123.461 123 128C118.393 132.539 113 132 113 132L99 115L106 90Z" fill="#455A64"/>
<path d="M132 285C132 285 128.224 285.886 126 289C123.776 292.114 118.983 300.955 118 302C118 302 118.57 304.229 120 305L123 301C123.665 300.402 124.96 299.113 125 301C125.04 302.887 125.139 305.348 125 309C124.911 311.222 124.117 314.882 128 319C131.624 322.845 135.388 325.716 138 326C139.559 326.162 143.288 326.145 143 323C142.851 321.326 140.367 315.043 140 312C139.613 308.835 132 285 132 285Z" fill="#263238"/>
<path d="M128 301C128.061 302.713 128.77 310.212 135 315C138.06 317.354 140.081 315.815 140 313C139.869 308.482 139.119 300.645 144 292C145.671 289.045 150.112 283.323 156 276C161.496 269.158 168.303 261.743 174 254C174.071 253.91 173.93 253.09 174 253C173.95 253.06 174.051 252.94 174 253C179.909 244.996 184.981 237.491 188 231C188.151 230.679 188.869 230.311 189 230C188.99 230.03 189.01 229.97 189 230C190.51 226.584 191.222 223.154 191 221L176 222L165 215C163.35 220.88 160.708 227.521 158 233C155.424 238.209 146.852 248.196 142 262C138.226 272.718 134.755 279.668 134 281C133.245 282.332 131.504 285.319 131 286C128.081 289.967 127.628 290.151 128 301Z" fill="#FFBDA7"/>
<path d="M186 147C187.269 155.745 190.702 161.292 193 182C195.158 201.425 195.319 211.343 194 221C193.53 224.44 192.247 228.916 189 234C178.808 249.945 159 275 159 275C159 275 154.535 274.573 149 270C143.654 265.588 143 259 143 259C143 259 143.587 255.691 152 241C160.413 226.309 161 210 161 210L156 148C169.109 149.213 174.33 149.216 186 147Z" fill="#455A64"/>
<path d="M149 270C143.612 265.578 143 259 143 259C143 259 143.519 255.722 152 241C160.481 226.278 162 210 162 210L157 162C167.334 160.362 182 161 182 161C182.282 167.843 180.568 175.905 171 181C171 181 172.758 215.152 173 225C173.181 232.507 170.997 251.348 170 260C163.574 268.391 159 275 159 275C159 275 154.58 274.582 149 270Z" fill="#37474F"/>
<path d="M151 305C151 305 148.197 307.872 148 312C147.804 316.138 148.255 327.472 148 329C148 329 150.41 330.142 152 330V325C152.236 324.059 151.97 323.321 153 325C154.031 326.679 155.41 328.562 157 331C158.267 332.932 159.611 337.594 165 339C170.036 340.325 175.693 340.305 178 339C179.375 338.221 181.905 336.671 180 334C178.989 332.584 173.924 326.529 172 324C170.007 321.38 151 305 151 305Z" fill="#263238"/>
<path d="M165 304C164.353 293.368 172.577 244.762 169 222L140 223C141.849 229.265 143.262 236.485 144 243C144.697 249.195 142.493 263.722 146 279C148.728 290.861 150.899 298.361 151 300C151.101 301.639 151.04 305.091 151 306C150.737 311.276 151.856 314.876 158 323C159.192 324.569 162.128 329.281 170 330C173.86 330.36 174.617 328.498 173 326C170.403 322.003 165.657 314.632 165 304Z" fill="#FFBDA7"/>
<path d="M144 243C144.156 245.444 144.042 247.556 144 250C143.969 252.444 143.979 255.556 144 258C144.063 262.888 144.292 267.152 145 272C145.354 274.424 146.448 277.617 147 280L148 287C148.542 289.373 149.521 291.606 150 294C150.49 296.394 150.667 298.576 151 301C150.594 296.122 149.917 291.797 149 287C148.094 282.193 146.636 276.817 146 272C145.615 269.596 145.219 267.424 145 265C144.802 262.576 145.115 260.434 145 258C144.906 255.566 144.052 252.444 144 250C143.917 247.556 144.323 245.424 144 243Z" fill="#F0997A"/>
<path d="M186 143C186 143 187.564 153.707 184 164C180.91 172.94 174.281 177.915 168 180C168 180 170.427 220.408 171 226C171.574 231.582 170.158 251.681 169 265C167.843 278.329 168 283 168 283C168 283 164.761 285.85 157 286C149.24 286.15 147 283 147 283C147 283 142.232 267.097 142 255C141.869 248.065 143.299 244.865 142 238C140.702 231.135 130.768 201.332 128 187C125.484 174.021 126.995 160.833 137 146C147.811 153.246 176.186 150.106 186 143Z" fill="#455A64"/>
<path d="M144 146C138.728 153.685 131.552 170.275 137 193C138.546 199.456 139.504 204.964 141 211C144.502 225.121 147.619 236.743 148 241C148.206 243.358 148.284 245.412 148 248C147.55 252.057 146.973 257.215 148 265C148.959 272.275 149.993 279.823 151 285C150.678 284.91 150.284 285.1 150 285C149.003 279.823 147.939 272.085 147 265C145.954 257.115 146.55 252.107 147 248C147.274 245.462 147.196 243.269 147 241C146.629 236.813 143.492 226.081 140 212C138.504 205.964 137.546 199.456 136 193C130.513 170.115 137.65 153.865 143 146C143.264 146.11 143.726 145.89 144 146Z" fill="#37474F"/>
<path d="M185 142C185 142 177.333 145.624 163 146C146.824 146.426 138 141 138 141C138 141 137.502 143.452 136 146C136 146 144.409 154.274 164 154C181.308 153.756 186 148 186 148C186 148 184.84 144.477 185 142Z" fill="#37474F"/>
<path d="M212 124C210.555 121.682 203 112 203 112C203 112 198.88 104.86 196 101C193.12 97.1397 190.425 93.8307 188 92C185.575 90.1693 182.008 90.1393 177 90L178 111L191 124L202 139L214 137C215.771 133.398 214.454 127.93 212 124Z" fill="#FFBDA7"/>
<path d="M163 149C147.349 148.872 140 141.979 139 141C138.63 133.606 137.459 128.712 135 122C134.99 121.96 133.081 115.529 134 106C134.42 101.681 136.404 96.0032 143 92L152 91C152 91 158.025 90 166 90C166.71 90 167.261 89.9901 168 90L177 91C178.12 92.1762 185.833 100.707 190 109C191.769 112.529 193.877 119.845 188 128C186.471 136.372 186.14 142.784 186 144C184.991 144.741 178.622 149 164 149H163Z" fill="#FAFAFA"/>
<path d="M165 89V90C165.689 90 166.281 89.9901 167 90L176 91C177.488 92.5914 184.994 101.023 189 109C190.718 112.43 192.714 119.053 187 127V128C185.541 135.967 185.19 141.349 185 143C183.631 143.949 176.806 148 163 148C162.79 148 163.22 148 163 148C148.115 147.881 140.369 142.265 139 141C138.61 133.646 137.447 127.662 135 121C134.98 120.941 133.091 115.41 134 106C134.4 101.819 135.656 95.8748 142 92L152 91C152.529 90.9506 157.417 90 165 90V89ZM165 89C156.898 89 151 90 151 90L142 91C135.137 95.1219 133.41 101.69 133 106C132.061 115.756 134 121 134 121C136.308 127.297 137.62 133.171 138 141C138 141 145.727 148.862 163 149C162.78 149 163.22 149 163 149C179.414 149 186 144 186 144C186 144 186.282 137.361 188 128C194.004 119.667 191.828 111.657 190 108C185.454 98.9555 176 90 176 90L167 89C166.261 89 165.709 89 165 89Z" fill="#E6E6E6"/>
<path d="M173 126C173 126 168.02 131.06 159 129C149.979 126.94 149 120 149 120C149 120 148.219 129.572 159 132C169.623 134.387 173 126 173 126Z" fill="#E6E6E6"/>
<path d="M157 86C155.624 85.8496 154.327 87 153 87C152.212 87 151.818 86.9298 151 87C150.252 87.0702 148.749 86.9599 148 87C145.057 87.1404 142.317 85.6575 141 83C141.33 84.6747 142.464 86.298 144 87C142.075 87.3711 140.726 86.9427 139 86C137.274 85.0573 135.749 83.8252 135 82C134.152 79.9041 133.482 77.2063 134 75C134.709 71.9815 136.751 70.1188 137 67C137.27 63.7809 136.911 60.2191 137 57C137.14 51.9257 139.13 47.2592 143 44C146.871 40.7408 151.982 38.5315 157 38C162.238 37.4485 167.972 38.3754 173 40C176.522 41.1432 179.826 43.0818 182 46C183.257 47.6848 183.811 49.9041 184 52C184.24 54.6074 182.375 56.9169 180 58C180.709 59.2636 180.918 60.8869 180 62C179.382 62.7521 178.868 63.5888 178 64C175.806 65.043 179.202 66.4986 180 67C182.883 68.7951 185.32 72.46 185 76C184.831 77.8352 184.417 78.8467 183 80C183.09 78.6061 182.639 77.2435 182 76C182.2 78.6475 180.976 81.235 179 83C177.873 84.0129 176.487 84.6891 175 85C173.414 85.3309 171.527 84.8095 170 85C168.115 85.2407 166.806 87.3783 165 88C161.698 89.1232 160.013 86.3209 157 86Z" fill="#263238"/>
<path d="M145 64C147.748 62.8586 149.395 64.2323 151 66C152.103 67.2121 153.228 66.4444 154 65C154.431 64.202 154.88 63.8788 155 63C155.05 62.6566 154.809 61.1313 155 61C154.89 61.0101 155.09 60.9394 155 61C157.156 60.8485 159.064 59.9697 161 59C162.946 58.0303 165.288 57.0606 166 55C166.07 55.9091 165.251 56.1313 165 57C169.363 56.4646 174.117 53.3333 175 49C177.889 49.6364 179.01 55.8586 179 60C179 62.0909 179.829 63.9091 180 66C180.943 77.3636 176.815 80.7879 175 82C173.175 83.2121 171.801 83.9798 168 84V89C168 89 173.809 97.4949 174 107C167.31 103.071 159.914 96.9091 152 90L151 75C149.877 76.9798 145.765 76.1818 144 74C141.222 70.5556 140.938 65.697 145 64Z" fill="#FFBDA7"/>
<path d="M177 58L173 56C173.398 54.883 174.931 54.5597 176 55C177.069 55.4511 177.398 56.883 177 58Z" fill="#263238"/>
<path d="M162 58.0001L158 60.0001C157.345 59.0817 157.991 57.5691 159 57.0001C160.008 56.4311 161.345 57.0817 162 58.0001Z" fill="#263238"/>
<path d="M160 62C159.954 62.826 160.174 63.9546 161 64C161.826 64.0454 162.954 63.826 163 63C163.045 62.174 162.826 61.0454 162 61C161.174 60.9546 160.045 61.174 160 62Z" fill="#263238"/>
<path d="M173 61C172.954 61.826 173.174 62.9546 174 63C174.826 63.0454 175.954 62.826 176 62C176.045 61.174 175.826 60.0454 175 60C174.174 59.9546 173.045 60.174 173 61Z" fill="#263238"/>
<path d="M164 71L171 72C170.656 73.8257 168.179 75.5245 166 75C164.11 74.5461 163.656 72.8257 164 71Z" fill="#B16668"/>
<path d="M168 75C167.637 73.1953 165.755 71.7902 164 72C163.892 72.0105 164.098 71.9791 164 72C164.127 73.3431 164.657 74.6328 166 75C166.627 75.1679 167.441 75.1469 168 75Z" fill="#F28F8F"/>
<path d="M167 60L169 70L174 68C171.54 63.6371 168.534 60.0815 167 60Z" fill="#F0997A"/>
<path d="M167 85C163.32 84.7576 155.072 83.101 152 77C152 77 151.166 80.4343 157 84C160.192 85.9495 167 87 167 87V85Z" fill="#F0997A"/>
<path d="M142 91C145.105 98.1769 143.994 109.033 141 116C137.925 121.558 137.455 123.823 134 130C132.057 133.469 128.488 138.762 123 143C118.563 146.419 103.21 158.08 103 158C102.079 158.75 101.431 159.65 101 160C98.1057 162.379 95.7085 165.021 90 168C87.326 169.389 84.0445 171.16 81 170C80.2889 169.73 79.7611 169.07 79 169C78.5693 168.96 78.4306 168.97 78 169C77.4792 169.03 76.5108 169.13 76 169C75.7196 168.93 75.2003 168.2 75 168C74.6895 167.69 75.3004 167.33 75 167C74.6795 166.64 73.4907 166.97 73 167C72.5193 167.03 72.4807 167.07 72 167C71.5193 166.93 71.03 166.48 71 166C70.98 165.66 70.7797 165.26 71 165C73.1632 162.481 77.1357 162.379 80 161C80.9314 160.55 83.9099 159.299 84 158C84.0701 157.13 82.023 158.27 80 158C77.987 157.73 76.4176 154.88 78 155C79.5823 155.13 81.8052 153.95 85 153C88.1747 152.05 89.9369 153.259 92 152C92.7311 151.55 115 130 115 130C115 130 122.874 112.796 127 104C131.126 95.2038 133.027 92.7293 142 91Z" fill="#FFBDA7"/>
<path d="M207 119C208.295 120.595 209.573 127.018 204 134C198.426 140.982 190.649 147.244 179 149C167.35 150.756 155.608 145.995 156 138C156.391 130.005 166.561 127.237 171 125C175.439 122.763 181.202 113.552 190 113C198.797 112.448 207 119 207 119Z" fill="#00812A"/>
<g opacity="0.1">
<path d="M207 129C202.701 132.266 191.916 139.08 187 140C181.942 140.94 175.642 139.553 172 136C171.292 135.317 170.991 134.881 170 135C168.907 135.139 167.808 135.941 168 137C168.192 138.049 169.514 139.05 170 140C170.486 140.96 170.658 142.149 170 143C169.545 143.584 168.738 143.832 168 144C165.117 144.653 161.832 144.861 159 144C163.279 147.563 171.958 149.198 180 148C191.734 146.268 198.386 139.888 204 133C205.113 131.634 206.403 130.277 207 129Z" fill="black"/>
</g>
<path d="M205 115C205.514 115.703 206.166 116.664 207 117C207.782 117.316 208.639 116.55 209 116C209.432 115.338 209.701 114.723 210 114C210.607 112.543 211.072 110.579 211 109C210.825 105.079 208.439 101.996 205 100C203.517 99.1444 202.698 98.2444 201 98C197.324 97.4805 191.834 99.0174 191 103C190.855 103.672 191.516 104.552 192 105C192.844 105.764 193.846 105.868 195 106C196.029 106.122 197.124 106.328 198 107C199.688 108.294 201.62 109.33 203 111C202.969 110.969 203.031 111.031 203 111C203.545 111.682 203.526 112.267 204 113C204.381 113.591 204.577 114.43 205 115Z" fill="#37474F"/>
<path d="M208 117C208.094 116.919 208.906 117.081 209 117C208.591 117.424 207.367 117.859 207 118C205.185 119.513 203.819 121.274 200 122C194.817 122.999 190.623 121.854 188 118C187.119 116.708 186.885 114.544 187 113C187.178 110.8 188.119 109.191 189 108C189.829 106.9 189.475 107.251 190 106C190.472 104.86 191.14 102.908 192 102C192.776 101.163 193.846 101 195 101C195.745 101 196.192 100.839 197 101C198.595 101.313 200.573 102.233 202 103C202.818 103.434 203.444 104.274 204 105C204.556 105.716 205.273 106.152 205 107C204.853 107.474 204.21 108.546 204 109C203.444 110.211 203.752 112.203 205 113C205.535 113.343 206.423 113.05 207 113C207.713 112.939 207.58 113.455 208 114C209.469 115.917 208 118 208 118V117Z" fill="#FFE2D7"/>
<path d="M201 112C200.825 112.522 199.813 113.18 199 113C198.188 112.82 197.825 112.522 198 112C198.176 111.478 199.188 110.82 200 111C200.813 111.18 201.176 111.478 201 112Z" fill="#FFEAE6"/>
<path d="M191 108C190.825 108.522 189.813 109.18 189 109C188.188 108.82 187.825 108.522 188 108C188.176 107.478 189.188 106.82 190 107C190.813 107.18 191.176 107.478 191 108Z" fill="#FFEAE6"/>
<path d="M208 112C207.225 111.595 205.602 112.296 205 113C204.837 113.029 204.929 113.077 205 113C205.48 112.894 206.511 113.01 207 113C207.418 113 207.674 112.749 208 113C208.796 113.598 208.357 114.238 208 115C207.643 115.772 206.878 116.691 206 117C205.204 117.28 204.439 117.705 204 117C203.908 116.855 203.99 116.846 204 117C204.072 117.898 205.123 118.048 206 118C206.898 117.952 207.511 117.676 208 117C208.51 116.286 209.021 114.869 209 114C208.98 113.18 208.765 112.396 208 112Z" fill="#FFEAE6"/>
<path d="M200 112C200 112.229 199.749 111.446 199 111C198.559 110.735 197.513 110.868 197 111C196.877 111.036 197.113 110.952 197 111C196.815 111.084 196.662 110.325 197 110C197.195 109.807 197.733 110.072 198 110C198.893 109.759 199.805 110.952 200 112C200.031 112.132 200 111.856 200 112Z" fill="#37474F"/>
<path d="M193 110C192.977 110.206 192.728 109.496 192 109C191.571 108.71 190.549 108.94 190 109C189.869 109.012 190.12 108.964 190 109C189.798 109.061 189.619 108.254 190 108C190.227 107.855 190.726 108.036 191 108C191.954 107.903 192.893 108.887 193 110C193.012 110.121 193 109.879 193 110Z" fill="#37474F"/>
<path d="M193 111C192.462 110.744 191.534 111.522 192 112C192.466 112.478 193.946 113.431 194 113C194.054 112.569 193.511 111.245 193 111Z" fill="#FFEAE6"/>
<path d="M194 115H197C197 115 196.475 116.085 195 116C193.524 115.922 194 115 194 115Z" fill="#FFEAE6"/>
<path d="M210 142C207.34 144.309 201.148 149.834 188 153C181.018 154.684 172.602 154.309 168 152C166.327 150.8 161.508 150.896 161 149C160.801 148.244 160.488 147.676 160 147C159.313 146.052 159 144 159 144C163.293 146.904 172.356 145.847 174 145C174.558 144.708 174.96 143.645 175 143C175.03 142.365 174.408 142.484 174 142C172.516 140.256 170.588 138.329 170 136C169.88 135.536 169.691 135.373 170 135C170.299 134.647 170.612 133.748 171 134C172.863 135.2 174.556 136.455 176 137C177.843 137.686 179.476 138.729 181 140C181.916 140.766 181.785 141.677 183 142C184.235 142.323 185.835 141.383 187 141C193.225 138.933 196.4 134.956 199 133C200.833 131.366 206.526 126.857 208 126C209.673 125.899 210.715 126.538 212 128C212.657 128.746 214.721 130.82 215 132C216.026 136.306 214.99 137.684 210 142Z" fill="#FFBDA7"/>
<path d="M91 318L89 302H108C108 302 106.579 313.938 108 318C108.948 320.708 112.904 324.726 114 326C115.105 327.274 101.846 329.707 97 329C92.1537 328.303 91.4343 325.848 91 323C90.5657 320.152 91 318 91 318Z" fill="#FFE2D7"/>
<path d="M136 345C136.299 345 136.664 347.746 135 349C133.087 350.45 127.362 352.921 120 352C112.628 351.079 108.929 349.234 106 347C103.071 344.756 98.3273 340.686 95 340C91.9018 339.363 88.9862 338.862 88 338C87.0138 337.128 87 333 87 333L136 345Z" fill="#263238"/>
<path d="M90.0002 318C90.0002 318 89.2006 318.114 89.0002 319C88.7596 320.053 88.5113 323.268 88.0002 325C87.2986 327.401 86.6093 332.032 87.0002 334C87.3911 335.968 92.7628 337.868 96.0002 339C99.3077 340.161 102.653 342.491 106 345C109.468 347.598 117.159 349.99 122 350C127.723 350.01 134.497 348.362 136 346C137.854 343.077 138.46 339.592 130 336C128.397 335.321 122.915 332.092 121 331C115.818 328.028 112.356 325.205 110 320C109.73 319.39 109.642 319.315 109 319C108.509 318.764 107.551 318.931 107 319C105.587 319.167 100.293 319.469 99.0002 320C97.8576 320.472 95.9801 320.691 96.0002 322C96.0002 322.453 95.8398 323.567 96.0002 324C96.1004 324.266 96.2708 323.843 96.0002 324C95.7496 324.148 96.2207 324.177 96.0002 324C95.1182 323.282 93.7419 322.846 93.0002 322C92.5993 321.547 92.5013 321.364 92.0002 321C91.5391 320.675 91.4011 320.364 91.0002 320C90.489 319.538 90.0202 318.62 90.0002 318Z" fill="#455A64"/>
<path d="M107 344C105.538 342.885 103.551 341.965 102 341C102 341 111.983 346.458 116 344C118.595 342.418 117.06 340.627 117 340C116.94 339.373 126.494 335.249 129 335C129.696 335.358 129.632 335.841 130 336C138.383 339.633 137.84 343.044 136 346C134.518 348.389 129.339 350.06 122 350C117.197 349.96 110.441 346.637 107 344Z" fill="#37474F"/>
<path d="M117 339C122.252 340.972 119.47 341.819 118 342C116.519 342.181 108.372 336.975 103 333C97.3976 328.864 93.0807 324.519 90.9999 323C90.2195 322.437 89.7402 321.654 88.9999 321C89.1499 319.933 88.9198 319.513 88.9999 319C89.1699 317.933 89.2596 317.171 89.9999 317C90.0199 317.624 90.9999 319 90.9999 319C90.9999 319 91.2696 319.336 91.9999 320C92.46 320.413 93.5997 321.547 93.9999 322C94.7402 322.855 95.1195 323.255 95.9999 324C100.552 329.393 111.748 337.018 117 339Z" fill="#37474F"/>
<path d="M118 341C117.88 341 117.1 341.071 117 341C116.78 340.828 116.82 340.203 117 340C118.497 338.325 126.146 334.574 130 335C130.289 335.031 130.03 335.736 130 336C129.97 336.264 129.319 336.02 129 336C125.395 335.604 119.178 339.681 118 341C118.15 341 117.9 341.112 118 341Z" fill="#263238"/>
<path d="M113 338C112.88 338 112.1 338.071 112 338C111.78 337.827 111.82 337.203 112 337C113.497 335.335 121.136 331.574 125 332C125.289 332.03 125.03 332.736 125 333C124.97 333.264 124.299 333.03 124 333C120.385 332.614 114.178 336.681 113 338C113.15 338 112.9 338.112 113 338Z" fill="#263238"/>
<path d="M109 336C108.88 336 108.1 336.071 108 336C107.78 335.828 107.82 335.203 108 335C109.497 333.325 117.146 329.574 121 330C121.289 330.031 121.03 330.736 121 331C120.97 331.264 120.299 331.031 120 331C116.385 330.604 110.178 334.681 109 336C109.15 336 108.9 336.112 109 336Z" fill="#263238"/>
<path d="M104 333C103.88 333 103.1 333.071 103 333C102.78 332.828 102.82 332.203 103 332C104.497 330.325 112.156 326.574 116 327C116.289 327.031 116.03 327.736 116 328C115.97 328.264 115.299 328.02 115 328C111.395 327.614 105.178 331.681 104 333C104.15 333 103.9 333.112 104 333Z" fill="#263238"/>
<path d="M100 330C99.8893 330 99.0906 330.071 99 330C98.7785 329.839 98.8188 329.212 99 329C101.074 326.653 109.104 323.577 113 324C113.292 324.03 113.03 324.738 113 325C112.97 325.262 112.302 325.02 112 325C108.497 324.617 101.842 327.915 100 330C100.151 330 99.8993 330.121 100 330Z" fill="#263238"/>
<path d="M46 330C46 330 45.7225 325.077 45 314L63 315L61 331C61 331 61.3927 337.098 60 340C58.6073 342.912 47.6963 343.464 46 340C44.3037 336.536 46 330 46 330Z" fill="#FFE2D7"/>
<path d="M62.9998 364C62.8672 368.558 61.8575 371.334 59.9998 374C58.1422 376.666 54.7967 377.803 50.9998 377C47.2029 376.207 42.2349 373.944 40.9998 370C39.7546 366.066 40.316 363.221 40.9998 359L62.9998 364Z" fill="#263238"/>
<path d="M45.9999 330C44.4271 330.1 44.6517 335.78 43.9999 342C43.3066 348.662 40.6414 351.544 39.9999 357C39.2652 363.24 40.1854 366.222 42.9999 370C45.8246 373.788 55.5713 377.386 59.9999 372C63.611 367.609 63.6 363.23 62.9999 357C62.379 350.549 61.8757 345.884 61.9999 341C62.1137 336.327 62.3864 331.523 60.9999 331C60.9274 331.683 60.0826 332.327 59.9999 333C59.9378 333.512 59.8794 335.98 58.9999 336C58.8964 335.407 58.9792 335.603 58.9999 335C59.0205 334.467 59.4344 333.402 58.9999 333C58.5653 332.588 57.6414 333.1 56.9999 333C55.4374 332.739 53.583 332.121 51.9999 332C51.2135 331.94 50.7862 332 49.9999 332C49.3583 332 48.6 331.819 47.9999 332C47.6377 332.111 47.124 332.699 46.9999 333C46.9067 333.221 46.9895 332.759 46.9999 333C47.0205 333.432 47.1137 334.588 46.9999 335C46.9481 335.181 47.2275 335.05 46.9999 335C46.8136 334.96 45.9999 335.161 45.9999 335C45.9585 334.246 45.9792 330.392 45.9999 330Z" fill="#455A64"/>
<path d="M41 356C40.8862 356.885 39.9825 362.948 42 364C44.1934 365.15 45 360 45 360C45 360 49.5715 359.404 57 362C56.6689 362.944 58.0239 365.649 60 365C61.9657 364.351 63 358.088 63 358C63.5483 363.851 63.5073 367.821 60 372C55.5718 377.27 45.8141 373.707 43 370C40.1755 366.293 39.2654 364.106 40 358C40.0724 357.39 40.8965 356.56 41 356Z" fill="#37474F"/>
<path d="M45.9996 361C46.0669 363.281 43.2689 362.214 42.9996 359C42.7302 355.786 44.2689 348.536 43.9996 343C44.7065 336.724 45.3051 330.101 46.9996 330C46.9996 330.081 46.9996 333 46.9996 333C46.9996 333 46.9771 334.513 46.9996 335C47.1679 339.644 46.3362 348.752 45.9996 353C45.6629 357.248 45.9322 358.719 45.9996 361Z" fill="#37474F"/>
<path d="M57.0005 362C57.4005 359.763 57.6492 358.26 58.0005 354C58.3517 349.78 59.1614 340.596 60.0005 336C60.3322 335.217 60.9517 333.386 61.0005 333C61.0785 332.359 60.9322 331.671 61.0005 331C61.0005 330.949 61.0005 331.051 61.0005 331C61.9468 331.397 62.0297 333.838 62.0005 337C61.8834 338.83 61.3614 341.265 61.0005 344C59.937 349.43 60.7224 356.868 60.0005 360C59.2785 363.142 56.6004 364.237 57.0005 362Z" fill="#37474F"/>
<path d="M56.0008 362C55.9324 362 56.0692 362.036 56.0008 362C55.9421 361.964 50.9522 359.367 45.0008 361C44.7076 361.084 44.0887 360.3 44.0008 360C43.7076 360.084 43.9128 359.7 44.0008 360C50.3626 358.247 56.7564 360.868 57.0008 361C57.2744 361.144 57.1376 361.724 57.0008 362C56.903 362.216 56.2255 362.024 56.0008 362Z" fill="#263238"/>
<path d="M58.0001 357C57.9388 357 58.0615 357.023 58.0001 357C57.9388 356.977 51.9534 354.469 45.0001 356C44.6934 356.058 44.082 355.302 44.0001 355C43.9183 354.698 43.6934 354.07 44.0001 354C51.3522 352.388 58.7241 355.884 59.0001 356C59.2967 356.139 59.1331 356.722 59.0001 357C58.8979 357.22 58.2456 357.023 58.0001 357Z" fill="#263238"/>
<path d="M45.0004 352C44.7843 351.978 44.0827 351.2 44.0004 351C43.7019 351.089 43.8872 350.722 44.0004 351C50.937 348.852 58.7019 351.867 59.0004 352C59.2886 352.134 59.1445 352.744 59.0004 353C58.8563 353.256 58.2783 353.134 58.0004 353C57.9284 352.967 51.4533 349.996 45.0004 352C45.0827 352.011 44.9181 352.022 45.0004 352Z" fill="#263238"/>
<path d="M46.0007 347C45.7881 346.979 45.0918 347.182 45.0007 347C44.8792 346.732 44.7072 346.097 45.0007 346C52.5 343.6 59.7173 346.85 60.0007 347C60.2739 347.15 60.1525 347.754 60.0007 348C59.8489 348.236 59.2739 348.15 59.0007 348C58.9399 347.968 52.9737 344.761 46.0007 347C46.0816 347.011 45.9197 347.022 46.0007 347Z" fill="#263238"/>
<path d="M46.0003 342C45.789 341.979 45.0807 341.187 45.0003 341C44.7186 341.093 44.8795 340.741 45.0003 341C51.9809 338.718 59.7086 341.855 60.0003 342C60.2819 342.135 60.1511 342.761 60.0003 343C59.8594 343.239 59.2718 343.145 59.0003 343C58.9298 342.969 52.488 339.873 46.0003 342C46.0807 342 45.9198 342.031 46.0003 342Z" fill="#263238"/>
<path d="M48 160C44.2601 198.524 45 256 45 256C44.6783 258.92 42 264.954 42 281C42 298.591 44 323 44 323C44 323 54.2936 326.73 63 324C63 324 68.7527 286.077 72 264C74.5536 246.67 80 219 80 219L84 244C84 244 82.809 255.303 83 263C83.2212 271.951 89 312 89 312C89 312 98.1375 315.241 108 312C108 312 111.733 270.639 113 245C114.046 223.907 112.292 187.265 112 160H48Z" fill="#37474F"/>
<path d="M80 219L84 198C84 198 94.8241 194.597 101 186C101 186 99.2799 196.557 87 201L83 219L84 244L80 219Z" fill="#263238"/>
<path d="M65.9994 85.9999C60.3974 87.3884 50.5625 90.2829 42.9994 92.9999C42.9994 92.9999 42.9017 110.167 45.9994 126C47.1459 131.874 47.2106 140.308 46.9994 148C46.6976 158.888 46.6833 163.02 45.9994 172C45.9994 172 51.8432 181.139 87.9994 180C108.034 179.371 112.999 170 112.999 170C112.999 170 112.849 136.644 112.999 122C113.201 102.771 112.275 96.1033 105.999 89.9999C105.999 89.9999 96.0251 85.9389 87.9994 84.9999C78.636 83.9011 65.9994 85.9999 65.9994 85.9999Z" fill="#00812A"/>
<path d="M54.9998 196C52.1877 193.201 51.0135 188.59 47.9998 186C47.0725 185.203 46.8263 184.896 45.9998 184C44.7701 182.675 43.9595 180.763 43.9998 179C44.0098 178.382 44.9998 146 44.9998 146L50.9998 121C53.1164 109.775 49.3115 98.2071 43.9998 95C36.0976 96.972 34.7233 101.512 32.9998 107C31.881 110.566 32.1467 112.837 29.9998 122C27.3288 133.384 27.4814 131.743 25.9998 140C25.3749 143.506 24.2762 146.387 25.9998 158C27.3101 166.904 29.7982 182.735 29.9998 184C30.665 188.133 31.012 194.679 31.9998 197C32.9875 199.321 34.012 202.207 34.9998 204C35.9875 205.793 37.9998 206 37.9998 206C37.9998 206 40.3972 208.506 41.9998 210C43.5923 211.494 44.9998 211 44.9998 211C44.9998 211 45.6614 212.898 47.9998 215C50.3281 217.111 50.6067 216.468 50.9998 216C51.3929 215.532 51.786 214.135 50.9998 213C50.2136 211.865 47.6549 208.906 46.9998 208C46.3446 207.094 45.9998 205 45.9998 205C45.9998 205 46.3245 206.094 46.9998 207C47.6751 207.906 49.8003 208.944 50.9998 210C52.7536 211.544 54.395 212.618 54.9998 212C55.6146 211.382 54.8767 209.235 53.9998 208C53.1229 206.765 49.5037 204.364 48.9998 203C48.4958 201.636 47.8867 200.496 46.9998 197C46.8284 196.343 46.246 194.263 47.9998 195C48.4029 195.169 48.7276 195.661 48.9998 196C49.796 196.986 50.9011 197.363 51.9998 198C53.0984 198.637 53.7903 199.408 54.9998 199C55.1812 198.94 55.8687 198.139 55.9998 198C56.282 197.701 56.2014 197.359 55.9998 197C55.8083 196.641 55.3021 196.279 54.9998 196C55.0703 196.07 54.9292 195.93 54.9998 196Z" fill="#FFE2D7"/>
<path d="M45 211C43.5161 209.639 42.0215 207.677 41 206C40.0215 204.304 39.5269 202.854 39 201C39.8602 202.746 41 204.343 42 206C42.9677 207.686 43.7957 209.442 45 211Z" fill="#FFEAE6"/>
<path d="M38 206C37.2184 205.313 36.5172 204.832 36 204C35.5287 203.149 35.2414 201.928 35 201C35.5862 201.812 36.4828 202.168 37 203L38 206Z" fill="#FFEAE6"/>
<path d="M45 205C43.8646 203.526 43 201 43 201C43 201 43.5169 204.686 46 207L45 205Z" fill="#FFEAE6"/>
<path d="M44 94C36.319 97.0051 34.8871 99.6823 33 106C31.1129 112.318 26 133 26 133C26 133 27.5128 138.106 35 140C42.4872 141.894 47 141 47 141L53 119C53 119 54.9349 98.0862 44 94Z" fill="#37474F"/>
<path d="M65.9994 78C65.1517 73.2316 60.1637 68.1586 57.9994 64C55.915 60.0013 54.79 56.7787 54.9994 53C55.1191 50.7608 56.3539 47.6498 57.9994 47C56.0247 38.7028 62.6983 34.8197 65.9994 34C67.2661 33.6901 68.7927 33.5098 69.9994 33C71.7946 32.2303 72.5533 31.2396 73.9994 30C76.4728 27.8607 80.3838 27.8011 81.9994 31C83.645 28.8407 86.3964 28.3502 88.9994 29C91.4828 29.6098 92.2388 31.7008 91.9994 34C95.4602 32.0207 98.6604 34.9507 98.9994 37C99.2488 38.5095 99.0021 39.6505 99.9994 41C101.126 42.5195 103.371 42.2396 103.999 41C104.378 43.1493 103.323 45.1 100.999 45C101.807 46.1596 102.388 47.5805 101.999 49C101.461 50.9194 99.5453 51.96 97.9994 52C97.7601 53.1796 97.7375 53.9803 96.9994 55C96.2913 55.9797 95.0965 57.4702 93.9994 58C90.4888 59.7094 86.7893 60.1803 82.9994 61C81.5035 61.3199 79.4954 61.6701 77.9994 62C77.7401 62.06 77.159 61.7701 76.9994 62L65.9994 78Z" fill="#263238"/>
<path d="M59.9986 71C64.177 73.9893 65.9986 71 65.9986 71C65.9986 71 66.9787 86.9699 66.9986 87C77.3298 99.3784 98.173 95.2888 88.9986 86V82C88.9986 82 88.7549 82.3311 90.9986 82C94.7282 81.4584 97.9615 78.0727 98.9986 74C100.086 69.7368 99.956 63.0858 98.9986 58C98.7593 56.696 98.869 55.3141 98.9986 54C99.3377 50.4992 98.9161 48.9291 97.9986 46C93.8602 42.6998 83.834 41.5131 74.9986 47C76.0657 52.2964 73.8279 55.9437 69.9986 58C70.1881 59.4345 70.3321 63.0502 67.9986 63C66.3133 62.9599 66.7438 60.8558 64.9986 59C63.2136 57.0941 58.5443 57.2214 56.9986 60C54.8347 63.8821 56.5183 68.5023 59.9986 71Z" fill="#FFE2D7"/>
<path d="M88.999 83C83.0206 82.3237 75.134 81.3859 71.999 77C70.0296 74.2435 67.999 70 67.999 70C67.999 70 67.9995 74.3827 69.999 78C72.521 82.5703 79.4033 85.2459 88.999 85V83Z" fill="#FFEAE6"/>
<path d="M99.999 65C99.9108 65.7978 98.225 66.9819 92.999 66C88.9987 65.2431 86.4797 66.2942 82.999 67C78.3516 67.941 74.558 68.9151 72.999 66C71.4401 63.0747 70.999 58 70.999 58L65.999 60C65.999 60 66.6657 63.8009 66.999 66C67.3226 68.1991 67.9889 74.0314 71.999 78C76.0092 81.9789 79.5966 82.8363 84.999 83C92.6075 83.225 97.1655 81.6949 98.999 77C100.833 72.2949 99.999 65 99.999 65Z" fill="#263238"/>
<path d="M86.9986 68.0001C90.2277 67.8646 92.8477 68.4517 92.9986 70.0001C93.1395 71.5484 93.7549 74.8388 90.9986 76.0001C88.4033 77.0936 88.3365 74.0581 86.9986 74.0001C85.6708 73.942 85.4733 77.2 82.9986 76.0001C81.1778 75.1098 80.9282 70.9968 80.9986 70.0001C81.0992 68.5291 83.186 68.1646 86.9986 68.0001Z" fill="#FFE2D7"/>
<path d="M83.9995 58C84.045 59.106 83.1037 59.9562 81.9995 60C80.8953 60.0438 80.0564 59.106 79.9995 58C79.9426 56.8941 80.8953 56.0438 81.9995 56C83.1037 55.9562 83.9426 56.8941 83.9995 58Z" fill="#263238"/>
<path d="M80.9992 53L76.9992 55C76.3072 54.1216 77.0044 52.5948 77.9992 52C78.994 51.4052 80.318 52.1216 80.9992 53Z" fill="#263238"/>
<path d="M83.9988 70L89.9988 71C89.656 72.3971 87.6379 73.2328 85.9988 73C84.3597 72.7582 83.656 71.3881 83.9988 70Z" fill="#FFEAE6"/>
<path d="M84 71C84.1748 71.968 84.9233 72.8272 86 73C86.3313 73.0519 86.6871 73.0605 87 73C87 73 87 73.0087 87 73C86.6319 71.7123 85.3252 70.8013 84 71Z" fill="#FFA8A7"/>
<path d="M97 54L93 52C93.485 50.9556 94.9475 50.5027 96 51C97.0525 51.4973 97.485 52.9656 97 54Z" fill="#263238"/>
<path d="M97.0001 57C97.0001 58.1067 96.1055 59.0219 95.0001 59C93.8948 58.989 92.9887 58.0957 93.0001 57C93.0001 55.8933 93.8948 54.989 95.0001 55C96.1055 55.0109 97.0115 55.9042 97.0001 57Z" fill="#263238"/>
<path d="M95 64L89 67L87 55C90.2675 56.5569 92.147 59.198 95 64Z" fill="#FFEAE6"/>
<path d="M282 219C283.557 218.57 285.263 216.89 287 215C288.577 213.4 290.891 212.73 293 212C293.884 211.77 294.669 210.42 295 212C295.181 212.81 295.583 213.41 295 214C294.759 214.28 291.473 217.14 293 217C295.461 216.48 298.308 213.95 301 213C302.075 212.75 304.297 211.9 305 213C305.321 213.8 304.633 214.64 304 215C304.733 216.07 303.572 217.01 303 218C302.879 218.44 303.98 218.55 304 219C304.04 220 302.954 221.69 302 222C302.653 225.25 296.36 226.12 294 227C293.116 227.29 292.884 227.7 292 228C288.565 229.17 288.611 228.54 286 229C284.122 229.56 281.568 230.44 275 233C268.562 235.51 267.983 236.28 265 237C260.902 237.99 259.142 236.02 254 230C245.694 220.29 241 215 241 215L245 206C252.502 206 253.856 208.31 257 212C261.781 217.62 264.252 220.97 266 223C266 223 278.907 219.7 282 219Z" fill="#FFBDA7"/>
<path d="M243 205C247.309 205.101 250.74 205.026 257 213C263.26 220.974 265 222 265 222C265 222 263.289 226.487 260 229C256.721 231.503 252 232 252 232L243 221V205Z" fill="#F5F5F5"/>
<path d="M244 206C243.941 206 244.059 206 244 206C247.903 206.061 251.294 205.733 257 213C261.794 219.107 263.386 221.233 264 222C263.406 223.03 261.585 226.022 259 228C256.395 229.988 253.05 230.758 252 231L244 220V206ZM243 205V221L252 232C252 232 256.721 231.513 260 229C263.279 226.497 265 222 265 222C265 222 263.26 220.974 257 213C250.74 205.026 247.309 205.101 243 205Z" fill="#E0E0E0"/>
<path d="M288 223C288.622 222.749 289.468 222.422 290 222C291.055 221.165 291.872 219.388 292 218C292.01 217.839 292.06 217.92 292 218C291.616 218.523 291.405 219.487 291 220C290.596 220.503 289.513 220.608 289 221C288.527 221.372 288.553 221.769 288 222C287.724 222.111 287.296 221.93 287 222C286.705 222.07 286.237 222.799 286 223C285.823 222.94 285.892 223.091 286 223C286.641 223.211 287.389 223.241 288 223Z" fill="#F0997A"/>
<path d="M208 359C208.777 352.626 210.572 350.317 211 347C211.458 343.492 211.651 339.523 212 338C212 338 210.249 317.248 210 309C209.751 300.742 212 294 212 294C212 294 211.91 277.577 212 265C212.02 261.573 211.881 259.475 212 257C212.09 252.681 212.671 248.357 213 245H254C254 245 256.139 277.449 256 292C255.92 300.659 255.707 305.957 255 312C253.745 322.703 253.239 330.5 253 335C252.781 339.099 253.271 340.132 256 344C258.729 347.858 262.162 351.467 265 353C267.838 354.533 269.326 356.607 266 358C263.261 359.142 257.286 360.235 254 358C250.714 355.765 248.436 352.553 245 351C243.646 350.389 239.687 350.766 239 348C238.323 345.234 239.422 339.457 240 336V335C239.412 328.025 238.588 321.983 238 316C237.104 306.911 237 301 237 301L235 273H234C232.695 281.308 230.797 292.22 230 297C229.213 301.71 226.006 321.979 225 327C224.283 330.588 223.568 335.994 223 339C223.548 341.305 222.552 347.985 223 355C223.149 357.335 224.33 363.452 222 367C219.819 370.327 215.72 371.578 211 368C206.389 364.503 207.691 361.515 208 359Z" fill="#FFBDA7"/>
<path d="M224 362C223.784 365.445 223.443 368.03 222 370C220.557 371.97 217.784 372.712 215 372C212.217 371.288 208.825 369.012 208 366C207.176 362.988 207.392 361.187 208 358L224 362Z" fill="#263238"/>
<path d="M211 338C209.841 338.03 210.627 342.448 210 347C209.321 351.877 207.606 353.997 207 358C206.3 362.572 207.015 364.135 209 367C210.985 369.855 217.594 372.841 221 369C223.769 365.86 224.293 362.603 224 358C223.697 353.245 223.791 349.597 224 346C224.199 342.566 224.003 339.427 223 339C222.927 339.498 222.512 343.366 222 343C221.896 342.929 222.032 342.112 222 342C221.885 341.512 221.958 341.498 222 341C222.021 340.817 222.042 340.183 222 340C221.958 339.868 222.094 340.102 222 340C221.655 339.644 220.491 339.102 220 339C217.723 338.512 215.299 338.685 213 339C212.833 339.02 213.105 338.878 213 339C212.927 339.081 213.011 338.888 213 339C212.917 339.467 213.032 340.533 213 341C212.99 341.152 212.073 340.868 212 341C211.927 341.132 212.157 342.01 212 342C211.572 341.97 212.052 341.284 212 341C211.938 340.624 211.032 340.376 211 340C210.958 339.583 210.812 338.406 211 338Z" fill="#37474F"/>
<path d="M208 356C207.896 356.631 206.527 361.184 208 362C209.589 362.884 211 359 211 359C211 359 214.588 358.951 220 361C219.729 361.67 220.517 363.418 222 363C223.463 362.582 223.99 358.068 224 358C224.262 362.215 223.686 365.096 221 368C217.594 371.681 210.996 368.739 209 366C207.015 363.271 206.3 361.37 207 357C207.073 356.563 207.906 356.398 208 356Z" fill="#455A64"/>
<path d="M211 360C210.989 361.669 209.114 361.35 209 359C208.887 356.65 211.046 351.039 211 347C211.695 342.442 210.737 338.031 212 338C212 338.061 212 340.644 212 341C212 344.398 212.376 350.907 212 354C211.636 357.093 211.012 358.342 211 360Z" fill="#263238"/>
<path d="M219 361C219.392 359.415 219.587 358.021 220 355C220.403 351.999 221.184 346.251 222 343C222.19 342.292 222.989 339.02 223 339C223.839 339.259 224.101 341.747 224 344C223.855 345.296 223.38 346.056 223 348C221.972 351.839 222.682 357.786 222 360C221.318 362.214 218.598 362.585 219 361Z" fill="#263238"/>
<path d="M220.001 361C219.949 361 219.052 361.02 219.001 361C218.96 360.981 215.62 359.204 211.001 360C210.774 360.039 210.063 360.185 210.001 360C209.939 359.816 209.774 359.039 210.001 359C214.95 358.146 219.815 359.913 220.001 360C220.207 360.097 220.104 360.835 220.001 361C220.166 361.02 219.918 361.126 220.001 361Z" fill="#F0F0F0"/>
<path d="M221 357C221 357 220.052 357.019 220 357C219.959 356.981 216.142 355.282 211 356C210.774 356.028 210.062 356.177 210 356C209.949 355.823 209.764 355.028 210 355C215.44 354.245 220.795 355.916 221 356C221.216 356.084 221.093 356.842 221 357C221.175 357.019 220.918 357.121 221 357Z" fill="#F0F0F0"/>
<path d="M210.001 353C209.835 352.982 210.052 353.126 210.001 353C209.928 352.829 209.783 352.045 210.001 352C215.157 350.901 220.783 352.91 221.001 353C221.208 353.09 221.104 353.847 221.001 354C220.887 354.144 220.208 354.09 220.001 354C219.949 353.982 215.794 351.973 211.001 353C210.938 353.009 210.052 353.018 210.001 353Z" fill="#F0F0F0"/>
<path d="M211 350C210.847 349.982 211.061 350.115 211 350C210.918 349.841 210.786 349.044 211 349C216.572 347.74 221.796 349.903 222 350C222.203 350.097 222.122 350.859 222 351C221.877 351.141 221.193 351.097 221 351C220.959 350.982 217.185 348.828 212 350C211.939 350.018 211.061 350.009 211 350Z" fill="#F0F0F0"/>
<path d="M211 347C210.849 346.983 211.061 347.11 211 347C210.919 346.847 210.778 346.051 211 346C216.189 344.804 221.788 346.907 222 347C222.203 347.085 222.122 347.864 222 348C221.889 348.136 221.203 348.093 221 348C220.95 347.975 216.814 345.888 212 347C211.94 347.017 211.071 347.009 211 347Z" fill="#F0F0F0"/>
<path d="M209 307C209.384 301.463 210 294 210 294C210 294 210.869 271.195 211 263C211.121 254.805 211.768 249.049 212 243H257C258.777 260.384 258 278.775 258 290C258 298.185 256.969 303.945 256 312C255.364 317.256 254 330 254 330C253.01 330.963 250.363 332.89 247 333C242.253 333.15 239 331 239 331C239 331 236.747 320.787 236 312C235.818 309.813 236.404 304.17 237 301L234 281L232 292C230.101 303.636 225 333 225 333C225 333 222.565 335.481 218 335C213.142 334.488 211 333 211 333C211 333 208.616 312.537 209 307Z" fill="#455A64"/>
<path d="M234 281L235 271C235 271 243.674 268.611 246 264C246 264 245.59 269.501 237 273L236 282L237 301L234 281Z" fill="#37474F"/>
<path d="M270 356C270.21 356 270.138 358.067 269 359C267.682 360.069 264.022 361.719 259 361C253.978 360.281 252.987 358.672 251 357C249.013 355.328 247.266 353.525 245 353C242.893 352.514 239.669 351.642 239 351C238.331 350.349 238 348 238 348L270 356Z" fill="#263238"/>
<path d="M240 335C240 335 239.139 335.335 239 336C238.832 336.783 239.357 338.718 239 340C238.515 341.781 237.753 346.542 238 348C238.248 349.468 242.832 351.139 245 352C247.218 352.881 248.763 354.112 251 356C253.307 357.947 256.753 358.961 260 359C263.852 359.039 267.98 357.741 269 356C270.268 353.838 270.664 351.7 265 349C263.931 348.491 261.278 346.832 260 346C258.604 345.119 257.189 344.145 256 343C255.188 342.217 254.614 340.939 254 340C253.674 339.501 253.179 339.567 253 339C252.802 338.384 253.129 337.626 253 337C252.921 336.648 252.337 336.147 252 336C251.377 335.726 251.248 335.98 251 336C249.703 336.147 248.248 335.599 247 336C246.505 336.157 246.288 336.57 246 337C245.792 337.303 245.01 337.638 245 338C244.99 338.362 245.06 338.638 245 339C244.981 339.127 245.099 339.912 245 340C244.802 340.196 245.159 340.147 245 340C244.416 339.462 243.495 338.626 243 338C242.733 337.667 241.337 337.264 241 337C240.693 336.755 240.268 336.274 240 336C239.664 335.658 240.01 335.45 240 335Z" fill="#37474F"/>
<path d="M251 356C250.008 355.132 249.062 354.756 248 354C248 354 254.224 356.858 257 355C258.784 353.795 258.04 352.48 258 352C257.97 351.52 262.277 349.174 264 349C264.471 349.276 264.75 349.877 265 350C270.731 352.828 270.283 354.744 269 357C267.968 358.828 265.03 360.092 260 360C256.713 359.949 253.335 358.042 251 356Z" fill="#455A64"/>
<path d="M258 350C261.573 351.447 260.014 351.883 259 352C257.986 352.126 252.643 348.884 249 346C245.196 342.989 242.405 340.107 241 339C240.478 338.592 239.502 338.476 239 338C239.111 337.233 238.93 336.369 239 336C239.141 335.349 240 335 240 335V336C240.261 336.272 240.629 336.864 241 337C241.783 337.291 242.739 337.67 243 338C243.502 338.622 244.408 339.466 245 340C248.071 343.904 254.427 348.553 258 350Z" fill="#263238"/>
<path d="M258.001 352C257.921 352 258.06 352.048 258.001 352C257.851 351.875 257.871 351.144 258.001 351C259.029 349.825 262.364 348.682 265.001 349C265.02 348.807 265.19 349.019 265.001 349C264.981 349.183 265.22 350.019 265.001 350C262.543 349.701 259.82 351.075 259.001 352C258.931 352.077 258.11 352 258.001 352Z" fill="#F0F0F0"/>
<path d="M255 350C254.92 350 255.061 350.046 255 350C254.849 349.889 254.87 349.139 255 349C256.007 347.852 259.343 346.75 262 347C262.02 346.815 262.202 347.019 262 347C261.98 347.176 262.202 348.019 262 348C259.524 347.768 256.796 349.083 256 350C255.93 350.083 255.101 350 255 350Z" fill="#F0F0F0"/>
<path d="M252.001 348C251.921 348 252.06 348.048 252.001 348C251.851 347.875 251.871 347.144 252.001 347C253.029 345.826 256.364 344.673 259.001 345C259.02 344.807 259.19 345.019 259.001 345C258.981 345.183 259.21 346.019 259.001 346C256.543 345.702 253.82 347.066 253.001 348C252.931 348.077 252.11 348 252.001 348Z" fill="#F0F0F0"/>
<path d="M250 345C249.918 345 250.071 345.045 250 345C249.847 344.893 249.878 344.143 250 344C250.996 342.871 254.326 341.803 257 342C257.02 341.83 257.203 342.018 257 342C256.979 342.17 257.203 343.018 257 343C254.489 342.821 251.793 344.095 251 345C250.929 345.081 250.101 344.991 250 345Z" fill="#F0F0F0"/>
<path d="M247 343C246.915 343 247.064 343.044 247 343C246.83 342.893 246.872 342.142 247 342C248.439 340.41 252.186 339.796 255 340C255.022 339.831 255.213 340.018 255 340C254.979 340.169 255.213 341.009 255 341C252.463 340.814 249.279 341.597 248 343C247.926 343.08 247.107 343 247 343Z" fill="#F0F0F0"/>
<path d="M212 224C211.005 215.18 210.856 215.174 212 212C213.154 208.796 214.677 207.501 216 207C216 207 228.807 204.07 230 204C235.122 203.73 237.673 203.83 240 204C242.576 204.18 244.265 204.458 247 206C249.516 207.422 253.966 211.908 255 222C256.412 235.826 256.423 239.125 257 252C253.678 259.719 230.373 264.03 211 255C211 255 211.781 246.565 212 242C212.189 237.865 212.796 231.048 212 224Z" fill="#00812A"/>
<path d="M211 168C208.182 169.415 206.111 171.912 206 175C205.91 177.544 206.883 180.615 206 183C205.659 183.911 205.532 184.179 205 185C203.195 187.811 202.285 192.14 204 195C204.773 196.287 205.807 197.099 207 198C208.084 198.812 209.73 199.516 210 201C210.141 201.752 209.652 202.584 209 203C208.348 203.416 207.642 203.416 207 203C207 203.643 207.499 204.584 208 205C210.237 206.851 213.884 205.98 216 204C217.254 202.832 218.201 201.683 218 200C218.712 201.435 218.702 203.555 218 205C220.759 203.921 223.606 201.573 225 199C226.344 196.526 225.853 193.672 225 191C224.148 188.318 223.244 185.524 222 183C220.757 180.476 219.87 177.801 220 175C220.05 173.951 219.719 173.01 220 172C220.221 171.218 221 170.792 221 170C221 168.902 219.064 167.149 218 167C216.426 166.772 214.525 166.584 213 167C212.348 167.178 211.612 167.703 211 168Z" fill="#263238"/>
<path d="M215 168C213.965 169.429 213.358 171.456 214 173C214.891 175.162 217.582 175.535 219 174C220.505 172.378 221.901 169.24 221 167C220.07 164.693 217.227 165.803 216 167C215.741 167.251 215.249 167.653 215 168Z" fill="#00812A"/>
<path d="M227 202C226.134 201.93 224.621 200.541 224 200C222.014 198.246 219.588 196.125 218 194C215.76 191.003 214.448 187.699 214 184C213.531 180.151 215.096 176.378 217 173C219.402 168.75 222.174 165.233 227 164C231.642 162.807 237.5 162.236 242 164C244.993 165.173 247.218 167.474 249 170C250.863 172.626 252.438 175.843 252 179C251.674 181.306 249.781 183.446 248 185C246.218 186.564 244.189 188.038 242 189C240.635 189.601 239.354 190.389 238 191C237.338 191.301 236.58 191.569 236 192C235.572 192.321 235.336 192.589 235 193C232.953 195.446 231.046 197.554 229 200C228.603 200.481 227.733 202.04 227 202Z" fill="#263238"/>
<path d="M223 189C222.949 189.07 223.071 188.95 223 189C222.045 189.789 222.178 188.049 221 187C220.35 186.411 218.792 186.85 218 187C216.344 187.3 215.416 187.731 215 189C214.238 191.288 215.963 194.351 219 195C221.905 195.61 223 194 223 194L225 207C225 207 229.001 210.64 236 211C243.354 211.38 244.322 207.438 241 205L240 202C240 202 242.816 201.109 245 200C249.642 197.632 250.878 194.148 251 192C251.152 189.373 250.325 186.598 250 184C249.797 182.362 249.132 180.639 249 179C248.919 177.951 249.213 177.049 249 176C248.939 175.7 248.294 172.97 248 173C244.231 173.38 240.362 172.728 237 171C236.878 170.94 237.142 170.99 237 171C236.858 171.01 236.112 170.92 236 171C233.47 172.838 230.129 173.77 227 174C227.498 176.118 227.904 179.022 227 181C226.543 182.009 225.752 182.181 225 183C224.797 183.22 222.898 184.72 223 185C223.345 185.929 223.132 187.031 223 188C222.959 188.31 223.183 188.75 223 189Z" fill="#FFBDA7"/>
<path d="M239 177C238.543 176.433 238.162 175.719 238 175C237.533 175.618 237.274 176.291 237 177C236.563 178.124 236.036 179.372 235 180C235.528 178.745 235.132 177.357 235 176C233.456 178.541 230.844 180.119 228 181C228.965 179.917 230.162 178.448 230 177C229.116 178.883 227.818 180.15 226 181C225.096 181.425 224.036 181.939 223 182C222.452 182.03 221.548 182.081 221 182C220.736 181.97 220.193 181.909 220 182C221.269 181.382 222.421 179.296 223 178C223.579 176.714 223.36 175.266 224 174C224.894 172.249 226.355 171.083 228 170C229.655 168.917 232.081 168.476 234 168C235.615 167.595 237.345 166.98 239 167C240.178 167.01 240.852 166.737 242 167C243.046 167.243 244.096 168.443 245 169C245.731 169.456 246.441 169.342 247 170C248.767 172.086 249.929 175.277 250 178C250 178.405 250.366 179.818 250 180C249.909 180.051 249.102 179.99 249 180C245.557 180.354 242.493 178.108 241 175C241.01 176.225 240.827 177.795 241 179C240.056 178.706 239.619 177.759 239 177Z" fill="#263238"/>
<path d="M228 188C228.102 189.091 229.623 190.146 231 190C232.376 189.864 233.102 189.101 233 188C232.897 186.909 231.376 185.854 230 186C228.623 186.137 227.897 186.899 228 188Z" fill="#F28F8F"/>
<path d="M245.999 186C246.111 187.09 247.623 188.156 248.999 188C250.375 187.844 251.111 187.09 250.999 186C250.888 184.91 249.375 183.844 247.999 184C246.623 184.156 245.888 184.91 245.999 186Z" fill="#F28F8F"/>
<path d="M234 182L230 184C229.448 183.008 229.97 181.531 231 181C232.03 180.47 233.448 181.008 234 182Z" fill="#263238"/>
<path d="M231 186C231.109 186.825 232.175 187.109 233 187C233.825 186.891 234.109 185.825 234 185C233.891 184.175 232.825 183.891 232 184C231.175 184.109 230.891 185.175 231 186Z" fill="#263238"/>
<path d="M243 184C243.109 184.825 244.175 185.109 245 185C245.825 184.891 246.109 183.825 246 183C245.891 182.175 244.825 181.891 244 182C243.175 182.109 242.891 183.175 243 184Z" fill="#263238"/>
<path d="M247 181L243 180C243.18 179.093 243.902 178.822 245 179C246.098 179.178 247.18 180.101 247 181Z" fill="#263238"/>
<path d="M239 185L240 191L244 189L239 185Z" fill="#F0997A"/>
<path d="M235 193C235.698 192.351 236.418 193.827 238 194C239.553 194.173 240.666 193.135 241 194C241.275 194.718 240.624 196.156 238 196C235.759 195.87 234.381 193.571 235 193Z" fill="#B16668"/>
<path d="M238 193C237.063 192.911 236.473 193.055 236 193C236 193 236.875 193.863 238 194C239.348 194.158 240 194 240 194V193C239.554 192.986 238.893 193.09 238 193Z" fill="#FAFAFA"/>
<path d="M238 196C238.57 196.043 238.583 196.117 239 196C238.41 194.775 237.374 193.819 236 194C235.725 194.032 235.234 193.904 235 194C235.387 194.831 236.707 195.904 238 196Z" fill="#F28F8F"/>
<path d="M241 202C237.452 202.22 234.347 202.045 230 200C228.37 199.238 226.902 197.684 226 196C226 196 227.237 199.537 229 201C233.634 204.829 241 204 241 204V202Z" fill="#F0997A"/>
<path d="M236.038 196C235.978 196.03 235.998 196.02 236.038 196V196Z" fill="#B16668"/>
<path d="M215.549 207.325C208.452 208.469 205.886 211.573 204.412 217.345C203.259 221.882 201.455 228.34 200.192 233.404C199.48 236.25 198.428 240.907 199.38 245.912C200.152 249.952 203.38 264.728 203.54 264.778C203.68 265.634 203.821 266.459 203.881 266.867C204.302 269.584 203.841 271.833 205.595 276.27C206.417 278.34 207.58 280.877 209.976 281.743C210.537 281.942 211.159 282.042 211.63 282.38C211.9 282.569 212.111 282.828 212.352 283.057C212.642 283.335 212.973 283.574 213.344 283.753C213.544 283.853 213.755 283.942 213.985 283.922C214.336 283.902 214.627 283.663 214.978 283.624C215.359 283.584 215.71 283.813 215.98 284.071C216.241 284.33 216.472 284.629 216.782 284.828C217.103 285.027 217.564 285.086 217.845 284.828C218.045 284.649 218.085 284.38 218.095 284.121C218.166 281.683 215.95 278.022 215.008 275.862C214.697 275.156 213.765 273.325 214.396 272.569C214.777 272.111 216.131 273.843 216.371 274.071C216.812 274.469 217.153 274.798 217.765 274.937C218.216 275.037 218.837 275.116 219.228 274.847C219.659 274.559 219.439 274.221 219.228 273.892C218.045 272.131 217.133 270.24 215.98 268.459C214.627 266.38 213.404 265.275 213.163 263.027C212.923 260.788 212.341 243.773 212.341 243.773L217.003 223.703C217.564 220.658 220.642 211.374 215.559 207.315L215.549 207.325Z" fill="#FFBDA7"/>
<path d="M216.091 206.568C210.768 207.514 206.187 208.081 204.042 215.215C201.295 224.37 199.14 233.713 199.14 233.713C199.14 233.713 208.663 238.4 214.978 235.643L218.577 218.529C219.92 209.175 216.091 206.568 216.091 206.568Z" fill="#F5F5F5"/>
<path d="M215.91 207.205C216.602 207.862 219.068 210.797 217.975 218.449L214.447 235.215C213.334 235.653 212.031 235.892 210.577 235.912C206.056 235.992 201.265 234.021 199.831 233.375C200.302 231.365 202.247 223.265 204.613 215.384C206.578 208.847 210.577 208.141 215.64 207.245L215.92 207.195M216.091 206.558C210.768 207.504 206.187 208.071 204.042 215.205C201.295 224.36 199.14 233.703 199.14 233.703C199.14 233.703 205.014 236.598 210.597 236.499C212.121 236.469 213.625 236.22 214.978 235.633L218.577 218.519C219.92 209.165 216.091 206.558 216.091 206.558Z" fill="#E0E0E0"/>
<path d="M411.791 269.681L404.547 265.516C404.348 265.406 404.088 265.396 403.808 265.526L398.862 267.758C398.812 267.338 398.842 266.897 399.012 266.557L404.717 255.024C405.017 254.433 404.787 253.672 404.208 253.342L398.013 249.758C398.013 249.758 397.993 249.758 397.983 249.748L390.78 245.603C390.21 245.273 389.441 245.453 389.071 246.003L381.958 256.726C381.758 257.036 381.398 257.276 381.018 257.447L380.469 252.01C380.439 251.7 380.299 251.47 380.109 251.36L372.856 247.185C372.646 247.075 372.366 247.085 372.076 247.255L362.455 252.821C361.886 253.152 361.366 253.963 361.306 254.623L360.347 265.356C360.287 266.016 359.837 266.907 359.348 267.358C357.48 269.09 355.691 270.992 354.003 273.025C353.583 273.535 352.734 273.775 352.114 273.565L345.94 271.403C345.31 271.182 344.541 271.473 344.201 272.043L337.128 284.318C336.798 284.888 336.938 285.709 337.438 286.15L342.393 290.425C342.893 290.855 343.102 291.716 342.873 292.337C341.953 294.82 341.204 297.323 340.645 299.815C340.495 300.466 339.955 301.297 339.416 301.688L330.624 307.885C330.084 308.265 329.645 309.116 329.645 309.777V320.91C329.645 321.25 329.774 321.5 329.984 321.631L337.228 325.795C337.428 325.905 337.687 325.915 337.977 325.785L342.923 323.553C342.973 323.973 342.943 324.414 342.773 324.754L337.068 336.287C336.768 336.878 336.998 337.639 337.577 337.969L346.28 342.975C346.28 342.975 346.28 342.975 346.29 342.975L351.005 345.708C351.585 346.039 352.344 345.858 352.714 345.308L359.827 334.585C360.027 334.275 360.387 334.035 360.767 333.865L361.316 339.301C361.346 339.621 361.486 339.841 361.686 339.962L368.919 344.126C369.129 344.247 369.409 344.237 369.709 344.066L379.33 338.5C379.899 338.17 380.419 337.359 380.479 336.698L381.438 325.965C381.498 325.305 381.948 324.414 382.437 323.963C384.306 322.231 386.094 320.329 387.782 318.297C388.202 317.786 389.051 317.536 389.671 317.756L395.845 319.919C396.475 320.139 397.244 319.848 397.584 319.278L404.657 307.004C404.987 306.433 404.847 305.612 404.348 305.182L399.392 300.907C398.892 300.476 398.683 299.615 398.912 298.994C399.832 296.512 400.581 294.009 401.14 291.526C401.29 290.875 401.83 290.044 402.369 289.654L411.161 283.457C411.701 283.076 412.141 282.225 412.141 281.564V270.432C412.141 270.091 412.011 269.841 411.801 269.721L411.791 269.681ZM358.249 307.134C358.249 296.742 365.522 284.117 374.504 278.921C378.011 276.889 381.258 276.298 383.916 276.959C385.285 278.871 386.024 281.785 386.024 285.599C386.024 295.991 378.75 308.616 369.769 313.812C366.262 315.844 363.274 316.495 360.936 315.944C359.238 313.952 358.249 310.968 358.249 307.144V307.134Z" fill="#00812A"/>
<path opacity="0.4" d="M411.791 269.681L404.547 265.516C404.348 265.406 404.088 265.396 403.808 265.526L398.862 267.758C398.812 267.338 398.842 266.897 399.012 266.557L404.717 255.024C405.017 254.433 404.787 253.672 404.208 253.342L398.013 249.758C398.013 249.758 397.993 249.758 397.983 249.748L390.78 245.603C390.21 245.273 389.441 245.453 389.071 246.003L381.958 256.726C381.758 257.036 381.398 257.276 381.018 257.447L380.469 252.01C380.439 251.7 380.299 251.47 380.109 251.36L372.856 247.185C372.646 247.075 372.366 247.085 372.076 247.255L362.455 252.821C361.886 253.152 361.366 253.963 361.306 254.623L360.347 265.356C360.287 266.016 359.837 266.907 359.348 267.358C357.48 269.09 355.691 270.992 354.003 273.025C353.583 273.535 352.734 273.775 352.114 273.565L345.94 271.403C345.31 271.182 344.541 271.473 344.201 272.043L337.128 284.318C336.798 284.888 336.938 285.709 337.438 286.15L342.393 290.425C342.893 290.855 343.102 291.716 342.873 292.337C341.953 294.82 341.204 297.323 340.645 299.815C340.495 300.466 339.955 301.297 339.416 301.688L330.624 307.885C330.084 308.265 329.645 309.116 329.645 309.777V320.91C329.645 321.25 329.774 321.5 329.984 321.631L337.228 325.795C337.428 325.905 337.687 325.915 337.977 325.785L342.923 323.553C342.973 323.973 342.943 324.414 342.773 324.754L337.068 336.287C336.768 336.878 336.998 337.639 337.577 337.969L346.28 342.975C346.28 342.975 346.28 342.975 346.29 342.975L351.005 345.708C351.585 346.039 352.344 345.858 352.714 345.308L359.827 334.585C360.027 334.275 360.387 334.035 360.767 333.865L361.316 339.301C361.346 339.621 361.486 339.841 361.686 339.962L368.919 344.126C369.129 344.247 369.409 344.237 369.709 344.066L379.33 338.5C379.899 338.17 380.419 337.359 380.479 336.698L381.438 325.965C381.498 325.305 381.948 324.414 382.437 323.963C384.306 322.231 386.094 320.329 387.782 318.297C388.202 317.786 389.051 317.536 389.671 317.756L395.845 319.919C396.475 320.139 397.244 319.848 397.584 319.278L404.657 307.004C404.987 306.433 404.847 305.612 404.348 305.182L399.392 300.907C398.892 300.476 398.683 299.615 398.912 298.994C399.832 296.512 400.581 294.009 401.14 291.526C401.29 290.875 401.83 290.044 402.369 289.654L411.161 283.457C411.701 283.076 412.141 282.225 412.141 281.564V270.432C412.141 270.091 412.011 269.841 411.801 269.721L411.791 269.681ZM358.249 307.134C358.249 296.742 365.522 284.117 374.504 278.921C378.011 276.889 381.258 276.298 383.916 276.959C385.285 278.871 386.024 281.785 386.024 285.599C386.024 295.991 378.75 308.616 369.769 313.812C366.262 315.844 363.274 316.495 360.936 315.944C359.238 313.952 358.249 310.968 358.249 307.144V307.134Z" fill="white"/>
<path opacity="0.3" d="M347.958 322.562C347.759 321.931 347.139 321.621 346.53 321.901L342.923 323.533C342.983 323.963 342.923 324.404 342.763 324.744L337.048 336.277C336.758 336.878 336.978 337.619 337.558 337.959L346.25 342.965L344.791 342.114C344.212 341.784 343.992 341.033 344.282 340.442L349.997 328.909C350.286 328.308 350.216 327.397 349.867 326.827C349.097 325.565 348.458 324.153 347.958 322.572V322.562ZM368.82 344.066C368.67 343.936 368.56 343.726 368.53 343.456L367.591 334.085C367.521 333.424 366.961 333.034 366.302 333.174C364.683 333.524 363.135 333.684 361.666 333.644C361.376 333.644 361.047 333.714 360.737 333.845L361.286 339.281C361.326 339.601 361.456 339.832 361.656 339.932L368.81 344.056L368.82 344.066Z" fill="#00812A"/>
<path opacity="0.3" d="M390.75 288.322C390.75 298.714 383.477 311.339 374.505 316.535C368.83 319.818 363.834 319.348 360.927 315.934C363.255 316.505 366.252 315.844 369.779 313.801C378.761 308.605 386.024 295.981 386.024 285.589C386.024 281.785 385.295 278.871 383.926 276.949C388.062 277.96 390.75 282.005 390.75 288.322Z" fill="#00812A"/>
<path d="M390.77 245.593C390.2 245.263 389.441 245.443 389.071 246.003L381.948 256.726C381.838 256.896 381.668 257.046 381.478 257.176L388.722 261.351C388.911 261.221 389.081 261.061 389.191 260.88L396.305 250.158C396.644 249.658 397.314 249.467 397.863 249.688L390.77 245.603V245.593ZM404.537 265.496C404.348 265.396 404.088 265.396 403.788 265.516L398.842 267.758C398.892 268.079 398.992 268.379 399.132 268.629C399.862 269.831 400.481 271.182 400.961 272.674C400.991 272.744 401.021 272.804 401.041 272.884C401.1 273.055 401.18 273.205 401.3 273.325C401.34 273.365 401.38 273.405 401.42 273.435C401.5 273.505 401.6 273.545 401.7 273.585C401.86 273.645 402.04 273.655 402.229 273.615C402.309 273.615 402.389 273.575 402.469 273.535L411.032 269.661C411.111 269.621 411.171 269.601 411.251 269.581C411.351 269.55 411.461 269.54 411.541 269.581C411.631 269.581 411.721 269.621 411.791 269.671L404.537 265.486V265.496ZM372.846 247.165C372.636 247.055 372.366 247.075 372.076 247.245L362.455 252.811C362.055 253.041 361.696 253.492 361.496 253.973L368.719 258.137C368.929 257.657 369.299 257.196 369.689 256.976L379.31 251.4C379.58 251.249 379.84 251.219 380.049 251.309L372.856 247.175L372.846 247.165ZM340.085 300.947C339.885 301.227 339.656 301.497 339.416 301.668L330.624 307.865C330.394 308.025 330.204 308.275 330.034 308.535L337.258 312.69C337.418 312.42 337.627 312.18 337.857 312.029L346.649 305.832C346.889 305.662 347.119 305.402 347.329 305.111L340.085 300.947ZM345.43 271.313C344.941 271.333 344.451 271.593 344.191 272.033L337.118 284.308C336.968 284.578 336.918 284.898 336.958 285.209L344.191 289.383C344.142 289.073 344.191 288.753 344.351 288.472L351.435 276.188C351.665 275.778 352.114 275.527 352.574 275.477L345.43 271.313Z" fill="#00812A"/>
<path opacity="0.7" d="M390.77 245.593C390.2 245.263 389.441 245.443 389.071 246.003L381.948 256.726C381.838 256.896 381.668 257.046 381.478 257.176L388.722 261.351C388.911 261.221 389.081 261.061 389.191 260.88L396.305 250.158C396.644 249.658 397.314 249.467 397.863 249.688L390.77 245.603V245.593ZM404.537 265.496C404.348 265.396 404.088 265.396 403.788 265.516L398.842 267.758C398.892 268.079 398.992 268.379 399.132 268.629C399.862 269.831 400.481 271.182 400.961 272.674C400.991 272.744 401.021 272.804 401.041 272.884C401.1 273.055 401.18 273.205 401.3 273.325C401.34 273.365 401.38 273.405 401.42 273.435C401.5 273.505 401.6 273.545 401.7 273.585C401.86 273.645 402.04 273.655 402.229 273.615C402.309 273.615 402.389 273.575 402.469 273.535L411.032 269.661C411.111 269.621 411.171 269.601 411.251 269.581C411.351 269.55 411.461 269.54 411.541 269.581C411.631 269.581 411.721 269.621 411.791 269.671L404.537 265.486V265.496ZM372.846 247.165C372.636 247.055 372.366 247.075 372.076 247.245L362.455 252.811C362.055 253.041 361.696 253.492 361.496 253.973L368.719 258.137C368.929 257.657 369.299 257.196 369.689 256.976L379.31 251.4C379.58 251.249 379.84 251.219 380.049 251.309L372.856 247.175L372.846 247.165ZM340.085 300.947C339.885 301.227 339.656 301.497 339.416 301.668L330.624 307.865C330.394 308.025 330.204 308.275 330.034 308.535L337.258 312.69C337.418 312.42 337.627 312.18 337.857 312.029L346.649 305.832C346.889 305.662 347.119 305.402 347.329 305.111L340.085 300.947ZM345.43 271.313C344.941 271.333 344.451 271.593 344.191 272.033L337.118 284.308C336.968 284.578 336.918 284.898 336.958 285.209L344.191 289.383C344.142 289.073 344.191 288.753 344.351 288.472L351.435 276.188C351.665 275.778 352.114 275.527 352.574 275.477L345.43 271.313Z" fill="white"/>
<path d="M412.131 281.524V270.391C412.131 269.731 411.641 269.41 411.032 269.681L402.469 273.545C401.86 273.815 401.24 273.515 401.041 272.884C400.541 271.303 399.902 269.891 399.132 268.629C398.783 268.059 398.703 267.148 399.002 266.547L404.707 255.014C405.007 254.423 404.777 253.662 404.198 253.332L398.003 249.748C397.434 249.417 396.665 249.598 396.295 250.148L389.181 260.871C388.812 261.421 387.982 261.812 387.323 261.802C385.854 261.762 384.306 261.912 382.687 262.272C382.038 262.412 381.468 262.022 381.398 261.361L380.459 251.99C380.389 251.33 379.87 251.059 379.3 251.4L369.679 256.966C369.109 257.296 368.59 258.107 368.53 258.768L367.571 269.5C367.511 270.161 367.061 271.052 366.572 271.503C364.703 273.235 362.915 275.137 361.226 277.169C360.807 277.68 359.957 277.93 359.338 277.71L353.164 275.547C352.534 275.327 351.765 275.617 351.425 276.188L344.351 288.462C344.022 289.033 344.162 289.854 344.661 290.294L349.617 294.569C350.116 295 350.326 295.861 350.096 296.482C349.177 298.964 348.428 301.467 347.868 303.95C347.718 304.601 347.179 305.432 346.639 305.822L337.847 312.019C337.308 312.4 336.868 313.251 336.868 313.912V325.044C336.868 325.705 337.358 326.026 337.967 325.755L346.529 321.891C347.139 321.62 347.758 321.921 347.958 322.552C348.458 324.133 349.097 325.545 349.866 326.806C350.216 327.377 350.286 328.288 349.996 328.889L344.291 340.422C344.002 341.013 344.222 341.774 344.801 342.104L350.995 345.688C351.565 346.019 352.334 345.838 352.704 345.288L359.818 334.565C360.187 334.015 361.016 333.624 361.676 333.634C363.145 333.674 364.693 333.524 366.312 333.164C366.961 333.024 367.531 333.414 367.601 334.075L368.54 343.446C368.61 344.106 369.129 344.377 369.699 344.046L379.32 338.48C379.89 338.15 380.409 337.339 380.469 336.678L381.428 325.945C381.488 325.285 381.938 324.394 382.427 323.943C384.296 322.211 386.084 320.309 387.772 318.277C388.192 317.766 389.041 317.516 389.661 317.736L395.835 319.899C396.465 320.119 397.234 319.828 397.574 319.258L404.647 306.984C404.977 306.413 404.837 305.592 404.338 305.152L399.382 300.877C398.883 300.446 398.673 299.585 398.903 298.964C399.822 296.482 400.571 293.979 401.131 291.496C401.28 290.845 401.82 290.014 402.359 289.624L411.152 283.427C411.691 283.046 412.131 282.195 412.131 281.534V281.524ZM374.504 316.535C365.522 321.731 358.249 317.516 358.249 307.134C358.249 296.742 365.522 284.117 374.504 278.921C383.486 273.725 390.76 277.94 390.76 288.322C390.76 298.704 383.486 311.339 374.504 316.535Z" fill="#00812A"/>
<path opacity="0.55" d="M412.131 281.524V270.391C412.131 269.731 411.641 269.41 411.032 269.681L402.469 273.545C401.86 273.815 401.24 273.515 401.041 272.884C400.541 271.303 399.902 269.891 399.132 268.629C398.783 268.059 398.703 267.148 399.002 266.547L404.707 255.014C405.007 254.423 404.777 253.662 404.198 253.332L398.003 249.748C397.434 249.417 396.665 249.598 396.295 250.148L389.181 260.871C388.812 261.421 387.982 261.812 387.323 261.802C385.854 261.762 384.306 261.912 382.687 262.272C382.038 262.412 381.468 262.022 381.398 261.361L380.459 251.99C380.389 251.33 379.87 251.059 379.3 251.4L369.679 256.966C369.109 257.296 368.59 258.107 368.53 258.768L367.571 269.5C367.511 270.161 367.061 271.052 366.572 271.503C364.703 273.235 362.915 275.137 361.226 277.169C360.807 277.68 359.957 277.93 359.338 277.71L353.164 275.547C352.534 275.327 351.765 275.617 351.425 276.188L344.351 288.462C344.022 289.033 344.162 289.854 344.661 290.294L349.617 294.569C350.116 295 350.326 295.861 350.096 296.482C349.177 298.964 348.428 301.467 347.868 303.95C347.718 304.601 347.179 305.432 346.639 305.822L337.847 312.019C337.308 312.4 336.868 313.251 336.868 313.912V325.044C336.868 325.705 337.358 326.026 337.967 325.755L346.529 321.891C347.139 321.62 347.758 321.921 347.958 322.552C348.458 324.133 349.097 325.545 349.866 326.806C350.216 327.377 350.286 328.288 349.996 328.889L344.291 340.422C344.002 341.013 344.222 341.774 344.801 342.104L350.995 345.688C351.565 346.019 352.334 345.838 352.704 345.288L359.818 334.565C360.187 334.015 361.016 333.624 361.676 333.634C363.145 333.674 364.693 333.524 366.312 333.164C366.961 333.024 367.531 333.414 367.601 334.075L368.54 343.446C368.61 344.106 369.129 344.377 369.699 344.046L379.32 338.48C379.89 338.15 380.409 337.339 380.469 336.678L381.428 325.945C381.488 325.285 381.938 324.394 382.427 323.943C384.296 322.211 386.084 320.309 387.772 318.277C388.192 317.766 389.041 317.516 389.661 317.736L395.835 319.899C396.465 320.119 397.234 319.828 397.574 319.258L404.647 306.984C404.977 306.413 404.837 305.592 404.338 305.152L399.382 300.877C398.883 300.446 398.673 299.585 398.903 298.964C399.822 296.482 400.571 293.979 401.131 291.496C401.28 290.845 401.82 290.014 402.359 289.624L411.152 283.427C411.691 283.046 412.131 282.195 412.131 281.534V281.524ZM374.504 316.535C365.522 321.731 358.249 317.516 358.249 307.134C358.249 296.742 365.522 284.117 374.504 278.921C383.486 273.725 390.76 277.94 390.76 288.322C390.76 298.704 383.486 311.339 374.504 316.535Z" fill="white"/>
<g opacity="0.55">
<path d="M397.384 250.408C397.464 250.408 397.544 250.428 397.604 250.469L403.798 254.053C403.998 254.173 404.088 254.453 403.978 254.663L398.273 266.197C397.864 267.028 397.934 268.239 398.443 269.07C399.183 270.281 399.802 271.653 400.272 273.145C400.531 273.956 401.211 274.476 402.02 274.476C402.29 274.476 402.55 274.416 402.809 274.306L411.322 270.462V281.534C411.322 281.935 411.012 282.535 410.682 282.766L401.89 288.963C401.191 289.453 400.521 290.465 400.332 291.326C399.792 293.738 399.053 296.221 398.133 298.694C397.784 299.645 398.094 300.857 398.843 301.507L403.798 305.782C403.998 305.962 404.068 306.343 403.938 306.583L396.865 318.857C396.765 319.038 396.515 319.168 396.275 319.168C396.215 319.168 396.155 319.168 396.105 319.138L389.931 316.975C389.691 316.895 389.431 316.845 389.162 316.845C388.382 316.845 387.603 317.195 387.143 317.756C385.465 319.788 383.686 321.671 381.878 323.342C381.239 323.933 380.689 325.024 380.619 325.875L379.66 336.608C379.62 337.008 379.26 337.569 378.921 337.769L369.349 343.305L368.42 334.005C368.32 333.034 367.551 332.333 366.592 332.333C366.442 332.333 366.302 332.353 366.152 332.383C364.783 332.683 363.425 332.843 362.136 332.843C361.996 332.843 361.856 332.843 361.716 332.843H361.656C360.707 332.843 359.648 333.384 359.158 334.135L352.045 344.857C351.965 344.977 351.805 345.058 351.645 345.058C351.565 345.058 351.485 345.037 351.425 344.997L345.231 341.413C345.031 341.293 344.941 341.013 345.051 340.803L350.756 329.269C351.166 328.438 351.096 327.227 350.596 326.396C349.857 325.185 349.237 323.813 348.768 322.321C348.508 321.51 347.829 320.99 347.019 320.99C346.75 320.99 346.49 321.05 346.23 321.16L337.718 325.004V313.932C337.718 313.531 338.027 312.93 338.357 312.7L347.149 306.503C347.849 306.013 348.518 305.001 348.708 304.14C349.247 301.728 349.987 299.245 350.906 296.772C351.256 295.821 350.956 294.609 350.197 293.959L345.241 289.684C345.041 289.504 344.971 289.123 345.101 288.883L352.175 276.609C352.275 276.428 352.524 276.298 352.764 276.298C352.824 276.298 352.884 276.298 352.934 276.328L359.108 278.491C359.348 278.571 359.608 278.621 359.878 278.621C360.657 278.621 361.436 278.271 361.896 277.71C363.575 275.678 365.353 273.795 367.161 272.123C367.801 271.533 368.35 270.442 368.42 269.591L369.379 258.858C369.419 258.458 369.779 257.897 370.119 257.697L379.69 252.16L380.619 261.461C380.719 262.432 381.488 263.133 382.448 263.133C382.597 263.133 382.747 263.113 382.887 263.083C384.256 262.783 385.605 262.623 386.894 262.623C387.033 262.623 387.173 262.623 387.323 262.623H387.383C388.332 262.623 389.381 262.082 389.881 261.331L396.995 250.609C397.074 250.489 397.224 250.408 397.394 250.408M367.251 319.578C369.659 319.578 372.247 318.797 374.914 317.245C384.106 311.929 391.579 298.954 391.579 288.322C391.579 284.578 390.65 281.434 388.902 279.232C387.153 277.039 384.686 275.878 381.768 275.878C379.36 275.878 376.773 276.659 374.105 278.211C364.913 283.527 357.44 296.502 357.44 307.134C357.44 314.693 361.287 319.578 367.251 319.578ZM397.394 249.588C396.975 249.588 396.565 249.788 396.315 250.158L389.202 260.881C388.842 261.421 388.033 261.812 387.383 261.812C387.373 261.812 387.353 261.812 387.343 261.812C387.193 261.812 387.043 261.812 386.894 261.812C385.555 261.812 384.156 261.972 382.707 262.292C382.617 262.312 382.528 262.322 382.438 262.322C381.908 262.322 381.478 261.952 381.419 261.381L380.479 252.01C380.429 251.54 380.16 251.269 379.8 251.269C379.65 251.269 379.49 251.32 379.32 251.41L369.699 256.976C369.13 257.306 368.61 258.117 368.55 258.778L367.591 269.51C367.531 270.171 367.081 271.062 366.592 271.513C364.723 273.245 362.935 275.147 361.247 277.179C360.927 277.56 360.377 277.8 359.858 277.8C359.688 277.8 359.518 277.77 359.358 277.72L353.184 275.557C353.044 275.507 352.894 275.487 352.744 275.487C352.235 275.487 351.705 275.758 351.455 276.208L344.382 288.482C344.052 289.053 344.192 289.874 344.691 290.314L349.647 294.589C350.147 295.02 350.356 295.881 350.127 296.502C349.207 298.984 348.458 301.487 347.899 303.97C347.749 304.621 347.209 305.452 346.67 305.842L337.878 312.039C337.338 312.42 336.898 313.271 336.898 313.932V325.064C336.898 325.565 337.178 325.875 337.578 325.875C337.708 325.875 337.848 325.845 337.997 325.775L346.56 321.911C346.71 321.841 346.859 321.811 347.009 321.811C347.449 321.811 347.839 322.101 347.988 322.572C348.488 324.153 349.127 325.565 349.897 326.827C350.246 327.397 350.316 328.308 350.027 328.909L344.322 340.442C344.022 341.033 344.252 341.794 344.831 342.124L351.026 345.708C351.226 345.818 351.435 345.878 351.655 345.878C352.075 345.878 352.484 345.678 352.734 345.308L359.848 334.585C360.208 334.045 361.017 333.654 361.666 333.654C361.676 333.654 361.696 333.654 361.706 333.654C361.856 333.654 361.996 333.654 362.146 333.654C363.485 333.654 364.883 333.494 366.332 333.174C366.422 333.154 366.512 333.144 366.602 333.144C367.131 333.144 367.561 333.514 367.621 334.085L368.56 343.456C368.61 343.926 368.88 344.197 369.239 344.197C369.389 344.197 369.549 344.146 369.719 344.056L379.34 338.49C379.91 338.16 380.429 337.349 380.489 336.688L381.448 325.955C381.508 325.295 381.958 324.404 382.448 323.953C384.316 322.221 386.104 320.319 387.793 318.287C388.113 317.906 388.662 317.666 389.182 317.666C389.351 317.666 389.521 317.696 389.681 317.746L395.856 319.909C395.995 319.959 396.145 319.979 396.295 319.979C396.805 319.979 397.334 319.708 397.584 319.258L404.658 306.984C404.987 306.413 404.847 305.592 404.348 305.152L399.392 300.877C398.893 300.446 398.683 299.585 398.913 298.964C399.832 296.482 400.581 293.979 401.141 291.496C401.291 290.845 401.83 290.014 402.37 289.624L411.162 283.427C411.701 283.046 412.141 282.195 412.141 281.534V270.401C412.141 269.901 411.861 269.591 411.462 269.591C411.332 269.591 411.192 269.621 411.042 269.691L402.48 273.555C402.33 273.625 402.18 273.655 402.03 273.655C401.59 273.655 401.201 273.365 401.051 272.894C400.551 271.313 399.912 269.901 399.143 268.639C398.793 268.069 398.713 267.158 399.013 266.557L404.718 255.024C405.017 254.433 404.788 253.672 404.208 253.342L398.014 249.758C397.814 249.648 397.604 249.588 397.384 249.588H397.394ZM367.251 318.757C361.916 318.757 358.259 314.502 358.259 307.124C358.259 296.732 365.533 284.107 374.515 278.911C377.122 277.4 379.59 276.689 381.778 276.689C387.113 276.689 390.77 280.944 390.77 288.322C390.77 298.714 383.497 311.339 374.515 316.535C371.907 318.046 369.439 318.757 367.251 318.757Z" fill="white"/>
</g>
<path d="M417.885 212.455C417.965 211.714 418.444 210.703 418.994 210.192L423.54 205.997C424.089 205.497 424.429 204.486 424.299 203.755L423.44 198.779C423.38 198.439 423.22 198.208 423 198.088L417.615 194.965C417.355 194.814 417.016 194.834 416.676 195.065L414.718 196.356L416.606 191.24C416.816 190.66 416.576 190.099 416.087 189.829H416.107L410.711 186.695C410.601 186.635 410.492 186.585 410.352 186.555L406.925 185.784C406.195 185.624 405.326 186.024 404.986 186.685L401.769 192.832C401.53 193.293 401.02 193.733 400.491 194.024L400.341 193.533C400.251 193.253 400.101 193.052 399.911 192.932L394.506 189.809C394.216 189.648 393.846 189.679 393.497 189.959L388.361 194.003C387.772 194.464 387.342 195.445 387.382 196.186L387.692 201.082C387.742 201.823 387.372 202.874 386.893 203.454C386.053 204.466 385.254 205.517 384.505 206.618C384.085 207.239 383.156 207.719 382.417 207.679L379.12 207.519C378.38 207.479 377.531 208.01 377.221 208.69L374.114 215.658C373.834 216.279 374.074 216.99 374.644 217.33L378.3 219.453C378.42 219.753 378.46 220.084 378.39 220.404C378.141 221.525 377.941 222.636 377.821 223.728C377.741 224.469 377.261 225.48 376.712 225.99L372.166 230.185C371.616 230.686 371.277 231.697 371.407 232.428L372.266 237.403C372.326 237.724 372.476 237.954 372.675 238.074L378.101 241.218C378.36 241.358 378.69 241.338 379.03 241.118L380.988 239.826L379.1 244.942C378.89 245.503 379.1 246.053 379.549 246.334L384.964 249.467V249.447C385.084 249.517 385.204 249.588 385.354 249.618L388.781 250.388C389.51 250.549 390.38 250.148 390.719 249.487L393.936 243.34C394.176 242.88 394.686 242.439 395.215 242.149L395.365 242.64C395.455 242.93 395.615 243.13 395.805 243.24L401.17 246.344L401.23 246.384C401.52 246.524 401.869 246.494 402.209 246.224L407.344 242.179C407.934 241.718 408.363 240.737 408.323 239.996L408.014 235.101C407.964 234.36 408.333 233.309 408.813 232.728C409.652 231.717 410.452 230.666 411.201 229.564C411.621 228.944 412.55 228.463 413.289 228.503L416.586 228.663C417.325 228.703 418.175 228.173 418.484 227.492L421.592 220.524C421.891 219.843 421.592 219.052 420.902 218.762L418.235 217.621C417.545 217.33 417.156 216.509 417.315 215.779C417.565 214.657 417.765 213.546 417.885 212.455ZM390.489 227.582C389.48 221.725 393.177 213.426 398.742 209.041C400.79 207.429 402.808 206.568 404.597 206.428C404.877 207.039 405.096 207.749 405.236 208.58C406.245 214.437 402.549 222.737 396.984 227.122C394.935 228.734 392.927 229.584 391.149 229.735C390.859 229.104 390.629 228.393 390.489 227.582Z" fill="#263238"/>
<path opacity="0.1" d="M385.393 238.505C384.974 237.884 384.194 237.674 383.575 238.094L380.977 239.806L379.089 244.922C378.889 245.473 379.089 246.023 379.549 246.314L384.904 249.407C384.484 249.117 384.314 248.586 384.504 248.046L386.822 241.759C387.072 241.068 386.802 240.137 386.293 239.596C385.973 239.266 385.673 238.905 385.403 238.515L385.393 238.505ZM401.199 246.344C401.009 246.234 400.849 246.033 400.76 245.753L399.601 241.899C399.391 241.188 398.671 240.878 397.982 241.158C397.273 241.458 396.563 241.688 395.874 241.859C395.664 241.909 395.424 242.009 395.205 242.139L395.354 242.64C395.454 242.93 395.604 243.13 395.804 243.23L401.199 246.354V246.344Z" fill="black"/>
<path opacity="0.1" d="M402.388 230.245C397.583 234.03 392.967 233.669 391.148 229.725C392.927 229.585 394.935 228.724 396.983 227.122C402.548 222.737 406.245 214.437 405.236 208.58C405.086 207.749 404.876 207.039 404.586 206.438C407.644 206.168 410.002 208.01 410.641 211.704C411.65 217.571 407.953 225.86 402.388 230.245Z" fill="black"/>
<path d="M383.376 207.459C383.056 207.589 382.727 207.679 382.437 207.659L379.13 207.499C378.66 207.479 378.151 207.669 377.761 208L383.166 211.123C383.556 210.803 384.066 210.603 384.535 210.623L387.842 210.783C388.142 210.803 388.472 210.733 388.781 210.603L383.376 207.459ZM394.516 189.809C394.226 189.638 393.857 189.669 393.507 189.949L388.362 193.993C387.982 194.294 387.682 194.814 387.512 195.345L392.918 198.469C393.077 197.938 393.387 197.417 393.767 197.117L398.892 193.082C399.252 192.802 399.622 192.762 399.911 192.942L394.506 189.809H394.516ZM376.662 226.02L372.166 230.165C371.826 230.476 371.597 230.966 371.467 231.457L376.862 234.57C376.982 234.07 377.242 233.589 377.571 233.289L382.067 229.154L376.662 226.02ZM410.732 186.705C410.622 186.645 410.512 186.585 410.372 186.565L406.945 185.794C406.226 185.634 405.356 186.034 405.007 186.695L401.78 192.842C401.62 193.143 401.36 193.423 401.05 193.673L406.455 196.797C406.765 196.556 407.025 196.266 407.185 195.966L410.412 189.819C410.752 189.158 411.621 188.757 412.35 188.918L415.777 189.689C415.907 189.719 416.017 189.759 416.127 189.819L410.732 186.705ZM417.635 194.975C417.386 194.834 417.046 194.844 416.696 195.075L414.748 196.366L414.308 197.528C414.059 198.228 414.328 199.159 414.848 199.7C415.168 200.03 415.447 200.391 415.727 200.781C415.797 200.881 415.877 200.962 415.957 201.052C416.017 201.102 416.097 201.162 416.157 201.202C416.307 201.302 416.456 201.352 416.616 201.382C416.816 201.422 417.016 201.412 417.216 201.352C417.326 201.332 417.436 201.282 417.545 201.202L422.091 198.208C422.211 198.138 422.321 198.078 422.431 198.048C422.571 198.008 422.701 197.998 422.811 198.028C422.881 198.038 422.961 198.058 423.021 198.088L417.625 194.975H417.635Z" fill="#37474F"/>
<path d="M424.309 203.755L423.45 198.779C423.32 198.048 422.721 197.778 422.091 198.188L417.545 201.182C416.926 201.592 416.147 201.382 415.717 200.771C415.447 200.381 415.147 200.02 414.828 199.68C414.318 199.139 414.038 198.208 414.298 197.507L416.616 191.22C416.876 190.519 416.496 189.819 415.767 189.658L412.34 188.888C411.611 188.727 410.741 189.128 410.402 189.789L407.185 195.936C406.835 196.596 405.956 197.217 405.236 197.407C404.547 197.588 403.838 197.818 403.128 198.108C402.439 198.389 401.72 198.078 401.51 197.367L400.351 193.513C400.141 192.802 399.492 192.592 398.902 193.052L393.767 197.097C393.177 197.558 392.748 198.539 392.788 199.28L393.097 204.175C393.147 204.916 392.778 205.967 392.298 206.548C391.459 207.559 390.659 208.61 389.91 209.712C389.49 210.322 388.561 210.813 387.822 210.773L384.525 210.613C383.786 210.573 382.936 211.103 382.627 211.784L379.519 218.752C379.22 219.433 379.519 220.224 380.209 220.514L382.876 221.655C383.566 221.946 383.955 222.767 383.796 223.497C383.546 224.619 383.346 225.73 383.226 226.821C383.146 227.562 382.667 228.573 382.117 229.084L377.571 233.279C377.022 233.779 376.682 234.79 376.812 235.521L377.671 240.497C377.801 241.228 378.4 241.498 379.03 241.088L383.576 238.094C384.195 237.684 384.975 237.894 385.404 238.505C385.674 238.895 385.974 239.256 386.293 239.596C386.803 240.137 387.083 241.068 386.823 241.768L384.505 248.056C384.245 248.757 384.625 249.457 385.354 249.618L388.781 250.388C389.51 250.549 390.38 250.148 390.719 249.487L393.937 243.34C394.286 242.68 395.165 242.059 395.885 241.879C396.574 241.698 397.274 241.468 397.993 241.178C398.682 240.897 399.402 241.208 399.611 241.919L400.77 245.773C400.99 246.484 401.63 246.694 402.219 246.234L407.354 242.189C407.944 241.728 408.374 240.747 408.334 240.006L408.024 235.111C407.974 234.37 408.344 233.319 408.823 232.738C409.662 231.727 410.462 230.676 411.211 229.574C411.631 228.954 412.56 228.473 413.299 228.513L416.596 228.673C417.336 228.713 418.185 228.193 418.494 227.502L421.602 220.534C421.901 219.853 421.602 219.062 420.912 218.772L418.245 217.631C417.555 217.34 417.166 216.519 417.326 215.789C417.575 214.667 417.775 213.556 417.895 212.465C417.975 211.724 418.455 210.713 419.004 210.202L423.55 206.007C424.099 205.507 424.439 204.496 424.309 203.765V203.755ZM402.379 230.245C396.814 234.63 391.489 233.439 390.48 227.582C389.47 221.725 393.167 213.426 398.732 209.041C404.297 204.656 409.622 205.847 410.632 211.704C411.641 217.561 407.944 225.86 402.379 230.245Z" fill="#455A64"/>
</g>
<defs>
<clipPath id="clip0_172_4915">
<rect width="446" height="434" fill="white"/>
</clipPath>
</defs>
</svg>
