<svg xmlns="http://www.w3.org/2000/svg" width="490" height="465" viewBox="0 0 490 465" fill="none">
<g clip-path="url(#clip0_172_2949)">
<path d="M314.837 12.4726L314.838 12.4728C322.361 15.0588 330.445 18.3488 337.806 21.4605C370.524 35.3131 401.049 53.5566 428.691 75.3923L429 75L428.691 75.3924C461.613 101.39 486.404 138.217 468.541 179.803C464.502 189.206 459.333 198.083 454.162 206.963C451.575 211.404 448.989 215.847 446.543 220.355C439.226 233.844 433.219 247.858 432.501 263.978C432.089 273.177 432.757 282.486 433.422 291.763C433.697 295.593 433.971 299.417 434.169 303.227C434.847 316.294 434.633 329.237 430.525 341.845C421.37 369.938 400.753 391.685 376.713 408.591C317.193 450.453 265.184 452.543 213.131 438.517C190.196 432.338 173.893 423.489 158.527 415.15C156.459 414.028 154.408 412.914 152.36 411.818C135.091 402.575 118.063 394.551 93.0413 392.502C57.9264 389.63 30.7838 367.512 15.1626 338.477C-0.462071 309.435 -4.52777 273.527 6.47055 243.17C11.5073 229.27 20.4564 217.751 30.4262 206.85C33.8902 203.063 37.4841 199.344 41.0778 195.625C47.8008 188.669 54.523 181.713 60.3922 174.311C69.6209 162.676 76.4288 149.926 82.5315 136.83C85.1024 131.312 87.5417 125.749 89.983 120.181C93.3512 112.5 96.7231 104.809 100.449 97.2204C113.058 71.5557 130.009 50.1858 154.273 34.4193C200.22 4.5815 262.439 -5.61374 314.837 12.4726Z" stroke="black"/>
<g opacity="0.7">
<path d="M338 21C330.637 17.8871 322.54 14.5917 315 12C262.442 -6.14173 200.063 4.08714 154 34C129.647 49.8251 112.64 71.2715 100 97C87.1548 123.163 78.3872 150.82 60.0005 174C42.0106 196.688 16.1418 215.013 6.00046 243C-16.1047 304.013 22.3638 387.223 93.0005 393C142.84 397.083 160.824 424.941 213 439C265.177 453.059 317.343 450.959 377 409C401.09 392.06 421.8 370.233 431 342C439.275 316.604 431.839 289.931 433 264C434.426 231.988 456.86 208.262 469 180C487.005 138.084 461.967 101.033 429 75C401.325 53.1373 370.761 34.8705 338 21Z" fill="white"/>
<path d="M314.837 12.4726L314.838 12.4728C322.361 15.0588 330.445 18.3488 337.806 21.4605C370.524 35.3131 401.049 53.5566 428.691 75.3923L429 75L428.691 75.3924C461.613 101.39 486.404 138.217 468.541 179.803C464.502 189.206 459.333 198.083 454.162 206.963C451.575 211.404 448.989 215.847 446.543 220.355C439.226 233.844 433.219 247.858 432.501 263.978C432.089 273.177 432.757 282.486 433.422 291.763C433.697 295.593 433.971 299.417 434.169 303.227C434.847 316.294 434.633 329.237 430.525 341.845C421.37 369.938 400.753 391.685 376.713 408.591C317.193 450.453 265.184 452.543 213.131 438.517C190.196 432.338 173.893 423.489 158.527 415.15C156.459 414.028 154.408 412.914 152.36 411.818C135.091 402.575 118.063 394.551 93.0413 392.502C57.9264 389.63 30.7838 367.512 15.1626 338.477C-0.462071 309.435 -4.52777 273.527 6.47055 243.17C11.5073 229.27 20.4564 217.751 30.4262 206.85C33.8902 203.063 37.4841 199.344 41.0778 195.625C47.8008 188.669 54.523 181.713 60.3922 174.311C69.6209 162.676 76.4288 149.926 82.5315 136.83C85.1024 131.312 87.5417 125.749 89.983 120.181C93.3512 112.5 96.7231 104.809 100.449 97.2204C113.058 71.5557 130.009 50.1858 154.273 34.4193C200.22 4.5815 262.439 -5.61374 314.837 12.4726Z" stroke="black"/>
</g>
<path d="M384.071 351.638C459.866 277.086 459.866 156.914 384.071 82.3621C308.277 7.81002 185.389 7.10878 109.595 81.6609C33.8001 156.213 33.8001 277.787 109.595 352.339C185.389 426.891 308.277 426.19 384.071 351.638Z" fill="white" stroke="#263238" stroke-miterlimit="10"/>
<path d="M246 388C142.309 388 57.3471 307.724 52.0002 207C51.8239 210.353 52.0002 213.604 52.0002 217C52.0002 322.421 138.857 408 246 408C353.143 408 440 322.421 440 217C440 213.604 440.191 210.353 440 207C434.653 307.724 349.691 388 246 388Z" fill="#263238"/>
<path d="M246 388C142.309 388 57.3471 307.724 52.0002 207C51.8239 210.353 52.0002 213.604 52.0002 217C52.0002 322.421 138.857 408 246 408C353.143 408 440 322.421 440 217C440 213.604 440.191 210.353 440 207C434.653 307.724 349.691 388 246 388Z" stroke="#263238" stroke-miterlimit="10"/>
<path d="M236 132L241 139L254 143L257 153L249 156V158L262 163L269 162L272 157L271 148L263 145L258 137L240 129L236 132Z" fill="#00812A"/>
<path d="M236 132L241 139L254 143L257 153L249 156V158L262 163L269 162L272 157L271 148L263 145L258 137L240 129L236 132Z" stroke="#263238" stroke-miterlimit="10"/>
<path d="M356 338L341 333L323 326H309L295 323L281 327H272H267L258 332L249 336L236 328L239 316L232 313H222L221 308L222 300L219 296L212 297L210 301L203 302L196 294L193 283L200 270L213 271L217 274H222L229 270L235 272L243 286L247 285L246 275L243 269L244 261L261 254L263 237L271 231L277 220H281L292 213V209L285 210L283 206H278L271 208L274 202L290 197L294 193L301 203L305 207L311 206L308 200L299 193L288 181L276 173L265 171L260 166L252 164L251 166L250 179L252 183L248 198L239 191L240 184L231 180L226 175L229 163L242 154L243 143H238L235 139L233 133L230 132L228 139L223 140L221 124L217 122L211 119L203 123L213 132L214 139L198 127L186 115V103L174 99L164 105C164 105 159.304 108.089 157 109C154.696 109.911 146 110 146 110L145 118H134L135 123L152 126L161 136V152L156 166L157 181L144 203L141 236L145 255L151 269L158 270L156 263L152 258L150 248L154 247L160 263L165 278V289L174 300L189 311L213 318L220 324L226 332L234 337L244 339H255C255 339 254 343.729 254 346C254 348.271 248 356 248 356L243 365L246 375L256 379L271 393L277 396V403L278 406C314.598 400.184 347.307 384.032 374 361L375 358L387 336L381 332L356 338Z" fill="#00812A"/>
<path d="M356 338L341 333L323 326H309L295 323L281 327H272H267L258 332L249 336L236 328L239 316L232 313H222L221 308L222 300L219 296L212 297L210 301L203 302L196 294L193 283L200 270L213 271L217 274H222L229 270L235 272L243 286L247 285L246 275L243 269L244 261L261 254L263 237L271 231L277 220H281L292 213V209L285 210L283 206H278L271 208L274 202L290 197L294 193L301 203L305 207L311 206L308 200L299 193L288 181L276 173L265 171L260 166L252 164L251 166L250 179L252 183L248 198L239 191L240 184L231 180L226 175L229 163L242 154L243 143H238L235 139L233 133L230 132L228 139L223 140L221 124L217 122L211 119L203 123L213 132L214 139L198 127L186 115V103L174 99L164 105C164 105 159.304 108.089 157 109C154.696 109.911 146 110 146 110L145 118H134L135 123L152 126L161 136V152L156 166L157 181L144 203L141 236L145 255L151 269L158 270L156 263L152 258L150 248L154 247L160 263L165 278V289L174 300L189 311L213 318L220 324L226 332L234 337L244 339H255C255 339 254 343.729 254 346C254 348.271 248 356 248 356L243 365L246 375L256 379L271 393L277 396V403L278 406C314.598 400.184 347.307 384.032 374 361L375 358L387 336L381 332L356 338Z" stroke="#263238" stroke-miterlimit="10"/>
<path d="M404 159L399 151L392 141L391 127L399 128V124L393 123L398 121L404 118V113L398 106L397 96C361.452 53.0699 307.529 26 247 26C219.48 26 193.704 31.7786 170 42L180 49L174 57L165 59L164 72L161 73L156 78V86L164 87L161 95H169L182 78L184 71L196 70L200 64L213 63L214 55H224C224 55 230.62 51 232 51C233.38 51 240 53 240 53L247 59H257L265 54L276 55C276 55 278.696 57 281 57C283.304 57 290 53 290 53L303 62L309 66V72L316 73L318 69L324 72L323 76L310 79L317 89L334 98L341 107L351 108L353 104L357 103L345 94L338 93L344 91L338 83H346L356 88L358 99L363 105L368 118L378 126V141L388 147V152L387 158L389 167L390 171L398 172L402 164L404 159Z" fill="#00812A"/>
<path d="M404 159L399 151L392 141L391 127L399 128V124L393 123L398 121L404 118V113L398 106L397 96C361.452 53.0699 307.529 26 247 26C219.48 26 193.704 31.7786 170 42L180 49L174 57L165 59L164 72L161 73L156 78V86L164 87L161 95H169L182 78L184 71L196 70L200 64L213 63L214 55H224C224 55 230.62 51 232 51C233.38 51 240 53 240 53L247 59H257L265 54L276 55C276 55 278.696 57 281 57C283.304 57 290 53 290 53L303 62L309 66V72L316 73L318 69L324 72L323 76L310 79L317 89L334 98L341 107L351 108L353 104L357 103L345 94L338 93L344 91L338 83H346L356 88L358 99L363 105L368 118L378 126V141L388 147V152L387 158L389 167L390 171L398 172L402 164L404 159Z" stroke="#263238" stroke-miterlimit="10"/>
<path d="M410 113V116L408 123L409 129L414 131V140L409 137L407 162L402 172L406 185L412 190V215L417 234L424 248L434 251L438 242L440 241C440.975 233.204 441 225.057 441 217C441 178.685 429.471 142.924 410 113Z" fill="#00812A"/>
<path d="M410 113V116L408 123L409 129L414 131V140L409 137L407 162L402 172L406 185L412 190V215L417 234L424 248L434 251L438 242L440 241C440.975 233.204 441 225.057 441 217C441 178.685 429.471 142.924 410 113Z" stroke="#263238" stroke-miterlimit="10"/>
<path d="M304 110L273 97H260L257 106L251 100L241 102L240 117L248 123L254 115L261 122L276 134L278 147L291 162L310 159V152L305 144L304 126L309 118L304 110Z" fill="#00812A"/>
<path d="M304 110L273 97H260L257 106L251 100L241 102L240 117L248 123L254 115L261 122L276 134L278 147L291 162L310 159V152L305 144L304 126L309 118L304 110Z" stroke="#263238" stroke-miterlimit="10"/>
<path d="M328 121L321 119L315 124L318 137H324L328 121Z" fill="#00812A"/>
<path d="M328 121L321 119L315 124L318 137H324L328 121Z" stroke="#263238" stroke-miterlimit="10"/>
<path d="M372 130L356 121L353 116L349 117L352 126L355 138L362 141L364 139L359 132L372 137V130Z" fill="#00812A"/>
<path d="M372 130L356 121L353 116L349 117L352 126L355 138L362 141L364 139L359 132L372 137V130Z" stroke="#263238" stroke-miterlimit="10"/>
<path d="M237 293L235 295L249 299L254 305L263 306L266 301L256 299L237 293Z" fill="#00812A"/>
<path d="M237 293L235 295L249 299L254 305L263 306L266 301L256 299L237 293Z" stroke="#263238" stroke-miterlimit="10"/>
<path d="M278 302L268 305L269 308H282L284 305H280L278 302Z" fill="#00812A"/>
<path d="M278 302L268 305L269 308H282L284 305H280L278 302Z" stroke="#263238" stroke-miterlimit="10"/>
<path d="M272 246C277.692 254.212 282.249 263.858 286 274C295.792 300.465 295.764 326.952 288 348" stroke="#263238" stroke-miterlimit="10"/>
<path d="M263 223C262.221 221.737 260.337 221.311 259 222C257.413 222.833 257.206 225.421 258 227L265 240L260 249L259 247C258.618 246.411 257.646 246.713 257 247C256.25 247.345 256.603 248.311 257 249L259 252L256 259L254 257C253.618 256.397 252.631 255.67 252 256C251.28 255.785 250.632 256.368 251 257L254 262L252 267C251.192 268.723 251.162 271.277 252 273L253 274L262 261C262 261 268.799 252.823 274 254L282 268V269L278 278L279 282L287 274L288 276C288.044 276.172 288.103 276.144 288 276V274L299 272L296 268L286 267L279 253C278.662 250.961 279.312 247.761 283 247C288.451 245.88 307 246 307 246L305 244C303.957 242.665 302.689 241.287 301 241L296 240L294 236C293.618 235.411 292.646 235.713 292 236C291.25 236.345 290.603 236.311 291 237L293 240L285 238L283 234C282.618 233.411 281.646 233.713 281 234C280.25 234.345 279.603 235.311 280 236L282 238L271 236L263 223Z" fill="white"/>
<path d="M265.437 240.243L265.57 240.004L265.44 239.763L258.443 226.769C258.1 226.082 257.965 225.151 258.101 224.299C258.237 223.44 258.628 222.761 259.23 222.444C259.779 222.161 260.459 222.101 261.091 222.254C261.725 222.407 262.267 222.764 262.574 223.262L270.574 236.262L270.691 236.452L270.91 236.492L281.91 238.492L283.485 238.778L282.353 237.646L280.41 235.703C280.356 235.567 280.366 235.368 280.507 235.114C280.663 234.833 280.932 234.582 281.206 234.456C281.513 234.319 281.858 234.199 282.149 234.169C282.424 234.141 282.524 234.201 282.569 234.256L284.553 238.224L284.655 238.429L284.878 238.485L292.878 240.485L294.133 240.799L293.416 239.723L291.434 236.751C291.485 236.731 291.55 236.707 291.637 236.677L291.662 236.668C291.813 236.615 292.005 236.548 292.205 236.456C292.513 236.32 292.858 236.199 293.149 236.169C293.424 236.141 293.524 236.201 293.569 236.256L295.553 240.224L295.662 240.442L295.902 240.49L300.902 241.49L300.909 241.492L300.916 241.493C302.395 241.744 303.557 242.966 304.606 244.308L304.625 244.332L304.646 244.354L305.789 245.496C305.313 245.496 304.712 245.496 304.015 245.499C302.188 245.505 299.696 245.525 297.033 245.58C291.731 245.69 285.679 245.939 282.899 246.51L282.899 246.51C280.906 246.921 279.694 248.009 279.044 249.295C278.405 250.56 278.324 251.982 278.506 253.082L278.519 253.156L278.552 253.224L285.553 267.224L285.676 267.47L285.95 267.498L295.731 268.476L298.114 271.653L287.91 273.508L287.5 273.583V273.882L287.447 273.776L287.137 273.156L286.646 273.646L279.271 281.022L278.527 278.046L282.457 269.203L282.5 269.106V269V268V267.867L282.434 267.752L274.434 253.752L274.325 253.561L274.11 253.512C272.665 253.185 271.15 253.515 269.729 254.139C268.305 254.765 266.929 255.706 265.735 256.67C264.539 257.635 263.511 258.636 262.783 259.394C262.418 259.774 262.128 260.094 261.928 260.319C261.828 260.432 261.75 260.522 261.698 260.583C261.671 260.614 261.651 260.638 261.637 260.654L261.621 260.673L261.617 260.678L261.616 260.68L261.615 260.68C261.615 260.68 261.615 260.68 262 261L261.615 260.68L261.601 260.697L261.589 260.715L252.93 273.223L252.414 272.708C251.682 271.127 251.717 268.781 252.452 267.212L252.459 267.199L252.464 267.186L254.464 262.186L254.556 261.955L254.428 261.743L251.432 256.749C251.431 256.748 251.431 256.747 251.431 256.746C251.391 256.677 251.392 256.636 251.395 256.619C251.397 256.599 251.408 256.572 251.439 256.543C251.503 256.481 251.653 256.418 251.856 256.479L252.051 256.537L252.231 256.443C252.312 256.401 252.512 256.391 252.843 256.583C253.151 256.761 253.432 257.038 253.577 257.268L253.607 257.314L253.646 257.354L255.646 259.354L256.168 259.876L256.459 259.197L259.459 252.197L259.566 251.948L259.416 251.723L257.425 248.737C257.241 248.414 257.098 248.077 257.066 247.812C257.051 247.682 257.067 247.605 257.085 247.563C257.099 247.533 257.124 247.494 257.206 247.455C257.513 247.319 257.858 247.199 258.149 247.169C258.424 247.141 258.524 247.201 258.569 247.256L259.552 249.224L259.976 250.071L260.437 249.243L265.437 240.243Z" stroke="black"/>
<path d="M181 294C113.077 294 58 234.899 58 162C58 89.101 113.077 30 181 30C187.463 30 193.802 30.972 200 32" stroke="#263238" stroke-miterlimit="10"/>
<g filter="url(#filter0_d_172_2949)">
<path d="M192 301C193.494 301.189 194.736 300.468 195 299C195.308 297.241 193.758 295.378 192 295L178 292L173 282L175 283C175.703 283.073 176.839 282.683 177 282C177.19 281.215 175.791 280.116 175 280L171 279L168 272L171 273C171.718 273.073 171.868 272.712 172 272C172.615 271.578 172.733 270.102 172 270L166 269L164 265C163.121 263.285 160.89 261.422 159 261H158L162 276C162 276 165.146 285.701 161 289L144 287L139 278L135 277L136 287H134C133.824 287 133.839 286.927 134 287L136 288L131 298L135 299L143 291L158 295C159.846 296.003 162.67 297.657 161 301C158.524 305.927 147 321 147 321H150C151.714 321.029 152.725 320.134 154 319L158 316L163 317C163.703 317.073 163.839 316.683 164 316C164.19 315.215 163.791 314.116 163 314H161L166 309H171C171.703 309.073 172.839 308.683 173 308C173.19 307.215 171.791 307.116 171 307L169 306L177 299L192 301Z" fill="white"/>
<path d="M177.66 292.439L177.553 292.224L172.553 282.224L171.882 280.882L173.224 281.553L175.134 282.508C175.381 282.516 175.71 282.455 176.001 282.326C176.345 282.174 176.487 281.996 176.513 281.885L176.514 281.882C176.521 281.852 176.524 281.767 176.44 281.611C176.357 281.46 176.217 281.288 176.031 281.119C175.646 280.768 175.187 280.533 174.927 280.495L174.903 280.491L174.879 280.485L170.879 279.485L170.638 279.425L170.54 279.197L167.54 272.197L167.102 271.174L168.158 271.526L171.102 272.507C171.209 272.514 171.269 272.504 171.298 272.495C171.323 272.488 171.329 272.482 171.338 272.472C171.353 272.453 171.381 272.41 171.414 272.31C171.447 272.211 171.476 272.082 171.508 271.909L171.546 271.705L171.717 271.587C171.769 271.552 171.841 271.47 171.904 271.326C171.964 271.186 172 271.02 172.006 270.863C172.011 270.701 171.983 270.586 171.951 270.526C171.942 270.508 171.935 270.499 171.931 270.495C171.931 270.495 171.931 270.495 171.931 270.495L171.918 270.493L171.918 270.493L165.918 269.493L165.667 269.451L165.553 269.224L163.555 265.228C163.555 265.227 163.554 265.227 163.554 265.226C163.154 264.446 162.429 263.604 161.564 262.903C160.715 262.215 159.776 261.698 158.943 261.5H158.651L162.48 275.859L162.486 275.877C162.492 275.897 162.501 275.926 162.512 275.963C162.535 276.038 162.568 276.146 162.608 276.285C162.687 276.563 162.796 276.962 162.913 277.451C163.147 278.427 163.416 279.767 163.553 281.216C163.689 282.661 163.697 284.238 163.395 285.679C163.092 287.121 162.47 288.469 161.311 289.391L161.148 289.521L160.942 289.497L143.942 287.497L143.687 287.467L143.563 287.243L138.668 278.432L135.568 277.657L136.498 286.95L136.552 287.5H136.118L136.224 287.553L136.671 287.776L136.447 288.224L131.726 297.666L134.847 298.446L142.646 290.646L142.85 290.443L143.129 290.517L158.129 294.517L158.186 294.532L158.239 294.561C159.151 295.056 160.414 295.765 161.216 296.82C161.626 297.358 161.925 297.996 161.993 298.748C162.062 299.498 161.898 300.321 161.447 301.223L161.447 301.225C160.186 303.733 156.657 308.77 153.476 313.142C151.879 315.337 150.359 317.377 149.239 318.868C148.74 319.533 148.32 320.088 148.008 320.5H150H150.008V320.5C151.503 320.525 152.377 319.774 153.668 318.626L153.683 318.613L153.7 318.6L157.7 315.6L157.879 315.466L158.098 315.51L163.073 316.505C163.191 316.515 163.25 316.503 163.276 316.495C163.294 316.489 163.303 316.483 163.316 316.467C163.336 316.443 163.367 316.392 163.403 316.288C163.44 316.185 163.473 316.055 163.513 315.885L163.514 315.882C163.581 315.607 163.545 315.25 163.412 314.955C163.285 314.674 163.114 314.535 162.956 314.5H161H159.793L160.646 313.646L165.646 308.646L165.793 308.5H166H171H171.026L171.051 308.503C171.304 308.529 171.676 308.47 172.001 308.326C172.345 308.174 172.487 307.996 172.513 307.885L172.514 307.882C172.515 307.878 172.516 307.875 172.517 307.873C172.484 307.841 172.396 307.784 172.214 307.725C171.921 307.63 171.562 307.582 171.21 307.534C171.115 307.521 171.02 307.508 170.927 307.495L170.848 307.483L170.776 307.447L168.776 306.447L168.11 306.114L168.671 305.624L176.671 298.624L176.841 298.474L177.066 298.504L192.063 300.504C192.063 300.504 192.064 300.504 192.064 300.504C192.717 300.586 193.278 300.466 193.692 300.2C194.098 299.94 194.399 299.517 194.508 298.913C194.631 298.207 194.385 297.441 193.88 296.789C193.374 296.137 192.645 295.65 191.895 295.489L177.66 292.439ZM177.66 292.439L177.895 292.489L191.895 295.489L177.66 292.439Z" stroke="black"/>
</g>
<path d="M61.9997 279C46.3283 270.365 33.1153 257.126 24.9997 240C4.14376 195.985 24.4288 142.829 69.9997 122C115.585 101.171 169.144 119.985 190 164C190.987 166.083 192.19 168.874 193 171" stroke="#263238" stroke-miterlimit="10"/>
<path d="M203 219C203.502 220.404 205.537 221.42 207 221C208.743 220.493 209.458 218.723 209 217L206 203L205 202L212 194L213 196C213.251 196.651 213.306 197.159 214 197C214.798 196.812 215.251 195.753 215 195L214 191L218 185L220 188C220.251 188.666 220.291 189.203 221 189C221.665 189.347 223.236 188.695 223 188L221 182L224 178C225.167 176.466 225.473 174.853 225 173L224 171L212 182C212 182 204.861 189.2 200 187L194 171L201 162L200 158L191 164L190 162C189.926 161.841 190 161.826 190 162V164H179L180 168L190 171V172L194 186C193.911 188.085 192.797 192 189 192C183.401 192 165 188 165 188L166 191C166.739 192.52 168.39 193.378 170 194L174 196L176 200C176.251 200.651 177.306 201.159 178 201C178.798 200.812 179.251 200.753 179 200L178 197L185 200L186 204C186.251 204.651 187.306 205.159 188 205C188.798 204.812 189.251 204.753 189 204L188 201L199 205L203 219Z" fill="white"/>
<path d="M208.511 217.105L208.514 217.117L208.517 217.128C208.923 218.658 208.279 220.107 206.861 220.52C206.283 220.685 205.54 220.575 204.863 220.237C204.191 219.901 203.675 219.386 203.476 218.846L199.481 204.863L199.411 204.617L199.171 204.53L188.171 200.53L187.198 200.176L187.526 201.158L188.526 204.158L188.526 204.158C188.553 204.241 188.564 204.294 188.567 204.326C188.536 204.341 188.481 204.363 188.389 204.39C188.285 204.42 188.168 204.447 188.022 204.481C187.979 204.491 187.935 204.502 187.887 204.513C187.689 204.558 187.373 204.513 187.055 204.356C186.748 204.204 186.549 204.003 186.476 203.843L185.485 199.879L185.425 199.638L185.197 199.54L178.197 196.54L177.174 196.102L177.526 197.158L178.526 200.158L178.526 200.158C178.553 200.241 178.564 200.294 178.567 200.326C178.536 200.341 178.481 200.363 178.389 200.39C178.285 200.42 178.168 200.447 178.022 200.481C177.98 200.491 177.935 200.502 177.887 200.513C177.689 200.558 177.373 200.513 177.055 200.356C176.733 200.197 176.53 199.984 176.467 199.82L176.458 199.798L176.447 199.776L174.447 195.776L174.373 195.627L174.224 195.553L170.224 193.553L170.202 193.542L170.18 193.534C168.585 192.917 167.117 192.123 166.464 190.81L165.751 188.672C166.263 188.781 166.985 188.933 167.861 189.115C169.676 189.49 172.154 189.991 174.808 190.491C180.091 191.488 186.143 192.5 189 192.5C191.108 192.5 192.481 191.398 193.316 190.044C194.138 188.712 194.453 187.122 194.5 186.021L194.503 185.94L194.481 185.863L190.5 171.93V171V170.628L190.144 170.521L180.416 167.603L179.64 164.5H190H190.5V164.118L190.553 164.224L190.806 164.73L191.277 164.416L199.687 158.81L200.456 161.885L193.605 170.693L193.434 170.914L193.532 171.176L199.532 187.176L199.605 187.37L199.794 187.455C201.15 188.069 202.636 188.014 204.056 187.63C205.476 187.246 206.872 186.524 208.092 185.747C209.314 184.968 210.378 184.121 211.134 183.47C211.514 183.144 211.817 182.866 212.026 182.669C212.131 182.571 212.212 182.492 212.268 182.438C212.296 182.411 212.317 182.39 212.332 182.375L212.346 182.361L223.849 171.816L224.528 173.175C224.946 174.862 224.664 176.301 223.602 177.697L223.6 177.7L220.6 181.7L220.443 181.91L220.526 182.158L222.521 188.143C222.516 188.151 222.508 188.164 222.492 188.183C222.432 188.258 222.309 188.353 222.128 188.437C221.952 188.519 221.755 188.573 221.578 188.59C221.391 188.609 221.278 188.581 221.232 188.557L221.055 188.464L220.863 188.519C220.801 188.537 220.762 188.542 220.741 188.543C220.714 188.503 220.681 188.432 220.634 188.298C220.62 188.259 220.603 188.21 220.584 188.155C220.55 188.053 220.508 187.931 220.468 187.824L220.448 187.77L220.416 187.723L218.416 184.723L218 184.099L217.584 184.723L213.584 190.723L213.461 190.907L213.515 191.121L214.515 195.121L214.52 195.14L214.526 195.158C214.603 195.39 214.579 195.709 214.442 195.997C214.305 196.284 214.097 196.463 213.887 196.513C213.81 196.53 213.769 196.53 213.752 196.529C213.75 196.526 213.747 196.522 213.744 196.517C213.716 196.478 213.682 196.408 213.633 196.278C213.613 196.224 213.593 196.168 213.57 196.103L213.558 196.07C213.531 195.993 213.501 195.908 213.467 195.82L213.458 195.798L213.447 195.776L212.447 193.776L212.114 193.11L211.624 193.671L204.624 201.671L204.316 202.023L204.646 202.354L205.542 203.249L208.511 217.105ZM222.525 188.131C222.525 188.131 222.525 188.133 222.523 188.137C222.524 188.133 222.525 188.131 222.525 188.131Z" stroke="black"/>
<path d="M449 294C449.344 293.671 449.672 293.329 450 293" stroke="#263238" stroke-miterlimit="10"/>
<path d="M452 291C480.766 252.49 485.801 200.719 461 159C443.849 130.161 415.761 111.866 384 105" stroke="#263238" stroke-miterlimit="10"/>
<path d="M382 104C381.663 103.899 381.337 104.101 381 104" stroke="#263238" stroke-miterlimit="10"/>
<path d="M441 301C440.285 302.296 440.716 304.237 442 305C443.532 305.907 445.037 304.483 446 303L454 291L465 290L464 292C463.679 292.619 463.416 293.611 464 294C464.671 294.446 465.62 293.691 466 293L468 290L476 289L474 292C473.664 292.634 474.387 292.626 475 293C475.175 293.706 475.635 294.634 476 294L479 288H484C485.912 287.798 487.934 286.584 489 285L490 284L474 282C474 282 463.62 280.968 462 276L470 262L481 260L484 257L473 255L474 253C474.073 252.842 474.117 252.87 474 253L472 254L465 246L463 250L467 259L458 272C456.394 273.339 453.539 274.722 451 272C447.249 267.982 438 253 438 253L437 255C436.358 256.555 436.401 258.43 437 260L438 264L436 269C435.679 269.619 436.416 269.611 437 270C437.671 270.446 438.62 270.691 439 270L440 268L442 274L440 279C439.679 279.619 440.416 280.611 441 281C441.671 281.446 441.62 280.691 442 280L444 278L448 288L441 301Z" fill="white"/>
<path d="M441.438 301.242L441.44 301.237L448.44 288.237L448.551 288.031L448.464 287.814L444.464 277.814L444.182 277.11L443.646 277.646L441.646 279.646L441.596 279.697L441.562 279.759C441.447 279.967 441.369 280.174 441.309 280.338C441.301 280.358 441.295 280.377 441.288 280.394C441.265 280.457 441.246 280.508 441.23 280.551C441.014 280.394 440.761 280.125 440.593 279.835C440.396 279.496 440.408 279.3 440.444 279.23L440.455 279.208L440.464 279.186L442.464 274.186L442.532 274.016L442.474 273.842L440.474 267.842L440.092 266.697L439.553 267.776L438.558 269.766C438.491 269.883 438.384 269.948 438.151 269.928C437.893 269.907 437.568 269.777 437.277 269.584C437.093 269.461 436.903 269.374 436.752 269.308C436.713 269.292 436.679 269.277 436.647 269.263C436.572 269.231 436.514 269.206 436.465 269.182L438.464 264.186L438.524 264.036L438.485 263.879L437.485 259.879L437.478 259.85L437.467 259.822C436.911 258.363 436.874 256.628 437.455 255.207L438.047 254.023C438.304 254.435 438.656 254.997 439.081 255.671C440.007 257.14 441.282 259.14 442.675 261.267C445.449 265.504 448.723 270.294 450.634 272.341C452.014 273.82 453.524 274.214 454.92 274.018C456.28 273.827 457.481 273.084 458.32 272.384L458.372 272.34L458.411 272.285L467.411 259.285L467.571 259.054L467.457 258.797L463.553 250.013L465.114 246.89L471.624 254.329L471.878 254.62L472.223 254.447L472.882 254.118L472.553 254.776L472.254 255.373L472.91 255.492L482.971 257.321L480.757 259.536L469.91 261.508L469.681 261.55L469.566 261.752L461.566 275.752L461.456 275.944L461.524 276.155C461.978 277.544 463.03 278.621 464.282 279.45C465.537 280.281 467.035 280.893 468.457 281.34C469.883 281.788 471.254 282.077 472.267 282.254C472.774 282.342 473.192 282.403 473.485 282.442C473.632 282.461 473.747 282.475 473.826 282.484C473.865 282.488 473.896 282.492 473.917 282.494L473.941 282.497L473.943 282.497L488.923 284.369L488.646 284.646L488.612 284.681L488.585 284.721C487.607 286.174 485.731 287.306 483.973 287.5H479H478.691L478.553 287.776L475.699 293.483C475.617 293.312 475.538 293.094 475.485 292.88L475.436 292.68L475.26 292.573C475.072 292.458 474.881 292.376 474.73 292.313C474.708 292.304 474.687 292.295 474.667 292.287C474.582 292.252 474.518 292.226 474.466 292.201L476.416 289.277L477.022 288.368L475.938 288.504L467.938 289.504L467.711 289.532L467.584 289.723L465.584 292.723L465.572 292.741L465.562 292.759C465.412 293.032 465.141 293.326 464.854 293.497C464.558 293.673 464.379 293.652 464.277 293.584C464.21 293.539 464.132 293.429 464.159 293.13C464.184 292.841 464.302 292.503 464.444 292.23L464.444 292.23L464.447 292.224L465.447 290.224L465.848 289.421L464.955 289.502L453.955 290.502L453.716 290.524L453.584 290.723L445.584 302.723L445.584 302.723L445.58 302.728C445.117 303.442 444.548 304.1 443.949 304.472C443.373 304.83 442.818 304.903 442.255 304.57C441.752 304.271 441.39 303.723 441.236 303.083C441.082 302.442 441.15 301.764 441.438 301.242ZM441.154 280.714C441.154 280.714 441.155 280.713 441.157 280.71C441.155 280.713 441.154 280.714 441.154 280.714ZM436.367 269.125C436.367 269.125 436.368 269.125 436.369 269.127C436.368 269.126 436.367 269.125 436.367 269.125ZM436.42 269.283C436.42 269.285 436.42 269.285 436.42 269.285L436.42 269.283ZM475.867 293.746C475.87 293.749 475.872 293.751 475.872 293.751C475.872 293.751 475.87 293.75 475.867 293.746ZM474.359 292.141C474.359 292.141 474.359 292.141 474.361 292.143C474.359 292.141 474.359 292.141 474.359 292.141ZM474.413 292.3C474.413 292.3 474.413 292.3 474.413 292.298L474.413 292.3Z" stroke="black"/>
<path d="M184 34C202.342 23.1677 222.533 17 244 17C324.528 17 390 102.278 390 207C390 267.077 368.514 320.247 335 355" stroke="#263238" stroke-miterlimit="10"/>
<path d="M303 391C302.109 392.205 301.831 394.071 303 395C304.388 396.118 306.831 396.35 308 395L317 384L318 383L328 384L327 386C326.591 386.566 326.488 387.536 327 388C327.599 388.537 328.518 387.639 329 387L331 384H339L337 387C336.591 387.595 337.43 388.55 338 389C338.073 389.74 338.547 389.595 339 389L343 384H348C349.929 384.058 351.714 383.437 353 382L354 381L338 377C338 377 328.906 375.196 328 370L337 356H338L349 357L351 354L341 350L342 348C342.088 347.84 342.146 347.898 342 348L340 349L334 340L332 344L335 353L334 354L324 365C322.217 366.118 319.148 367.063 317 364C313.843 359.486 306 343 306 343L305 345C304.152 346.466 303.62 348.36 304 350L306 355L303 359C302.591 359.566 302.488 360.536 303 361C303.599 361.537 304.518 360.639 305 360L306 358L308 365L305 369C304.591 369.566 304.488 370.536 305 371C305.599 371.537 306.518 371.639 307 371L309 369L311 380L302 391H303Z" fill="white"/>
<path d="M303.402 391.297L303.992 390.5H303.055L311.387 380.317L311.533 380.138L311.492 379.911L309.492 368.911L309.321 367.972L308.646 368.646L306.646 370.646L306.622 370.671L306.601 370.699C306.471 370.871 306.286 370.949 306.061 370.941C305.825 370.933 305.556 370.826 305.335 370.629C305.225 370.528 305.145 370.336 305.154 370.055C305.164 369.779 305.261 369.494 305.403 369.296L308.4 365.3L308.549 365.101L308.481 364.863L306.481 357.863L306.128 356.627L305.553 357.776L304.574 359.734C304.351 360.023 304.055 360.337 303.771 360.522C303.624 360.618 303.514 360.656 303.445 360.663C303.397 360.668 303.371 360.66 303.335 360.629C303.225 360.528 303.145 360.336 303.154 360.055C303.164 359.779 303.261 359.494 303.403 359.296L306.4 355.3L306.569 355.075L306.464 354.814L304.479 349.851C304.154 348.386 304.628 346.643 305.433 345.25L305.44 345.237L305.447 345.224L305.99 344.137C306.204 344.581 306.487 345.169 306.825 345.865C307.61 347.482 308.69 349.686 309.869 352.032C312.219 356.707 314.987 361.993 316.59 364.287L316.591 364.287C317.757 365.95 319.212 366.56 320.634 366.568C322.023 366.575 323.33 366.01 324.266 365.424L324.324 365.387L324.37 365.336L334.362 354.345L335.354 353.354L335.572 353.135L335.474 352.842L332.54 344.038L334.062 340.994L339.584 349.277L339.829 349.645L340.224 349.447L340.882 349.118L340.553 349.776L340.31 350.262L340.814 350.464L350.242 354.235L348.749 356.475L338.045 355.502L338.023 355.5H338H337H336.727L336.579 355.73L327.579 369.73L327.474 369.894L327.507 370.086C327.758 371.526 328.573 372.705 329.607 373.654C330.638 374.602 331.91 375.34 333.13 375.903C334.353 376.466 335.544 376.862 336.426 377.117C336.868 377.245 337.235 377.338 337.492 377.399C337.621 377.429 337.722 377.452 337.792 377.467C337.827 377.475 337.854 377.48 337.872 377.484L337.89 377.488L353.022 381.271L352.646 381.646L352.637 381.656L352.627 381.667C351.457 382.974 349.825 383.555 348.015 383.5L348.008 383.5H348H343H342.76L342.61 383.688L338.61 388.688L338.609 388.688L338.602 388.697C338.561 388.751 338.523 388.797 338.486 388.837L338.477 388.739L338.31 388.608C338.056 388.407 337.748 388.097 337.557 387.79C337.342 387.445 337.392 387.312 337.412 387.283L337.412 387.283L337.416 387.277L339.416 384.277L339.934 383.5H339H331H330.732L330.584 383.723L328.592 386.71C328.368 387.006 328.063 387.332 327.771 387.522C327.624 387.618 327.514 387.656 327.445 387.663C327.397 387.668 327.371 387.66 327.335 387.629C327.225 387.528 327.145 387.336 327.154 387.055C327.164 386.777 327.262 386.49 327.405 386.293L327.429 386.26L327.447 386.224L328.447 384.224L328.772 383.575L328.05 383.502L318.05 382.502L317.814 382.479L317.646 382.646L316.646 383.646L316.629 383.664L316.613 383.683L307.618 394.678C307.161 395.202 306.426 395.451 305.598 395.426C304.768 395.4 303.917 395.096 303.314 394.611L303.311 394.609C302.885 394.27 302.697 393.747 302.727 393.127C302.756 392.502 303.01 391.828 303.402 391.297Z" stroke="black"/>
<path d="M211 0C204.924 0 200 4.87346 200 11C200 17.1265 211 31 211 31C211 31 222 17.1265 222 11C222 4.87346 217.076 0 211 0ZM211 16C208.509 16 206 13.5123 206 11C206 8.48768 208.509 6 211 6C213.491 6 215 8.48768 215 11C215 13.5123 213.491 16 211 16Z" fill="#FF553D"/>
<path d="M366 51C359.925 51 355 55.8735 355 62C355 68.1265 366 82 366 82C366 82 377 68.1265 377 62C377 55.8735 372.075 51 366 51ZM366 67C363.509 67 361 64.5123 361 62C361 59.4877 363.509 57 366 57C368.491 57 370 59.4877 370 62C370 64.5123 368.491 67 366 67Z" fill="#FF553D"/>
<path d="M288 362C281.925 362 277 366.873 277 373C277 379.127 288 393 288 393C288 393 299 379.127 299 373C299 366.873 294.075 362 288 362ZM288 378C285.509 378 283 375.512 283 373C283 370.488 285.509 368 288 368C290.491 368 292 370.488 292 373C292 375.512 290.491 378 288 378Z" fill="#FF553D"/>
<path d="M209 230C202.925 230 198 234.873 198 241C198 247.127 209 261 209 261C209 261 220 247.127 220 241C220 234.873 215.075 230 209 230ZM209 246C206.509 246 204 243.512 204 241C204 238.488 206.509 236 209 236C211.491 236 213 238.488 213 241C213 243.512 211.491 246 209 246Z" fill="#FF553D"/>
</g>
<defs>
<filter id="filter0_d_172_2949" x="127" y="261" width="72.0391" height="68.0007" filterUnits="userSpaceOnUse" color-interpolation-filters="sRGB">
<feFlood flood-opacity="0" result="BackgroundImageFix"/>
<feColorMatrix in="SourceAlpha" type="matrix" values="0 0 0 0 0 0 0 0 0 0 0 0 0 0 0 0 0 0 127 0" result="hardAlpha"/>
<feOffset dy="4"/>
<feGaussianBlur stdDeviation="2"/>
<feComposite in2="hardAlpha" operator="out"/>
<feColorMatrix type="matrix" values="0 0 0 0 0 0 0 0 0 0 0 0 0 0 0 0 0 0 0.25 0"/>
<feBlend mode="normal" in2="BackgroundImageFix" result="effect1_dropShadow_172_2949"/>
<feBlend mode="normal" in="SourceGraphic" in2="effect1_dropShadow_172_2949" result="shape"/>
</filter>
<clipPath id="clip0_172_2949">
<rect width="490" height="465" fill="white"/>
</clipPath>
</defs>
</svg>