<svg width="500" height="500" viewBox="0 0 500 500" fill="none" xmlns="http://www.w3.org/2000/svg">
<g opacity="0.7">
<path d="M452 119C450.339 116.237 448.794 113.656 447 111C422.987 75.7025 382.8 50.9416 344 40C327.07 35.2737 309.565 32.5937 292 32C177.59 27.8956 135.859 122.674 98.9996 147C62.1403 171.326 5.84583 212.687 12.9996 300C18.3824 366.391 56.0735 430.119 125 459C132.786 462.27 140.855 464.77 149 467C165.497 471.479 181.919 474.31 199 475C251.117 477.322 293.608 464.654 335 433C344.625 425.642 354.513 416.911 367 416C376.074 415.339 384.485 419.221 375 428C363.844 438.311 376.695 458.095 405 444C452.274 420.455 471.835 369.645 481 318C492.205 254.603 486.368 176.301 452 119Z" fill="white"/>
</g>
<path d="M465 148H288C287.911 147.999 287.077 148.046 287 148C286.923 147.954 287.044 148.078 287 148C286.956 147.924 287 147.088 287 147C286.956 147.076 287 146.912 287 147C287.219 146.641 292.779 138.777 299 137C302.17 136.092 305.69 138.013 309 140C312.31 141.987 315.006 143.627 317 142C317.997 141.191 318.854 140.108 320 139C323.878 135.157 328.494 130.679 336 130C340.895 129.541 344.089 131.093 347 133C349.911 134.907 352.119 136.607 355 135C356.455 134.161 358.206 131.955 360 129C365.104 120.565 374.022 105.716 397 109C425.241 112.993 432.093 133.005 433 136C434.613 135.823 435.531 134.689 437 134C440.18 132.722 444.178 131.674 450 134C458.762 137.514 464.751 146.601 465 147C465.047 147.077 465 147.91 465 148C465.047 147.923 465 148.09 465 148C465.073 147.96 464.954 148.07 465 148C465.083 147.999 464.927 148.04 465 148ZM288 147H464C462.355 144.674 456.088 137.825 449 135C443.557 132.824 441.15 133.732 438 135C436.31 135.811 433.871 136.895 432 137C431.886 137.001 432.089 137.071 432 137C431.911 136.929 432.025 136.111 432 136C432 135.79 425.806 114.263 396 110C373.66 106.806 366.303 120.205 361 129C359.136 132.085 357.645 135.032 356 136C352.65 137.917 349.851 135.867 347 134C344.149 132.133 340.576 130.581 336 131C328.852 131.649 324.758 136.306 321 140C319.824 141.158 319.047 142.161 318 143C315.478 144.997 311.529 143.106 308 141C304.87 139.113 301.741 137.161 299 138C294.155 139.368 289.425 144.864 288 147Z" fill="#263238"/>
<path d="M161 211H33.9996C33.9112 210.999 33.0765 211.043 32.9996 211C32.9228 210.957 33.0455 211.075 32.9996 211C32.9559 210.923 32.9996 211.088 32.9996 211C32.9996 210.912 32.9559 210.077 32.9996 210C33.1593 209.743 36.4786 204.276 40.9996 203C43.335 202.337 46.5944 203.566 48.9996 205C51.4048 206.434 52.6623 207.068 53.9996 206C54.7182 205.426 56.1712 204.801 56.9996 204C59.7941 201.25 62.5704 198.495 67.9996 198C71.5725 197.683 74.9936 198.704 76.9996 200C79.0056 201.296 80.0535 202.108 81.9996 201C82.9976 200.426 83.772 198.998 84.9996 197C88.6823 190.975 95.4125 180.646 112 183C132.03 185.829 137.221 199.537 138 202C139.101 201.86 139.991 201.463 141 201C143.305 200.08 145.778 199.308 150 201C156.337 203.513 160.81 209.723 161 210C161 209.912 161.043 210.077 161 210C161 210.088 161.043 210.923 161 211C161.071 210.955 160.96 211.074 161 211C161.084 210.996 160.928 211.045 161 211ZM33.9996 210H160C158.662 208.18 154.81 203.909 150 202C146.147 200.467 143.235 201.12 141 202C139.771 202.584 138.36 202.931 137 203C136.887 203.001 137.088 203.068 137 203C136.911 202.932 137.027 203.108 137 203C137 202.842 133.247 187.007 112 184C96.0312 181.735 89.7821 191.807 85.9996 198C84.6523 200.206 84.2371 201.308 82.9996 202C80.5245 203.405 78.0855 202.355 75.9996 201C73.9137 199.645 72.2332 198.703 68.9996 199C63.9296 199.455 59.6843 202.369 56.9996 205C56.1613 205.821 55.7581 206.397 54.9996 207C53.1133 208.494 50.5745 207.484 47.9996 206C45.784 204.674 43.9158 203.456 41.9996 204C38.746 204.88 35.1673 208.298 33.9996 210Z" fill="#263238"/>
<path d="M208.999 75H128.999C128.91 75.0023 128.077 75.0433 127.999 75C127.921 74.9567 128.043 75.0765 127.999 75C127.952 74.9264 127.999 75.087 127.999 75C127.999 74.913 127.952 74.0737 127.999 74C128.1 73.8328 131.057 69.826 133.999 69C135.566 68.5674 136.503 70.115 137.999 71C139.496 71.885 141.246 72.5998 141.999 72C142.512 71.5796 142.535 70.4705 142.999 70C144.807 68.2498 147.434 66.3048 150.999 66C152.901 65.911 154.509 66.8398 155.999 68C157.415 68.9145 157.905 69.6096 158.999 69C159.839 68.2512 160.512 67.0043 160.999 66C163.369 62.175 167.264 55.5054 177.999 57C190.513 58.7503 194.347 67.1416 194.999 69C195.631 68.8972 196.418 68.2626 196.999 68C197.92 67.5438 198.968 68.0306 199.999 68C201.03 67.9694 202.053 67.5992 202.999 68C207.097 69.6028 209.879 73.8525 209.999 74C209.996 73.9119 210.048 74.0742 209.999 74C210.003 74.0881 210.042 74.9226 209.999 75C209.956 75.0774 210.077 74.9549 209.999 75C209.922 75.0451 209.089 74.9999 208.999 75ZM128.999 74H208.999C207.449 71.8875 205.401 70.1121 202.999 69C202.171 68.6438 200.903 68.9694 199.999 69C199.095 69.0306 197.8 68.5886 196.999 69C196.194 69.3765 195.891 69.9545 194.999 70C194.888 70.0006 194.087 70.0679 193.999 70C193.912 69.9321 194.024 70.1066 193.999 70C193.899 69.6067 191.437 59.8781 177.999 58C167.957 56.5841 164.42 62.1455 161.999 66C161.43 67.1436 161.011 68.2008 159.999 69C158.322 69.9833 157.345 69.8358 155.999 69C154.7 67.9615 152.675 66.9306 150.999 67C147.826 67.2753 145.697 69.3874 143.999 71C143.457 71.5211 142.532 71.5772 141.999 72C140.694 72.9833 139.586 72.9243 137.999 72C136.613 71.1937 135.144 69.6755 133.999 70C132.151 70.59 129.803 72.8692 128.999 74Z" fill="#263238"/>
<path d="M310 91C305.351 91.002 299.866 89.5815 296 87C292.134 84.4185 289.78 80.2945 288 76C286.22 71.7055 285.094 67.5595 286 63C286.907 58.4405 289.713 54.2871 293 51C296.287 47.7129 300.441 44.9064 305 44C309.56 43.0936 313.706 44.2201 318 46C322.295 47.7799 326.419 50.1339 329 54C331.582 57.8661 333.002 63.3513 333 68C332.992 74.2275 330.404 79.5965 326 84C321.597 88.4035 316.228 90.9921 310 91ZM310 45C305.55 44.998 300.701 46.5289 297 49C293.299 51.4711 290.705 54.8889 289 59C287.296 63.1111 286.133 67.6349 287 72C287.867 76.3652 290.854 79.8524 294 83C297.146 86.1476 300.635 89.131 305 90C309.365 90.869 313.888 89.7026 318 88C322.112 86.2974 325.527 83.7003 328 80C330.473 76.2997 332 71.4504 332 67C331.984 61.0421 329.215 56.211 325 52C320.785 47.789 315.958 45.0106 310 45Z" fill="#263238"/>
<path d="M311.001 38C310.868 38 310.094 38.0906 310.001 38C309.907 37.9094 310.001 38.1281 310.001 38V28C309.907 28.0906 310.001 27.8719 310.001 28C310.094 27.9094 310.868 28 311.001 28C310.907 27.9094 311.133 28 311.001 28C311.001 27.8719 311.094 28.0906 311.001 28V38C311.094 37.9094 311.001 38.1281 311.001 38C311.133 38 310.907 38.0906 311.001 38Z" fill="#263238"/>
<path d="M310.001 108C309.868 108 310.094 108.09 310.001 108C309.907 107.91 310.001 108.128 310.001 108V98C309.907 98.0903 310.001 97.8723 310.001 98C309.868 98 310.094 97.9097 310.001 98C310.133 98 310.907 97.9097 311.001 98C311.001 97.8723 311.094 98.0903 311.001 98V107C311.006 107.066 311.023 107.937 311.001 108C310.978 108.063 311.048 107.951 311.001 108C310.954 108.049 311.064 107.973 311.001 108C310.937 108.027 310.07 108 310.001 108Z" fill="#263238"/>
<path d="M332 48C331.858 47.9997 331.1 48.1006 331 48C330.903 47.9 331 47.1393 331 47C330.903 47.1 331 46.8607 331 47L338 40C337.863 40 338.098 39.9037 338 40C338.138 40 338.902 39.9037 339 40C338.973 39.936 339.049 40.0488 339 40C339.027 40.064 339 40.9306 339 41C339 41.0694 339.027 40.936 339 41C338.973 41.064 339.049 40.9512 339 41L332 48C332.135 47.9964 331.906 48.0974 332 48Z" fill="#263238"/>
<path d="M283.001 97C282.862 96.998 282.098 97.0993 282.001 97C281.951 96.9527 282.028 97.0635 282.001 97C281.973 96.9365 282.001 96.0692 282.001 96C281.973 96.0635 282.001 95.9308 282.001 96C281.951 96.0473 282.028 95.9365 282.001 96L289.001 89C288.937 89.0268 289.05 88.9506 289.001 89C288.931 89 289.065 88.9732 289.001 89C289.07 89 289.937 88.9732 290.001 89C289.952 88.9506 290.065 89.0268 290.001 89C290.097 89.0985 290.001 89.862 290.001 90C290.001 90.138 290.097 89.9015 290.001 90L283.001 97C283.069 96.9728 282.949 97.0525 283.001 97C283.075 97.0027 282.932 97.0272 283.001 97Z" fill="#263238"/>
<path d="M350 68H340C339.873 67.9975 340.09 68.0932 340 68C339.91 67.9068 340.003 68.1318 340 68C340 67.8674 339.91 67.0938 340 67C339.872 67 340.091 66.9063 340 67H350C349.91 66.9063 350.128 67 350 67C350.091 67.0938 350 67.8674 350 68C350.091 67.9063 350 68.1326 350 68C350.128 68 349.91 68.0938 350 68Z" fill="#263238"/>
<path d="M280 68H270C269.872 68 270.091 68.0938 270 68C269.91 67.9063 270 68.1326 270 68C270 67.8674 269.91 67.0938 270 67C269.872 67 270.091 66.9063 270 67H280C279.91 66.9063 280.128 67 280 67C280.091 67.0938 280 67.8674 280 68C280.025 67.9394 280 68.0657 280 68C280.045 67.9536 279.976 68.0607 280 68C280.059 67.9749 279.956 68.0464 280 68C280.064 68 279.942 68.0251 280 68Z" fill="#263238"/>
<path d="M338.001 97C337.932 97.0009 338.064 97.0272 338.001 97C337.937 96.9729 338.048 97.0505 338.001 97L331.001 90C330.904 89.9017 331.001 90.1376 331.001 90C331.001 89.8624 330.904 89.0983 331.001 89C330.937 89.0267 331.05 88.9507 331.001 89C331.065 88.9733 331.931 89 332.001 89C331.937 88.9733 332.07 89 332.001 89C331.952 88.9507 332.065 89.0267 332.001 89L339.001 96C338.981 95.899 339.073 96.0735 339.001 96C339.021 96.101 339.04 96.9049 339.001 97C338.962 97.0952 339.086 96.9422 339.001 97C338.916 97.0579 338.104 96.9986 338.001 97Z" fill="#263238"/>
<path d="M289 48C288.862 47.998 289.097 48.099 289 48L282 41C281.951 40.9512 282.027 41.064 282 41C281.974 40.936 282 41.0694 282 41C282 40.9306 281.974 40.064 282 40C281.951 40.0488 282.027 39.936 282 40C282.1 39.9031 282.861 40 283 40C282.9 39.9031 283.14 40 283 40L290 47C290 46.8608 290.097 47.1 290 47C290 47.1393 290.097 47.9 290 48C289.9 48.1006 289.142 47.9997 289 48Z" fill="#263238"/>
<path d="M364 195C364 195 368.621 194.542 370 195C371.379 195.458 369 197 369 197C369.821 197.557 370.631 198.078 371 199C371.684 200.612 369 200 369 200C369.246 200.288 369 200.62 369 201C369 201.38 369.246 201.712 369 202C368.087 202.926 364 198 364 198C364 198 360.758 200.229 358 200C355.242 199.771 353.835 198.757 352 196C351.06 194.528 350.191 193.276 349 192L347 191L350 190C350 190 351.709 187.771 354 188C355.128 188.035 357.026 188.427 358 189C358 189 358.947 185.373 361 184C363.053 182.627 369.937 180.154 372 179C374.063 177.846 372.684 179.856 372 181C371.316 182.144 369.922 183.542 369 184C368.078 184.458 373.913 184.846 373 186C372.087 187.154 368 187 368 187C368 187 371.684 188.084 371 189C370.316 189.916 367 190 367 190C367 190 368.369 192 367 192H366C366 192 365.825 195.458 364 195Z" fill="#00812A"/>
<path d="M369 203C367.691 203 364.942 200.035 364 199C362.276 199.996 360.989 201.032 359 201C356.223 200.771 353.984 199.995 352 197C351.085 195.592 350.131 194.241 349 193L347 192C346.912 191.97 347.057 192.075 347 192C346.944 191.925 347.005 192.094 347 192C346.958 192.084 346.992 191.906 347 192C347.042 191.916 346.92 191.05 347 191L350 190C350.337 189.711 352.63 187.771 355 188C356.001 188.075 357.076 188.607 358 189C358.476 187.895 359.294 185.144 361 184C362.946 182.954 364.895 181.669 367 181C368.525 180.488 370.545 179.687 372 179C372.337 178.811 373.385 178.393 374 179C374.615 179.607 373.198 181.682 373 182C372.215 182.993 371.166 183.512 370 184H371C372.676 184.338 373.752 185.313 374 186C374.028 185.857 374.048 186.138 374 186C373.972 186.143 374.096 185.89 374 186C373.132 186.782 371.152 187.814 370 188C370.616 188.265 371.692 188.403 372 189C372.038 189.144 372.028 189.854 372 190C371.973 190.146 372.088 189.88 372 190C371.395 190.806 369.962 190.9 369 191C369.204 191.598 368.274 192.431 368 193C367.891 193.161 368.174 192.913 368 193C367.827 193.087 367.194 193.009 367 193C367.059 193.456 367.059 194.544 367 195C368.433 194.626 369.531 194.81 371 195C371.193 195.043 371.864 194.856 372 195C371.967 194.805 372.136 195.144 372 195C372.099 195.627 371.496 196.542 371 197C371.641 197.578 371.668 198.202 372 199C372.116 199.196 372.016 199.773 372 200C371.984 200.227 372.142 199.822 372 200C371.754 200.209 371.313 200.919 371 201C370.688 201.081 370.317 201.064 370 201C370.083 201.316 370.087 201.685 370 202C369.913 202.315 370.234 202.772 370 203C369.894 203.101 370.139 202.954 370 203C369.861 203.046 369.145 203.017 369 203ZM364 198C364.07 198.001 364.937 197.971 365 198C364.954 197.948 365.063 198.029 365 198C366.815 199.99 368.494 202.109 369 202C369.556 201.423 369.02 201.04 369 201C368.943 200.917 369 200.101 369 200C368.943 200.083 369 199.899 369 200C368.906 200.039 369.054 199.913 369 200C369.094 199.961 369.901 199.976 370 200C370.582 200.177 370.418 200.177 371 200C370.997 199.913 371.043 200.076 371 200C370.672 199.176 370.726 198.507 370 198C369.929 197.958 370.043 197.071 370 197C369.957 196.929 369.005 197.083 369 197C368.964 197.074 368.998 196.917 369 197C369.036 196.926 369.934 197.049 370 197C370.462 196.698 370.711 196.471 371 196C370.266 195.761 367.706 195.632 366 196C365.822 196.147 365.227 195.957 365 196C364.773 196.043 365.22 196.071 365 196C364.892 195.973 365.068 196.088 365 196C364.932 195.912 363.999 196.112 364 196C363.998 195.889 364.931 195.087 365 195C364.892 195.023 365.069 194.913 365 195C365.099 195 365.623 195.08 366 195C366.168 194.347 366.168 193.653 366 193C365.982 193.072 365.985 192.928 366 193C365.954 193.057 366.018 192.928 366 193C365.934 193.032 366.047 192.943 366 193C366.067 192.968 365.927 192 366 192H367C367.149 192 367.99 192.06 368 192C368.101 191.475 367.23 191.483 367 191C366.971 190.924 366.991 191.081 367 191C367.009 190.919 366.956 190.068 367 190C367.047 189.932 367.928 190.038 368 190C367.918 190 368.073 189.962 368 190C368.992 190 370.633 189.498 371 189C370.35 188.39 369.856 188.247 369 188C368.869 187.987 368.084 188.103 368 188C367.916 187.897 367.987 188.132 368 188C368.013 187.868 367.898 187.084 368 187C368.102 186.916 368.869 186.987 369 187C370.2 186.831 372.296 186.667 373 186C372.288 185.715 370.758 185.118 370 185C368.741 184.741 369.06 184.498 369 184C368.933 184.112 368.983 183.871 369 184C368.878 184.046 369.067 183.888 369 184C369.913 183.562 371.455 181.906 372 181C372.296 180.563 372.964 180.527 373 180C372.738 180.082 372.239 179.864 372 180C370.499 180.715 369.577 181.475 368 182C365.974 182.66 363.888 184.011 362 185C360.096 186.284 358.01 188.97 358 189C357.973 189.073 358.057 189.946 358 190C357.943 190.053 358.075 189.977 358 190C357.926 190.019 358.075 190.014 358 190C357.925 189.986 358.063 190.044 358 190C357.09 189.486 356.044 189.028 355 189C352.957 188.791 351.02 190.98 351 191C350.98 191.02 350.03 190.94 350 191L349 192C349.062 192.027 349.95 191.954 350 192C351.216 193.304 352.038 194.497 353 196C354.775 198.667 356.471 199.791 359 200C360.91 199.98 362.365 198.99 364 198C364.08 197.959 363.91 198.005 364 198Z" fill="#263238"/>
<path d="M358 190C358 190 356.117 186.388 357 184C357.883 181.612 366.221 175.601 366 178C365.862 178.788 365.42 179.339 365 180C364.581 180.661 364.631 180.578 364 181C364 181 367 180.034 367 181V182C367 182 362.776 183.318 361 185C359.636 186.548 358.835 188.061 358 190Z" fill="#263238"/>
<path d="M358 190C357.911 189.999 357.075 190.051 357 190C356.925 189.949 357.039 190.086 357 190C356.923 189.835 355.046 185.573 356 183C356.82 180.799 363.198 175.535 365 176C365.208 176.056 365.881 175.809 366 176C366.12 176.191 366.031 176.773 366 177C365.886 178.007 365.615 179.228 365 180C365.564 179.836 366.466 179.749 367 180C366.947 179.883 367.099 180.077 367 180C367.054 180.117 367.004 180.87 367 181V182C367.001 182.116 367.067 181.908 367 182C366.934 182.092 367.106 181.972 367 182C367 182 362.668 183.429 361 185C359.673 186.51 358.798 188.109 358 190C358.076 189.947 357.959 190.086 358 190C358.091 189.995 357.924 190.053 358 190ZM365 177C363.709 177 357.733 181.047 357 183C356.461 184.447 357.518 186.77 358 188C358.769 186.363 359.789 185.293 361 184C362.62 182.754 364.061 181.494 366 181C365.077 181.034 363.865 180.65 363 181C362.889 181.034 363.105 181.052 363 181C362.896 180.948 363.048 181.113 363 181C362.953 180.887 362.968 181.119 363 181C363.033 180.881 362.904 180.067 363 180C363.565 179.624 363.621 179.585 364 179C364.38 178.415 364.867 177.698 365 177Z" fill="#263238"/>
<path d="M352 191C352 191.276 352.724 191 353 191C353 190.724 353.276 190 353 190C352.724 190 352 190.724 352 191Z" fill="#263238"/>
<path d="M361 198C360.612 199.485 358.164 200.742 356 200C353.836 199.258 352.612 197.485 353 196C353.387 194.515 355.826 193.258 358 194C360.173 194.742 361.397 196.515 361 198Z" fill="white"/>
<path d="M359 200C358.324 200.002 357.648 200.19 357 200C355.923 199.71 354.771 198.793 354 198C353.65 197.727 353.135 197.418 353 197C352.866 196.582 352.874 196.421 353 196C353.127 195.579 353.656 195.28 354 195C354.345 194.72 354.555 194.043 355 194C356.092 193.772 356.93 193.689 358 194C359.071 194.311 360.211 195.225 361 196C361.35 196.274 361.866 196.581 362 197C362.135 197.419 362.128 197.579 362 198C361.873 198.421 361.346 198.721 361 199C360.654 199.279 360.446 199.959 360 200C359.576 200.106 359.438 200.002 359 200ZM356 194C355.596 193.997 355.391 194.9 355 195C354.651 195.054 354.277 194.784 354 195C353.724 195.216 354.132 195.678 354 196C353.929 196.339 353.888 196.671 354 197C354.113 197.329 353.735 197.772 354 198C354.727 198.709 356.018 198.713 357 199C357.983 199.287 358.997 199.203 360 199C360.349 198.949 360.725 199.217 361 199C361.276 198.783 360.874 198.323 361 198C361.075 197.66 361.111 197.33 361 197C360.89 196.67 361.266 196.23 361 196C360.282 195.282 358.988 195.27 358 195C357.408 194.825 356.619 194.007 356 194Z" fill="#263238"/>
<path d="M135.001 136C135.001 136 130.38 135.532 129.001 136C127.622 136.468 130.001 138 130.001 138C129.183 138.564 128.374 139.077 128.001 140C127.306 141.612 130.001 141 130.001 141C129.755 141.288 130.001 141.62 130.001 142C130.001 142.38 129.755 142.712 130.001 143C130.913 143.925 135.001 139 135.001 139C135.001 139 138.253 141.239 141.001 141C143.749 140.761 145.165 139.757 147.001 137C147.941 135.528 148.809 134.276 150.001 133L152.001 132L149.001 131C149.001 131 147.292 128.771 145.001 129C143.874 129.035 141.977 129.434 141.001 130C141.001 130 140.064 126.373 138.001 125C135.937 123.627 129.054 121.154 127.001 120C124.947 118.846 126.316 120.846 127.001 122C127.685 123.154 129.078 124.542 130.001 125C130.923 125.458 125.088 125.856 126.001 127C126.913 128.144 131.001 128 131.001 128C131.001 128 127.316 129.074 128.001 130C128.685 130.925 132.001 131 132.001 131C132.001 131 130.632 133 132.001 133H133.001C133.001 133 133.175 136.458 135.001 136Z" fill="#00812A"/>
<path d="M131 144C130.751 144.002 130.184 144.168 130 144C129.767 143.773 130.087 143.314 130 143C129.913 142.686 129.917 142.315 130 142C129.684 142.061 129.312 142.081 129 142C128.688 141.919 128.248 141.207 128 141C127.859 140.82 128.016 141.229 128 141C127.984 140.771 127.885 140.198 128 140C128.332 139.209 128.367 138.577 129 138C128.475 137.543 127.871 136.626 128 136C127.864 136.143 128.033 135.805 128 136C128.136 135.857 128.808 136.043 129 136C130.466 135.811 131.568 135.634 133 136C132.941 135.548 132.941 134.452 133 134C132.807 134.009 132.173 134.087 132 134C131.827 133.913 132.109 134.16 132 134C131.863 133.719 131.019 133.312 131 133C130.981 132.688 130.897 132.295 131 132C130.01 131.93 128.604 131.805 128 131C127.911 130.879 128.028 131.148 128 131C127.973 130.852 127.96 130.145 128 130C128.309 129.407 129.387 129.262 130 129C128.851 128.81 126.87 127.777 126 127C125.904 126.888 126.028 127.145 126 127C125.953 127.139 125.972 126.855 126 127C126.248 126.324 127.327 125.338 129 125H130C128.834 124.516 127.782 123.994 127 123C126.812 122.692 125.287 120.745 126 120C126.713 119.255 127.644 119.851 128 120C129.449 120.695 131.475 121.497 133 122C135.101 122.675 137.055 123.956 139 125C140.703 126.142 141.564 128.897 142 130C142.921 129.603 144 129.077 145 129C147.327 128.772 149.624 130.702 150 131L153 132C153.08 132.049 152.958 132.916 153 133C153.009 132.906 153.042 133.084 153 133C152.993 133.093 153.056 132.926 153 133C152.944 133.074 153.087 132.968 153 133L151 134C149.867 135.236 148.91 136.591 148 138C146.02 140.98 143.773 141.772 141 142C139.014 142.037 137.719 140.999 136 140C135.01 140.993 132.307 143.97 131 144ZM130 141C130.083 141 130.927 140.96 131 141C130.955 140.93 131.073 141.04 131 141C131 140.897 131.058 141.085 131 141C131 141.103 131.058 141.915 131 142C130.941 142.079 130.396 142.424 131 143C131.466 143.079 133.178 141.037 135 139C134.885 139.016 135.081 138.917 135 139C135.115 138.984 135.899 138.943 136 139C137.634 139.985 139.094 140.977 141 141C143.515 140.781 145.228 139.672 147 137C147.961 135.506 148.793 134.302 150 133C149.935 133.025 150.052 132.953 150 133H151L149 132C149 132 147.03 129.791 145 130C143.959 130.034 142.911 130.492 142 131C141.938 131.045 142.076 130.988 142 131C141.924 131.012 142.073 131.024 142 131C141.927 130.981 142.055 131.052 142 131C141.945 130.948 141.024 131.072 141 131C141 131 139.892 127.272 138 126C136.117 125.008 134.025 123.654 132 123C130.425 122.476 129.499 121.713 128 121C127.396 120.662 127.01 121 127 121C127.1 121.51 126.727 122.558 127 123C127.545 123.904 130.099 124.563 131 125C130.934 124.888 131.122 125.046 131 125C131.017 124.871 131.067 125.112 131 125C130.941 125.497 130.258 125.742 129 126C128.244 126.116 127.712 126.72 127 127C127.693 127.685 129.782 127.841 131 128C131.111 128.017 131.921 127.919 132 128C132.079 128.081 131.986 128.888 132 129C132.009 129.11 132.059 128.907 132 129C131.941 129.093 131.103 128.961 131 129C130.135 129.236 129.634 130.364 129 131C129.367 131.457 130.95 131 132 131C131.928 130.962 132.082 131 132 131C131.954 130.933 132.073 131.038 132 131C132.045 131.068 132.992 131.919 133 132C133.009 132.081 133.029 131.924 133 132C132.765 132.481 131.894 132.476 132 133C132 133 132.812 134 133 134H134C133.934 133.969 134.073 134.001 134 134C133.952 133.945 134.067 134.031 134 134C133.983 133.928 134.045 134.059 134 134C134.014 133.927 134.017 134.072 134 134C133.832 134.652 133.832 135.348 134 136H135C134.932 135.912 135.108 136.027 135 136C135.068 136.088 136.001 136.888 136 137C136.003 137.111 135.069 136.913 135 137C134.931 137.087 135.108 136.977 135 137C134.782 137.074 134.227 137.042 134 137C133.773 136.958 134.178 137.147 134 137C132.297 136.632 129.733 136.752 129 137C128.953 137.01 129.038 136.971 129 137C129.317 137.452 129.545 137.69 130 138C129.964 137.925 130.069 138.047 130 138C130.006 137.917 130.037 138.075 130 138C129.995 138.083 130.043 137.929 130 138C129.957 138.071 130.072 138.958 130 139C129.283 139.493 129.336 140.196 129 141C128.956 141.075 128.994 140.913 129 141C129.573 141.187 129.427 141.187 130 141Z" fill="#263238"/>
<path d="M142.001 130C142.001 130 143.884 126.399 143.001 124C142.118 121.601 133.78 115.601 134.001 118C134.139 118.788 134.581 119.339 135.001 120C135.421 120.661 135.37 120.578 136.001 121C136.001 121 133.001 120.045 133.001 121V122C133.001 122 137.235 123.318 139.001 125C140.369 126.539 141.163 128.067 142.001 130Z" fill="#263238"/>
<path d="M141 130C140.91 130 141.077 130.048 141 130C140.923 129.952 141.04 130.081 141 130C140.196 128.254 139.321 126.396 138 125C136.323 123.544 132.039 123.01 132 123C131.894 122.978 132.069 122.084 132 122C131.932 121.916 132 122.109 132 122V121C131.945 121.108 131.999 120.879 132 121C131.901 121.069 132.055 120.892 132 121C132.533 120.761 133.437 120.842 134 121C133.386 120.28 133.115 118.94 133 118C132.97 117.788 132.881 117.178 133 117C133.119 116.822 133.792 117.053 134 117C135.812 116.547 142.181 121.946 143 124C143.964 126.401 142.077 129.846 142 130C141.957 130.075 142.077 129.959 142 130C141.923 130.041 141.087 130.006 141 130ZM133 122C134.942 122.46 136.378 122.837 138 124C139.208 125.205 140.229 126.477 141 128C141.434 126.852 142.54 125.35 142 124C141.258 122.158 135.224 117.952 134 118C134.138 118.651 134.621 119.454 135 120C135.379 120.546 135.439 120.643 136 121C135.964 120.888 136.102 121.059 136 121C136.036 121.112 136.05 121.893 136 122C135.953 122.11 136.109 121.952 136 122C135.891 122.048 136.113 122.039 136 122C135.133 121.674 133.926 121.032 133 121V122Z" fill="#263238"/>
<path d="M147 132C146.906 131.906 147 132.133 147 132C147.093 132.094 147.867 132 148 132C147.906 132.094 148.132 132 148 132C148 132.133 148.093 131.906 148 132C148 131.867 148.093 131.094 148 131C147.906 130.906 148.132 131 148 131C147.867 131 147.093 130.906 147 131C146.906 131.094 147 131.867 147 132Z" fill="#263238"/>
<path d="M138 139C138.387 140.485 140.827 141.742 143 141C145.173 140.258 146.387 138.485 146 137C145.613 135.515 143.173 134.258 141 135C138.827 135.742 137.603 137.515 138 139Z" fill="white"/>
<path d="M141 141C139.361 141 138.282 140.086 138 139C137.537 137.503 139.556 135.705 142 135C144.444 134.295 146.537 135.513 147 137C147.096 137.421 147.132 137.588 147 138C146.868 138.412 146.325 138.706 146 139C145.216 139.788 144.086 140.705 143 141C142.366 141.182 141.661 140.993 141 141ZM139 139C139.372 140.233 140.827 140.626 143 140C143.999 139.733 145.281 139.726 146 139C146.268 138.772 145.887 138.328 146 138C146.113 137.672 146.072 137.339 146 137C145.618 135.757 144.173 135.364 142 136C139.827 136.636 138.618 137.757 139 139Z" fill="#263238"/>
<path d="M123 308C116.384 298.373 107.329 290.523 96.9996 285C80.3822 276.432 73.3593 267.501 81.9996 268C92.4583 268.619 116.229 276.931 127 306C131.651 318.533 123 308 123 308Z" fill="#00812A"/>
<path d="M128 313C126.563 313 124.427 309.78 123 308C122.909 307.86 113.298 294.412 96.9997 286C84.9419 279.789 77.1356 273.141 77.9997 270C78.3313 268.79 79.5781 267.86 81.9997 268C93.0527 268.64 117.329 277.163 128 306C129.899 311.141 128.693 312.61 128 313C128.16 313.021 127.85 313.06 128 313ZM123 308C124.859 310.321 127.467 312.13 128 312C128 312 128.718 311.641 127 307C116.509 278.654 92.8015 269.66 81.9997 269C80.1609 268.9 79.1806 269.34 78.9997 270C78.3968 272.19 84.8113 278.709 96.9997 285C113.228 293.382 122.558 307.32 123 308Z" fill="#263238"/>
<path d="M123 305C122.907 305.001 122.08 305.049 122 305C121.92 304.951 122.043 305.084 122 305C121.92 304.827 113.355 287.952 97.9999 280C97.9404 279.971 98.0434 280.05 97.9999 280C97.9564 279.95 98.0205 280.064 97.9999 280C97.9793 279.936 97.9943 279.067 97.9999 279C97.969 279.059 98.0055 278.933 97.9999 279C97.8738 279.042 98.0601 278.88 97.9999 279C98.126 278.958 98.8813 278.94 98.9999 279C114.657 287.105 122.889 303.827 123 304C122.994 303.933 123.031 304.059 123 304C123.005 304.067 123.021 304.936 123 305C123.043 304.95 122.979 305.064 123 305C123.059 304.971 122.956 305.05 123 305C123.077 305.003 122.932 305.036 123 305Z" fill="#263238"/>
<path d="M133 318C129.769 307.952 129.156 297.378 131 287C134.203 270.474 132.519 260.629 128 267C122.512 274.729 115.025 296.164 130 320C136.467 330.285 133 318 133 318Z" fill="#00812A"/>
<path d="M133 325C132.303 325 131.246 324.554 129 321C114.062 297.369 121.177 275.167 127 267C128.292 265.193 128.913 264.561 130 265C132.809 266.148 133.338 275.01 131 287C129.167 297.286 129.819 308.03 133 318C133.005 317.98 133.005 318.02 133 318C133.667 320.735 134.261 324.491 133 325C133.102 324.991 132.905 325.038 133 325ZM130 266C129.447 266 128.81 266.862 128 268C122.31 275.987 115.37 296.818 130 320C132.348 323.724 132.908 323.99 133 324C133.277 323.671 132.585 321.556 132 319C128.754 308.872 128.156 297.457 130 287C132.604 273.652 131.62 266.659 130 266C130.085 265.995 129.924 265.962 130 266Z" fill="#263238"/>
<path d="M131 317C130.901 317.001 130.084 317.05 130 317C129.916 316.95 130.044 317.086 130 317C129.927 316.838 122.842 300.7 126 285C125.885 285.077 126.026 284.866 126 285C125.863 284.975 126.115 284.923 126 285C126.136 285.025 126.921 284.887 127 285C127.078 285.113 127.026 285.866 127 286C123.904 301.357 131 315.849 131 316C130.996 315.933 131.029 316.06 131 316C131.003 316.067 131.023 316.937 131 317C131.046 316.951 130.977 317.063 131 317C131.062 316.972 130.954 317.049 131 317C131.068 316.992 130.939 317.032 131 317Z" fill="#263238"/>
<path d="M123 301C119.767 290.951 119.154 280.38 121 270C124.203 253.487 122.519 243.63 118 250C112.512 257.728 105.025 279.158 120 303C126.467 313.283 123 301 123 301Z" fill="#00812A"/>
<path d="M124 307C123.303 307 122.246 306.554 120 303C105.062 279.369 112.177 257.157 118 249C119.292 247.193 119.913 246.561 121 247C123.799 248.148 124.287 257.01 122 269C120.167 279.286 120.819 290.03 124 300C124.667 302.735 125.261 306.491 124 307C124.102 306.991 123.905 307.038 124 307ZM121 248C120.447 248 119.81 248.872 119 250C113.31 257.987 106.37 278.808 121 302C123.348 305.714 123.908 306 124 306C124.277 305.671 123.585 303.546 123 301C119.754 290.872 119.156 279.457 121 269C123.604 255.652 122.61 248.659 121 248C121.084 247.996 120.922 247.97 121 248Z" fill="#263238"/>
<path d="M122 305C121.898 305 122.085 305.056 122 305C121.915 304.944 122.04 305.093 122 305C121.919 304.778 113.907 282.666 117 267C116.888 267.075 117.027 266.868 117 267C116.867 266.976 117.112 266.925 117 267C116.945 266.963 117.065 267.013 117 267C117.055 267.037 117.963 266.945 118 267C117.987 266.935 118.037 267.055 118 267C118.012 267.065 118.013 267.935 118 268C114.958 283.344 122.919 303.788 123 304C123.001 303.934 123.024 304.061 123 304C122.999 304.066 123.026 304.939 123 305C122.973 305.061 123.048 304.954 123 305C122.952 305.046 123.062 304.976 123 305C122.943 305.034 122.064 304.987 122 305Z" fill="#263238"/>
<path d="M331 290C337.616 280.377 346.674 272.526 357 267C373.63 258.433 380.642 249.491 372 250C361.54 250.609 337.772 258.924 327 288C322.358 300.541 331 290 331 290Z" fill="#00812A"/>
<path d="M326 295C325.845 295.005 326.134 295.077 326 295C325.306 294.62 324.1 293.136 326 288C336.671 259.191 360.977 250.64 372 250C374.421 249.86 375.668 250.791 376 252C376.864 255.138 369.047 260.794 357 267C340.701 275.414 331.09 289.85 331 290C329.543 291.839 327.436 295 326 295ZM373 251C372.789 251 372.241 251 372 251C361.198 251.63 337.49 260.67 327 289C325.281 293.627 325.949 293.93 326 294C326.492 294.11 329.141 292.318 331 290C331.442 289.31 339.772 275.364 356 267C368.188 260.714 375.623 254.188 375 252C374.849 251.37 374.426 251 373 251Z" fill="#263238"/>
<path d="M332 287C331.919 287 331.07 287.041 331 287C330.881 286.939 331.041 287.128 331 287C330.958 286.872 330.94 286.12 331 286C331.08 285.837 339.34 269.093 355 261C354.934 261.006 355.057 260.968 355 261C355.065 260.994 355.937 260.98 356 261C355.949 260.957 356.062 261.02 356 261C355.97 260.94 356.05 261.043 356 261C356.06 261.121 356.039 261.871 356 262C355.96 262.129 356.117 261.935 356 262C340.641 269.94 332.09 286.837 332 287C332.078 286.949 331.961 287.086 332 287C332.093 287.001 331.921 287.051 332 287Z" fill="#263238"/>
<path d="M322 300C325.236 289.952 325.849 279.379 324 269C320.798 252.477 322.482 242.63 327 249C332.497 256.738 339.971 278.168 325 302C318.534 312.284 322 300 322 300Z" fill="#00812A"/>
<path d="M321 306C320.873 306 321.115 306.052 321 306C319.744 305.491 320.336 301.735 321 299C321 299 321 299.05 321 299C324.184 289.031 324.808 278.293 323 268C320.671 256.02 321.171 247.138 324 246C325.096 245.554 325.706 246.183 327 248C332.791 256.156 339.871 278.37 325 302C322.774 305.564 321.695 306 321 306ZM322 300C321.387 302.546 320.653 304.641 321 305C321 305 321.671 304.714 324 301C338.605 277.809 331.699 256.966 326 249C325.06 247.682 324.562 246.77 324 247C322.397 247.659 321.406 254.653 324 268C325.853 278.456 325.216 289.865 322 300Z" fill="#263238"/>
<path d="M324 298C323.921 297.999 323.072 298.032 323 298C322.876 297.941 323.047 298.126 323 298C322.954 297.874 322.943 297.122 323 297C323.073 296.848 330.107 282.358 327 267C326.985 266.935 326.988 266.066 327 266C326.962 266.056 327.012 265.934 327 266C326.943 266.037 327.038 265.944 327 266C327.057 265.963 327.933 266.012 328 266C327.933 265.987 328.067 265.987 328 266C327.943 265.963 328.067 266.013 328 266C327.962 265.945 328.057 266.037 328 266C327.987 265.935 328.038 266.055 328 266C331.169 281.702 324.114 297.828 324 298C324.074 297.952 323.959 298.077 324 298C324.089 297.993 323.926 298.048 324 298Z" fill="#263238"/>
<path d="M331 283C334.239 272.953 334.851 262.378 333 252C329.796 235.474 331.47 225.629 336 232C341.49 239.729 348.97 261.164 334 285C327.531 295.285 331 283 331 283Z" fill="#00812A"/>
<path d="M330 289C329.874 289.003 330.116 289.049 330 289C328.754 288.491 329.336 284.735 330 282C330 282 330 282.06 330 282C333.187 272.034 333.81 261.29 332 251C329.671 239.02 330.17 230.148 333 229C334.083 228.561 334.702 229.183 336 231C341.793 239.157 348.875 261.369 334 285C331.773 288.554 330.695 289 330 289ZM331 283C330.387 285.556 329.653 287.631 330 288C330 288 330.671 287.714 333 284C347.609 260.808 340.701 239.967 335 232C334.06 230.682 333.562 229.77 333 230C331.396 230.659 330.405 237.652 333 251C334.855 261.453 334.218 272.868 331 283Z" fill="#263238"/>
<path d="M332 287C331.936 287.014 331.063 287.014 331 287C330.877 286.951 331.053 287.121 331 287C330.947 286.879 330.953 286.123 331 286C331.081 285.788 339.042 265.371 336 250C335.985 249.936 335.987 249.065 336 249C335.963 249.055 336.012 248.935 336 249C336.037 248.945 336.944 249.036 337 249C336.934 249.011 337.055 248.964 337 249C336.934 248.987 337.065 248.987 337 249C336.944 248.963 337.065 249.013 337 249C336.962 248.945 337.055 249.037 337 249C336.986 248.935 337.037 249.055 337 249C340.102 264.654 332.081 286.748 332 287C332.082 286.957 331.952 287.08 332 287C332.092 287.007 331.917 287.043 332 287Z" fill="#263238"/>
<path d="M335 238H240L187 153H282L335 238Z" fill="#263238"/>
<path d="M335 239H241C240.916 239.002 240.073 239.041 240 239C239.926 238.959 240.043 239.072 240 239L187 154C186.953 153.923 187 154.09 187 154C187 153.91 186.953 153.077 187 153C186.923 153.044 187.046 152.924 187 153C187.076 152.956 187.911 153.001 188 153H282C282.083 152.998 282.926 152.959 283 153C282.956 152.928 283.073 153.041 283 153L336 238C336 237.91 336.046 238.077 336 238C336 238.09 336.046 238.923 336 239C335.954 239.076 336.076 238.956 336 239C335.923 239.044 335.088 238.999 335 239ZM241 238H335L282 154H188L241 238Z" fill="#263238"/>
<path d="M227 235H130V321H227V235Z" fill="#C7C7C7"/>
<path d="M227 322H129C128.868 322 129.093 322.094 129 322C128.906 321.906 129 322.133 129 322V235C128.906 235.094 129 234.868 129 235C128.868 235 129.093 234.906 129 235H227C226.906 234.906 227.132 235 227 235C227 234.868 227.093 235.094 227 235V322C227.093 321.906 227 322.133 227 322C227.132 322 226.906 322.094 227 322ZM130 321H226V236H130V321Z" fill="#263238"/>
<path d="M324 321H227V235L276 156L324 235V321Z" fill="white"/>
<path d="M325 322H227C226.868 322 227.093 322.094 227 322C226.906 321.906 227 321.133 227 321V235C226.948 235.081 227 234.904 227 235L276 156C276.043 155.927 276.926 156.042 277 156C276.915 156 277.073 155.958 277 156C276.926 155.958 277.084 156 277 156C276.957 155.927 277.073 156.042 277 156L325 235C325.002 234.908 325.047 235.078 325 235V321C325 321.133 325.093 321.906 325 322C325.132 322 324.906 322.094 325 322ZM228 321H324V235L277 157L228 235V321Z" fill="#263238"/>
<path d="M249 251H239V280H249V251Z" fill="#C7C7C7"/>
<path d="M248 280H239C238.864 280 238.096 280.093 238 280C237.904 279.907 238 280.132 238 280V250C237.904 250.093 238 249.868 238 250C238.096 249.907 238.864 250 239 250H248C248.136 250 248.904 249.907 249 250C249 249.868 249.096 250.093 249 250V280C249 280.132 249.096 279.907 249 280C248.904 280.093 248.136 280 248 280ZM239 279H248V251H239V279Z" fill="#263238"/>
<path d="M258 251H248V280H258V251Z" fill="#263238"/>
<path d="M258 280H249C248.864 280 248.096 280.093 248 280C247.904 279.907 248 280.132 248 280V250C247.904 250.093 248.002 249.869 248 250C248.095 249.908 248.865 250.003 249 250H258C258.135 250.003 258.904 249.908 259 250C258.997 249.869 259.095 250.093 259 250V280C259 280.132 259.096 279.907 259 280C258.904 280.093 258.135 280 258 280ZM249 279H258V251H249V279Z" fill="#263238"/>
<path d="M268 251H258V280H268V251Z" fill="#C7C7C7"/>
<path d="M268 280H259C258.864 280 258.096 280.093 258 280C257.904 279.907 258 280.132 258 280V250C257.904 250.093 258 249.868 258 250C258.096 249.907 258.864 250 259 250H268C268.136 250 268.904 249.907 269 250C269 249.868 269.096 250.093 269 250V280C269 280.132 269.096 279.907 269 280C268.904 280.093 268.136 280 268 280ZM259 279H268V251H259V279Z" fill="#263238"/>
<path d="M204 251H196V280H204V251Z" fill="#919191"/>
<path d="M203.999 280H194.999C194.868 280 195.092 280.093 194.999 280C194.907 279.907 194.999 280.132 194.999 280V250C194.907 250.093 194.999 249.868 194.999 250C194.868 250 195.092 249.907 194.999 250H203.999C203.907 249.907 204.13 250 203.999 250C203.999 249.868 204.092 250.093 203.999 250V280C204.092 279.907 203.999 280.132 203.999 280C204.13 280 203.907 280.093 203.999 280ZM195.999 279H202.999V251H195.999V279Z" fill="#263238"/>
<path d="M212 251H204V280H212V251Z" fill="#263238"/>
<path d="M211.999 280H202.999C202.868 280 203.092 280.093 202.999 280C202.907 279.907 202.999 280.132 202.999 280V250C202.907 250.093 202.999 249.868 202.999 250C202.868 250 203.092 249.907 202.999 250H211.999C211.907 249.907 212.129 250.003 211.999 250C211.997 249.869 212.091 250.093 211.999 250V280C212.092 279.907 211.999 280.132 211.999 280C212.13 280 211.907 280.093 211.999 280ZM203.999 279H210.999V251H203.999V279Z" fill="#263238"/>
<path d="M220 251H212V280H220V251Z" fill="#919191"/>
<path d="M219.999 280H210.999C210.868 280 211.092 280.093 210.999 280C210.907 279.907 210.999 280.132 210.999 280V250C210.907 250.093 210.999 249.868 210.999 250C210.868 250 211.092 249.907 210.999 250H219.999C219.907 249.907 220.129 250.003 219.999 250C219.997 249.869 220.091 250.093 219.999 250V280C220.092 279.907 219.999 280.132 219.999 280C220.13 280 219.907 280.093 219.999 280ZM211.999 279H218.999V251H211.999V279Z" fill="#263238"/>
<path d="M144 251H136V280H144V251Z" fill="#919191"/>
<path d="M143.999 280H134.999C134.868 280 135.092 280.093 134.999 280C134.907 279.907 134.999 280.132 134.999 280V250C134.907 250.093 134.999 249.868 134.999 250C134.868 250 135.092 249.907 134.999 250H143.999C143.907 249.907 144.129 250.003 143.999 250C143.997 249.869 144.091 250.093 143.999 250V280C144.092 279.907 143.999 280.132 143.999 280C144.13 280 143.907 280.093 143.999 280ZM135.999 279H142.999V251H135.999V279Z" fill="#263238"/>
<path d="M152 251H144V280H152V251Z" fill="#263238"/>
<path d="M151.999 280H142.999C142.868 280 143.092 280.093 142.999 280C142.907 279.907 142.999 280.132 142.999 280V250C142.907 250.093 142.999 249.868 142.999 250C142.868 250 143.092 249.907 142.999 250H151.999C151.907 249.907 152.129 250.003 151.999 250C151.997 249.869 152.091 250.093 151.999 250V280C152.092 279.907 151.999 280.132 151.999 280C152.13 280 151.907 280.093 151.999 280ZM143.999 279H150.999V251H143.999V279Z" fill="#263238"/>
<path d="M160 251H152V280H160V251Z" fill="#919191"/>
<path d="M159.999 280H150.999C150.868 280 151.092 280.093 150.999 280C150.907 279.907 150.999 280.132 150.999 280V250C150.907 250.093 150.999 249.868 150.999 250C150.868 250 151.092 249.907 150.999 250H159.999C159.907 249.907 160.129 250.003 159.999 250C159.997 249.869 160.091 250.093 159.999 250V280C160.092 279.907 159.999 280.132 159.999 280C160.13 280 159.907 280.093 159.999 280ZM151.999 279H158.999V251H151.999V279Z" fill="#263238"/>
<path d="M298 251H288V280H298V251Z" fill="#C7C7C7"/>
<path d="M298 280H289C288.864 280 288.096 280.093 288 280C287.904 279.907 288 280.132 288 280V250C287.904 250.093 288 249.868 288 250C288.096 249.907 288.864 250 289 250H298C298.136 250 298.904 249.907 299 250C299 249.868 299.096 250.093 299 250V280C299 280.068 299.027 279.938 299 280C298.972 280.062 299.051 279.954 299 280C298.949 280.046 299.065 279.977 299 280C298.934 280.023 298.07 280.004 298 280ZM289 279H298V251H289V279Z" fill="#263238"/>
<path d="M308 251H298V280H308V251Z" fill="#263238"/>
<path d="M307 280H298C297.864 280 297.096 280.093 297 280C296.904 279.907 297 280.132 297 280V250C296.904 250.093 297 249.868 297 250C297.096 249.907 297.864 250 298 250H307C307.136 250 307.904 249.907 308 250C308 249.868 308.096 250.093 308 250V280C308 280.132 308.096 279.907 308 280C307.904 280.093 307.136 280 307 280ZM298 279H307V251H298V279Z" fill="#263238"/>
<path d="M318 251H308V280H318V251Z" fill="#C7C7C7"/>
<path d="M317 280H308C307.864 280 307.096 280.093 307 280C306.904 279.907 307 280.132 307 280V250C306.904 250.093 307.002 249.869 307 250C307.095 249.908 307.865 250.003 308 250H317C317.135 250.003 317.904 249.908 318 250C317.997 249.869 318.095 250.093 318 250V280C318 280.132 318.096 279.907 318 280C317.904 280.093 317.135 280 317 280ZM308 279H317V251H308V279Z" fill="#263238"/>
<path d="M275 203H269V221H275V203Z" fill="#C7C7C7"/>
<path d="M275 221H268C267.876 221 268.087 221.094 268 221C267.912 220.906 268 220.134 268 220V203C268 202.866 267.912 202.094 268 202C267.876 202 268.087 201.906 268 202H275C274.912 201.906 275.124 202 275 202C275.087 202.094 275 202.866 275 203V220C275 220.134 275.087 220.906 275 221C275.124 221 274.912 221.094 275 221ZM269 220H274V203H269V220Z" fill="#263238"/>
<path d="M281 203H275V221H281V203Z" fill="#263238"/>
<path d="M282 221H275C274.876 221 275.088 221.094 275 221C274.912 220.906 275 220.134 275 220V203C275 202.866 274.912 202.094 275 202C274.876 202 275.088 201.906 275 202H282C281.912 201.906 282.124 202 282 202C282.088 202.094 282 202.866 282 203V220C282 220.068 282.025 220.938 282 221C282.045 220.953 281.975 221.062 282 221C282.059 220.976 281.955 221.047 282 221C282.063 221.003 281.941 221.024 282 221ZM276 220H281V203H276V220Z" fill="#263238"/>
<path d="M288 203H282V221H288V203Z" fill="#C7C7C7"/>
<path d="M288 221H281C280.876 221 281.087 221.094 281 221C280.912 220.906 281 220.134 281 220V203C281 202.866 280.912 202.094 281 202C280.876 202 281.087 201.906 281 202H288C287.912 201.906 288.124 202 288 202C288.087 202.094 288 202.866 288 203V220C288 220.134 288.087 220.906 288 221C288.124 221 287.912 221.094 288 221ZM282 220H287V203H282V220Z" fill="#263238"/>
<path d="M125 238H230L283 153H178L125 238Z" fill="#00812A"/>
<path d="M229 239H125C124.911 238.999 124.077 239.044 124 239C123.923 238.956 124.046 239.076 124 239C123.956 238.922 124 238.09 124 238C123.956 238.078 124 237.91 124 238L177 153C177.043 152.928 177.926 153.041 178 153C177.916 152.998 178.073 152.959 178 153H282C282.089 153 282.922 152.956 283 153C282.954 152.923 283.077 153.044 283 153C283.044 153.078 283 153.91 283 154C283 154.09 283.044 153.922 283 154L230 239C229.954 239.07 230.073 238.96 230 239C229.926 239.04 229.083 238.999 229 239ZM125 238H229L282 154H178L125 238Z" fill="#263238"/>
<path d="M206 192H165V219H206V192Z" fill="#C7C7C7"/>
<path d="M206 219H164C163.869 218.997 164.093 219.092 164 219C163.908 218.908 164.003 219.13 164 219V191C163.908 191.092 164.003 190.87 164 191C163.869 191.003 164.093 190.908 164 191H206C205.908 190.908 206.131 191.003 206 191C205.998 190.87 206.093 191.092 206 191V219C206.093 218.908 205.998 219.13 206 219C206.131 218.997 205.908 219.092 206 219ZM165 218H205V192H165V218Z" fill="#263238"/>
<path d="M206 192L235 172L206 219V192Z" fill="white"/>
<path d="M207 219H206C205.895 218.97 206.066 219.087 206 219C205.934 218.913 206 219.108 206 219V191C205.963 191.071 206.001 190.92 206 191C205.935 191.048 206.037 190.929 206 191L235 171C235.091 170.928 235.884 171 236 171C235.91 170.928 236.117 171 236 171C235.985 170.886 236.082 171.081 236 171C236.015 171.114 236.059 171.901 236 172L207 219C207.075 218.951 206.961 219.08 207 219C207.09 218.996 206.925 219.049 207 219ZM207 191V217L234 173L207 191Z" fill="#263238"/>
<path d="M162 193H205L235 172H192L162 193Z" fill="#00812A"/>
<path d="M205 193H161C160.893 193.001 161.086 193.064 161 193C160.914 192.936 161.032 193.104 161 193C160.971 192.895 160.964 192.103 161 192C160.912 192.062 161.036 191.897 161 192L191 171C190.9 170.999 191.081 170.94 191 171H235C234.915 170.935 235.106 171.001 235 171C234.969 170.897 235.084 171.065 235 171C235.031 171.103 235.034 171.898 235 172C234.966 172.102 235.087 171.938 235 172L205 193C205.102 192.998 204.912 193.052 205 193ZM163 192H205L233 172H191L163 192Z" fill="#263238"/>
<path d="M181 197H175V215H181V197Z" fill="#919191"/>
<path d="M181 216H174C173.876 216 174.088 216.094 174 216C173.912 215.906 174 215.134 174 215V198C174 197.866 173.912 197.094 174 197C173.876 197 174.088 196.906 174 197H181C180.912 196.906 181.124 197 181 197C181.088 197.094 181 197.866 181 198V215C181 215.134 181.088 215.906 181 216C181.124 216 180.912 216.094 181 216ZM175 215H180V198H175V215Z" fill="#263238"/>
<path d="M187 197H181V215H187V197Z" fill="#263238"/>
<path d="M188 216H181C180.876 216 181.087 216.094 181 216C180.912 215.906 181 215.134 181 215V198C181 197.866 180.912 197.094 181 197C180.876 197 181.087 196.906 181 197H188C187.912 196.906 188.124 197 188 197C188.087 197.094 188 197.866 188 198V215C188 215.134 188.087 215.906 188 216C188.124 216 187.912 216.094 188 216ZM182 215H187V198H182V215Z" fill="#263238"/>
<path d="M194 197H188V215H194V197Z" fill="#919191"/>
<path d="M194 216H187C186.876 216 187.088 216.094 187 216C186.912 215.906 187 215.134 187 215V198C187 197.866 186.912 197.094 187 197C186.876 197 187.088 196.906 187 197H194C193.912 196.906 194.124 197 194 197C194.088 197.094 194 197.866 194 198V215C194 215.134 194.088 215.906 194 216C194.124 216 193.912 216.094 194 216ZM188 215H193V198H188V215Z" fill="#263238"/>
<path d="M257 141H253V168L257 162V141Z" fill="white"/>
<path d="M254 168H253C252.885 167.969 253.072 168.09 253 168C252.928 167.91 253 168.113 253 168V141C253 140.865 252.899 140.095 253 140C253.101 139.905 253.857 140 254 140H257C257.143 140 257.899 139.905 258 140C258.101 140.095 258 140.865 258 141V162C257.998 162.094 258.054 161.921 258 162L254 168C254.081 167.959 253.95 168.073 254 168C254.092 168.002 253.919 168.041 254 168ZM254 141V166L257 161V141H254Z" fill="#263238"/>
<path d="M254 141H243V168H254V141Z" fill="#C7C7C7"/>
<path d="M253 168H243C242.864 168 242.095 168.095 242 168C241.904 167.905 242 167.135 242 167V141C242 140.865 241.904 140.095 242 140C242.095 139.905 242.864 140 243 140H253C253.135 140 253.904 139.905 254 140C254.095 140.095 254 140.865 254 141V167C254 167.135 254.095 167.905 254 168C253.904 168.095 253.135 168 253 168ZM243 167H253V141H243V167Z" fill="#263238"/>
<path d="M191 256H166V322H191V256Z" fill="#263238"/>
<path d="M192 322H167C166.867 322 166.093 322.094 166 322C165.906 321.906 166 321.133 166 321V256C166 255.867 165.906 255.094 166 255C166.093 254.906 166.867 255 167 255H192C191.906 254.906 192.132 255 192 255C192.093 255.094 192 255.867 192 256V321C192 321.133 192.093 321.906 192 322C192.132 322 191.906 322.094 192 322ZM167 321H191V256H167V321Z" fill="#263238"/>
<path d="M189 288C189 287.604 189.22 287.329 189 287C188.78 286.671 188.365 286.151 188 286C187.635 285.849 187.388 285.923 187 286C186.612 286.077 186.28 286.72 186 287C185.72 287.28 185.077 287.612 185 288C184.923 288.388 184.849 288.635 185 289C185.151 289.365 185.671 289.78 186 290C186.329 290.22 186.604 290 187 290C187.53 290 187.625 289.375 188 289C188.375 288.625 189 288.53 189 288Z" fill="white"/>
<path d="M188 291C187.505 291.002 186.412 291.274 186 291C185.587 290.726 185.19 289.457 185 289C184.81 288.543 184.904 288.486 185 288C185.096 287.514 185.65 287.35 186 287C186.35 286.65 186.514 286.096 187 286C187.486 285.904 187.543 285.81 188 286C188.457 286.19 189.726 286.587 190 287C190.274 287.413 190.002 288.505 190 289C190 289.327 190.125 288.698 190 289C189.875 289.302 189.231 289.769 189 290C188.769 290.231 188.302 290.875 188 291C188.327 291 187.698 291.125 188 291ZM188 287C187.687 286.998 187.261 286.827 187 287C186.739 287.173 186.121 287.711 186 288C185.879 288.289 185.94 288.693 186 289C186.06 289.307 185.779 289.778 186 290C186.221 290.222 186.693 289.938 187 290C187.307 290.062 187.71 290.119 188 290C188.289 289.881 188.826 289.26 189 289C189 289.313 189.174 288.74 189 289C189.001 288.793 189.078 288.192 189 288C188.921 287.808 189.146 287.147 189 287C188.854 286.853 188.191 287.08 188 287C188.207 287 187.809 286.92 188 287Z" fill="#263238"/>
<path d="M124.001 308C124.001 308 103.552 296.12 84.0006 294C64.4492 291.88 52.9006 301.004 53.0006 305C53.1007 308.996 66.4191 309.331 69.0006 310C71.5822 310.669 87.777 306.401 111.001 312C134.224 317.599 137.001 319 137.001 319L124.001 308Z" fill="white"/>
<path d="M138 319C137.94 319.01 137.06 319.01 137 319C136.87 319 133.805 317.495 111 312C98.8976 309.121 86.3387 308.462 74 310C72.4735 310.27 71.5444 310.128 70 310C68.9206 309.791 67.0949 310.095 66 310C60.7141 309.412 53.0901 308.508 53 305C53 303.662 54.228 301.652 56 300C60.7053 295.509 70.0945 291.51 84 293C103.452 295.139 124.79 306.888 125 307L138 318C137.974 317.9 138.077 318.067 138 318C138.026 318.1 138.035 318.903 138 319C138.083 318.94 137.965 319.097 138 319C138.102 318.999 137.917 319.06 138 319ZM87 308C95.1256 308.005 103.096 309.093 111 311C125.336 314.457 132.017 316.128 135 317L125 308C123.919 307.402 102.831 296.078 84 294C70.3848 292.5 60.5551 296.773 56 301C54.4883 302.409 53.98 303.996 54 305C54.0601 307.626 61.6652 308.483 66 309C67.1419 309.1 68.8742 308.782 70 309C71.4294 309.079 72.5883 309.24 74 309C78.3703 308.482 82.6001 308.043 87 308Z" fill="#263238"/>
<path d="M116 307C116 307 94.706 297.447 75.0004 297C55.2948 296.553 44.5594 306.997 45.0004 311C45.4414 315.003 59.3843 313.563 62.0004 314C64.6164 314.437 79.3256 309.403 103 313C126.675 316.597 130 317 130 317L116 307Z" fill="white"/>
<path d="M129 318C128.87 318 126.224 317.485 103 314C90.6845 312.169 78.1817 312.402 66.0005 315C64.5022 315.402 62.5504 314.991 61.0005 315C60.4191 314.898 59.4639 315.041 58.0005 315C52.6782 314.868 44.3814 314.496 44.0005 311C43.8602 309.679 44.3767 307.799 46.0005 306C50.3305 301.214 59.948 296.665 74.0005 297C93.5858 297.437 115.78 306.909 116 307L130 317C129.969 316.885 130.097 317.068 130 317C130.032 317.115 130.05 317.891 130 318C129.955 318.084 130.082 317.952 130 318C129.919 318.048 129.095 318.001 129 318ZM87.0005 311C92.1725 310.986 97.8828 312.242 103 313C117.594 315.195 123.943 315.421 127 316L116 308C114.868 307.502 92.9543 298.437 74.0005 298C60.2888 297.665 51.1902 302.376 47.0005 307C45.6173 308.534 44.8602 309.984 45.0005 311C45.2811 313.612 53.6304 313.898 58.0005 314C59.1488 313.999 59.8585 313.877 61.0005 314C62.431 313.949 64.6124 314.354 66.0005 314C73.2136 312.497 79.6366 311.018 87.0005 311Z" fill="#263238"/>
<path d="M396 299L366 291C366 291 343.963 274.113 318 276C292.037 277.887 268.603 288.309 261 294C253.398 299.691 243.933 304.732 242 306C240.067 307.268 213.933 300.319 200 306C186.067 311.681 176 323 176 323C176 323 116.564 305.516 102 303C87.4362 300.484 70.0301 302.164 58.0002 311C45.9704 319.836 48.6197 325.732 55.0002 327C61.3808 328.268 63.1727 321.535 98.0002 331C132.828 340.465 174.902 365.585 192 375C209.098 384.415 237.969 397.681 257 392C276.032 386.319 327.97 366 340 366C352.03 366 390 369 390 369L396 299Z" fill="white"/>
<path d="M246 393C228.761 393 207.108 383.912 191 375L187 372C168.308 361.561 128.875 339.693 97.0001 331C72.0575 324.224 64.598 325.192 60.0001 326C58.3052 326.414 56.7232 327.275 55.0001 327C51.9249 326.381 49.481 324.156 49.0001 322C48.4692 319.645 49.9664 315.898 58.0001 310C68.7085 302.136 84.7006 299.006 102 302C115.904 304.415 170.482 320.653 175 322C176.603 320.373 187.208 310.25 200 305C209.747 301.008 224.764 303.742 234 305C237.316 305.459 240.479 306.269 241 306C241.521 305.731 242.938 304.659 244 304C247.777 301.635 254.09 297.421 260 293C268.124 286.932 292.687 276.846 318 275C343.043 273.184 363.498 288.842 365 290L396 299C395.934 298.905 396.112 299.03 396 299C396.011 298.885 396.066 299.095 396 299L390 368C389.996 368.065 390.029 368.941 390 369C389.971 369.059 390.05 368.957 390 369C389.951 369.043 390.062 368.98 390 369C389.938 369.02 390.065 369.005 390 369C389.62 369 350.88 366 339 366C330.756 366 303.188 375.465 281 383C270.853 386.473 261.85 390.253 256 392C252.64 392.984 249.502 393.017 246 393ZM67.0001 325C72.6498 325 81.2933 325.729 97.0001 330C128.965 338.683 168.268 360.521 187 371C188.763 371.998 190.558 373.212 192 374C211.363 384.729 238.019 396.409 256 391C261.83 389.263 270.863 385.463 281 382C303.258 374.395 330.586 365 339 365C350.179 365 384.462 367.711 389 368L395 299L365 291C364.935 290.982 365.054 291.042 365 291C364.79 290.83 343.484 274.134 318 276C292.897 277.826 269.034 288.002 261 294C255.06 298.441 247.747 302.635 244 305C242.948 305.659 242.421 305.721 242 306C241.289 306.479 239.119 306.709 234 306C224.855 304.752 209.496 302.128 200 306C186.327 311.569 175.11 322.89 175 323C174.936 323.068 175.091 322.977 175 323C174.91 323.023 175.089 323.029 175 323C174.409 322.83 116.365 305.485 102 303C84.971 300.006 68.4981 303.295 58.0001 311C49.9864 316.878 49.6295 320.313 50.0001 322C50.3708 323.687 52.3356 325.461 55.0001 326C56.6015 326.248 58.4283 325.393 60.0001 325C62.4229 324.534 64.5327 324.992 67.0001 325Z" fill="#263238"/>
<path d="M379 341L353 366L390 369L379 341Z" fill="#263238"/>
<path d="M389 369L352 366C351.903 365.993 352.078 366.059 352 366C351.922 365.941 352.034 366.092 352 366C351.97 365.907 351.977 366.095 352 366C352.023 365.905 351.931 365.068 352 365L378 340C378.061 339.945 378.921 340.021 379 340C378.921 339.982 379.079 339.979 379 340C378.937 339.948 379.079 340.018 379 340C378.968 339.924 379.063 340.052 379 340L390 368C390.031 368.08 390.011 368.915 390 369C389.99 369.085 390.049 368.93 390 369C389.945 369.061 390.077 368.972 390 369C389.923 369.028 389.081 369.011 389 369ZM354 365L389 368L378 341L354 365Z" fill="#263238"/>
<path d="M179 346C174.851 346 172.88 344.526 172 341C171.28 337.913 170.399 335.113 171 332C171.602 328.887 173.181 325.6 175 323C174.874 323.012 175.084 322.905 175 323C175.127 322.988 175.9 322.923 176 323C175.98 322.875 176.101 323.077 176 323C176.021 323.125 176.072 323.895 176 324C175.95 324.07 170.621 331.398 173 341C174.38 346.528 180.253 345.739 194 343C198.43 342.113 199.721 340.677 201 340C203.52 338.685 204.794 338.289 225 338C247.127 337.691 270.763 337.289 283 337C287.61 336.9 290.511 337 291 337C290.907 336.907 291.133 337 291 337C291 336.868 291.094 337.093 291 337C291 337.132 291.094 337.907 291 338C290.907 338.093 291.133 338 291 338C290.521 338 287.45 337.9 283 338C270.733 338.289 247.127 338.691 225 339C205.004 339.289 203.39 339.745 201 341C198.677 342.213 196.595 343.617 194 344C187.872 345.215 182.72 346 179 346Z" fill="#263238"/>
<path d="M175 345H174C173.935 344.99 174.057 345.033 174 345C173.944 344.967 174.039 345.052 174 345C173.961 344.948 174.016 345.063 174 345C173.984 344.937 173.99 344.064 174 344C174.31 342.594 175.121 342.152 176 341C176.879 339.848 177.711 338.689 179 338C179.32 337.833 186.357 334 191 334C192.534 334.059 194.701 334.2 196 335C197.3 335.8 198.28 337.672 199 339C199.258 339.383 199 339.542 199 340C199 340.458 199.258 340.617 199 341C198.958 341.05 198.058 340.97 198 341C197.942 341.03 198.066 340.994 198 341C197.868 341.012 198.102 341.083 198 341C197.898 340.917 198.012 341.13 198 341C197.915 341.1 197.988 340.87 198 341C198.25 340.706 198.32 339.676 198 339C197.358 337.842 196.14 336.701 195 336C193.861 335.299 192.344 335.063 191 335C186.597 335 180.07 338.971 180 339C178.852 339.625 177.79 339.971 177 341C176.211 342.029 175.295 343.746 175 345C175.094 344.924 174.981 345.118 175 345C175.122 345.004 174.906 345.076 175 345Z" fill="#263238"/>
<path d="M215 337C214.867 337 214.093 337.088 214 337C213.906 336.912 214 337.125 214 337V331C213.906 331.088 214 330.875 214 331C214.093 330.912 214.867 331 215 331C214.906 330.912 215.132 331 215 331C215 330.875 215.093 331.088 215 331V337C215.093 336.912 215 337.125 215 337C215.132 337 214.906 337.088 215 337Z" fill="#263238"/>
<path d="M217 335H216C215.956 334.992 216.039 335.034 216 335C215.961 334.966 216.028 335.055 216 335C215.973 334.945 216.012 335.067 216 335C215.988 334.933 215.995 334.069 216 334C216.229 331.424 216.345 329.544 216 327C215.978 326.863 215.955 326.122 216 326C215.913 326.037 216.046 325.878 216 326C216.086 325.964 216.923 325.931 217 326C216.977 325.866 217.077 326.069 217 326C217.37 328.678 217.246 332.287 217 335C217.055 334.916 216.991 335.12 217 335C217.077 334.989 216.945 335.084 217 335Z" fill="#263238"/>
<path d="M381 286H422V397H381C379.816 397 378.837 396.84 378 396C377.163 395.16 377 394.188 377 393V290C377 288.812 377.163 287.84 378 287C378.837 286.16 379.816 286 381 286Z" fill="#00812A"/>
<path d="M422 398H381C379.682 398 377.932 397.935 377 397C376.068 396.065 376 394.323 376 393V291C376 289.677 376.068 287.935 377 287C377.932 286.065 379.682 286 381 286H422C421.907 285.906 422.132 286 422 286C422 285.868 422.093 286.094 422 286V398C422.093 397.906 422 398.132 422 398C422.132 398 421.907 398.094 422 398ZM381 287C379.945 287 378.746 287.252 378 288C377.254 288.748 377 289.942 377 291V393C377 394.058 377.254 395.252 378 396C378.746 396.748 379.945 397 381 397H421V287H381Z" fill="#263238"/>
<path d="M422 281H495V407H422C421.091 407 420.643 406.641 420 406C419.358 405.359 419 404.907 419 404V284C418.999 283.55 418.829 283.416 419 283C419.172 282.584 419.682 282.319 420 282C420.319 281.681 420.584 281.172 421 281C421.417 280.828 421.549 281 422 281Z" fill="#00812A"/>
<path d="M494 407H422C420.957 407 419.739 406.735 419 406C418.261 405.265 418.003 404.041 418 403V284C418.003 282.959 418.261 281.735 419 281C419.739 280.265 420.957 280 422 280H494C494.133 280 494.906 279.906 495 280C495.094 280.094 495 280.867 495 281V406C495 406.133 495.094 406.906 495 407C494.906 407.094 494.133 407 494 407ZM422 281C421.615 280.999 421.356 280.854 421 281C420.644 281.146 420.273 281.729 420 282C419.727 282.271 419.148 282.645 419 283C418.852 283.355 419 283.616 419 284V403C419 403.384 418.852 403.645 419 404C419.148 404.355 419.727 404.729 420 405C420.273 405.271 420.644 405.854 421 406C421.356 406.146 421.615 406.001 422 406H494V281H422Z" fill="#263238"/>
<path d="M416 297H383C382.866 297 382.095 297.094 382 297C381.905 296.906 382 297.133 382 297C382.003 296.868 381.906 296.093 382 296C382.094 295.907 382.867 296.003 383 296H416C416.134 296 416.905 295.906 417 296C417.095 296.094 417 296.867 417 297C417 297.133 417.095 296.906 417 297C416.905 297.094 416.134 297 416 297Z" fill="#263238"/>
<path d="M416 310H381C380.868 310 381.093 310.094 381 310C380.906 309.906 381 310.133 381 310C381 309.867 380.906 309.094 381 309C380.868 309 381.093 308.906 381 309H416C415.906 308.906 416.131 309 416 309C416.093 309.094 416 309.867 416 310C416.092 309.907 415.997 310.132 416 310C416.131 309.997 415.907 310.093 416 310Z" fill="#263238"/>
<path d="M404 334H380C379.87 334 380.092 334.094 380 334C379.908 333.906 380 334.133 380 334C380 333.867 379.908 333.094 380 333C379.87 333 380.092 332.906 380 333H404C403.908 332.906 404.131 333 404 333C404.092 333.094 404 333.867 404 334C404.092 333.906 404 334.133 404 334C404.131 334 403.908 334.094 404 334Z" fill="#263238"/>
<path d="M416 334H409C408.864 334 408.095 334.094 408 334C407.904 333.906 408 334.133 408 334C408.002 333.868 407.904 333.093 408 333C408.095 332.907 408.865 333.003 409 333H416C416.134 333.003 416.904 332.907 417 333C417.095 333.093 416.997 333.868 417 334C417 334.133 417.095 333.906 417 334C416.904 334.094 416.135 334 416 334Z" fill="#263238"/>
</svg>
