<svg width="817" height="415" viewBox="0 0 817 415" fill="none" xmlns="http://www.w3.org/2000/svg">
<path d="M40.246 323.329C38.4558 321.875 37.1032 321.82 35.6313 320.698C35.4987 318.856 35.0478 315.713 34.8489 313.871C36.533 312.306 37.395 311.918 38.8536 310.603C38.8536 310.354 38.7078 310.104 38.5619 309.869C38.2039 309.287 37.8458 308.706 37.4613 308.124C36.0689 306.019 34.4644 304.067 32.6742 302.336C31.0166 303.928 29.6508 305.465 28.2849 307.016C26.2693 306.199 24.1344 305.687 21.9729 305.479C21.7342 303.36 21.3762 301.269 20.8855 299.206C18.0212 299.649 15.1172 300.466 12.4915 301.879C12.9424 303.873 13.4198 305.091 14.0696 306.822C12.3722 308.456 10.7279 309.966 9.37531 311.697C7.426 310.561 5.8082 310.021 3.97824 308.941C2.01567 311.974 0.676347 315.38 0.663086 318.912C2.745 319.189 3.97824 319.105 5.88777 319.244C6.15298 321.529 6.84253 323.828 7.73099 325.988C6.1795 327.511 5.31756 328.854 3.95172 330.004C5.03909 332.69 6.82927 335.003 9.04379 336.72C10.4096 335.21 11.2716 334.283 12.5048 332.967C14.3215 333.715 16.6421 334.726 18.5914 334.975C19.1882 336.969 19.2942 338.077 19.4932 339.96C22.5033 340.473 25.5798 340.251 28.5501 339.517C28.2849 337.343 28.4971 336.083 28.0462 334.213C29.7834 332.939 31.5073 331.139 32.6477 329.505C34.6235 329.865 35.4191 330.294 37.1165 330.848C38.7476 328.494 39.7156 325.96 40.2328 323.329H40.246ZM23.1398 326.071C21.8138 326.569 20.4877 326.999 17.0532 324.686C15.7006 323.786 12.7833 319.964 16.3902 315.214C17.5438 313.705 19.4666 312.805 21.2966 313.095C23.1133 313.386 24.5057 313.857 25.593 314.84C27.2771 316.35 27.9932 318.898 27.476 321.155C26.9456 323.412 25.2483 325.295 23.1531 326.071H23.1398Z" fill="#00812A"/>
<path d="M22.8746 340.945C21.6944 340.945 20.5274 340.848 19.387 340.654C19.0953 340.598 18.8566 340.349 18.8301 340.045L18.8035 339.768C18.6444 338.189 18.5383 337.192 18.0875 335.613C16.3503 335.309 14.4275 334.519 12.8495 333.868L12.6771 333.799C11.6826 334.852 10.8339 335.766 9.53438 337.206C9.29569 337.469 8.91114 337.497 8.64592 337.289C6.2988 335.447 4.45557 333.024 3.34168 330.282C3.22233 329.991 3.30189 329.659 3.54058 329.465C4.24339 328.869 4.82686 328.191 5.43685 327.471C5.90097 326.945 6.3651 326.391 6.9353 325.809C6.12641 323.773 5.58272 321.793 5.30424 319.896C4.8136 319.868 4.34948 319.854 3.89862 319.841C2.87756 319.813 1.90953 319.771 0.58347 319.591C0.251955 319.55 0 319.245 0 318.899C0.0132606 315.534 1.16694 312.044 3.4345 308.541C3.63341 308.236 4.01797 308.139 4.32296 308.319C5.22468 308.845 6.0601 309.247 6.94856 309.662C7.67789 310.009 8.42049 310.355 9.22938 310.798C10.3565 309.427 11.6296 308.208 12.9821 306.921L13.2871 306.63C12.7169 305.134 12.2661 303.902 11.8417 302.046C11.7754 301.728 11.908 301.409 12.1865 301.257C14.6397 299.941 17.5305 299.027 20.7794 298.515C21.1242 298.46 21.4424 298.695 21.5352 299.041C21.9861 300.938 22.3309 302.891 22.5696 304.843C24.4526 305.065 26.3091 305.522 28.086 306.2C29.3457 304.774 30.6585 303.306 32.21 301.825C32.462 301.575 32.8598 301.575 33.125 301.825C34.955 303.597 36.586 305.577 38.0049 307.738C38.3762 308.305 38.7342 308.887 39.0923 309.469C39.3045 309.801 39.5299 310.175 39.5166 310.632C39.5166 310.826 39.4238 311.02 39.2912 311.144C38.5884 311.781 38.0182 312.21 37.448 312.626C36.8778 313.055 36.2943 313.484 35.5384 314.163C35.6047 314.745 35.6843 315.423 35.7771 316.129C35.9495 317.542 36.1484 319.134 36.2545 320.325C36.7849 320.685 37.3154 320.921 37.8723 321.184C38.6812 321.544 39.5962 321.959 40.6305 322.804C40.8294 322.97 40.9355 323.233 40.8825 323.496C40.2857 326.446 39.2249 328.994 37.6469 331.279C37.4745 331.528 37.1828 331.625 36.9043 331.542C36.4136 331.376 36.0026 331.237 35.618 331.099C34.7428 330.78 34.04 330.531 32.9261 330.31C31.8122 331.833 30.3138 333.37 28.7888 334.547C28.9877 335.53 29.0142 336.361 29.054 337.247C29.0805 337.926 29.107 338.618 29.2131 339.477C29.2529 339.837 29.0407 340.169 28.696 340.252C26.7069 340.737 24.7576 340.986 22.8613 340.986L22.8746 340.945ZM20.1031 339.352C22.5696 339.698 25.1554 339.574 27.8208 338.978C27.7677 338.341 27.7412 337.787 27.7147 337.275C27.6749 336.292 27.6351 335.447 27.3832 334.395C27.3169 334.118 27.4229 333.813 27.6484 333.647C29.2662 332.456 30.9635 330.711 32.0907 329.105C32.2365 328.883 32.5018 328.772 32.7537 328.828C34.2256 329.091 35.0743 329.396 36.0556 329.756C36.3076 329.839 36.5595 329.936 36.8512 330.033C38.0977 328.135 38.9597 326.031 39.4901 323.635C38.721 323.067 38.0314 322.762 37.3551 322.458C36.6656 322.153 35.9628 321.835 35.2334 321.281C35.0743 321.156 34.9682 320.976 34.955 320.768C34.8754 319.605 34.65 317.86 34.4643 316.323C34.3582 315.451 34.2522 314.634 34.1859 313.969C34.1593 313.748 34.2389 313.512 34.4113 313.374C35.3395 312.501 36.0291 311.989 36.6921 311.504C37.1562 311.158 37.5806 310.839 38.0845 310.41C38.058 310.369 38.0314 310.313 38.0049 310.286C37.6336 309.676 37.2888 309.109 36.9175 308.555C35.6711 306.671 34.2522 304.913 32.6874 303.334C31.242 304.746 30.0088 306.159 28.802 307.53C28.6164 307.738 28.3247 307.807 28.0727 307.71C26.1101 306.921 24.0415 306.408 21.9463 306.214C21.6281 306.187 21.3761 305.924 21.3363 305.591C21.1242 303.722 20.8192 301.866 20.4081 300.038C17.756 300.509 15.369 301.257 13.3004 302.295C13.6849 303.846 14.096 304.926 14.6397 306.367L14.7325 306.602C14.8386 306.865 14.7723 307.184 14.5602 307.378L13.9104 308.001C12.4517 309.399 11.0859 310.715 9.93219 312.183C9.73329 312.446 9.37525 312.515 9.08352 312.349C8.14201 311.809 7.26682 311.393 6.41814 310.992C5.71533 310.659 4.98599 310.313 4.23014 309.912C2.47974 312.778 1.52497 315.603 1.3791 318.331C2.34713 318.442 3.1295 318.47 3.96492 318.497C4.58817 318.511 5.22468 318.539 5.96728 318.594C6.28553 318.622 6.55074 318.871 6.59053 319.204C6.84248 321.267 7.4392 323.483 8.38071 325.754C8.48679 326.031 8.43374 326.335 8.22157 326.543C7.53202 327.208 6.98835 327.845 6.45792 328.454C5.91424 329.077 5.39707 329.673 4.80034 330.24C5.75511 332.387 7.20051 334.298 9.00396 335.821C10.2107 334.492 11.0328 333.619 12.0539 332.525C12.2395 332.331 12.5313 332.262 12.77 332.359L13.3534 332.594C14.9978 333.273 17.0399 334.104 18.6975 334.312C18.9627 334.339 19.1749 334.533 19.2544 334.796C19.8114 336.652 19.9572 337.787 20.1163 339.38L20.1031 339.352ZM21.3496 327.18C20.2092 327.18 18.8035 326.723 16.6819 325.297C15.8862 324.757 14.4275 323.233 14.0562 320.907C13.7247 318.857 14.3347 316.808 15.8464 314.8C17.1857 313.027 19.3605 312.1 21.3761 312.432C23.5243 312.778 24.9167 313.346 26.0041 314.329C27.8473 315.991 28.6827 318.802 28.0992 321.336C27.529 323.801 25.7123 325.864 23.3519 326.751C22.7022 326.986 22.0789 327.18 21.3363 327.18H21.3496ZM20.5937 313.761C19.2279 313.761 17.809 314.481 16.9073 315.672C15.6343 317.348 15.1171 319.037 15.3823 320.685C15.6608 322.402 16.7481 323.69 17.4112 324.133C20.6335 326.294 21.7474 325.878 22.9143 325.435C24.8239 324.729 26.3488 322.984 26.813 321.004C27.2903 318.968 26.614 316.711 25.1554 315.382C24.2669 314.578 23.0867 314.108 21.1905 313.803C20.9916 313.775 20.7926 313.761 20.5937 313.761Z" fill="black"/>
<path d="M703.701 92.9032C701.885 92.8755 700.174 94.3988 699.763 96.379C699.352 98.3593 700.214 100.589 701.752 101.697C703.303 102.804 705.412 102.763 706.924 101.669C708.183 100.755 709.019 99.1347 708.992 97.4453C708.966 95.7559 708.037 94.0803 706.632 93.4017C705.836 93.014 704.908 92.9448 703.688 92.9171L703.701 92.9032Z" fill="white"/>
<path d="M704.311 103.192C703.277 103.192 702.242 102.888 701.367 102.265C699.59 100.991 698.635 98.4426 699.1 96.227C699.59 93.9144 701.526 92.1973 703.635 92.1973C703.661 92.1973 703.688 92.1973 703.701 92.1973C704.841 92.225 705.942 92.2804 706.91 92.7512C708.528 93.5405 709.628 95.41 709.655 97.4317C709.681 99.3289 708.78 101.171 707.295 102.251C706.406 102.888 705.359 103.22 704.298 103.22L704.311 103.192ZM703.648 93.5959C702.176 93.5959 700.77 94.8699 700.426 96.5178C700.081 98.1795 700.81 100.146 702.149 101.101C703.449 102.029 705.252 102.015 706.552 101.074C707.653 100.271 708.355 98.8442 708.329 97.4317C708.302 95.9639 707.507 94.5653 706.366 94.0113C705.703 93.6928 704.881 93.6097 703.701 93.5959C703.701 93.5959 703.674 93.5959 703.661 93.5959H703.648Z" fill="black"/>
<path d="M606.046 121.052C606.046 121.052 606.019 121.052 606.006 121.052C605.714 121.038 605.462 120.816 605.396 120.511C604.6 116.966 600.237 111.898 592.772 105.874C589.483 103.229 585.969 100.695 582.853 98.4657C581.208 97.2887 579.67 96.1808 578.384 95.2115C578.079 94.9899 578.013 94.5468 578.238 94.2283C578.45 93.9098 578.875 93.8406 579.18 94.076C580.453 95.0315 581.991 96.1393 583.635 97.3164C586.765 99.5597 590.305 102.108 593.62 104.78C600.29 110.167 604.468 114.723 606.112 118.379C608.3 113.075 610.793 111.303 614.996 108.298C616.389 107.301 617.967 106.179 619.81 104.739C620.367 104.31 620.964 103.853 621.587 103.396C630.498 96.7486 645.39 85.6426 647.18 29.7804C635.219 26.6231 618.696 20.8347 606.443 10.9473C593.13 20.8624 573.915 27.0939 565.667 29.4619C565.707 30.0574 565.76 30.819 565.813 31.6637C565.998 34.5856 566.25 38.5877 566.449 39.5847C566.529 39.9586 566.29 40.3325 565.932 40.4156C565.574 40.4987 565.216 40.2494 565.136 39.8755C564.924 38.7954 564.672 34.8903 564.473 31.7607C564.407 30.6252 564.341 29.6281 564.288 29.0049C564.261 28.6726 564.474 28.3679 564.779 28.271C572.708 26.0277 592.626 19.6992 606.059 9.52102C606.298 9.341 606.629 9.34101 606.868 9.53488C619.147 19.6161 636.028 25.4599 648.029 28.5757C648.334 28.6588 648.546 28.9496 648.533 29.2819C647.777 54.2911 644.382 72.7641 638.176 85.7257C632.951 96.6516 626.825 101.221 622.356 104.559C621.733 105.016 621.149 105.459 620.606 105.888C618.736 107.342 617.145 108.478 615.739 109.489C611.045 112.84 608.897 114.363 606.695 120.636C606.602 120.913 606.351 121.093 606.059 121.093L606.046 121.052Z" fill="black"/>
<path d="M606.231 108.255C606.151 108.255 606.085 108.214 606.045 108.145C604.905 106.164 597.413 99.0743 591.764 95.2939C591.658 95.2246 591.631 95.0861 591.697 94.9754C591.764 94.8646 591.896 94.8369 592.002 94.9061C597.452 98.5481 604.626 105.292 606.244 107.618C607.597 105.846 611.283 102.606 617.224 97.9803C634.397 84.5756 638.613 65.2994 640.351 34.4326C625.393 30.5137 614.346 25.4869 606.589 19.0754C598.672 25.2515 584.908 29.4751 576.66 31.9954C574.936 32.5216 573.424 32.9924 572.31 33.3663L572.337 33.6156C572.456 34.6403 572.615 36.0528 572.615 36.4544C572.615 36.579 572.509 36.6898 572.39 36.6898C572.271 36.6898 572.165 36.579 572.165 36.4544C572.165 36.0944 572.005 34.6403 571.899 33.671L571.846 33.2278C571.846 33.1171 571.899 33.0201 572.005 32.9786C573.146 32.5908 574.724 32.1062 576.541 31.5384C584.802 29.0043 598.633 24.753 606.456 18.5768C606.536 18.5076 606.655 18.5076 606.735 18.5768C614.479 25.0299 625.565 30.0844 640.642 34.0033C640.748 34.031 640.815 34.128 640.815 34.2387C639.078 65.3548 634.847 84.7833 617.489 98.3265C611.283 103.173 607.557 106.469 606.417 108.131C606.377 108.186 606.311 108.228 606.231 108.228V108.255Z" fill="black"/>
<path d="M593.223 61.4919C589.059 59.2762 583.317 61.4088 581.394 65.8955C580.97 66.8926 580.705 67.9727 580.122 68.8728C579.22 70.2576 577.708 71.0192 576.395 71.9886C574.499 73.401 572.987 75.3536 572.046 77.5831C571.184 79.6464 570.839 82.0975 571.767 84.1193C573.16 87.1797 577.191 88.1767 580.122 86.7642C581.845 85.9333 583.264 84.4516 585.081 83.8839C587.813 83.0253 590.664 84.4378 593.249 85.6702C595.835 86.9027 598.912 87.9967 601.445 86.6119C603.54 85.4625 604.614 82.7899 604.388 80.325C604.163 77.86 602.797 75.6305 601.06 73.9827C600.291 73.2487 599.429 72.5979 598.792 71.7255C597.785 70.3684 597.427 68.6235 596.817 67.0172C595.981 64.8292 594.947 62.4059 593.249 61.5058L593.223 61.4919Z" fill="#00812A"/>
<path d="M577.297 88.0928C574.711 88.0928 572.218 86.7219 571.157 84.4093C569.924 81.7228 570.799 78.787 571.435 77.2915C572.43 74.9373 574.008 72.9017 576.01 71.4061C576.355 71.1569 576.7 70.9076 577.058 70.6722C578.039 70.0075 578.967 69.3844 579.564 68.4566C579.909 67.9304 580.134 67.3072 580.373 66.6563C580.506 66.3102 580.625 65.9501 580.784 65.6039C581.792 63.2775 583.794 61.4219 586.301 60.4941C588.767 59.594 591.406 59.7186 593.541 60.8541C595.464 61.8788 596.551 64.4268 597.44 66.7394C597.612 67.1964 597.771 67.6672 597.917 68.1104C598.302 69.2736 598.66 70.3814 599.323 71.2677C599.734 71.8354 600.277 72.3063 600.834 72.8048C601.06 73.0125 601.298 73.2202 601.524 73.4279C603.592 75.3943 604.852 77.8039 605.078 80.2272C605.343 83.1214 603.99 85.9879 601.776 87.2065C598.951 88.7575 595.596 87.525 592.997 86.2926L592.851 86.2233C590.345 85.0186 587.746 83.7861 585.306 84.5478C584.351 84.8524 583.489 85.434 582.588 86.0572C581.911 86.528 581.209 87.0127 580.439 87.3866C579.445 87.8574 578.384 88.0928 577.336 88.0928H577.297ZM589.589 61.2972C588.648 61.2972 587.68 61.4634 586.738 61.8096C584.59 62.5989 582.866 64.1914 582.004 66.1717C581.872 66.4902 581.752 66.8087 581.62 67.1549C581.368 67.8611 581.102 68.5812 580.665 69.2459C579.922 70.3953 578.822 71.1292 577.774 71.8493C577.443 72.0709 577.098 72.3063 576.78 72.5417C574.976 73.8849 573.557 75.7128 572.655 77.8454C571.741 80.0334 571.634 82.2075 572.364 83.8C573.637 86.5695 577.35 87.3035 579.829 86.1126C580.506 85.7941 581.142 85.3509 581.805 84.8939C582.747 84.2431 583.728 83.5646 584.882 83.2045C587.799 82.2906 590.756 83.703 593.369 84.9493L593.514 85.0186C595.835 86.1264 598.805 87.2342 601.113 85.9741C602.85 85.0186 603.924 82.706 603.699 80.3657C603.5 78.2885 602.399 76.1975 600.582 74.4665C600.37 74.2588 600.145 74.0649 599.933 73.8711C599.336 73.3448 598.739 72.8048 598.235 72.1124C597.44 71.0323 597.028 69.7721 596.631 68.5535C596.485 68.1104 596.339 67.6672 596.18 67.238C595.397 65.1608 594.429 62.8897 592.931 62.0866C591.923 61.5465 590.783 61.2834 589.603 61.2834L589.589 61.2972Z" fill="black"/>
<path d="M566.224 54.9979C564.235 57.3797 563.638 60.9386 564.739 63.8744C565.521 65.9792 567.418 67.8349 569.553 67.6133C571.475 67.4056 572.987 65.5223 573.305 63.5005C573.624 61.4787 572.974 59.4292 572.019 57.6705C570.985 55.7457 568.187 52.6576 566.237 54.9979H566.224Z" fill="#00812A"/>
<path d="M569.194 68.3324C566.781 68.3324 564.898 66.2137 564.116 64.1227C562.936 60.9515 563.585 57.1018 565.72 54.5261C566.383 53.7368 567.219 53.3629 568.134 53.4599C570.136 53.6676 571.926 56.0771 572.602 57.3096C573.822 59.5529 574.273 61.6716 573.968 63.6103C573.624 65.7567 572.019 68.0555 569.619 68.3047C569.473 68.3186 569.327 68.3324 569.194 68.3324ZM567.855 54.8585C567.444 54.8585 567.086 55.0524 566.741 55.4539C564.911 57.6419 564.368 60.91 565.375 63.6103C566.038 65.3967 567.67 67.0861 569.5 66.9061C570.998 66.7538 572.364 65.2305 572.656 63.3749C572.907 61.7685 572.51 59.9545 571.449 58.0019C570.68 56.5756 569.208 54.9831 568.014 54.8585C567.961 54.8585 567.908 54.8585 567.868 54.8585H567.855Z" fill="black"/>
<path d="M607.744 52.655C604.933 53.7767 602.811 56.6293 602.467 59.7589C602.215 62.0023 603.05 64.5918 605.039 65.4504C606.829 66.2259 608.991 65.2981 610.184 63.6779C611.364 62.0577 611.709 59.9113 611.656 57.8756C611.603 55.66 610.529 51.5472 607.758 52.6411L607.744 52.655Z" fill="#00812A"/>
<path d="M606.405 66.4478C605.861 66.4478 605.304 66.337 604.761 66.1016C602.347 65.0491 601.525 62.0303 601.79 59.6762C602.162 56.2835 604.469 53.1954 607.506 51.9906C608.447 51.6168 609.336 51.6998 610.091 52.2261C611.762 53.4031 612.279 56.4219 612.319 57.8483C612.386 60.4378 611.842 62.5288 610.701 64.0936C609.747 65.4092 608.116 66.4339 606.405 66.4339V66.4478ZM607.983 53.3062C605.397 54.3309 603.448 56.962 603.13 59.8424C602.917 61.7534 603.594 64.066 605.291 64.8137C606.882 65.5061 608.712 64.5229 609.641 63.2628C610.582 61.9611 611.033 60.1609 610.98 57.9037C610.94 56.2419 610.357 54.1094 609.349 53.4031C608.951 53.1262 608.527 53.0985 607.983 53.3062Z" fill="black"/>
<path d="M578.902 40.5257C576.913 42.9076 576.317 46.4665 577.417 49.4022C578.2 51.5071 580.096 53.3627 582.231 53.1411C584.154 52.9334 585.665 51.0501 585.984 49.0283C586.302 47.0204 585.652 44.9571 584.697 43.1984C583.663 41.2735 580.865 38.1855 578.916 40.5257H578.902Z" fill="#00812A"/>
<path d="M581.873 53.8603C579.459 53.8603 577.576 51.7416 576.794 49.6505C575.614 46.4794 576.263 42.6297 578.398 40.054C579.061 39.2646 579.897 38.8908 580.812 38.9877C582.814 39.1954 584.604 41.6049 585.281 42.8374C586.501 45.0808 586.952 47.1995 586.647 49.1382C586.302 51.2846 584.697 53.5833 582.297 53.8326C582.151 53.8464 582.005 53.8603 581.873 53.8603ZM580.533 40.3863C580.122 40.3863 579.764 40.5802 579.42 40.9818C577.59 43.1697 577.046 46.4378 578.054 49.1382C578.717 50.9245 580.348 52.614 582.178 52.4339C583.676 52.2816 585.042 50.7584 585.334 48.9027C585.586 47.2964 585.188 45.4823 584.127 43.5298C583.358 42.1035 581.886 40.511 580.693 40.3863C580.64 40.3863 580.586 40.3863 580.547 40.3863H580.533Z" fill="black"/>
<path d="M599.35 40.358C601.353 42.6983 601.976 46.2572 600.902 49.2068C600.133 51.3255 598.25 53.2088 596.115 53.0288C594.179 52.8626 592.667 50.9931 592.335 48.9852C592.004 46.9773 592.64 44.9139 593.582 43.1276C594.603 41.1889 597.374 38.0454 599.35 40.358Z" fill="#00812A"/>
<path d="M596.406 53.7487C596.287 53.7487 596.167 53.7487 596.048 53.7348C593.635 53.5271 592.017 51.2422 591.672 49.1096C591.354 47.1848 591.792 45.0522 592.998 42.795C593.661 41.5349 595.451 39.1115 597.454 38.8761C598.355 38.7653 599.191 39.1253 599.854 39.9008C602.015 42.435 602.692 46.2847 601.525 49.4697C600.756 51.5884 598.846 53.7487 596.419 53.7487H596.406ZM597.746 40.247C597.746 40.247 597.639 40.247 597.586 40.247C596.393 40.3855 594.921 42.0057 594.152 43.4597C593.104 45.44 592.707 47.254 592.972 48.8604C593.237 50.4252 594.43 52.1839 596.141 52.3362C597.958 52.5024 599.589 50.7575 600.252 48.9712C601.233 46.257 600.663 42.9889 598.833 40.8425C598.501 40.4547 598.143 40.2609 597.746 40.2609V40.247Z" fill="black"/>
<path d="M575.627 84.6026C575.627 84.6026 575.507 84.5749 575.468 84.5334C574.367 83.384 573.89 81.5976 574.248 80.0051C574.274 79.8805 574.394 79.7974 574.513 79.8389C574.632 79.8666 574.712 79.9913 574.672 80.1159C574.34 81.5561 574.765 83.1624 575.773 84.201C575.865 84.2979 575.865 84.4364 575.773 84.5334C575.733 84.5749 575.667 84.6026 575.614 84.6026H575.627Z" fill="black"/>
<path d="M637.2 119.726L637.161 338.937C637.161 343.216 633.09 347.786 628.077 347.786H172.535C165.626 347.786 162.152 340.945 162.152 336.666L162.842 118.479C162.842 114.2 166.913 109.077 171.925 109.077L626.486 108.8C631.498 108.8 637.2 113.356 637.2 119.74V119.726Z" fill="white"/>
<path d="M628.077 348.478H172.535C165.414 348.478 161.476 341.484 161.476 336.665L162.165 118.465C162.165 113.881 166.515 108.356 171.925 108.356L626.486 108.079C631.87 108.079 637.863 112.857 637.863 119.725L637.824 338.936C637.824 343.437 633.646 348.478 628.064 348.478H628.077ZM626.499 109.478L171.938 109.755C167.284 109.755 163.531 114.518 163.531 118.465L162.842 336.665C162.842 340.183 165.772 347.079 172.548 347.079H628.077C632.811 347.079 636.484 342.703 636.484 338.936L636.524 119.725C636.524 113.868 631.22 109.492 626.486 109.492L626.499 109.478Z" fill="black"/>
<path d="M163.637 130.11C163.266 130.11 162.961 129.792 162.961 129.404C162.961 129.016 163.266 128.698 163.637 128.698L636.63 128.116C637.002 128.116 637.307 128.435 637.307 128.822C637.307 129.21 637.002 129.529 636.63 129.529L163.637 130.11Z" fill="black"/>
<path d="M620.227 117.995C619.537 117.856 618.808 118.244 618.477 118.826C618.185 119.31 618.145 119.947 618.397 120.446C618.649 120.945 619.206 121.318 619.803 121.332C620.665 121.36 621.447 120.584 621.46 119.767C621.473 118.937 620.824 118.106 620.227 117.995Z" fill="black"/>
<path d="M604.924 117.995C604.235 117.856 603.505 118.244 603.161 118.826C602.869 119.31 602.829 119.947 603.081 120.446C603.333 120.945 603.89 121.318 604.487 121.332C605.349 121.36 606.131 120.584 606.144 119.767C606.158 118.937 605.508 118.106 604.911 117.995H604.924Z" fill="black"/>
<path d="M588.64 117.995C587.951 117.856 587.221 118.244 586.89 118.826C586.598 119.31 586.558 119.947 586.81 120.446C587.062 120.945 587.619 121.318 588.216 121.332C589.078 121.36 589.86 120.584 589.873 119.767C589.887 118.937 589.237 118.106 588.64 117.995Z" fill="black"/>
<path d="M428.982 298.846L388.497 298.569C388.378 298.569 388.272 298.459 388.272 298.334C388.272 298.209 388.378 298.099 388.497 298.099L428.982 298.376C429.101 298.376 429.207 298.486 429.207 298.611C429.207 298.736 429.101 298.846 428.982 298.846Z" fill="black"/>
<path d="M425.03 307.266L392.462 306.989C392.343 306.989 392.237 306.879 392.237 306.754C392.237 306.629 392.343 306.519 392.462 306.519L425.03 306.796C425.15 306.796 425.256 306.906 425.256 307.031C425.256 307.156 425.15 307.266 425.03 307.266Z" fill="black"/>
<path d="M428.982 315.683L388.497 315.406C388.378 315.406 388.272 315.296 388.272 315.171C388.272 315.046 388.378 314.936 388.497 314.936L428.982 315.212C429.101 315.212 429.207 315.323 429.207 315.448C429.207 315.573 429.101 315.683 428.982 315.683Z" fill="black"/>
<path d="M285.503 298.846L245.018 298.569C244.899 298.569 244.792 298.459 244.792 298.334C244.792 298.209 244.899 298.099 245.018 298.099L285.503 298.376C285.622 298.376 285.728 298.486 285.728 298.611C285.728 298.736 285.622 298.846 285.503 298.846Z" fill="black"/>
<path d="M281.551 307.266L248.983 306.989C248.863 306.989 248.757 306.879 248.757 306.754C248.757 306.629 248.877 306.532 248.983 306.519L281.551 306.796C281.67 306.796 281.776 306.906 281.776 307.031C281.776 307.156 281.67 307.266 281.551 307.266Z" fill="black"/>
<path d="M285.503 315.683L245.018 315.406C244.899 315.406 244.792 315.296 244.792 315.171C244.792 315.046 244.899 314.936 245.018 314.936L285.503 315.212C285.622 315.212 285.728 315.323 285.728 315.448C285.728 315.573 285.622 315.683 285.503 315.683Z" fill="black"/>
<path d="M572.462 298.846L531.977 298.569C531.858 298.569 531.752 298.459 531.752 298.334C531.752 298.209 531.858 298.099 531.977 298.099L572.462 298.376C572.581 298.376 572.687 298.486 572.687 298.611C572.687 298.736 572.581 298.846 572.462 298.846Z" fill="black"/>
<path d="M568.497 307.266L535.929 306.989C535.81 306.989 535.704 306.879 535.704 306.754C535.704 306.629 535.81 306.519 535.929 306.519L568.497 306.796C568.616 306.796 568.723 306.906 568.723 307.031C568.723 307.156 568.616 307.266 568.497 307.266Z" fill="black"/>
<path d="M572.462 315.683L531.977 315.406C531.858 315.406 531.752 315.296 531.752 315.171C531.752 315.046 531.858 314.936 531.977 314.936L572.462 315.212C572.581 315.212 572.687 315.323 572.687 315.448C572.687 315.573 572.581 315.683 572.462 315.683Z" fill="black"/>
<path d="M407.142 273.823C407.142 273.823 407.115 273.823 407.102 273.823C406.81 273.81 406.558 273.588 406.492 273.283C405.696 269.738 401.334 264.67 393.868 258.646C390.593 256.001 387.065 253.467 383.949 251.238C382.305 250.06 380.753 248.939 379.467 247.969C379.162 247.748 379.096 247.305 379.321 246.986C379.533 246.668 379.958 246.599 380.263 246.834C381.536 247.789 383.087 248.911 384.718 250.074C387.848 252.318 391.388 254.852 394.69 257.524C401.36 262.911 405.537 267.467 407.182 271.123C409.37 265.819 411.863 264.047 416.066 261.042C417.459 260.045 419.037 258.923 420.88 257.483C421.437 257.054 422.034 256.597 422.657 256.14C431.568 249.493 446.46 238.387 448.25 182.525C436.289 179.367 419.766 173.579 407.513 163.691C394.2 173.607 374.985 179.838 366.737 182.206C366.777 182.815 366.83 183.577 366.883 184.422C367.068 187.344 367.32 191.332 367.519 192.329C367.599 192.703 367.36 193.077 367.002 193.16C366.644 193.243 366.286 192.994 366.206 192.62C365.994 191.539 365.742 187.648 365.543 184.532C365.477 183.397 365.411 182.386 365.358 181.749C365.331 181.417 365.543 181.112 365.848 181.015C373.778 178.772 393.696 172.443 407.129 162.265C407.367 162.085 407.699 162.085 407.938 162.279C420.217 172.36 437.098 178.204 449.098 181.32C449.403 181.403 449.616 181.694 449.602 182.026C448.847 207.035 445.452 225.494 439.246 238.47C434.021 249.396 427.895 253.966 423.426 257.303C422.803 257.76 422.219 258.203 421.662 258.632C419.793 260.086 418.201 261.222 416.796 262.233C412.101 265.584 409.953 267.107 407.752 273.38C407.659 273.657 407.407 273.837 407.115 273.837L407.142 273.823Z" fill="black"/>
<path d="M407.328 261.041C407.248 261.041 407.182 261 407.142 260.93C406.002 258.95 398.509 251.86 392.86 248.08C392.754 248.01 392.728 247.872 392.794 247.761C392.86 247.65 392.993 247.623 393.099 247.692C398.549 251.334 405.723 258.078 407.341 260.404C408.693 258.632 412.38 255.391 418.321 250.766C435.493 237.361 439.71 218.085 441.447 187.218C426.489 183.299 415.443 178.273 407.686 171.861C399.769 178.037 386.005 182.261 377.756 184.781C376.033 185.307 374.521 185.778 373.407 186.152L373.434 186.401C373.553 187.426 373.712 188.838 373.712 189.24C373.712 189.365 373.606 189.475 373.487 189.475C373.367 189.475 373.261 189.365 373.261 189.24C373.261 188.866 373.102 187.412 372.996 186.457L372.943 186.013C372.943 185.903 372.996 185.806 373.089 185.764C374.229 185.376 375.794 184.892 377.624 184.324C385.885 181.79 399.729 177.539 407.553 171.362C407.633 171.293 407.752 171.293 407.832 171.362C415.576 177.816 426.662 182.87 441.739 186.789C441.845 186.817 441.911 186.914 441.911 187.024C440.174 218.14 435.944 237.569 418.586 251.112C412.38 255.959 408.654 259.255 407.513 260.916C407.474 260.972 407.407 261.013 407.328 261.013V261.041Z" fill="black"/>
<path d="M401.837 196.177C397.223 196.177 394.279 198.697 393.709 202.325C393.178 205.621 394.902 209.249 398.164 210.759C403.455 213.21 409.475 209.443 409.475 204.098C409.475 198.752 405.736 196.177 401.851 196.177H401.837Z" fill="white"/>
<path d="M401.612 212.228C400.353 212.228 399.093 211.951 397.886 211.397C394.478 209.818 392.449 205.954 393.046 202.202C393.709 198.047 397.077 195.472 401.838 195.472C405.975 195.472 410.139 198.144 410.139 204.099C410.139 206.744 408.826 209.139 406.545 210.704C405.047 211.715 403.336 212.241 401.612 212.241V212.228ZM401.838 196.87C397.714 196.87 394.916 198.948 394.372 202.437C393.868 205.567 395.579 208.793 398.443 210.123C400.87 211.244 403.628 211.023 405.816 209.527C407.712 208.239 408.8 206.259 408.8 204.099C408.8 198.767 405.047 196.884 401.838 196.884V196.87Z" fill="black"/>
<path d="M388.816 240.56C389.2 235.589 388.816 230.479 389.704 225.632C390.805 219.705 393.988 214.443 398.204 212.407C402.421 210.372 407.527 211.881 410.47 216.479C412.91 220.301 413.666 225.604 413.985 230.673C414.183 233.955 414.236 237.264 414.276 240.56H388.829H388.816Z" fill="black"/>
<path d="M361.287 199.669C356.897 199.669 354.113 201.982 353.556 205.319C353.052 208.352 354.683 211.689 357.786 213.087C362.812 215.345 368.527 211.883 368.527 206.953C368.527 202.023 364.973 199.669 361.273 199.669H361.287Z" fill="white"/>
<path d="M361.074 214.501C359.881 214.501 358.674 214.252 357.534 213.739C354.285 212.285 352.336 208.699 352.906 205.209C353.542 201.359 356.751 198.978 361.3 198.978C365.238 198.978 369.216 201.442 369.216 206.968C369.216 209.35 368.01 211.551 365.914 212.992C364.456 213.989 362.772 214.501 361.074 214.501ZM361.286 200.376C357.441 200.376 354.736 202.315 354.219 205.444C353.754 208.297 355.359 211.233 358.051 212.438C360.371 213.476 363.09 213.241 365.172 211.814C366.882 210.637 367.864 208.865 367.864 206.954C367.864 202.093 364.323 200.362 361.286 200.362V200.376Z" fill="black"/>
<path d="M348.915 239.774C349.286 235.328 348.915 230.759 349.763 226.424C350.811 221.121 353.834 216.412 357.839 214.584C361.844 212.756 366.697 214.114 369.495 218.226C371.816 221.647 372.532 226.397 372.823 230.925C373.009 233.874 373.062 236.824 373.102 239.774H348.915Z" fill="white"/>
<path d="M373.102 240.48H348.915C348.729 240.48 348.543 240.397 348.424 240.258C348.291 240.12 348.238 239.926 348.251 239.718C348.384 238.07 348.424 236.367 348.45 234.705C348.503 231.922 348.556 229.041 349.1 226.272C350.227 220.525 353.476 215.803 357.56 213.933C361.976 211.912 367.108 213.504 370.025 217.811C372.585 221.591 373.221 226.77 373.486 230.869C373.672 233.833 373.725 236.838 373.765 239.76C373.765 239.954 373.699 240.134 373.566 240.258C373.433 240.397 373.261 240.466 373.089 240.466L373.102 240.48ZM349.644 239.081H372.426C372.386 236.409 372.333 233.667 372.16 230.98C371.908 227.075 371.312 222.131 368.951 218.642C366.405 214.889 361.95 213.49 358.117 215.235C354.471 216.897 351.461 221.356 350.426 226.577C349.909 229.221 349.856 232.033 349.803 234.747C349.776 236.173 349.75 237.627 349.657 239.081H349.644Z" fill="black"/>
<path d="M382.331 210.331C378.738 210.331 376.457 212.297 376.006 215.15C375.595 217.726 376.934 220.578 379.467 221.756C383.578 223.667 388.259 220.731 388.259 216.535C388.259 212.339 385.355 210.331 382.331 210.331Z" fill="white"/>
<path d="M382.159 223.058C381.164 223.058 380.156 222.837 379.202 222.394C376.496 221.134 374.879 218.032 375.356 215.027C375.887 211.689 378.552 209.626 382.344 209.626C385.633 209.626 388.948 211.759 388.948 216.536C388.948 218.641 387.874 220.621 386.057 221.854C384.877 222.657 383.525 223.058 382.172 223.058H382.159ZM382.344 211.038C379.215 211.038 377.106 212.617 376.682 215.262C376.311 217.644 377.597 220.109 379.759 221.12C381.589 221.964 383.657 221.812 385.328 220.677C386.773 219.693 387.609 218.184 387.609 216.536C387.609 212.479 384.771 211.038 382.344 211.038Z" fill="black"/>
<path d="M371.869 239.772C372.174 236.795 371.869 233.734 372.585 230.826C373.473 227.267 376.032 224.11 379.414 222.891C382.795 221.673 386.906 222.573 389.28 225.329C391.242 227.627 391.852 230.799 392.104 233.845C392.263 235.812 392.303 237.792 392.343 239.772H371.869Z" fill="#00812A"/>
<path d="M392.343 240.478H371.869C371.683 240.478 371.497 240.395 371.365 240.242C371.232 240.09 371.179 239.896 371.192 239.702C371.312 238.608 371.338 237.473 371.365 236.379C371.418 234.496 371.458 232.543 371.935 230.66C372.916 226.727 375.688 223.5 379.202 222.24C382.941 220.883 387.291 221.977 389.784 224.871C391.998 227.461 392.542 231.006 392.767 233.789C392.927 235.783 392.966 237.805 393.006 239.772C393.006 239.966 392.94 240.146 392.82 240.27C392.688 240.409 392.515 240.478 392.343 240.478ZM372.611 239.079H391.654C391.614 237.376 391.574 235.617 391.428 233.914C391.216 231.338 390.725 228.098 388.776 225.813C386.641 223.32 382.875 222.393 379.639 223.57C376.55 224.691 374.096 227.544 373.235 231.02C372.797 232.751 372.757 234.537 372.717 236.42C372.691 237.293 372.678 238.193 372.611 239.093V239.079Z" fill="black"/>
<path d="M352.654 237.599C352.535 237.599 352.442 237.502 352.429 237.377C352.283 235.176 352.322 232.932 352.535 230.731C352.535 230.606 352.654 230.509 352.774 230.523C352.893 230.523 352.986 230.647 352.973 230.772C352.76 232.946 352.734 235.162 352.88 237.336C352.88 237.461 352.8 237.571 352.667 237.585C352.667 237.585 352.667 237.585 352.654 237.585V237.599Z" fill="black"/>
<path d="M355.903 237.598C355.784 237.598 355.678 237.501 355.678 237.376L355.598 234.579C355.598 234.455 355.691 234.344 355.81 234.344C355.943 234.344 356.036 234.441 356.036 234.565L356.116 237.363C356.116 237.487 356.023 237.598 355.903 237.598Z" fill="black"/>
<path d="M410.828 237.224C410.709 237.224 410.603 237.127 410.603 237.002L410.404 231.145C410.404 231.02 410.497 230.909 410.616 230.909C410.736 230.909 410.842 231.006 410.842 231.131L411.041 236.988C411.041 237.113 410.948 237.224 410.828 237.224Z" fill="black"/>
<path d="M549.72 273.824C549.72 273.824 549.707 273.824 549.694 273.824C549.402 273.824 549.15 273.602 549.07 273.312C547.36 266.817 542.917 263.452 538.21 259.879C537.202 259.118 536.168 258.328 535.147 257.511C532.693 255.531 530.837 254.049 529.458 253.26C529.126 253.08 529.02 252.651 529.193 252.304C529.365 251.958 529.776 251.834 530.108 252.028C531.58 252.872 533.476 254.368 535.982 256.403C536.99 257.22 538.011 257.996 539.005 258.758C543.448 262.136 547.665 265.335 549.773 271.082C551.948 265.834 554.441 264.061 558.631 261.07C560.024 260.073 561.602 258.951 563.445 257.511C564.002 257.082 564.598 256.625 565.222 256.168C574.133 249.521 589.025 238.415 590.815 182.553C578.854 179.396 562.331 173.607 550.078 163.72C536.764 173.635 517.55 179.866 509.302 182.234C509.342 182.83 509.395 183.591 509.448 184.436C509.633 187.358 509.885 191.36 510.084 192.357C510.164 192.731 509.925 193.105 509.567 193.188C509.209 193.257 508.851 193.022 508.771 192.648C508.559 191.568 508.307 187.663 508.108 184.533C508.042 183.398 507.976 182.401 507.923 181.777C507.896 181.445 508.108 181.14 508.413 181.043C516.343 178.8 536.261 172.472 549.694 162.293C549.932 162.113 550.264 162.113 550.502 162.307C562.782 172.389 579.663 178.232 591.663 181.348C591.968 181.431 592.181 181.722 592.167 182.054C591.411 207.064 588.017 225.523 581.811 238.498C576.586 249.424 570.46 253.994 565.991 257.331C565.368 257.788 564.784 258.231 564.227 258.661C562.357 260.115 560.766 261.25 559.361 262.261C554.666 265.612 552.518 267.136 550.317 273.409C550.224 273.686 549.972 273.866 549.68 273.866L549.72 273.824Z" fill="black"/>
<path d="M549.906 261.043C549.813 261.057 549.76 261.001 549.72 260.946C548.434 258.993 543.832 255.171 541.843 253.759C541.737 253.69 541.711 253.537 541.79 253.44C541.857 253.33 542.003 253.302 542.095 253.385C544.084 254.797 548.381 258.37 549.906 260.434C551.245 258.661 554.945 255.421 560.886 250.782C578.058 237.377 582.275 218.101 584.012 187.234C569.054 183.315 558.008 178.288 550.251 171.877C542.334 178.053 528.569 182.276 520.321 184.797C518.598 185.323 517.086 185.794 515.972 186.168L515.998 186.431C516.118 187.455 516.277 188.868 516.277 189.256C516.277 189.38 516.171 189.491 516.051 189.491C515.932 189.491 515.826 189.38 515.826 189.256C515.826 188.896 515.667 187.442 515.561 186.472L515.508 186.029C515.508 185.918 515.561 185.821 515.667 185.78C516.807 185.392 518.372 184.907 520.202 184.34C528.463 181.806 542.307 177.554 550.131 171.378C550.211 171.309 550.33 171.309 550.41 171.378C558.154 177.831 569.24 182.886 584.317 186.805C584.423 186.832 584.489 186.929 584.489 187.04C582.752 218.156 578.522 237.585 561.164 251.128C554.958 255.975 551.232 259.27 550.091 260.932C550.052 260.987 549.985 261.029 549.906 261.029V261.043Z" fill="black"/>
<path d="M534.152 244.867C548.66 244.867 560.421 232.827 560.421 217.975C560.421 203.122 548.66 191.082 534.152 191.082C519.644 191.082 507.883 203.122 507.883 217.975C507.883 232.827 519.644 244.867 534.152 244.867Z" fill="white"/>
<path d="M534.152 245.574C519.3 245.574 507.207 233.194 507.207 217.976C507.207 202.757 519.3 190.377 534.152 190.377C549.004 190.377 561.098 202.757 561.098 217.976C561.098 233.194 549.004 245.574 534.152 245.574ZM534.152 191.776C520.03 191.776 508.546 203.532 508.546 217.976C508.546 232.419 520.03 244.176 534.152 244.176C548.275 244.176 559.758 232.419 559.758 217.976C559.758 203.532 548.275 191.776 534.152 191.776Z" fill="black"/>
<path d="M530.373 214.195L529.816 205.055L537.48 204.695L538.011 214.056L546.736 213.932L547.187 221.23L538.382 221.507L538.846 230.785L531.672 231.269L530.943 222.088L521.488 222.517L521.104 214.804L530.373 214.195Z" fill="#00812A"/>
<path d="M531.672 231.975C531.327 231.975 531.036 231.698 531.009 231.338L530.333 222.822L521.528 223.223C521.156 223.223 520.851 222.947 520.825 222.559L520.44 214.846C520.427 214.458 520.706 214.139 521.064 214.112L529.657 213.558L529.153 205.111C529.153 204.917 529.206 204.737 529.325 204.598C529.444 204.46 529.617 204.377 529.789 204.363L537.454 204.003C537.825 203.961 538.13 204.28 538.157 204.667L538.647 213.35L546.736 213.239C547.094 213.239 547.386 213.516 547.413 213.89L547.863 221.188C547.863 221.382 547.81 221.562 547.691 221.7C547.572 221.839 547.399 221.922 547.214 221.936L539.085 222.185L539.509 230.757C539.522 231.144 539.244 231.463 538.886 231.491L531.699 231.975C531.699 231.975 531.672 231.975 531.659 231.975H531.672ZM530.943 221.396C531.288 221.396 531.579 221.673 531.606 222.033L532.282 230.535L538.143 230.147L537.706 221.548C537.706 221.354 537.759 221.174 537.878 221.036C537.997 220.897 538.17 220.814 538.355 220.814L546.471 220.565L546.1 214.652L538.011 214.762C537.653 214.762 537.361 214.472 537.334 214.098L536.844 205.429L530.532 205.72L531.036 214.153C531.036 214.333 530.983 214.527 530.863 214.666C530.744 214.804 530.585 214.887 530.399 214.901L521.793 215.455L522.111 221.783L530.903 221.382C530.903 221.382 530.916 221.382 530.93 221.382L530.943 221.396Z" fill="black"/>
<path d="M213.895 243.9H206.257C205.62 243.9 204.957 243.235 204.957 242.418L205.024 220.359C205.024 219.223 206.031 218.655 206.668 218.655L214.16 218.752C214.797 218.752 215.539 219.431 215.539 220.248L215.513 242.155C215.513 242.986 214.836 243.914 213.895 243.914V243.9Z" fill="black"/>
<path d="M271.181 243.9H263.543C262.906 243.9 262.243 243.235 262.243 242.418L262.309 220.359C262.309 219.223 263.317 218.655 263.954 218.655L271.446 218.752C272.083 218.752 272.825 219.431 272.825 220.248L272.799 242.155C272.799 242.986 272.122 243.914 271.181 243.914V243.9Z" fill="black"/>
<path d="M274.735 231.604C274.867 224.805 275.491 218.421 275.331 211.622C275.318 210.999 275.292 210.348 275.013 209.835C274.655 209.171 270.014 206.415 267.057 205.113C265.452 200.183 261.05 189.798 260.148 188.44C259.313 187.194 258.093 186.225 256.767 186.225C246.052 186.156 235.099 186.183 224.146 186.225C222.952 186.225 221.692 186.252 220.671 186.986C219.637 187.72 219 189.05 218.417 190.324C216.202 195.101 213.988 199.865 211.654 205.002C209.493 206.152 207.331 207.301 205.183 208.451C204.56 208.783 203.936 209.115 203.446 209.697C202.557 210.777 202.385 212.425 202.305 213.934C201.947 220.027 202.067 224.819 202.517 231.244C202.319 234.678 209.97 234.249 213.723 234.249C233.216 234.304 251.356 234.36 270.849 234.401C271.764 234.401 272.706 234.401 273.528 233.917C274.35 233.432 274.722 232.38 274.735 231.576V231.604Z" fill="white"/>
<path d="M271.022 235.148C271.022 235.148 270.902 235.148 270.849 235.148L213.723 234.996C213.351 234.996 212.954 234.996 212.516 234.996C209.028 235.023 204.241 235.065 202.517 233.168C202.04 232.642 201.815 232.005 201.841 231.284C201.351 224.374 201.297 219.652 201.629 213.919C201.722 212.327 201.907 210.513 202.942 209.266C203.512 208.574 204.241 208.186 204.878 207.854L211.15 204.517C213.457 199.462 215.672 194.671 217.82 190.046C218.39 188.827 219.093 187.304 220.3 186.431C221.533 185.559 222.979 185.559 224.159 185.545C234.701 185.503 245.946 185.462 256.78 185.545C258.212 185.545 259.644 186.459 260.705 188.065C261.686 189.533 265.943 199.628 267.601 204.614C270.147 205.777 275.08 208.532 275.61 209.516C275.981 210.208 275.994 211.025 276.008 211.634C276.101 215.789 275.902 219.86 275.716 223.793C275.597 226.341 275.464 228.986 275.411 231.645C275.398 232.586 274.973 233.929 273.873 234.594C272.945 235.148 271.897 235.176 271.035 235.176L271.022 235.148ZM213.577 233.583H213.723L270.849 233.736C271.672 233.736 272.52 233.736 273.197 233.334C273.767 232.988 274.045 232.185 274.058 231.589C274.111 228.903 274.244 226.258 274.363 223.696C274.549 219.791 274.748 215.747 274.655 211.648C274.655 211.164 274.629 210.568 274.43 210.18C274.019 209.654 269.815 207.092 266.792 205.763C266.619 205.68 266.473 205.527 266.42 205.347C264.803 200.362 260.453 190.129 259.591 188.855C258.795 187.65 257.735 186.93 256.767 186.93C245.933 186.861 234.688 186.888 224.159 186.93C223.124 186.93 221.944 186.93 221.056 187.567C220.141 188.218 219.544 189.492 219.027 190.627C216.852 195.322 214.598 200.168 212.264 205.306C212.198 205.444 212.092 205.555 211.959 205.624L205.488 209.073C204.931 209.363 204.361 209.668 203.963 210.153C203.207 211.067 203.061 212.604 202.982 213.975C202.65 219.652 202.716 224.319 203.194 231.201C203.194 231.229 203.194 231.271 203.194 231.298C203.167 231.645 203.273 231.921 203.499 232.185C204.825 233.639 209.638 233.597 212.516 233.583C212.9 233.583 213.259 233.583 213.59 233.583H213.577Z" fill="black"/>
<path d="M218.377 205.428C220.34 200.969 222.859 193.159 224.649 192.259C225.803 191.677 241.079 191.926 249.42 191.885C251.184 191.885 253.173 191.968 254.366 193.436C255.003 194.211 259.803 205.096 259.803 205.096L218.377 205.428Z" fill="#00812A"/>
<path d="M218.377 206.134C218.152 206.134 217.94 206.01 217.807 205.816C217.688 205.608 217.661 205.359 217.767 205.137C218.298 203.919 218.868 202.465 219.478 200.927C221.56 195.624 222.939 192.342 224.358 191.622C225.22 191.179 230.312 191.137 242.167 191.179C244.792 191.179 247.325 191.192 249.42 191.179C251.343 191.179 253.504 191.303 254.884 192.965C255.547 193.768 259.618 202.963 260.427 204.791C260.519 205.013 260.506 205.262 260.387 205.456C260.267 205.663 260.055 205.774 259.83 205.788L218.404 206.12L218.377 206.134ZM236.372 192.563C230.908 192.563 225.657 192.619 224.941 192.896C223.894 193.422 222.064 198.075 220.738 201.467C220.287 202.617 219.849 203.725 219.438 204.722L258.782 204.403C256.952 200.263 254.3 194.447 253.876 193.893C252.881 192.674 251.144 192.577 249.447 192.591C247.352 192.591 244.819 192.591 242.193 192.591C240.376 192.591 238.361 192.591 236.398 192.591L236.372 192.563Z" fill="black"/>
<path d="M233.428 223.642C230.272 223.642 227.129 223.642 223.986 223.601C223.867 223.601 223.761 223.49 223.761 223.365C223.761 223.24 223.867 223.13 223.986 223.13C233.879 223.213 243.917 223.157 253.796 222.991C253.916 222.991 254.022 223.088 254.022 223.227C254.022 223.351 253.929 223.462 253.796 223.462C247.047 223.573 240.217 223.628 233.415 223.628L233.428 223.642Z" fill="black"/>
<path d="M233.428 217.795C230.272 217.795 227.129 217.795 223.986 217.754C223.867 217.754 223.761 217.643 223.761 217.518C223.761 217.394 223.867 217.283 223.986 217.283C233.879 217.366 243.917 217.311 253.796 217.145C253.902 217.145 254.022 217.241 254.022 217.38C254.022 217.505 253.929 217.615 253.796 217.615C247.047 217.726 240.217 217.782 233.415 217.782L233.428 217.795Z" fill="black"/>
<path d="M266.221 202.646C265.903 202.646 265.625 202.411 265.558 202.079C265.492 201.705 265.731 201.331 266.089 201.262C268.648 200.749 271.261 200.541 273.86 200.666C274.231 200.68 274.523 201.012 274.496 201.4C274.483 201.788 274.165 202.106 273.793 202.065C271.3 201.954 268.794 202.148 266.341 202.646C266.301 202.646 266.248 202.646 266.208 202.646H266.221Z" fill="black"/>
<path d="M212.529 202.855C212.45 202.855 212.357 202.841 212.277 202.799C210.54 202.065 206.124 201.788 204.268 202.01C203.896 202.052 203.565 201.775 203.525 201.387C203.485 200.999 203.751 200.653 204.122 200.611C206.138 200.376 210.765 200.639 212.781 201.498C213.126 201.65 213.285 202.052 213.152 202.412C213.046 202.689 212.794 202.855 212.529 202.855Z" fill="black"/>
<path d="M264.02 273.825C264.02 273.825 264.02 273.825 264.007 273.825C263.728 273.825 263.476 273.618 263.383 273.341C261.872 268.466 258.702 264.09 254.459 260.988C249.168 257.762 237.127 249.079 233.176 243.554C232.95 243.249 233.017 242.806 233.308 242.571C233.6 242.335 234.024 242.404 234.25 242.709C237.91 247.833 249.632 256.419 255.162 259.797C255.175 259.797 255.188 259.811 255.202 259.825C259.193 262.733 262.296 266.721 264.06 271.194C266.341 265.849 268.94 264.063 273.342 261.058C274.788 260.06 276.432 258.939 278.355 257.499C278.938 257.069 279.561 256.626 280.211 256.155C289.494 249.508 305.008 238.402 306.878 182.554C294.427 179.411 277.201 173.608 264.444 163.721C260.068 167.308 244.925 176.461 241.265 178.607C240.946 178.801 240.535 178.677 240.35 178.344C240.164 178.012 240.283 177.583 240.602 177.389C244.368 175.173 260.333 165.521 263.98 162.295C264.219 162.087 264.564 162.073 264.816 162.267C277.612 172.362 295.209 178.192 307.714 181.322C308.019 181.405 308.244 181.696 308.231 182.028C307.435 207.051 303.908 225.51 297.45 238.472C292 249.398 285.621 253.967 280.967 257.305C280.317 257.762 279.707 258.205 279.137 258.634C277.188 260.088 275.53 261.224 274.071 262.221C269.178 265.572 266.937 267.095 264.643 273.368C264.537 273.645 264.298 273.825 264.02 273.825Z" fill="black"/>
<path d="M263.967 260.004C263.967 260.004 263.967 260.004 263.954 260.004C263.887 260.004 263.821 259.963 263.781 259.908C263.158 259.007 259.458 256.362 255.546 253.565C250.985 250.311 245.826 246.614 244.368 244.827C244.288 244.73 244.301 244.578 244.394 244.495C244.487 244.412 244.633 244.426 244.712 244.523C246.131 246.267 251.276 249.937 255.812 253.177C259.657 255.919 263.012 258.315 263.993 259.423C266.314 256.833 268.21 255.615 272.241 253.011C273.249 252.36 274.39 251.627 275.702 250.754C293.591 238.956 297.861 220.095 299.797 187.22C284.216 183.301 272.719 178.288 264.63 171.877C262.8 173.635 258.503 175.976 255.918 177.388C255.149 177.804 254.539 178.15 254.181 178.358C254.074 178.427 253.942 178.385 253.876 178.274C253.809 178.164 253.849 178.025 253.955 177.956C254.313 177.734 254.923 177.402 255.705 176.987C258.344 175.546 262.773 173.123 264.457 171.406C264.537 171.323 264.656 171.323 264.749 171.392C272.812 177.845 284.375 182.9 300.075 186.819C300.182 186.846 300.248 186.943 300.248 187.054C299.452 200.68 298.192 214.874 294.347 226.354C290.634 237.432 284.786 245.312 275.941 251.156C274.628 252.028 273.488 252.762 272.48 253.413C268.396 256.058 266.526 257.276 264.152 259.949C264.113 259.991 264.046 260.018 263.993 260.018L263.967 260.004Z" fill="black"/>
<path d="M207.543 217.27C207.185 217.27 206.893 216.979 206.867 216.605C206.854 216.218 207.132 215.885 207.503 215.871C210.474 215.733 213.471 215.65 216.415 215.622C216.773 215.622 217.091 215.927 217.091 216.314C217.091 216.702 216.799 217.021 216.428 217.021C213.497 217.048 210.5 217.145 207.556 217.27C207.556 217.27 207.543 217.27 207.53 217.27H207.543Z" fill="black"/>
<path d="M261.766 217.146C261.408 217.146 261.116 216.855 261.089 216.481C261.076 216.094 261.355 215.761 261.726 215.747C264.67 215.609 267.68 215.526 270.637 215.498C271.008 215.498 271.3 215.803 271.313 216.19C271.313 216.578 271.022 216.897 270.65 216.897C267.693 216.938 264.709 217.021 261.779 217.146H261.752H261.766Z" fill="black"/>
<path d="M684.42 214.266C684.142 227.034 691.621 240.064 703.171 244.274C709.456 246.559 716.352 246.24 722.797 247.999C729.241 249.758 735.805 254.826 735.845 261.778C735.872 266.403 733.365 276.872 746.613 283.006C757.539 288.075 754.927 315.466 721.099 326.973C710.729 330.505 717.413 321.628 706.645 319.897C696.01 318.194 686.356 311.907 679.01 303.681C671.664 295.456 666.479 285.374 662.434 274.961C657.78 262.969 654.518 249.716 657.395 237.129C660.273 224.541 670.908 213.158 684.434 214.28L684.42 214.266Z" fill="black"/>
<path d="M618.276 185.103C621.843 203.243 625.278 222.769 618.17 239.732C615.863 245.244 612.495 250.27 610.598 255.948C608.344 262.706 608.264 270.045 608.888 277.177C610.055 290.651 613.927 304.457 622.997 314.123C632.067 323.789 647.237 327.985 658.429 321.171C668.242 315.189 672.724 302.352 672.114 290.512C671.491 278.659 666.651 267.539 661.546 256.945C649.266 231.479 634.958 207.079 618.276 185.116V185.103Z" fill="black"/>
<path d="M643.406 273.577C643.724 263.912 642.583 258.497 642.212 251.255C645.952 249.302 649.983 247.945 654.107 247.239C655.963 246.92 658.045 246.809 659.477 247.973C660.366 248.707 664.609 244.801 665.047 245.882C668.057 253.263 668.322 263.787 671.332 271.168C671.558 271.736 682.127 270.711 682.365 271.279C683.347 273.688 682.524 293.698 681.795 294.211C643.14 321.048 624.522 282.661 624.522 282.661C624.522 282.661 631.537 278.175 643.406 273.563V273.577Z" fill="white"/>
<path d="M655.777 304.456C652.98 304.456 650.248 304.096 647.582 303.362C631.869 299.042 624.005 283.158 623.926 283.006C623.766 282.674 623.873 282.286 624.178 282.092C624.244 282.051 631.206 277.619 642.756 273.091C642.928 266.956 642.504 262.525 642.093 258.232C641.88 256.03 641.668 253.746 641.536 251.308C641.522 251.031 641.668 250.768 641.907 250.644C645.726 248.65 649.784 247.279 654.001 246.572C655.831 246.268 658.151 246.074 659.822 247.389C660.22 247.362 661.36 246.669 662.05 246.24C663.535 245.34 664.41 244.828 665.086 245.063C665.352 245.16 665.564 245.354 665.67 245.617C667.208 249.383 668.044 253.967 668.853 258.398C669.635 262.65 670.431 267.039 671.836 270.612C672.605 270.709 675.019 270.612 676.809 270.529C682.352 270.294 682.71 270.363 682.975 271.014C683.678 272.731 683.466 280.998 683.386 283.491C683.041 294.195 682.418 294.624 682.153 294.804C672.91 301.23 664.065 304.456 655.764 304.456H655.777ZM625.424 282.937C626.976 285.776 634.481 298.308 647.927 302.005C658.085 304.789 669.303 302.005 681.278 293.738C681.927 291.689 682.537 274.905 681.821 271.858C681.012 271.775 678.639 271.858 676.862 271.942C671.332 272.177 670.974 272.108 670.709 271.457C669.171 267.69 668.335 263.107 667.526 258.662C666.744 254.41 665.948 250.02 664.543 246.448C664.118 246.6 663.296 247.099 662.726 247.445C661.122 248.428 659.862 249.19 659.066 248.539C657.793 247.5 655.804 247.68 654.213 247.943C650.288 248.608 646.482 249.868 642.901 251.682C643.021 253.912 643.22 255.947 643.419 258.08C643.843 262.525 644.281 267.123 644.068 273.589C644.068 273.866 643.883 274.13 643.631 274.226C633.818 278.035 627.294 281.801 625.424 282.923V282.937Z" fill="black"/>
<path d="M614.285 189.549C615.426 198.509 617.149 207.898 614.935 216.816C613.728 221.676 613.834 246.395 632.837 253.443C642.822 257.141 654.292 256.379 664.596 249.857C671.584 245.439 680.058 231.688 678.374 218.034C684.155 219.71 689.871 215.639 689.937 210.21C689.977 207.081 686.675 203.162 683.174 203.342C680.469 203.48 680.151 203.508 678.095 205.142C676.69 198.744 675.841 192.222 675.947 184.855C669.383 177.294 658.841 173.43 648.312 171.783C644.824 171.242 641.257 170.896 637.717 171.367C627.599 172.683 613.118 180.34 614.285 189.535V189.549Z" fill="white"/>
<path d="M645.142 256.392C640.939 256.392 636.735 255.631 632.611 254.108C613.635 247.073 612.813 222.59 614.285 216.649C616.194 208.95 615.107 200.807 614.046 192.942C613.9 191.834 613.754 190.74 613.609 189.66C613.277 187.084 614.046 184.522 615.903 182.016C620.411 175.909 630.463 171.63 637.624 170.688C641.522 170.176 645.434 170.647 648.404 171.117C657.103 172.475 669.038 175.895 676.437 184.411C676.557 184.55 676.61 184.716 676.61 184.896C676.517 191.211 677.114 197.304 678.506 203.965C680.005 202.871 680.681 202.787 683.121 202.663C684.831 202.58 686.661 203.383 688.133 204.865C689.658 206.402 690.6 208.465 690.573 210.251C690.547 212.883 689.274 215.361 687.112 217.051C684.871 218.809 681.941 219.502 679.116 218.976C680.363 232.879 671.796 246.131 664.914 250.493C658.708 254.426 651.932 256.42 645.116 256.42L645.142 256.392ZM614.948 189.466C615.081 190.546 615.226 191.64 615.386 192.748C616.46 200.752 617.574 209.033 615.584 217.009C614.749 220.36 613.701 245.619 633.062 252.792C643.485 256.656 654.557 255.409 664.238 249.275C670.802 245.12 679.368 231.646 677.697 218.145C677.671 217.909 677.75 217.674 677.923 217.522C678.095 217.369 678.32 217.314 678.546 217.369C681.251 218.159 684.168 217.605 686.33 215.901C688.16 214.461 689.221 212.384 689.247 210.21C689.26 208.811 688.491 207.136 687.218 205.862C686.012 204.643 684.553 203.978 683.2 204.048C680.561 204.186 680.402 204.186 678.493 205.709C678.307 205.848 678.068 205.889 677.856 205.806C677.644 205.723 677.485 205.529 677.432 205.308C675.88 198.218 675.191 191.792 675.27 185.131C668.123 177.072 656.626 173.804 648.206 172.488C645.328 172.031 641.535 171.588 637.796 172.073C630.9 172.973 621.26 177.058 616.964 182.86C615.346 185.048 614.669 187.264 614.948 189.452V189.466Z" fill="black"/>
<path d="M655.778 225.745C649.625 225.745 644.188 220.441 643.3 213.268C642.836 209.529 643.658 205.846 645.62 202.896C647.596 199.919 650.487 198.036 653.749 197.592C660.472 196.678 666.718 202.245 667.673 209.972C668.137 213.711 667.315 217.395 665.352 220.344C663.376 223.322 660.486 225.205 657.223 225.648C656.746 225.717 656.255 225.745 655.778 225.745ZM655.195 198.908C654.77 198.908 654.346 198.936 653.922 198.991C651.031 199.379 648.485 201.054 646.721 203.699C644.957 206.372 644.202 209.709 644.626 213.088C645.488 220.054 651.057 225.066 657.038 224.263C659.929 223.876 662.475 222.2 664.238 219.555C666.002 216.882 666.758 213.545 666.333 210.166C665.538 203.699 660.671 198.908 655.181 198.908H655.195Z" fill="black"/>
<path d="M621.446 227.38C615.293 227.38 609.856 222.076 608.968 214.903C608.013 207.162 612.707 200.141 619.417 199.227C626.14 198.313 632.386 203.88 633.341 211.607C633.805 215.346 632.983 219.03 631.02 221.979C629.044 224.956 626.153 226.84 622.891 227.283C622.414 227.352 621.923 227.38 621.446 227.38ZM620.849 200.543C620.425 200.543 620 200.57 619.576 200.626C613.596 201.429 609.418 207.757 610.28 214.723C611.142 221.688 616.712 226.701 622.692 225.898C625.583 225.51 628.129 223.835 629.893 221.19C631.656 218.517 632.412 215.18 631.988 211.801C631.192 205.334 626.326 200.543 620.836 200.543H620.849Z" fill="black"/>
<path d="M685.945 134.834C682.431 122.773 670.232 115.974 658.695 119.643C647.145 123.313 640.634 136.053 644.148 148.101C647.662 160.162 659.862 166.961 671.398 163.292C682.948 159.622 689.459 146.882 685.945 134.834Z" fill="black"/>
<path d="M677.326 206.083C671.77 197.095 668.362 190.615 666.532 179.689C646.044 192.332 626.578 190.158 606.939 189.368C606.514 185.879 607.217 182.306 608.61 178.996C612.004 170.909 616.248 163.902 628.089 158.391C636.391 154.527 647.569 151.965 656.56 153.322C665.498 154.666 673.176 159.72 679.435 165.772C684.407 170.591 688.624 178.484 690.109 186.294C691.382 192.983 689.818 197.899 686.953 204.712C685.336 203.812 683.824 202.884 681.954 203.258C680.084 203.632 678.891 204.615 677.326 206.097V206.083Z" fill="black"/>
<path d="M647.636 240.299C646.177 240.299 644.825 239.828 643.75 238.9C643.472 238.651 643.432 238.208 643.671 237.917C643.91 237.626 644.334 237.585 644.612 237.834C646.031 239.066 648.14 239.246 650.275 238.319C652.648 237.294 654.584 235.3 655.738 232.71C655.897 232.364 656.295 232.212 656.627 232.378C656.958 232.544 657.104 232.96 656.945 233.306C655.645 236.214 653.457 238.443 650.779 239.62C649.718 240.091 648.644 240.313 647.623 240.313L647.636 240.299Z" fill="black"/>
<path d="M654.902 212.231C654.77 211.109 653.735 210.32 652.608 210.472C651.481 210.624 650.672 211.663 650.805 212.771C650.937 213.892 651.972 214.682 653.099 214.529C654.226 214.377 655.035 213.338 654.902 212.231Z" fill="black"/>
<path d="M624.323 213.905C624.191 212.784 623.156 211.994 622.029 212.147C620.902 212.299 620.093 213.338 620.226 214.445C620.358 215.567 621.393 216.356 622.52 216.204C623.647 216.052 624.456 215.013 624.323 213.905Z" fill="black"/>
<path d="M635.807 226.909C635.727 226.909 635.648 226.896 635.568 226.868L632.784 225.76C632.452 225.622 631.829 225.386 631.59 224.735C631.298 223.96 631.802 223.267 632.067 222.894C634.176 219.93 634.879 216.108 633.951 212.632C633.844 212.258 634.057 211.871 634.415 211.774C634.773 211.663 635.144 211.884 635.237 212.258C636.284 216.136 635.502 220.429 633.142 223.724C632.943 224.001 632.85 224.168 632.85 224.251C632.863 224.251 632.956 224.32 633.261 224.444L636.046 225.552C636.39 225.691 636.563 226.092 636.43 226.452C636.324 226.729 636.072 226.909 635.807 226.909Z" fill="black"/>
<path d="M632.174 209.53C631.802 209.53 631.511 209.225 631.497 208.837C631.471 206.871 633.301 205.5 635.144 205.002C638.154 204.198 641.562 205.015 643.843 207.093C644.121 207.342 644.148 207.785 643.909 208.076C643.671 208.367 643.246 208.394 642.968 208.145C641.019 206.373 638.075 205.666 635.489 206.359C634.163 206.705 632.837 207.66 632.85 208.81C632.85 209.197 632.558 209.516 632.187 209.516L632.174 209.53Z" fill="black"/>
<path d="M666.28 206.137C665.909 206.137 665.604 205.819 665.604 205.445C665.604 205.057 665.909 204.739 666.267 204.739L676.384 204.711C676.756 204.711 677.061 205.029 677.061 205.403C677.061 205.791 676.756 206.11 676.398 206.11L666.28 206.137Z" fill="black"/>
<path d="M678.241 213.449C677.87 213.449 677.578 213.13 677.578 212.743C677.604 210.153 677.114 207.536 676.146 205.154C676 204.794 676.159 204.392 676.504 204.24C676.849 204.088 677.233 204.254 677.379 204.614C678.413 207.176 678.944 209.987 678.917 212.757C678.917 213.144 678.612 213.449 678.241 213.449Z" fill="black"/>
<path d="M752.355 356.151C743.404 330.615 738.471 305.426 717.373 287.022C707.242 278.187 695.029 271.928 680.946 270.986C680.084 285.222 664.251 294.597 655.764 295.663C651.15 296.245 633.99 298.627 633.99 277.509C628.394 279.835 609.763 282.231 602.298 306.188C599.248 315.992 593.771 353.506 575.737 375.247C571.48 380.384 567.541 346.208 561.415 348.479C555.395 350.708 548.473 354.447 548.022 361.094C547.664 366.273 551.761 370.788 556.323 372.837C566.149 377.241 569.822 398.594 580.404 400.159C591.411 401.779 608.981 406.017 622.281 362.59C629.084 369.694 633.46 377.31 641.085 381.603C663.058 393.969 736.19 407.872 748.098 410.074C749.092 410.254 751.334 409.409 751.731 408.44C754.238 402.319 760.788 380.204 752.355 356.137V356.151Z" fill="white"/>
<path d="M748.39 410.793C748.244 410.793 748.111 410.793 747.992 410.765C733.922 408.162 662.646 394.536 640.78 382.225C635.502 379.248 631.749 374.733 627.784 369.942C626.14 367.962 624.443 365.912 622.586 363.904C616.924 381.962 610.042 393.262 601.568 398.441C594.169 402.955 587.101 401.889 581.425 401.03C581.041 400.975 580.669 400.919 580.311 400.864C574.331 399.978 570.485 393.206 566.772 386.656C563.656 381.159 560.42 375.453 556.058 373.501C551.443 371.424 546.961 366.785 547.345 361.065C547.73 355.485 552.252 351.15 561.189 347.841C561.839 347.605 562.489 347.647 563.125 347.979C565.937 349.447 568.098 356.676 570.193 363.655C571.599 368.349 573.522 374.789 574.808 375.079C574.941 375.107 575.113 374.941 575.232 374.802C589.594 357.479 596.025 329.686 599.473 314.758C600.348 310.95 601.051 307.945 601.661 305.993C608.198 285.013 623.448 280.194 630.781 277.881C631.975 277.508 632.996 277.175 633.752 276.871C633.964 276.787 634.189 276.815 634.375 276.94C634.56 277.064 634.666 277.286 634.666 277.521C634.666 283.919 636.284 288.669 639.48 291.632C644.599 296.382 652.542 295.385 655.525 295.011H655.685C663.813 293.973 679.434 284.833 680.27 270.971C680.27 270.791 680.363 270.611 680.495 270.487C680.628 270.362 680.813 270.307 680.986 270.307C694.087 271.179 706.473 276.635 717.797 286.509C735.354 301.81 741.759 321.627 748.549 342.606C749.954 346.968 751.413 351.469 752.978 355.928C760.616 377.738 756.173 399.382 752.341 408.743C751.851 409.948 749.689 410.821 748.376 410.821L748.39 410.793ZM622.281 361.882C622.453 361.882 622.626 361.952 622.758 362.09C624.96 364.389 626.909 366.743 628.792 369.014C632.677 373.708 636.351 378.14 641.403 380.979C663.097 393.192 734.187 406.777 748.217 409.38C749.013 409.519 750.882 408.743 751.108 408.162C751.519 407.151 761.106 383.167 751.718 356.385C750.153 351.912 748.694 347.398 747.276 343.035C740.552 322.25 734.201 302.614 716.935 287.561C706.022 278.048 694.127 272.73 681.556 271.733C680.813 279.626 675.788 285.359 671.624 288.807C666.823 292.796 660.631 295.745 655.83 296.354H655.671C652.515 296.77 644.148 297.822 638.565 292.657C635.25 289.583 633.473 284.819 633.314 278.491C632.677 278.712 631.948 278.948 631.139 279.197C623.488 281.606 609.233 286.107 602.907 306.394C602.311 308.305 601.621 311.282 600.746 315.063C597.272 330.115 590.787 358.116 576.214 375.703C575.577 376.478 574.927 376.533 574.503 376.436C572.541 376.007 571.161 371.673 568.881 364.057C567.064 357.977 564.796 350.416 562.502 349.212C562.197 349.045 561.905 349.032 561.614 349.142C553.233 352.244 549.003 356.177 548.671 361.148C548.327 366.148 552.53 370.385 556.575 372.199C561.335 374.332 564.677 380.231 567.913 385.922C571.626 392.486 575.14 398.676 580.484 399.465C580.855 399.521 581.226 399.576 581.611 399.632C592.498 401.279 608.954 403.786 621.631 362.367C621.698 362.132 621.883 361.952 622.109 361.896C622.162 361.896 622.215 361.882 622.268 361.882H622.281Z" fill="black"/>
<path d="M593.254 407.844L643.233 408.966L643.299 400.103L587.671 398.69L593.254 407.858V407.844Z" fill="black"/>
<path d="M726.112 380.774C706.035 379.61 685.853 378.156 665.657 376.716C663.853 376.398 654.863 375.068 652.648 374.722C650.765 374.431 648.975 373.711 647.251 372.88C641.244 369.986 628.355 364.309 625.477 365.984C618.847 368.02 612.853 373.019 608.159 379.333C605.52 382.879 603.372 388.764 604.459 389.775C605.149 390.412 606.196 390.689 606.965 390.01C610.095 383.017 615.651 377.256 622.374 374.057C619.245 375.899 616.341 378.143 613.715 380.704C611.063 383.308 608.636 386.451 608.04 390.19C608 390.481 607.96 390.799 608.106 391.049C608.464 391.672 609.379 391.312 609.936 390.855C611.01 389.982 624.814 378.267 627.4 378.572C623.966 379.929 611.739 390.287 611.686 391.395C611.66 391.921 611.766 392.475 612.071 392.89C612.508 393.458 613.277 393.624 613.954 393.514C614.63 393.403 615.253 393.029 615.837 392.655C619.788 390.149 623.395 387.005 627.665 385.163C629.8 384.236 632.399 383.709 634.296 385.08C630.49 386.59 626.936 388.778 623.952 391.644C623.475 392.101 623.077 392.641 622.759 393.237C622.295 394.109 621.764 395.383 622.414 396.103C623.475 397.28 624.377 396.685 625.292 396.131C628.952 393.611 632.691 391.533 636.603 389.899C637.823 389.401 639.268 388.958 640.369 389.692C641.324 390.329 645.925 393.32 655.393 393.832C658.629 394.012 661.745 394.885 665.776 396.048C718.991 411.363 734.891 417.47 747.78 411.682C750.299 410.546 751.161 409.162 750.313 404.647C748.072 392.572 745.87 385.703 726.099 380.774H726.112Z" fill="white"/>
<path d="M736.999 414.575C726.815 414.575 712.294 410.337 684.991 402.361C679.236 400.685 672.711 398.774 665.617 396.739C661.851 395.659 658.602 394.717 655.367 394.551C646.522 394.066 641.682 391.421 640.011 390.299C639.162 389.732 637.876 390.147 636.855 390.576C633.036 392.169 629.376 394.177 625.663 396.739L625.57 396.794C624.681 397.334 623.329 398.165 621.923 396.6C620.836 395.395 621.844 393.526 622.175 392.903C622.533 392.238 622.984 391.643 623.501 391.144C626.1 388.652 629.137 386.616 632.572 385.079C631.033 384.733 629.283 385.245 627.93 385.84C625.146 387.045 622.573 388.873 620.093 390.632C618.834 391.532 617.521 392.446 616.195 393.291C615.558 393.692 614.869 394.108 614.073 394.246C613.078 394.412 612.11 394.08 611.553 393.374C611.169 392.875 610.983 392.197 611.01 391.407C611.01 391.2 611.169 390.909 611.474 390.507C611.262 390.687 611.05 390.867 610.824 391.047C610.599 391.241 610.426 391.38 610.347 391.449C609.869 391.85 609.1 392.224 608.437 392.086C608.053 392.017 607.748 391.795 607.535 391.449C607.376 391.186 607.337 390.895 607.323 390.632C606.382 391.393 605.029 391.269 604.008 390.327C602.258 388.707 605.401 381.935 607.628 378.93C612.747 372.034 618.834 367.34 625.225 365.359C628.66 363.559 641.947 369.583 647.53 372.27C648.922 372.948 650.778 373.751 652.741 374.056C653.338 374.153 654.452 374.319 655.764 374.513C659.398 375.067 664.357 375.815 665.723 376.05C685.415 377.462 705.783 378.93 726.138 380.107C726.178 380.107 726.218 380.107 726.258 380.121C746.427 385.148 748.695 392.321 750.976 404.549C751.824 409.091 751.108 410.988 748.045 412.373C744.703 413.868 741.216 414.602 736.972 414.602L736.999 414.575ZM639.003 388.61C639.6 388.61 640.196 388.749 640.74 389.109C642.318 390.161 646.92 392.667 655.446 393.138C658.828 393.318 662.143 394.274 665.975 395.382C673.069 397.417 679.594 399.328 685.349 401.004C723.672 412.193 736.588 415.96 747.541 411.044C749.61 410.116 750.498 409.188 749.676 404.784C747.448 392.792 745.38 386.311 726.032 381.478C705.677 380.287 685.322 378.833 665.63 377.421C665.604 377.421 665.59 377.421 665.564 377.421C664.251 377.199 659.04 376.41 655.605 375.884C654.279 375.69 653.179 375.524 652.569 375.427C650.434 375.095 648.471 374.236 646.986 373.53C637.982 369.195 627.944 365.373 625.822 366.606C625.782 366.634 625.729 366.647 625.689 366.661C619.629 368.517 613.596 373.184 608.702 379.775C605.931 383.514 604.419 388.568 604.923 389.275C605.321 389.649 605.957 389.884 606.448 389.566C609.644 382.531 615.333 376.659 622.109 373.433C622.44 373.28 622.825 373.419 622.984 373.751C623.143 374.084 623.024 374.499 622.719 374.679C619.642 376.493 616.778 378.695 614.192 381.229C610.93 384.428 609.193 387.322 608.716 390.327C608.676 390.618 608.689 390.687 608.702 390.715C608.782 390.743 609.167 390.646 609.538 390.341C609.617 390.272 609.777 390.133 610.002 389.953C624.827 377.601 626.83 377.836 627.493 377.919C627.798 377.961 628.05 378.21 628.076 378.529C628.116 378.847 627.944 379.152 627.652 379.277C624.403 380.551 613.264 389.995 612.376 391.573C612.376 391.961 612.455 392.28 612.614 392.501C612.893 392.861 613.45 392.944 613.861 392.875C614.418 392.778 614.961 392.46 615.505 392.114C616.805 391.283 618.091 390.369 619.351 389.496C621.897 387.696 624.522 385.84 627.426 384.566C629.508 383.666 632.452 382.932 634.693 384.566C634.892 384.719 635.011 384.968 634.972 385.231C634.945 385.494 634.773 385.702 634.547 385.799C630.662 387.336 627.254 389.496 624.416 392.224C624.005 392.626 623.647 393.097 623.355 393.637C622.812 394.648 622.653 395.395 622.918 395.686C623.568 396.406 623.965 396.199 624.907 395.631L624.973 395.589C628.739 393 632.479 390.936 636.377 389.316C637.173 388.984 638.101 388.665 639.016 388.665L639.003 388.61Z" fill="black"/>
<path d="M451.259 326.906L559.89 327.529L597.338 407.847L489.715 407.556L451.259 326.906Z" fill="white"/>
<path d="M597.338 408.552L489.715 408.275C489.463 408.275 489.224 408.123 489.118 407.887L450.649 327.237C450.543 327.016 450.556 326.767 450.676 326.559C450.795 326.351 451.02 326.227 451.246 326.227L559.877 326.85C560.129 326.85 560.367 327.002 560.473 327.237L597.921 407.555C598.027 407.776 598.014 408.026 597.882 408.233C597.762 408.441 597.55 408.566 597.311 408.566L597.338 408.552ZM490.139 406.863L596.264 407.139L559.479 328.234L452.346 327.625L490.139 406.863Z" fill="black"/>
<path d="M519.975 359.64C516.886 359.321 513.517 360.18 512.271 363.143C511.011 366.107 511.979 369.804 514.26 371.992C516.554 374.18 519.935 374.872 522.959 374.166C524.59 373.778 526.208 372.961 527.149 371.507C527.799 370.51 528.078 369.278 528.091 368.059C528.117 364.071 526.38 360.291 519.989 359.64H519.975Z" fill="white"/>
<path d="M520.638 375.121C518.066 375.121 515.586 374.193 513.809 372.49C511.223 370.025 510.322 365.968 511.648 362.838C512.868 359.971 515.997 358.504 520.042 358.919C527.282 359.667 528.78 364.292 528.754 368.045C528.754 369.513 528.383 370.842 527.706 371.881C526.526 373.709 524.55 374.484 523.105 374.83C522.283 375.024 521.461 375.121 520.638 375.121ZM518.808 360.276C517.005 360.276 514.021 360.719 512.881 363.42C511.78 366.023 512.549 369.402 514.711 371.465C516.74 373.404 519.843 374.165 522.8 373.473C524.511 373.072 525.85 372.227 526.579 371.105C527.242 370.08 527.401 368.876 527.401 368.045C527.428 363.378 524.975 360.844 519.896 360.332C519.631 360.304 519.259 360.276 518.795 360.276H518.808Z" fill="black"/>
<path d="M714.137 380.758C713.859 380.758 713.594 380.578 713.501 380.273C705.942 356.372 701.672 341.25 701.672 308.472C701.672 308.084 701.977 307.766 702.349 307.766C702.72 307.766 703.025 308.084 703.025 308.472C703.025 341.028 707.282 356.067 714.787 379.83C714.906 380.204 714.707 380.591 714.363 380.716C714.296 380.744 714.217 380.758 714.151 380.758H714.137Z" fill="black"/>
<path d="M622.281 363.283C622.069 363.283 621.857 363.172 621.724 362.978C611.991 348.355 614.616 337.623 617.162 327.264C618.435 322.072 619.761 316.712 619.549 310.841C619.536 310.453 619.828 310.135 620.199 310.121C620.57 310.093 620.875 310.412 620.889 310.799C621.101 316.879 619.762 322.335 618.462 327.624C615.876 338.149 613.436 348.092 622.825 362.189C623.037 362.507 622.957 362.95 622.652 363.158C622.533 363.241 622.4 363.283 622.268 363.283H622.281Z" fill="black"/>
<path d="M654.04 327.304C644.175 327.304 634.309 326.376 624.721 323.87C624.602 323.842 624.522 323.717 624.562 323.593C624.589 323.468 624.721 323.399 624.827 323.426C649.147 329.796 675.39 325.961 698.53 322.568C698.649 322.554 698.768 322.637 698.782 322.762C698.795 322.886 698.715 323.011 698.596 323.025C684.513 325.088 669.29 327.304 654.04 327.304Z" fill="black"/>
<path d="M662.938 347.109C648.444 347.109 633.95 345.309 619.92 341.736C619.801 341.708 619.722 341.584 619.761 341.459C619.788 341.335 619.907 341.251 620.027 341.293C645.779 347.871 673.109 348.411 699.073 342.858C699.192 342.83 699.312 342.913 699.338 343.038C699.365 343.162 699.285 343.287 699.166 343.315C687.284 345.849 675.111 347.123 662.938 347.123V347.109Z" fill="black"/>
<path d="M754.012 387.308C754.012 387.308 753.88 387.28 753.84 387.225C744.743 376.036 729.904 370.4 716.047 372.879C715.928 372.906 715.808 372.809 715.795 372.685C715.769 372.56 715.861 372.435 715.981 372.422C729.984 369.929 744.995 375.62 754.185 386.934C754.264 387.031 754.251 387.183 754.158 387.266C754.118 387.308 754.065 387.322 754.012 387.322V387.308Z" fill="black"/>
<path d="M752.354 376.977C752.354 376.977 752.301 376.977 752.275 376.963C750.803 376.34 749.609 375.218 748.443 374.138C748.045 373.764 747.62 373.377 747.196 373.017C744.61 370.801 741.507 369.375 738.205 368.862C738.086 368.848 737.993 368.724 738.02 368.599C738.033 368.474 738.152 368.377 738.272 368.405C741.653 368.931 744.836 370.399 747.488 372.67C747.912 373.03 748.336 373.432 748.748 373.806C749.875 374.858 751.042 375.952 752.447 376.548C752.567 376.589 752.62 376.728 752.567 376.852C752.527 376.949 752.447 377.005 752.354 377.005V376.977Z" fill="black"/>
<path d="M762.154 125.682C762.114 123.965 762.353 122.248 762.883 120.642C763.228 119.603 763.692 118.578 764.448 117.831C765.204 117.083 766.265 116.626 767.273 116.875C768.254 117.111 769.023 117.983 769.461 118.952C769.898 119.922 770.044 121.016 770.177 122.082C770.336 123.314 770.508 124.533 770.667 125.765L762.154 125.682Z" fill="white"/>
<path d="M770.667 126.472L762.154 126.389C761.796 126.389 761.504 126.084 761.491 125.71C761.438 123.91 761.703 122.124 762.26 120.42C762.711 119.05 763.255 118.066 763.984 117.332C764.965 116.349 766.278 115.92 767.432 116.197C768.532 116.474 769.5 117.374 770.071 118.662C770.548 119.742 770.707 120.933 770.853 121.999L771.344 125.683C771.37 125.89 771.317 126.084 771.185 126.237C771.052 126.389 770.88 126.472 770.681 126.472H770.667ZM762.83 124.99L769.898 125.06L769.514 122.193C769.381 121.182 769.235 120.144 768.851 119.257C768.453 118.371 767.816 117.734 767.127 117.568C766.411 117.388 765.575 117.692 764.925 118.343C764.355 118.911 763.918 119.714 763.533 120.877C763.096 122.207 762.857 123.592 762.83 125.004V124.99Z" fill="black"/>
<path d="M813.804 172.294C811.908 155.552 804.257 140.416 791.328 130.764C778.399 121.112 760.961 119.879 746.507 126.623C735.58 131.719 721.537 144.75 716.1 172.446C721.179 165.453 729.586 162.794 735.474 172.931C741.866 161.451 750.923 164.58 756.359 172.044C758.163 168.084 763.202 165.037 767.326 165.051C771.437 165.065 775.441 167.793 777.205 171.767C778.518 167.89 782.257 165.107 786.103 165.134C789.962 165.148 793.661 167.973 794.948 171.864C796.38 167.89 800.318 165.107 804.296 165.273C808.275 165.439 811.656 167.433 813.804 172.294Z" fill="white"/>
<path d="M735.487 173.623C735.248 173.623 735.036 173.499 734.917 173.291C732.596 169.317 729.705 167.129 726.549 166.949C723.128 166.769 719.508 168.915 716.644 172.862C716.458 173.125 716.113 173.208 715.835 173.083C715.543 172.945 715.397 172.626 715.45 172.308C717.93 159.665 722.399 149.016 728.724 140.638C734.957 132.384 741.693 128.119 746.241 125.987C753.508 122.594 761.571 121.154 769.553 121.846C777.682 122.552 785.347 125.433 791.725 130.196C804.402 139.654 812.478 154.582 814.467 172.211C814.507 172.557 814.295 172.875 813.977 172.972C813.658 173.069 813.327 172.903 813.181 172.585C811.298 168.306 808.381 166.145 804.257 165.979C800.557 165.813 796.897 168.403 795.571 172.114C795.478 172.391 795.226 172.571 794.948 172.571C794.669 172.571 794.417 172.377 794.324 172.1C793.131 168.486 789.683 165.855 786.116 165.841H786.076C782.522 165.841 779.061 168.43 777.855 172.017C777.762 172.28 777.523 172.474 777.258 172.488C776.979 172.488 776.727 172.335 776.621 172.086C774.951 168.333 771.224 165.785 767.352 165.771H767.313C763.334 165.771 758.627 168.776 756.996 172.363C756.89 172.585 756.691 172.737 756.452 172.765C756.213 172.792 755.988 172.682 755.842 172.488C752.726 168.195 748.814 165.868 745.141 166.09C741.719 166.312 738.59 168.804 736.084 173.305C735.964 173.512 735.752 173.651 735.514 173.651L735.487 173.623ZM726.138 165.536C726.297 165.536 726.457 165.536 726.616 165.536C728.989 165.661 732.384 166.838 735.474 171.588C738.789 166.173 742.475 164.816 745.048 164.65C748.933 164.401 752.978 166.616 756.266 170.757C758.441 167.129 763.135 164.331 767.286 164.331H767.326C771.251 164.345 775.043 166.644 777.139 170.161C778.876 166.755 782.416 164.414 786.063 164.414H786.103C789.723 164.428 793.224 166.769 794.961 170.147C796.831 166.685 800.557 164.401 804.31 164.553C807.797 164.691 810.595 166.159 812.65 168.929C810.091 153.198 802.466 139.931 790.93 131.318C778.571 122.095 761.239 120.489 746.772 127.247C739.982 130.418 723.844 140.818 717.32 169.884C719.999 167.073 723.088 165.522 726.125 165.522L726.138 165.536Z" fill="black"/>
<path d="M773.518 229.86C773.24 229.86 772.975 229.846 772.696 229.805C769.5 229.403 766.583 226.606 765.284 222.687C764.143 219.239 764.249 215.458 764.342 212.107L765.681 165.302C765.681 164.914 766 164.623 766.371 164.623C766.742 164.623 767.034 164.955 767.021 165.343L765.681 212.149C765.589 215.528 765.482 219.017 766.543 222.23C767.67 225.65 770.15 228.074 772.842 228.42C776.873 228.932 780.401 224.598 781.037 220.402C781.09 220.014 781.435 219.765 781.806 219.821C782.178 219.876 782.416 220.236 782.363 220.624C781.66 225.277 778 229.86 773.505 229.86H773.518Z" fill="black"/>
<path d="M735.275 172.225C735.275 172.225 735.275 172.225 735.261 172.225C735.142 172.225 735.049 172.1 735.049 171.976C737.29 141.137 755.524 127.538 766.198 122.179C766.252 122.151 766.318 122.151 766.371 122.179C790.306 131.194 793.303 154.001 795.491 170.66C795.504 170.785 795.425 170.91 795.306 170.923C795.186 170.937 795.067 170.854 795.054 170.73C792.892 154.209 789.922 131.596 766.318 122.65C755.723 127.995 737.728 141.497 735.5 172.017C735.5 172.142 735.394 172.239 735.275 172.239V172.225Z" fill="black"/>
<path d="M755.961 172.351C755.961 172.351 755.961 172.351 755.948 172.351C755.828 172.351 755.736 172.226 755.749 172.101C756.982 155.927 758.374 137.606 765.986 122.208C766.026 122.125 766.105 122.083 766.185 122.083C766.278 122.083 766.344 122.125 766.384 122.208C774.46 137.454 776.024 155.567 777.417 171.561C777.417 171.686 777.337 171.797 777.218 171.811C777.098 171.811 776.979 171.728 776.979 171.603C775.613 155.803 774.062 137.897 766.211 122.817C758.812 138.05 757.433 156.149 756.213 172.143C756.213 172.268 756.107 172.365 755.988 172.365L755.961 172.351Z" fill="black"/>
<path d="M723.698 162.932C723.698 162.932 723.672 162.932 723.658 162.932C723.539 162.918 723.446 162.794 723.473 162.669C723.937 159.429 724.958 156.354 726.51 153.502C726.576 153.391 726.708 153.349 726.815 153.419C726.921 153.488 726.96 153.626 726.894 153.737C725.369 156.534 724.361 159.553 723.91 162.738C723.897 162.849 723.804 162.932 723.685 162.932H723.698Z" fill="black"/>
<path d="M728.445 150.026C728.445 150.026 728.366 150.026 728.339 149.998C728.233 149.943 728.193 149.791 728.247 149.68L729.374 147.533C729.44 147.423 729.573 147.381 729.679 147.437C729.785 147.506 729.824 147.644 729.771 147.755L728.644 149.901C728.605 149.985 728.525 150.026 728.445 150.026Z" fill="black"/>
<path d="M799.735 388.499C799.377 388.499 799.072 388.195 799.059 387.821C799.059 387.433 799.337 387.115 799.708 387.101L815.382 386.685C815.754 386.658 816.059 386.976 816.072 387.364C816.072 387.752 815.794 388.07 815.422 388.084L799.748 388.499H799.735Z" fill="black"/>
<path d="M807.771 396.532C807.413 396.532 807.108 396.227 807.095 395.853L806.697 379.361C806.697 378.973 806.975 378.654 807.347 378.641C807.731 378.641 808.023 378.931 808.036 379.319L808.434 395.812C808.434 396.2 808.155 396.518 807.784 396.532H807.771Z" fill="black"/>
<path d="M243.014 403.925C243.014 403.925 242.961 403.925 242.934 403.925C241.065 403.69 239.275 403.136 237.59 402.277C237.259 402.111 237.126 401.682 237.285 401.336C237.445 400.989 237.856 400.851 238.187 401.017C239.725 401.806 241.383 402.319 243.094 402.54C243.465 402.582 243.73 402.942 243.677 403.316C243.637 403.676 243.346 403.939 243.014 403.939V403.925ZM248.358 403.69C248.053 403.69 247.775 403.468 247.708 403.136C247.629 402.762 247.867 402.388 248.225 402.305C249.91 401.931 251.514 401.28 252.986 400.352C253.304 400.158 253.715 400.255 253.914 400.588C254.1 400.92 254.007 401.349 253.689 401.557C252.084 402.568 250.347 403.288 248.504 403.69C248.464 403.69 248.411 403.703 248.371 403.703L248.358 403.69ZM233.559 399.064C233.387 399.064 233.214 398.995 233.082 398.857C231.756 397.444 230.695 395.824 229.939 394.052C229.793 393.691 229.939 393.29 230.271 393.124C230.602 392.958 231 393.124 231.159 393.47C231.862 395.09 232.83 396.572 234.037 397.874C234.302 398.151 234.289 398.594 234.037 398.871C233.904 399.009 233.732 399.064 233.572 399.064H233.559ZM257.375 397.984C257.229 397.984 257.07 397.929 256.951 397.832C256.659 397.583 256.619 397.14 256.858 396.849C257.959 395.45 258.794 393.885 259.351 392.196C259.47 391.836 259.855 391.628 260.2 391.767C260.545 391.891 260.743 392.293 260.611 392.653C260.001 394.495 259.086 396.212 257.892 397.735C257.76 397.901 257.561 397.998 257.375 397.998V397.984ZM229.263 389.039C228.905 389.039 228.613 388.748 228.6 388.374C228.586 388.042 228.573 387.709 228.573 387.377C228.573 385.411 228.905 383.472 229.568 381.644C229.7 381.284 230.085 381.104 230.43 381.242C230.774 381.381 230.947 381.782 230.814 382.142C230.204 383.818 229.899 385.577 229.899 387.377C229.899 387.682 229.899 387.986 229.926 388.291C229.952 388.679 229.661 389.011 229.303 389.039C229.289 389.039 229.276 389.039 229.263 389.039ZM260.77 387.598C260.412 387.598 260.107 387.294 260.094 386.92C260.041 385.12 259.683 383.375 259.033 381.713C258.887 381.353 259.059 380.952 259.391 380.799C259.736 380.647 260.12 380.827 260.266 381.173C260.982 382.987 261.38 384.912 261.433 386.878C261.433 387.266 261.155 387.585 260.783 387.598C260.783 387.598 260.77 387.598 260.757 387.598H260.77ZM232.936 377.808C232.777 377.808 232.618 377.753 232.498 377.642C232.22 377.393 232.193 376.949 232.432 376.659C233.652 375.191 235.111 373.944 236.755 372.975C237.073 372.781 237.484 372.906 237.67 373.238C237.856 373.571 237.736 374 237.418 374.194C235.906 375.08 234.58 376.216 233.453 377.573C233.321 377.739 233.135 377.808 232.949 377.808H232.936ZM256.765 377.448C256.58 377.448 256.407 377.379 256.275 377.226C255.108 375.911 253.742 374.817 252.217 373.972C251.885 373.792 251.766 373.363 251.938 373.031C252.111 372.684 252.522 372.56 252.84 372.74C254.511 373.654 255.996 374.845 257.256 376.285C257.508 376.576 257.495 377.019 257.216 377.282C257.084 377.406 256.924 377.462 256.765 377.462V377.448ZM242.099 372.38C241.781 372.38 241.502 372.144 241.436 371.798C241.37 371.41 241.608 371.05 241.98 370.981C242.961 370.801 243.982 370.704 244.99 370.704C245.839 370.704 246.7 370.773 247.536 370.898C247.907 370.953 248.159 371.313 248.106 371.701C248.053 372.089 247.708 372.352 247.337 372.297C246.568 372.172 245.772 372.103 244.99 372.117C244.062 372.117 243.12 372.2 242.218 372.38C242.179 372.38 242.139 372.38 242.099 372.38Z" fill="black"/>
<path d="M405.654 71.4961C405.322 71.4961 405.031 71.233 404.991 70.8868C404.951 70.499 405.203 70.1528 405.574 70.0974C407.298 69.8759 408.982 69.4189 410.587 68.7404C410.931 68.588 411.316 68.7681 411.462 69.1281C411.608 69.4881 411.435 69.8897 411.091 70.042C409.38 70.7621 407.577 71.2607 405.733 71.4961C405.707 71.4961 405.68 71.4961 405.654 71.4961ZM400.296 71.4822C400.296 71.4822 400.243 71.4822 400.204 71.4822C398.36 71.233 396.57 70.7344 394.86 70.0005C394.515 69.8482 394.356 69.4466 394.488 69.0866C394.634 68.7265 395.019 68.5603 395.364 68.6988C396.955 69.3912 398.652 69.8482 400.376 70.0974C400.747 70.1528 400.999 70.499 400.959 70.8868C400.92 71.233 400.628 71.4961 400.296 71.4961V71.4822ZM415.493 67.3279C415.294 67.3279 415.095 67.2309 414.963 67.0509C414.737 66.7463 414.79 66.3031 415.095 66.0677C416.488 64.9737 417.721 63.6859 418.768 62.2596C418.994 61.9549 419.418 61.8995 419.71 62.1349C420.002 62.3703 420.055 62.8135 419.829 63.1181C418.702 64.6414 417.389 66.0123 415.904 67.1894C415.785 67.2863 415.639 67.3279 415.493 67.3279ZM390.484 67.2586C390.338 67.2586 390.192 67.2171 390.073 67.1201C388.601 65.9431 387.288 64.5583 386.174 63.0212C385.949 62.7165 386.015 62.2734 386.307 62.038C386.598 61.8026 387.023 61.8718 387.248 62.1765C388.296 63.6166 389.516 64.9045 390.895 66.0123C391.186 66.2477 391.239 66.6909 391.014 66.9955C390.881 67.1755 390.683 67.2725 390.484 67.2725V67.2586ZM421.938 58.5345C421.858 58.5345 421.765 58.5206 421.686 58.4791C421.341 58.3406 421.169 57.9252 421.315 57.5651C421.951 55.8895 422.362 54.117 422.521 52.3168C422.561 51.9291 422.879 51.6521 423.251 51.6798C423.622 51.7213 423.887 52.0537 423.861 52.4414C423.688 54.3663 423.251 56.2634 422.561 58.0637C422.455 58.3406 422.203 58.5068 421.938 58.5068V58.5345ZM384.105 58.4237C383.84 58.4237 383.588 58.2575 383.482 57.9806C382.806 56.1804 382.381 54.2832 382.222 52.3445C382.196 51.9568 382.461 51.6244 382.832 51.5829C383.19 51.5413 383.522 51.8321 383.562 52.2199C383.721 54.0201 384.105 55.7926 384.742 57.4682C384.874 57.8283 384.702 58.2298 384.357 58.3822C384.278 58.4099 384.198 58.4237 384.118 58.4237H384.105ZM382.806 51.1951C382.434 51.1951 382.129 50.8766 382.129 50.4889C382.129 48.5363 382.395 46.6115 382.899 44.7559C383.005 44.382 383.376 44.1743 383.734 44.2712C384.092 44.382 384.291 44.7697 384.198 45.1436C383.721 46.8746 383.482 48.6748 383.482 50.4889C383.482 50.8766 383.177 51.1951 382.806 51.1951ZM422.946 47.5255C422.627 47.5255 422.349 47.29 422.283 46.9577C421.964 45.1852 421.407 43.468 420.625 41.8478C420.453 41.5016 420.598 41.0862 420.917 40.9062C421.248 40.7262 421.646 40.8785 421.818 41.2108C422.654 42.9418 423.251 44.7974 423.595 46.6946C423.662 47.0685 423.423 47.4424 423.065 47.5116C423.025 47.5116 422.985 47.5116 422.946 47.5116V47.5255ZM385.736 40.56C385.617 40.56 385.484 40.5184 385.378 40.4492C385.06 40.2415 384.967 39.8122 385.166 39.4799C386.147 37.8458 387.341 36.3502 388.72 35.0486C388.998 34.7854 389.423 34.8131 389.675 35.0901C389.927 35.3809 389.9 35.824 389.635 36.0871C388.349 37.3196 387.235 38.7044 386.32 40.2276C386.187 40.4353 385.975 40.56 385.75 40.56H385.736ZM418.198 37.6243C418.013 37.6243 417.84 37.5412 417.708 37.4027C416.541 36.0733 415.215 34.8962 413.743 33.9269C413.424 33.7192 413.332 33.2899 413.531 32.9575C413.729 32.6252 414.141 32.5282 414.459 32.736C416.024 33.7746 417.456 35.0208 418.702 36.4472C418.954 36.738 418.928 37.1811 418.662 37.4442C418.53 37.5689 418.371 37.6243 418.212 37.6243H418.198ZM393.573 33.0822C393.335 33.0822 393.096 32.9437 392.977 32.7083C392.804 32.3621 392.937 31.9466 393.268 31.7666C394.913 30.8803 396.663 30.2295 398.48 29.8141C398.851 29.731 399.196 29.9664 399.275 30.3541C399.355 30.728 399.13 31.1019 398.758 31.185C397.061 31.5727 395.417 32.182 393.878 33.0129C393.786 33.0683 393.679 33.096 393.573 33.096V33.0822ZM409.234 31.6835C409.234 31.6835 409.102 31.6835 409.035 31.6558C407.391 31.1158 405.667 30.8111 403.93 30.728C403.559 30.7142 403.267 30.3818 403.293 29.9941C403.307 29.6063 403.612 29.3017 403.996 29.3294C405.853 29.4125 407.683 29.7448 409.446 30.3126C409.804 30.4234 410.003 30.8249 409.884 31.185C409.791 31.4896 409.526 31.6835 409.247 31.6835H409.234Z" fill="black"/>
<path d="M206.954 59.1905C206.954 59.1905 206.947 59.1785 206.94 59.1665L193.513 32.2759C193.339 31.9332 193.468 31.5032 193.803 31.3333C194.131 31.1514 194.543 31.2869 194.706 31.6365L208.133 58.5271C208.308 58.8699 208.178 59.2999 207.843 59.4698C207.526 59.6447 207.133 59.5143 206.954 59.1905Z" fill="black"/>
<path d="M183.185 49.1836C183.079 48.9917 183.058 48.7325 183.171 48.5207C183.335 48.1815 183.743 48.0319 184.074 48.2159C188.907 50.7544 193.298 54.0713 197.135 58.0745C197.394 58.3498 197.396 58.7964 197.132 59.0673C196.869 59.3382 196.441 59.3401 196.182 59.0648C192.464 55.1659 188.185 51.9412 183.481 49.4691C183.352 49.4027 183.269 49.3086 183.203 49.1887L183.185 49.1836Z" fill="black"/>
<path d="M211.963 49.8051C211.917 49.7212 211.893 49.6234 211.881 49.5186C211.533 45.4272 211.502 41.2724 211.796 37.1779C211.827 36.7913 212.143 36.5047 212.513 36.5373C212.884 36.5699 213.158 36.9002 213.127 37.2868C212.841 41.3125 212.874 45.3866 213.211 49.4042C213.239 49.7872 212.968 50.1268 212.601 50.156C212.335 50.1727 212.089 50.033 211.963 49.8051Z" fill="black"/>
<path d="M247.054 137.51L294.209 90.6106L288.194 78.1514L180.679 138.097L186.159 149.2L247.054 137.51Z" fill="white"/>
<path d="M185.574 149.553L185.56 149.529L180.092 138.419C179.917 138.076 180.054 137.658 180.371 137.483L287.885 77.5379C288.046 77.4409 288.223 77.4298 288.405 77.4805C288.574 77.5381 288.718 77.6594 288.799 77.8342L294.821 90.3054C294.956 90.5761 294.898 90.9148 294.678 91.1271L247.517 138.014C247.415 138.108 247.3 138.177 247.17 138.191L186.264 149.888C185.988 149.943 185.701 149.812 185.555 149.548L185.574 149.553ZM181.587 138.381L186.524 148.42L246.737 136.853L293.393 90.4632L287.91 79.1059L181.587 138.381Z" fill="black"/>
<path d="M224.115 90.2586L238.908 64.3103L227.462 58.3707L215.761 73.8202L197.274 75.0845L196.174 87.8842L224.115 90.2586Z" fill="white"/>
<path d="M195.589 88.2375C195.523 88.1175 195.484 87.9648 195.5 87.8274L196.6 75.0276C196.628 74.6908 196.892 74.4199 197.229 74.3926L215.42 73.1469L226.933 57.9387C227.126 57.6785 227.484 57.6064 227.759 57.7442L239.193 63.6907C239.364 63.7792 239.48 63.9333 239.539 64.122C239.597 64.3106 239.567 64.5049 239.475 64.6719L224.682 90.6202C224.547 90.8459 224.299 90.9793 224.042 90.9581L196.102 88.5838C195.923 88.564 195.758 88.4875 195.642 88.3334C195.622 88.2974 195.602 88.2615 195.582 88.2255L195.589 88.2375ZM197.889 75.7533L196.899 87.2558L223.747 89.5373L237.957 64.612L227.662 59.2579L216.305 74.2764C216.189 74.4264 216.016 74.5303 215.821 74.5363L197.908 75.7584L197.889 75.7533Z" fill="black"/>
<path d="M214.207 67.1299C217.517 66.637 220.845 68.6122 223.074 71.314C225.724 74.5291 225.29 73.3838 248.078 112.332C255.378 124.816 270.045 145.363 264.313 165.432C264.046 166.361 263.675 167.352 262.85 167.77C262.127 168.125 261.273 167.937 260.499 167.7C244.958 162.966 238.635 144.744 231.392 129.012C222.995 110.777 216.48 93.758 210.923 80.1905C207.204 71.0803 212.122 67.459 214.202 67.1488L214.207 67.1299Z" fill="white"/>
<path d="M240.297 149.467C237.751 144.862 235.527 139.871 233.33 134.927C232.498 133.062 231.651 131.143 230.796 129.292C224.333 115.247 219.023 102.043 214.337 90.3813C212.924 86.8839 211.606 83.5853 210.326 80.4394C208.135 75.0923 208.913 71.6809 209.938 69.7679C211.033 67.7325 212.841 66.6266 214.125 66.4282C217.335 65.9478 220.956 67.6503 223.593 70.8415L223.97 71.3017C226.293 74.0907 226.989 74.9342 248.662 111.948C249.459 113.306 250.338 114.759 251.264 116.295C258.791 128.691 270.164 147.434 264.965 165.615C264.652 166.683 264.197 167.853 263.14 168.379C262.239 168.826 261.241 168.628 260.316 168.339C251.142 165.539 245.149 158.215 240.302 149.448L240.297 149.467ZM255.446 126.102C253.636 122.828 251.786 119.787 250.131 117.043C249.198 115.494 248.301 114.037 247.515 112.671C225.913 75.7586 225.224 74.927 222.959 72.2151L222.575 71.7428C220.748 69.5184 217.615 67.3138 214.316 67.7997C213.651 67.8973 212.116 68.5829 211.105 70.4392C210.219 72.0768 209.582 75.0512 211.558 79.872C212.838 83.0179 214.175 86.3216 215.576 89.8259C220.256 101.475 225.559 114.668 232.014 128.669C232.876 130.532 233.723 132.452 234.555 134.317C240.81 148.374 247.284 162.908 260.701 166.987C261.378 167.186 262.076 167.341 262.574 167.105C263.163 166.814 263.465 165.976 263.682 165.205C267.568 151.573 261.73 137.44 255.458 126.095L255.446 126.102Z" fill="black"/>
<path d="M260.05 143.761C262.398 148.757 259.039 152.541 256.513 153.953C253.611 155.574 250.304 154.466 248.101 152.42C247.379 151.752 246.726 150.931 246.526 149.932C246.333 148.945 246.736 147.791 247.631 147.443C248.514 147.102 249.466 147.632 250.396 147.791C251.704 148.025 253.91 147.223 254.746 146.16C255.421 145.304 255.705 143.214 256.861 142.646C258.658 141.77 259.685 142.99 260.043 143.749L260.05 143.761Z" fill="black"/>
<path d="M277.29 89.5865C277.23 89.4785 277.269 89.3272 277.379 89.2769L286.084 84.4442C286.187 84.3819 286.339 84.4344 286.38 84.5373C286.44 84.6452 286.401 84.7966 286.291 84.8469L277.586 89.6796C277.483 89.7419 277.349 89.6944 277.29 89.5865Z" fill="black"/>
<path d="M284.321 90.6715C284.261 90.5635 284.3 90.4122 284.404 90.3499L288.067 88.1411C288.17 88.0788 288.315 88.1194 288.382 88.2393C288.441 88.3472 288.402 88.4986 288.299 88.5609L284.636 90.7696C284.532 90.8319 284.387 90.7914 284.321 90.6715Z" fill="black"/>
<path d="M185.653 139.784L185.64 139.76C185.592 139.645 185.649 139.498 185.766 139.46C188.319 138.4 190.84 137.2 193.283 135.887C193.387 135.824 193.532 135.865 193.587 135.992C193.646 136.1 193.601 136.239 193.486 136.308C191.031 137.629 188.492 138.824 185.927 139.89C185.828 139.934 185.713 139.891 185.653 139.784Z" fill="black"/>
<path d="M490.296 61.2882C492.618 61.2882 494.5 59.3415 494.5 56.94C494.5 54.5386 492.618 52.5918 490.296 52.5918C487.975 52.5918 486.093 54.5386 486.093 56.94C486.093 59.3415 487.975 61.2882 490.296 61.2882Z" fill="black"/>
<path d="M273.923 45.7376C273.923 42.1787 276.681 39.2983 280.076 39.2983C283.47 39.2983 286.229 42.1787 286.229 45.7376C286.229 49.2965 283.47 52.1768 280.076 52.1768C276.681 52.1768 273.923 49.2965 273.923 45.7376Z" fill="black"/>
<path d="M190.529 356.386C190.529 356.386 167.972 361.884 163.623 360.928C157.39 359.557 152.471 358.173 146.265 360.291C143.069 361.385 139.024 364.03 136.134 365.886C130.365 369.569 130.736 368.96 126.904 370.373C122.144 368.988 116.614 367.257 112.211 364.529C106.536 361.039 100.847 356.912 99.163 355.888C94.7207 353.146 93.514 355.708 91.6707 357.286C89.3236 355.652 83.542 355.611 84.0591 360.43C84.2183 361.884 82.2822 361.233 82.1098 364.21C81.8181 369.195 92.5459 380.855 101.285 388.056C109.559 392.391 123.324 400.132 135.139 402.873C140.602 404.134 162.695 393.817 176.592 388.693C184.734 385.688 182.639 387.862 188.725 386.699C191.576 383.763 190.529 356.358 190.529 356.358V356.386Z" fill="white"/>
<path d="M136.187 403.69C135.736 403.69 135.338 403.649 134.993 403.579C124.411 401.128 112.092 394.592 103.937 390.272C102.889 389.718 101.895 389.191 100.98 388.707C100.94 388.679 100.9 388.665 100.86 388.624C92.5989 381.811 81.1152 369.721 81.4335 364.182C81.5528 362.133 82.4413 361.468 83.0247 361.025C83.4226 360.734 83.4093 360.706 83.396 360.513C83.1441 358.172 84.2049 356.968 85.1465 356.372C86.9897 355.195 89.8274 355.458 91.6044 356.427C91.7635 356.275 91.9094 356.123 92.0685 355.97C93.5272 354.516 95.3438 352.716 99.5077 355.278C100.118 355.652 101.218 356.414 102.624 357.369C105.263 359.183 108.883 361.662 112.543 363.919C116.667 366.453 121.852 368.17 126.864 369.624C127.607 369.348 128.177 369.167 128.681 368.987C130.591 368.35 131.307 368.101 135.762 365.262L136.279 364.93C139.091 363.13 142.949 360.665 146.039 359.599C151.94 357.577 156.767 358.657 162.35 359.903C162.814 360 163.278 360.111 163.742 360.208C167.057 360.928 182.599 357.563 190.356 355.666C190.555 355.624 190.754 355.666 190.913 355.79C191.072 355.915 191.165 356.109 191.178 356.317C191.284 359.155 192.16 384.123 189.176 387.184C189.083 387.28 188.964 387.35 188.831 387.377C186.325 387.862 185.158 387.793 184.124 387.737C182.692 387.654 181.564 387.585 176.791 389.344C172.932 390.77 168.516 392.556 163.848 394.454C152.696 398.982 141.186 403.649 136.173 403.649L136.187 403.69ZM101.656 387.474C102.558 387.945 103.526 388.458 104.56 389.011C112.649 393.304 124.875 399.799 135.298 402.208C139.038 403.081 151.98 397.819 163.397 393.18C168.078 391.282 172.507 389.482 176.379 388.056C181.405 386.2 182.652 386.27 184.23 386.366C185.158 386.422 186.192 386.477 188.394 386.076C190.157 383.583 190.263 367.561 189.905 357.258C185.795 358.242 167.521 362.493 163.503 361.607C163.026 361.496 162.562 361.399 162.098 361.302C156.475 360.042 152.046 359.059 146.49 360.956C143.546 361.967 139.78 364.376 137.022 366.149L136.505 366.481C131.917 369.417 131.108 369.68 129.132 370.345C128.588 370.525 127.965 370.732 127.143 371.037C127.01 371.078 126.878 371.092 126.745 371.051C121.573 369.555 116.203 367.797 111.893 365.138C108.207 362.867 104.573 360.374 101.908 358.56C100.516 357.605 99.4149 356.857 98.8446 356.497C95.556 354.475 94.4289 355.583 93.01 356.995C92.7315 357.272 92.4265 357.577 92.1083 357.84C91.8828 358.034 91.5513 358.048 91.3126 357.881C89.9733 356.954 87.361 356.621 85.8493 357.577C84.9741 358.131 84.6027 359.072 84.7354 360.36C84.8414 361.385 84.258 361.842 83.8204 362.16C83.3297 362.534 82.8656 362.881 82.7861 364.265C82.5341 368.627 92.3337 379.775 101.656 387.474Z" fill="black"/>
<path d="M122.077 384.221C119.12 384.221 116.733 383.417 114.93 380.966C113.007 378.349 114.346 376.023 115.911 374.098C117.078 372.658 121.003 371.411 126.002 369.916C127.753 369.389 129.251 368.946 129.954 368.628C130.299 368.476 130.683 368.628 130.829 369.002C130.975 369.362 130.829 369.763 130.471 369.916C129.689 370.262 128.137 370.733 126.36 371.259C122.992 372.256 117.913 373.779 116.919 374.998C115.102 377.241 114.85 378.584 115.977 380.108C118.762 383.874 123.337 383.002 130.286 381.686C134.595 380.869 139.953 379.845 146.092 379.845C146.464 379.845 146.769 380.163 146.769 380.551C146.769 380.939 146.464 381.257 146.092 381.257C140.085 381.257 135.006 382.226 130.538 383.085C127.315 383.694 124.491 384.234 122.064 384.234L122.077 384.221Z" fill="black"/>
<path d="M117.052 382.821C116.959 382.821 116.853 382.794 116.76 382.752C108.631 378.598 101.232 373.626 95.3572 368.35C95.0256 368.06 94.6411 367.686 94.2167 367.27C91.7768 364.93 87.2549 360.596 84.0724 361.911C83.7276 362.05 83.343 361.884 83.1972 361.523C83.0646 361.163 83.2237 360.762 83.5685 360.61C87.5334 358.975 92.2807 363.531 95.1184 366.246C95.5428 366.647 95.9141 367.007 96.2324 367.298C102.027 372.491 109.334 377.407 117.357 381.506C117.688 381.672 117.834 382.101 117.661 382.448C117.542 382.697 117.303 382.835 117.052 382.835V382.821Z" fill="black"/>
<path d="M117.051 374.555C117.051 374.555 116.945 374.555 116.892 374.541C110.421 372.907 103.658 367.437 98.2346 363.034C95.4631 360.79 93.0762 358.852 91.2197 357.813C90.8882 357.633 90.7689 357.204 90.9545 356.858C91.1269 356.511 91.538 356.387 91.8695 356.581C93.8188 357.675 96.2455 359.655 99.07 361.926C104.401 366.247 111.044 371.619 117.224 373.184C117.582 373.281 117.807 373.655 117.714 374.029C117.635 374.347 117.37 374.569 117.065 374.569L117.051 374.555Z" fill="black"/>
<path d="M184.774 382.033C184.774 382.033 184.747 382.033 184.734 382.033C184.614 382.005 184.535 381.881 184.561 381.756C185.424 377.242 185.716 372.616 185.464 368.019C185.464 367.894 185.556 367.784 185.676 367.77C185.795 367.756 185.901 367.867 185.915 367.991C186.18 372.63 185.875 377.297 185.012 381.853C184.986 381.964 184.893 382.047 184.787 382.047L184.774 382.033Z" fill="black"/>
<path d="M180.146 382.351C180.146 382.351 180.092 382.351 180.066 382.351C179.946 382.309 179.893 382.171 179.933 382.06C180.451 380.482 180.716 378.834 180.716 377.172C180.716 377.047 180.822 376.937 180.942 376.937C181.061 376.937 181.167 377.047 181.167 377.172C181.167 378.889 180.889 380.592 180.358 382.213C180.331 382.309 180.238 382.365 180.146 382.365V382.351Z" fill="black"/>
<path d="M117.303 340.282L157.695 339.95V308.834H170.584L137.088 274.187L102.239 308.529H117.144L117.303 340.282Z" fill="white"/>
<path d="M117.303 340.976C117.131 340.976 116.958 340.907 116.826 340.769C116.693 340.644 116.627 340.464 116.627 340.27L116.468 309.223H102.226C101.947 309.223 101.709 309.043 101.603 308.78C101.497 308.517 101.563 308.212 101.762 308.005L136.611 273.662C136.876 273.399 137.287 273.413 137.539 273.662L171.035 308.309C171.234 308.503 171.287 308.808 171.181 309.071C171.075 309.334 170.836 309.5 170.558 309.5H158.345V339.91C158.345 340.298 158.053 340.602 157.682 340.616L117.29 340.949L117.303 340.976ZM103.923 307.825H117.144C117.515 307.825 117.807 308.143 117.82 308.517L117.98 339.564L157.019 339.245V308.835C157.019 308.448 157.324 308.129 157.695 308.129H168.953L137.075 275.157L103.923 307.825Z" fill="black"/>
<path d="M142.91 312.948H131.519V325.674H142.91V312.948Z" fill="#00812A"/>
<path d="M142.91 326.365H131.519C131.148 326.365 130.843 326.047 130.843 325.659V312.933C130.843 312.545 131.148 312.227 131.519 312.227H142.91C143.281 312.227 143.586 312.545 143.586 312.933V325.659C143.586 326.047 143.281 326.365 142.91 326.365ZM132.195 324.967H142.247V313.653H132.195V324.967Z" fill="black"/>
</svg>
